<?xml version="1.0" standalone="no"?>
<!DOCTYPE svg PUBLIC "-//W3C//DTD SVG 1.1//EN" "http://www.w3.org/Graphics/SVG/1.1/DTD/svg11.dtd" >
<svg>
<metadata>
Created by FontForge 20120731 at Wed Jun 15 09:14:14 2016
 By www-data
Copyright (c) 2013, Natanael Gama (www.ndiscovered.com . info(at)ndiscovered.com), with Reserved Font Name Exo. This Font Software is licensed under the SIL Open Font License, Version 1.1.
</metadata>
<defs>
<font id="Exo2-ExtraBold" horiz-adv-x="580" >
  <font-face 
    font-family="Exo 2 Extra Bold"
    font-weight="800"
    font-stretch="normal"
    units-per-em="1000"
    panose-1="0 0 9 0 0 0 0 0 0 0"
    ascent="800"
    descent="-200"
    x-height="497"
    cap-height="690"
    bbox="-174 -301 1311 958"
    underline-thickness="50"
    underline-position="-50"
    unicode-range="U+0020-FB02"
  />
<missing-glyph horiz-adv-x="600" 
 />
    <glyph glyph-name=".notdef" horiz-adv-x="600" 
 />
    <glyph glyph-name=".null" horiz-adv-x="0" 
 />
    <glyph glyph-name="nonmarkingreturn" horiz-adv-x="333" 
 />
    <glyph glyph-name="space" unicode=" " horiz-adv-x="213" 
 />
    <glyph glyph-name="exclam" unicode="!" horiz-adv-x="316" 
d="M248 445l-19 -222h-143l-19 222v250h181v-250zM137 170h42q35 0 48.5 -13.5t13.5 -49.5v-44q0 -36 -13.5 -49.5t-48.5 -13.5h-42q-35 0 -48.5 13.5t-13.5 49.5v44q0 36 13.5 49.5t48.5 13.5z" />
    <glyph glyph-name="quotedbl" unicode="&#x22;" horiz-adv-x="385" 
d="M160 465h-107l-10 225h128zM331 465h-106l-11 225h128z" />
    <glyph glyph-name="numbersign" unicode="#" horiz-adv-x="726" 
d="M569 414l-21 -118h110l-20 -107h-108l-33 -189h-135l33 189h-116l-33 -189h-135l33 189h-118l21 107h115l21 118h-115l21 107h113l29 169h135l-29 -169h116l29 169h135l-29 -169h112l-20 -107h-111zM434 414h-116l-21 -118h116z" />
    <glyph glyph-name="dollar" unicode="$" horiz-adv-x="587" 
d="M557 192q0 -110 -50 -155t-179 -49l-10 -102h-135l11 105q-73 7 -150 26l11 134q198 -5 236 -5q48 0 64.5 8.5t16.5 33.5q0 24 -11.5 35t-43.5 23l-134 55q-79 33 -112 80.5t-33 124.5q0 111 53 152.5t186 44.5l11 88h135l-12 -93q73 -9 126 -26l-12 -123q-171 3 -226 3
q-46 0 -62 -8t-16 -35q0 -23 13.5 -35.5t52.5 -25.5l123 -49q81 -33 114 -81t33 -126z" />
    <glyph glyph-name="percent" unicode="%" horiz-adv-x="915" 
d="M204 704q100 0 139 -45t39 -161t-39 -161t-139 -45q-99 0 -137.5 45t-38.5 161t38.5 161t137.5 45zM315 0h-112l395 690h112zM204 607q-27 0 -35 -19.5t-8 -89.5q0 -71 8 -90t35 -19q28 0 36 19t8 90t-8 90t-36 19zM710 399q100 0 139 -45t39 -161t-39 -161t-139 -45
q-99 0 -137.5 45t-38.5 161t38.5 161t137.5 45zM710 301q-28 0 -36 -18.5t-7 -89.5q-1 -71 7 -90t36 -19q27 0 35.5 19.5t8.5 89.5t-8.5 89t-35.5 19z" />
    <glyph glyph-name="ampersand" unicode="&#x26;" horiz-adv-x="763" 
d="M717 129l20 -119q-52 -23 -140 -23q-97 0 -131 67q-40 -36 -87.5 -51.5t-123.5 -15.5q-114 0 -163.5 43t-49.5 146q0 82 32 127t105 52v6q-61 6 -88 44t-27 115q0 49 10 81.5t28.5 53t53.5 31t75.5 14t105.5 3.5q100 0 165 -13l-22 -124q-114 3 -148 3q-48 0 -63.5 -14.5
t-15.5 -63.5q0 -46 14.5 -62t57.5 -16h132l11 97h154v-97h96v-118h-96v-123q0 -24 9 -33.5t31 -9.5h55zM241 214q0 -50 13 -66.5t57 -15.5q80 2 140 28v135h-137q-45 0 -59 -16t-14 -65z" />
    <glyph glyph-name="quotesingle" unicode="'" horiz-adv-x="214" 
d="M160 465h-107l-10 225h128z" />
    <glyph glyph-name="parenleft" unicode="(" horiz-adv-x="369" 
d="M336 790l21 -77q-150 -64 -150 -400q0 -331 150 -401l-21 -77q-157 45 -231 160.5t-74 316.5q0 202 74 318t231 160z" />
    <glyph glyph-name="parenright" unicode=")" horiz-adv-x="369" 
d="M12 713l21 77q157 -44 231 -160t74 -318q0 -201 -74 -316.5t-231 -160.5l-21 77q150 70 150 401q0 336 -150 400z" />
    <glyph glyph-name="asterisk" unicode="*" horiz-adv-x="454" 
d="M262 520l110 -129l-78 -58l-67 120l-66 -120l-79 58l111 128l-15 173h98zM424 524l-121 -26l-22 26l-1 43l114 51zM174 567v-43l-22 -26l-122 26l30 93z" />
    <glyph glyph-name="plus" unicode="+" horiz-adv-x="530" 
d="M497 235h-165v-162h-133v162h-166v134h165v163h134v-163h165v-134z" />
    <glyph glyph-name="comma" unicode="," horiz-adv-x="249" 
d="M105 170h38q35 0 48.5 -13.5t14.5 -49.5v-64q0 -64 -14.5 -108.5t-45.5 -89.5l-70 22q15 52 17 133q-51 0 -53 56l2 51q2 36 15 49.5t48 13.5z" />
    <glyph glyph-name="hyphen" unicode="-" horiz-adv-x="395" 
d="M344 201h-294v110h294v-110z" />
    <glyph glyph-name="period" unicode="." horiz-adv-x="253" 
d="M105 170h43q36 0 49.5 -13.5t13.5 -49.5v-44q0 -36 -13.5 -49.5t-49.5 -13.5h-43q-36 0 -49.5 13.5t-13.5 49.5v44q0 36 13.5 49.5t49.5 13.5z" />
    <glyph glyph-name="slash" unicode="/" horiz-adv-x="571" 
d="M161 -76h-144l393 766h144z" />
    <glyph glyph-name="zero" unicode="0" horiz-adv-x="645" 
d="M286 133q7 -2 16 -3t19 -1q41 0 60.5 16t28.5 61.5t9 138.5q0 26 -1 47zM359 557q-15 4 -38 4q-39 0 -58 -16t-28 -61.5t-9 -138.5q0 -26 1 -47zM322 704q158 0 220.5 -79t62.5 -280t-62.5 -280t-220.5 -79q-157 0 -219 79t-62 280t62 280t219 79z" />
    <glyph glyph-name="one" unicode="1" horiz-adv-x="449" 
d="M368 0h-187v457q0 49 7 82l-160 -36l-22 119l175 68h187v-690z" />
    <glyph glyph-name="two" unicode="2" horiz-adv-x="590" 
d="M291 702q121 0 182.5 -36t61.5 -131q0 -59 -21 -102.5t-87 -112.5l-170 -167q36 9 97 9h199v-162h-514v98q0 46 26 75l155 160q124 126 123 180q0 20 -16.5 26t-59.5 6q-121 0 -216 -5l-7 139q116 23 247 23z" />
    <glyph glyph-name="three" unicode="3" horiz-adv-x="572" 
d="M279 704q129 0 181 -35t52 -126q0 -80 -23.5 -122t-86.5 -52v-4q71 -11 99 -51.5t29 -121.5q2 -110 -55 -158t-193 -48q-113 0 -248 19l6 135q104 -6 191 -6q68 0 91 16t23 67q0 46 -18 64t-72 17l-132 -1v120h132q52 0 67 17.5t14 57.5q0 41 -18 53t-72 12
q-90 0 -192 -2l-6 130q114 19 231 19z" />
    <glyph glyph-name="four" unicode="4" horiz-adv-x="649" 
d="M625 270v-107l-80 -18h-2v-145h-171v145h-276q-44 0 -66.5 33.5t-6.5 73.5l172 438h175l-151 -391q-6 -14 -0.5 -21.5t18.5 -7.5h135v177l30 108h141v-285h82z" />
    <glyph glyph-name="five" unicode="5" horiz-adv-x="560" 
d="M499 552h-283l-7 -96l115 -15q204 -23 202 -228q0 -225 -251 -225q-110 0 -245 20l17 141q106 -8 179 -8q66 0 89 17t26 61q2 47 -24 63.5t-100 22.5l-107 13q-25 3 -40 20.5t-14 41.5l18 310h432z" />
    <glyph glyph-name="six" unicode="6" horiz-adv-x="599" 
d="M365 455q115 0 158.5 -48.5t43.5 -165.5q0 -68 -10.5 -112.5t-38.5 -78t-79 -48t-129 -14.5q-106 0 -162 29.5t-81 104t-25 216.5q0 94 12.5 159t35 105t61.5 62.5t83 30t109 7.5q107 0 178 -20l-8 -116q-57 1 -170 1q-68 0 -92 -28.5t-28 -124.5q52 41 142 41zM311 124
q53 0 66.5 22.5t13.5 90.5q0 56 -16 73.5t-65 17.5q-43 0 -88 -26q1 -117 15.5 -147.5t73.5 -30.5z" />
    <glyph glyph-name="seven" unicode="7" horiz-adv-x="535" 
d="M20 690h430q41 0 62 -27t8 -65l-208 -598h-184l166 466q19 50 34 73h-300z" />
    <glyph glyph-name="eight" unicode="8" horiz-adv-x="630" 
d="M315 703q104 0 159.5 -20.5t75 -58t19.5 -106.5q0 -62 -26 -107t-79 -51v-4q122 -11 122 -184q0 -104 -55.5 -144.5t-215.5 -41.5q-157 -1 -214 40.5t-57 145.5q0 173 123 184v4q-53 6 -79 51t-26 107q0 102 51.5 143.5t201.5 41.5zM316 577q-53 0 -69.5 -16t-16.5 -67
q0 -46 17.5 -61t70.5 -15q52 0 67.5 15t15.5 61q0 51 -16.5 67t-68.5 16zM317 298q-59 0 -78 -18t-19 -72q0 -52 19 -69t77 -17q57 0 75 17t18 69q0 55 -17.5 72.5t-74.5 17.5z" />
    <glyph glyph-name="nine" unicode="9" horiz-adv-x="599" 
d="M291 702q84 0 133.5 -14.5t80 -56.5t40.5 -106t10 -173q0 -94 -11 -157.5t-31 -105t-58.5 -63.5t-84 -30t-116.5 -8q-112 0 -192 20l9 117q61 -1 183 -1q67 0 91.5 31.5t28.5 121.5q-50 -42 -142 -42q-109 0 -153.5 55.5t-44.5 158.5q-1 137 54.5 195t202.5 58zM210 453
q-1 -54 15 -72.5t64 -18.5q39 0 87 26q-1 117 -15 148t-72 31q-51 0 -65.5 -24t-13.5 -90z" />
    <glyph glyph-name="colon" unicode=":" horiz-adv-x="269" 
d="M106 457h43q36 0 49.5 -13.5t13.5 -49.5v-44q0 -36 -13.5 -49.5t-49.5 -13.5h-43q-36 0 -49.5 13.5t-13.5 49.5v44q0 36 13.5 49.5t49.5 13.5zM106 171h43q36 0 49.5 -14t13.5 -49v-44q0 -36 -13.5 -49.5t-49.5 -13.5h-43q-36 0 -49.5 13.5t-13.5 49.5v44q0 35 13.5 49
t49.5 14z" />
    <glyph glyph-name="semicolon" unicode=";" horiz-adv-x="269" 
d="M114 457h43q36 0 49.5 -13.5t13.5 -49.5v-44q0 -36 -13.5 -49.5t-49.5 -13.5h-43q-36 0 -49.5 13.5t-13.5 49.5v44q0 36 13.5 49.5t49.5 13.5zM114 170h39q35 0 48 -13.5t14 -49.5v-64q0 -64 -14.5 -108.5t-45.5 -89.5l-70 22q15 52 17 133q-51 0 -53 56l3 51
q1 36 14 49.5t48 13.5z" />
    <glyph glyph-name="less" unicode="&#x3c;" horiz-adv-x="511" 
d="M461 392l-276 -90l276 -89v-142l-429 161v140l429 161v-141z" />
    <glyph glyph-name="equal" unicode="=" horiz-adv-x="575" 
d="M523 343h-471v128h471v-128zM523 129h-471v127h471v-127z" />
    <glyph glyph-name="greater" unicode="&#x3e;" horiz-adv-x="509" 
d="M476 372v-140l-426 -161v142l273 89l-273 90v141z" />
    <glyph glyph-name="question" unicode="?" horiz-adv-x="527" 
d="M281 712q112 0 166.5 -38t54.5 -117q0 -40 -17 -74t-42 -60t-51 -52t-46.5 -64t-24.5 -84h-144q-3 58 16 109.5t43.5 80.5t47.5 58.5t25 48.5q4 25 -13 36t-59 11q-67 0 -205 -2l-5 121q7 1 36 7t36 7t32 4.5t42 4.5t46 2t62 1zM228 170h41q36 0 49.5 -13.5t13.5 -49.5
v-44q0 -36 -13.5 -49.5t-49.5 -13.5h-41q-36 0 -49.5 13.5t-13.5 49.5v44q0 36 13.5 49.5t49.5 13.5z" />
    <glyph glyph-name="at" unicode="@" horiz-adv-x="781" 
d="M387 610h158q94 0 140.5 -41t46.5 -138v-294h-133l-15 65q-65 -77 -164 -77q-65 0 -107 33t-42 94v46q0 53 36.5 83.5t101.5 30.5h156v19q0 29 -12.5 40t-45.5 11h-120q-35 0 -52 -0.5t-39.5 -4t-31.5 -8t-21.5 -16t-15.5 -25t-8 -38t-5.5 -52t-0.5 -69.5q0 -57 1.5 -90
t12.5 -59.5t19 -37.5t38.5 -18t53.5 -7.5t79 -0.5h18h297v-115q-184 -15 -296 -15q-93 0 -151 3.5t-105 18.5t-70.5 36t-39 63.5t-19.5 91.5t-4 130q0 80 3.5 129t17 91t34 62.5t61.5 35.5t92 19t132 4zM565 331l-93 -4q-40 -3 -40 -34v-15q0 -36 42 -36q51 0 91 31v58z" />
    <glyph glyph-name="A" unicode="A" horiz-adv-x="668" 
d="M440 164h-212l-41 -164h-192l189 641q5 22 22.5 35.5t40.5 13.5h174q23 0 40.5 -13.5t23.5 -35.5l188 -641h-192zM406 300l-45 177q-11 52 -13 72h-27q-7 -38 -14 -72l-45 -177h144z" />
    <glyph glyph-name="B" unicode="B" horiz-adv-x="650" 
d="M470 361v-6q78 -7 112 -52t34 -131q0 -103 -56 -141.5t-187 -38.5q-207 0 -313 8v690q96 8 281 8q142 0 197 -37.5t55 -142.5q0 -75 -29 -113t-94 -44zM414 492q0 45 -17 59.5t-66 14.5h-87v-151h92q46 0 62 15.5t16 61.5zM244 124h96q53 0 70.5 17t17.5 68q0 55 -18 73
t-72 18h-94v-176z" />
    <glyph glyph-name="C" unicode="C" horiz-adv-x="596" 
d="M341 702q126 0 218 -25l-14 -138q-102 3 -204 3q-62 0 -83.5 -40.5t-21.5 -156.5t21.5 -156.5t83.5 -40.5q145 0 218 8l15 -137q-90 -31 -233 -31q-166 0 -234 80t-68 277t68 277t234 80z" />
    <glyph glyph-name="D" unicode="D" horiz-adv-x="691" 
d="M343 700q174 0 241.5 -75t67.5 -280t-67.5 -280t-241.5 -75q-145 0 -283 10v690q168 10 283 10zM343 131q65 0 88 43.5t23 170.5t-23 171t-88 44h-95v-428q29 -1 95 -1z" />
    <glyph glyph-name="E" unicode="E" horiz-adv-x="587" 
d="M545 143l9 -135q-98 -11 -342 -11q-71 0 -114 40.5t-43 107.5v400q0 67 43.5 107.5t113.5 40.5q244 0 342 -11l-9 -135h-259q-43 0 -43 -43v-84h265v-129h-265v-105q0 -43 43 -43h259z" />
    <glyph glyph-name="F" unicode="F" horiz-adv-x="565" 
d="M538 547h-244q-48 0 -48 -43v-97h255v-130h-255v-277h-188v543q0 68 44 109t115 41q237 0 330 -12z" />
    <glyph glyph-name="G" unicode="G" horiz-adv-x="658" 
d="M613 397v-397h-138l-17 70q-30 -34 -80 -59t-114 -25q-118 0 -171.5 84t-53.5 276q0 200 71 279t247 79q131 0 230 -27l-15 -136q-108 3 -213 3q-73 0 -98 -38.5t-25 -161.5q0 -115 21 -156t79 -41q48 0 97 17v233h180z" />
    <glyph glyph-name="H" unicode="H" horiz-adv-x="702" 
d="M642 690v-690h-188v298h-206v-298h-187v690h187v-255h206v255h188z" />
    <glyph glyph-name="I" unicode="I" horiz-adv-x="308" 
d="M247 0h-186v690h186v-690z" />
    <glyph glyph-name="J" unicode="J" horiz-adv-x="388" 
d="M330 690v-555q0 -71 -45 -109.5t-125 -38.5q-97 0 -145 23l20 121h47q62 0 62 43v516h186z" />
    <glyph glyph-name="K" unicode="K" horiz-adv-x="656" 
d="M288 295h-48q8 -35 8 -64v-231h-187v690h187v-183q0 -41 -8 -86h47l158 269h202l-167 -272q-21 -37 -56 -59v-3q41 -24 64 -65l170 -291h-208z" />
    <glyph glyph-name="L" unicode="L" horiz-adv-x="546" 
d="M246 690v-497q0 -43 47 -43h234l9 -141q-98 -12 -317 -12q-77 0 -119 41.5t-42 110.5v541h188z" />
    <glyph glyph-name="M" unicode="M" horiz-adv-x="933" 
d="M622 690h171q65 0 68 -67l25 -623h-172l-22 547h-16l-84 -386q-11 -58 -73 -58h-106q-62 0 -74 58l-85 386h-16l-18 -547h-172l24 623q3 67 68 67h168q61 0 73 -59l65 -306q6 -31 14 -100h11q1 7 6 44t9 57l63 305q12 59 73 59z" />
    <glyph glyph-name="N" unicode="N" horiz-adv-x="731" 
d="M671 690v-624q0 -66 -65 -66h-89q-27 0 -42 12.5t-31 42.5l-164 296q-27 51 -45 113h-8q8 -62 8 -118v-346h-175v624q0 66 66 66h88q27 0 41.5 -12.5t31.5 -42.5l158 -285q25 -45 52 -115h8q-7 72 -7 121l-1 334h174z" />
    <glyph glyph-name="O" unicode="O" horiz-adv-x="697" 
d="M348 704q118 0 183 -31.5t96 -109t31 -218.5t-31 -218.5t-96 -109t-183 -31.5q-174 0 -241.5 75.5t-67.5 283.5t67.5 283.5t241.5 75.5zM348 560q-66 0 -89 -44t-23 -171t23 -171t89 -44t89 44t23 171t-23 171t-89 44z" />
    <glyph glyph-name="P" unicode="P" horiz-adv-x="632" 
d="M338 700q156 0 213.5 -48t57.5 -183q0 -133 -53.5 -181.5t-191.5 -48.5q-51 0 -116 7v-246h-188v690q98 10 278 10zM248 376h86q51 0 69 19t18 74q0 56 -18 75t-69 19h-86v-187z" />
    <glyph glyph-name="Q" unicode="Q" horiz-adv-x="697" 
d="M348 704q175 0 242.5 -75.5t67.5 -283.5t-67.5 -283.5t-242.5 -75.5q-88 0 -144.5 16.5t-94.5 58t-54 110t-16 174.5t16 174.5t54 110t94.5 58t144.5 16.5zM348 560q-66 0 -89 -44t-23 -171t23 -171t89 -44t89 44t23 171t-23 171t-89 44zM252 -123l41 93q118 -43 316 -71
l-48 -158q-177 48 -309 136z" />
    <glyph glyph-name="R" unicode="R" horiz-adv-x="661" 
d="M641 0h-197l-49 208q-7 30 -21.5 41t-43.5 11h-85v-260h-185v690q98 10 279 10q149 0 212 -45.5t63 -162.5q0 -152 -136 -167v-6q87 -14 106 -106zM245 397h90q53 0 71.5 17t18.5 66t-18.5 66t-71.5 17h-90v-166z" />
    <glyph glyph-name="S" unicode="S" horiz-adv-x="597" 
d="M305 703q145 0 240 -31l-12 -123q-177 3 -230 3q-48 0 -64.5 -8t-16.5 -35q0 -23 14 -35.5t52 -25.5l127 -49q83 -33 117 -81t34 -126q0 -117 -58.5 -161t-211.5 -44q-132 0 -253 30l11 133q205 -5 241 -5q50 0 66.5 8.5t16.5 34.5q0 24 -11.5 35t-43.5 23l-138 55
q-81 33 -115 80.5t-34 124.5q0 116 59 156.5t210 40.5z" />
    <glyph glyph-name="T" unicode="T" horiz-adv-x="613" 
d="M599 545h-199v-545h-188v545h-198v145h585v-145z" />
    <glyph glyph-name="U" unicode="U" horiz-adv-x="694" 
d="M639 690v-410q0 -161 -63.5 -227.5t-218.5 -66.5q-166 0 -234 66.5t-68 227.5v410h188v-410q0 -88 22 -119t82 -31t82 31t22 119v410h188z" />
    <glyph glyph-name="V" unicode="V" horiz-adv-x="655" 
d="M653 690l-177 -639q-5 -23 -23 -37t-42 -14h-167q-24 0 -42 14t-23 37l-177 639h193l106 -471q8 -38 14 -78h25q2 20 14 78l105 471h194z" />
    <glyph glyph-name="W" unicode="W" horiz-adv-x="989" 
d="M967 690l-97 -639q-4 -23 -22 -37t-43 -14h-167q-25 0 -43.5 14t-21.5 37l-60 413q-6 46 -9 95h-18q-6 -68 -10 -96l-59 -412q-3 -23 -21.5 -37t-43.5 -14h-168q-24 0 -42.5 14t-22.5 37l-96 639h187l50 -448q5 -50 6 -109h18l16 109l58 392q3 25 21 40.5t44 15.5h144
q25 0 43 -15.5t21 -40.5l59 -393q13 -91 15 -108h18q1 44 7 107l49 450h188z" />
    <glyph glyph-name="X" unicode="X" horiz-adv-x="661" 
d="M332 300h-3l-138 -300h-189l175 353l-161 337h187l125 -280h5l124 280h188l-161 -337l175 -353h-189z" />
    <glyph glyph-name="Y" unicode="Y" horiz-adv-x="633" 
d="M411 221v-221h-188v219l-228 471h194l99 -233q13 -30 23 -93h12q14 70 23 93l99 233h193z" />
    <glyph glyph-name="Z" unicode="Z" horiz-adv-x="595" 
d="M562 136v-136h-528v136l312 418h-303v136h510v-136l-311 -418h320z" />
    <glyph glyph-name="bracketleft" unicode="[" horiz-adv-x="355" 
d="M327 656h-69q-20 0 -20 -20v-669q0 -20 20 -20h69v-112h-169q-43 0 -66.5 20.5t-23.5 69.5v753q0 40 25 65t65 25h169v-112z" />
    <glyph glyph-name="backslash" unicode="\" horiz-adv-x="571" 
d="M554 -76h-144l-393 766h144z" />
    <glyph glyph-name="bracketright" unicode="]" horiz-adv-x="355" 
d="M28 768h169q40 0 65 -25t25 -65v-753q0 -40 -25 -65t-65 -25h-169v112h69q21 0 21 20v669q0 20 -21 20h-69v112z" />
    <glyph glyph-name="asciicircum" unicode="^" horiz-adv-x="481" 
d="M451 409l-70 -38l-135 161h-8l-138 -161l-70 38l146 232h132z" />
    <glyph glyph-name="underscore" unicode="_" horiz-adv-x="543" 
d="M495 -111h-448v111h448v-111z" />
    <glyph glyph-name="grave" unicode="`" horiz-adv-x="374" 
d="M327 593l-51 -76l-241 106l74 119z" />
    <glyph glyph-name="a" unicode="a" 
d="M326 511q105 0 156 -43.5t51 -150.5v-317h-144l-17 73q-70 -86 -177 -86q-73 0 -120 37.5t-47 104.5v50q0 59 42.5 93t116.5 34h165v12q-1 32 -15.5 44.5t-53.5 12.5q-97 0 -213 -7l-16 118q132 25 272 25zM206 172v-17q0 -40 49 -40q45 0 97 35v61h-104q-42 -1 -42 -39z
" />
    <glyph glyph-name="b" unicode="b" horiz-adv-x="606" 
d="M387 511q101 0 143.5 -59.5t42.5 -197.5q0 -46 -6 -83t-23 -72t-45 -58.5t-74.5 -38t-108.5 -14.5q-64 0 -145 10.5t-121 29.5v672h182l1 -147q2 -65 -14 -118q78 76 168 76zM313 115q42 2 57.5 30t15.5 108q0 71 -14.5 94.5t-58.5 23.5q-34 0 -82 -25l1 -225
q42 -8 81 -6z" />
    <glyph glyph-name="c" unicode="c" horiz-adv-x="518" 
d="M292 511q121 0 196 -34l-18 -113q-32 0 -81 0.5t-66 0.5q-58 0 -79 -24t-21 -92t21 -92t79 -24q87 0 156 8l17 -115q-77 -38 -206 -38q-142 0 -200 58.5t-58 202.5t58.5 203t201.5 59z" />
    <glyph glyph-name="d" unicode="d" horiz-adv-x="608" 
d="M557 700v-700h-144l-15 77q-61 -89 -186 -89q-93 0 -135.5 67.5t-42.5 198.5q0 145 46 201t144 56q97 0 155 -44q-4 68 -4 107v126h182zM288 135q43 0 87 25v210q-50 16 -83 16q-41 0 -56 -24.5t-15 -106.5q0 -74 14.5 -97t52.5 -23z" />
    <glyph glyph-name="e" unicode="e" horiz-adv-x="576" 
d="M324 129q91 0 195 12l16 -111q-83 -42 -231 -42q-147 0 -209.5 62t-62.5 196q0 146 61.5 205.5t207.5 59.5q131 0 189 -43.5t59 -132.5q1 -70 -39 -102t-135 -32h-149q6 -41 27.5 -56.5t70.5 -15.5zM306 388q-47 1 -64 -17t-19 -76h101q31 0 40.5 9.5t9.5 34.5
q0 29 -15 39t-53 10z" />
    <glyph glyph-name="f" unicode="f" horiz-adv-x="417" 
d="M427 597h-90q-32 0 -44 -12.5t-12 -45.5v-42h126v-114h-126v-383h-183v383h-85v109l85 5v67q0 158 174 158q109 0 172 -12z" />
    <glyph glyph-name="g" unicode="g" horiz-adv-x="593" 
d="M576 425l-57 -8q9 -28 9 -64q0 -87 -54.5 -122.5t-190.5 -35.5q-48 0 -80 4q-11 -13 -4 -31t33 -21l181 -16q81 -7 116.5 -43.5t35.5 -108.5q0 -99 -60.5 -132t-215.5 -33q-111 0 -170.5 15t-81.5 44.5t-22 85.5q0 37 17.5 61.5t59.5 44.5q-33 35 -25 83.5t48 69.5
q-79 34 -79 134q0 87 55.5 123t192.5 36q88 0 138 -14h163zM283 300q44 0 60 11t16 42t-16 41.5t-60 10.5q-45 0 -61.5 -10.5t-16.5 -41.5t16.5 -42t61.5 -11zM394 -19q0 21 -16 27.5t-63 10.5l-105 9q-24 -18 -24 -43q0 -27 19.5 -35t81.5 -8q65 0 86 7.5t21 31.5z" />
    <glyph glyph-name="h" unicode="h" horiz-adv-x="611" 
d="M419 511q71 0 107.5 -35.5t36.5 -103.5v-372h-182v315q0 24 -9 33t-32 9q-46 0 -107 -26v-331h-182v700h182l1 -159q0 -57 -10 -107q99 77 195 77z" />
    <glyph glyph-name="i" unicode="i" horiz-adv-x="291" 
d="M106 721h79q52 0 52 -54v-52q0 -53 -52 -53h-79q-53 0 -53 53v52q0 54 53 54zM236 0h-181v497h181v-497z" />
    <glyph glyph-name="j" unicode="j" horiz-adv-x="292" 
d="M105 728h79q52 0 52 -53v-53q0 -53 -52 -53h-79q-52 0 -52 53v53q0 53 52 53zM237 497v-455q0 -75 -39.5 -139.5t-106.5 -95.5l-100 80q65 68 65 155v455h181z" />
    <glyph glyph-name="k" unicode="k" horiz-adv-x="585" 
d="M262 222h-36q7 -46 7 -74v-148h-182v700h182v-278q0 -51 -7 -94h37l107 169h200l-115 -167q-20 -34 -52 -54v-4q10 -5 26 -23.5t26 -36.5l133 -212h-201z" />
    <glyph glyph-name="l" unicode="l" horiz-adv-x="344" 
d="M233 700v-527q0 -43 53 -43h36l21 -120q-40 -23 -134 -23q-73 0 -115 36.5t-42 101.5v575h181z" />
    <glyph glyph-name="m" unicode="m" horiz-adv-x="882" 
d="M693 511q141 0 141 -139v-372h-181v315q0 23 -9 32.5t-32 9.5q-30 0 -82 -26v-331h-175v315q0 23 -10 32.5t-32 9.5q-30 0 -81 -24v-333h-181v497h143l15 -73q88 87 183 87q101 0 128 -77q81 77 173 77z" />
    <glyph glyph-name="n" unicode="n" horiz-adv-x="611" 
d="M419 511q71 0 107.5 -35.5t36.5 -103.5v-372h-182v315q0 24 -9 33t-32 9q-43 0 -107 -26v-331h-182v497h145l15 -73q104 87 208 87z" />
    <glyph glyph-name="o" unicode="o" horiz-adv-x="600" 
d="M300 511q147 0 207.5 -59.5t60.5 -203.5q0 -143 -60.5 -201.5t-207.5 -58.5t-207.5 58.5t-60.5 201.5q0 144 61 203.5t207 59.5zM300 383q-47 0 -62 -26.5t-15 -108.5q0 -81 15 -107t62 -26q46 0 61.5 26t15.5 107q0 82 -15.5 108.5t-61.5 26.5z" />
    <glyph glyph-name="p" unicode="p" horiz-adv-x="611" 
d="M401 509q176 0 176 -266q0 -145 -45.5 -200.5t-143.5 -55.5q-100 0 -159 45q5 -62 4 -108v-109h-182v682h146l15 -70q27 35 79.5 58.5t109.5 23.5zM319 111q41 0 56 24.5t15 106.5q0 81 -14 106.5t-51 25.5q-41 0 -92 -31v-215q51 -17 86 -17z" />
    <glyph glyph-name="q" unicode="q" horiz-adv-x="606" 
d="M290 511q64 0 145 -10.5t121 -30.5v-655h-181l-1 137q0 68 14 118q-82 -82 -172 -82q-97 0 -140 64t-43 193q0 64 10.5 108.5t37.5 82.5t79 56.5t130 18.5zM220 244q0 -64 14 -86.5t56 -22.5q36 0 85 22v220q-48 9 -82 7q-43 -2 -58 -30t-15 -110z" />
    <glyph glyph-name="r" unicode="r" horiz-adv-x="440" 
d="M434 511l-16 -167h-48q-50 0 -137 -21v-323h-182v497h142l16 -73q97 87 198 87h27z" />
    <glyph glyph-name="s" unicode="s" horiz-adv-x="541" 
d="M252 511q144 -2 243 -21l-11 -110q-66 1 -194 1q-58 0 -71 -2.5t-13 -18.5q0 -3 0.5 -6t2 -5t3 -3.5t4.5 -3l6 -3t8.5 -3t10 -2.5t12.5 -3t14 -4l120 -32q68 -19 98 -51.5t30 -95.5q0 -91 -53 -125t-182 -34q-127 0 -242 19l11 110q10 0 73 -0.5t102 -0.5q74 0 94.5 4.5
t20.5 21.5q0 4 -1 7t-4 6t-5.5 4.5t-9 3.5t-12 3.5t-16 4.5t-19.5 6l-116 32q-73 21 -99.5 57.5t-26.5 99.5q0 74 50.5 109t171.5 35z" />
    <glyph glyph-name="t" unicode="t" horiz-adv-x="426" 
d="M282 383v-210q0 -24 10.5 -33.5t36.5 -9.5h58l20 -120q-57 -23 -156 -23q-71 0 -111 37t-40 104l-1 255h-85v109l85 4v135h183v-134h128v-114h-128z" />
    <glyph glyph-name="u" unicode="u" horiz-adv-x="604" 
d="M553 497v-497h-144l-15 71q-100 -85 -202 -85q-144 0 -144 139v372h182v-315q0 -23 10 -33t34 -10q38 0 96 25v333h183z" />
    <glyph glyph-name="v" unicode="v" horiz-adv-x="584" 
d="M582 497l-154 -454q-15 -43 -58 -43h-156q-45 0 -58 43l-154 454h192l74 -291q6 -28 17 -91h13l18 91l74 291h192z" />
    <glyph glyph-name="w" unicode="w" horiz-adv-x="863" 
d="M851 497l-110 -450q-5 -22 -21.5 -34.5t-39.5 -12.5h-133q-24 0 -42 15t-21 39l-38 251q-1 11 -9 86h-12q-5 -49 -10 -86l-38 -251q-3 -24 -21 -39t-42 -15h-131q-23 0 -39.5 12.5t-21.5 34.5l-110 450h181l50 -299q8 -59 10 -85h12q3 24 11 85l38 246q3 23 20.5 38
t41.5 15h110q24 0 41.5 -15t20.5 -39l37 -245q1 -6 5.5 -37.5t6.5 -47.5h12q6 56 11 85l49 299h182z" />
    <glyph glyph-name="x" unicode="x" horiz-adv-x="587" 
d="M402 0l-108 200l-109 -200h-182l148 254l-137 243h182l98 -187l97 187h182l-137 -243l148 -254h-182z" />
    <glyph glyph-name="y" unicode="y" horiz-adv-x="584" 
d="M581 497l-166 -492q-11 -34 -26.5 -64t-41.5 -62t-59 -50t-78 -29t-100 1l-13 101q112 25 148 98h-32q-45 0 -58 43l-153 454h193l74 -296q6 -30 14 -85h11q7 26 20 85l74 296h193z" />
    <glyph glyph-name="z" unicode="z" horiz-adv-x="534" 
d="M500 122v-122h-466v122l250 253h-245v122h455v-122l-250 -253h256z" />
    <glyph glyph-name="braceleft" unicode="{" horiz-adv-x="350" 
d="M318 768v-111q-42 0 -55.5 -8.5t-13.5 -40.5v-137q1 -67 -22.5 -100.5t-87.5 -42.5q64 -17 88.5 -50t25.5 -89v-197q0 -31 13.5 -38.5t55.5 -7.5v-111q-123 -18 -182.5 22t-59.5 121v230q0 22 -7 34t-14 15.5t-31 13.5v114q17 6 20.5 7t12.5 6t10 11t3 16t2 27v173
q0 81 59.5 121t182.5 22z" />
    <glyph glyph-name="bar" unicode="|" horiz-adv-x="269" 
d="M198 -169h-127v950h127v-950z" />
    <glyph glyph-name="braceright" unicode="}" horiz-adv-x="350" 
d="M33 657v111q122 18 182 -22t60 -121v-173q0 -38 7.5 -47t40.5 -20v-114q-24 -10 -31 -13.5t-14 -15.5t-7 -34v-230q0 -81 -60 -121t-182 -22v111q42 0 55.5 7.5t13.5 38.5v197q1 56 25.5 89t88.5 50q-64 9 -88 42.5t-22 100.5v137q0 32 -13.5 40.5t-55.5 8.5z" />
    <glyph glyph-name="asciitilde" unicode="~" horiz-adv-x="506" 
d="M136 370q30 -1 114 -23t93 -23q22 -4 27.5 4.5t5.5 36.5h78q13 -77 -11.5 -118.5t-71.5 -39.5q-32 1 -116 23t-93 23q-22 3 -26.5 -5t-4.5 -37h-78q-13 79 12 119.5t71 39.5z" />
    <glyph glyph-name="uni00A0" unicode="&#xa0;" horiz-adv-x="213" 
 />
    <glyph glyph-name="exclamdown" unicode="&#xa1;" horiz-adv-x="299" 
d="M129 514h42q35 0 48.5 -13.5t13.5 -49.5v-44q0 -36 -13.5 -49.5t-48.5 -13.5h-42q-35 0 -48.5 13.5t-13.5 49.5v44q0 36 13.5 49.5t48.5 13.5zM240 69v-249h-181v249l19 222h143z" />
    <glyph glyph-name="cent" unicode="&#xa2;" horiz-adv-x="532" 
d="M482 232l16 -108q-63 -30 -163 -37l-10 -87h-135l11 93q-92 16 -131 76t-39 179q0 136 53 196t181 64l9 82h136l-11 -89q57 -10 92 -26l-19 -107q-59 2 -148 2q-67 0 -90 -24.5t-23 -97.5q0 -74 23 -99t90 -25q88 0 158 8z" />
    <glyph glyph-name="sterling" unicode="&#xa3;" horiz-adv-x="595" 
d="M561 147v-147h-517v147q49 23 65 59.5t11 88.5l-2 24h-76l-2 89h71l-8 104q-7 111 43.5 151t171.5 40q97 0 221 -10l-9 -137q-39 1 -182 1q-36 0 -50 -12t-11 -41l9 -96h164l-5 -89h-150l2 -24q3 -33 -1.5 -57.5t-17.5 -43.5t-23 -28.5t-32 -27.5q27 9 82 9h246z" />
    <glyph glyph-name="currency" unicode="&#xa4;" horiz-adv-x="579" 
d="M495 352q0 -56 -28 -104l71 -70l-75 -74l-70 70q-48 -28 -104 -28q-54 0 -103 27l-68 -68l-80 80l70 69q-25 45 -25 98q0 56 28 104l-68 68l75 74l68 -68q47 28 103 28t106 -29l69 69l74 -74l-70 -70q27 -48 27 -102zM289 249q41 0 71.5 30.5t30.5 73.5t-30.5 73.5
t-71.5 30.5t-71.5 -30.5t-30.5 -73.5t30.5 -73.5t71.5 -30.5z" />
    <glyph glyph-name="yen" unicode="&#xa5;" horiz-adv-x="686" 
d="M507 370h84v-103h-493l-1 103h82l-158 320h193l100 -221q9 -19 24 -92h12q16 76 23 93l99 220h193zM97 237h494v-102h-153l-1 -135h-187v135h-152z" />
    <glyph glyph-name="brokenbar" unicode="&#xa6;" horiz-adv-x="271" 
d="M199 381h-127v400h127v-400zM199 -169h-127v400h127v-400z" />
    <glyph glyph-name="section" unicode="&#xa7;" horiz-adv-x="559" 
d="M277 704q138 -3 232 -12l-13 -126q-34 2 -163 2q-55 0 -75.5 -5t-22.5 -23q-3 -18 9 -30t38 -25l125 -62q86 -42 105.5 -103t-14.5 -148h-126q1 55 -13 78t-66 51l-151 81q-23 13 -35 21t-30.5 27t-27.5 48t-9 68q0 90 56.5 124t180.5 34zM62 343h125q-1 -55 14 -78
t66 -51l151 -81q23 -13 35 -21t30.5 -27t27.5 -48t9 -68q0 -91 -57 -124.5t-180 -33.5q-135 0 -232 12l13 126q52 -3 163 -3q54 0 75 5.5t23 24.5q3 18 -9 29.5t-38 23.5l-125 63q-86 42 -105.5 102.5t14.5 148.5z" />
    <glyph glyph-name="dieresis" unicode="&#xa8;" horiz-adv-x="430" 
d="M93 714h59q36 0 36 -36v-60q0 -37 -36 -37h-59q-36 0 -36 37v60q0 36 36 36zM279 714h59q36 0 36 -36v-60q0 -37 -36 -37h-59q-37 0 -37 37v60q0 36 37 36z" />
    <glyph glyph-name="copyright" unicode="&#xa9;" horiz-adv-x="795" 
d="M397 704q154 0 258.5 -102t104.5 -257t-104.5 -257t-258.5 -102t-258.5 102t-104.5 257t104.5 257t258.5 102zM397 618q-113 0 -193 -78t-80 -195t80 -195t193 -78q115 0 194.5 78t79.5 195t-79.5 195t-194.5 78zM402 547q74 0 138 -15l-11 -96q-20 0 -59 0.5t-69 0.5
q-35 0 -45.5 -17.5t-10.5 -73.5t10.5 -73t45.5 -17q96 0 138 3l10 -95q-58 -19 -147 -19q-108 0 -151.5 45t-43.5 156t44 156t151 45z" />
    <glyph glyph-name="ordfeminine" unicode="&#xaa;" horiz-adv-x="435" 
d="M245 619q72 0 107 -29.5t35 -103.5v-210h-105l-12 49q-46 -58 -120 -58q-49 0 -80.5 24.5t-31.5 69.5v34q0 40 29 63t79 23h110v6q0 18 -9.5 26t-31.5 8q-74 0 -147 -4l-12 86q98 16 189 16zM165 391v-9q0 -23 32 -23q27 0 59 20v41l-61 -6q-30 -3 -30 -23z" />
    <glyph glyph-name="guillemotleft" unicode="&#xab;" horiz-adv-x="537" 
d="M281 407l-95 -156l95 -162l-95 -60l-159 203v38l158 198zM503 407l-95 -156l95 -162l-95 -60l-159 203v38l159 198z" />
    <glyph glyph-name="logicalnot" unicode="&#xac;" horiz-adv-x="576" 
d="M521 369v-232l-135 -1v107h-337v126h472z" />
    <glyph glyph-name="softhyphen" unicode="&#xad;" horiz-adv-x="395" 
d="M344 201h-294v110h294v-110z" />
    <glyph glyph-name="registered" unicode="&#xae;" horiz-adv-x="507" 
d="M254 703q92 0 157 -65t65 -157q0 -93 -65 -158t-157 -65q-93 0 -158 65t-65 158q0 92 65 157t158 65zM254 309q69 0 119.5 50.5t50.5 121.5t-50.5 121.5t-119.5 50.5q-71 0 -121 -50.5t-50 -121.5t50 -121.5t121 -50.5zM312 480v-2q32 -2 40 -35l20 -67h-79l-15 64
q-6 15 -23 15h-26v-79h-74v219q32 3 104 3q56 0 80 -14.5t24 -51.5q0 -47 -51 -52zM229 501h28q18 1 24 5.5t6 17.5t-6 17t-24 4h-28v-44z" />
    <glyph glyph-name="macron" unicode="&#xaf;" horiz-adv-x="400" 
d="M355 594h-310v110h310v-110z" />
    <glyph glyph-name="degree" unicode="&#xb0;" horiz-adv-x="334" 
d="M167 704q57 0 98 -39.5t41 -96.5t-41 -97t-98 -40t-98.5 40t-41.5 97t41.5 96.5t98.5 39.5zM167 621q-22 0 -37 -15t-15 -38t15 -39t37 -16q21 0 36 16t15 39t-15 38t-36 15z" />
    <glyph glyph-name="plusminus" unicode="&#xb1;" horiz-adv-x="565" 
d="M514 448v-134h-165v-112h-133v112h-165v134h165v113h133v-113h165zM51 165h463v-134h-463v134z" />
    <glyph glyph-name="twosuperior" unicode="&#xb2;" horiz-adv-x="432" 
d="M202 781q95 0 136 -23t41 -90q0 -52 -68 -111l-99 -86q31 7 60 7l118 -3v-115h-347v70q0 38 19 56l87 77q69 61 79 86q3 11 -6.5 14.5t-33.5 3.5q-21 0 -63 -0.5t-74 -0.5l-4 102q70 13 155 13z" />
    <glyph glyph-name="threesuperior" unicode="&#xb3;" horiz-adv-x="412" 
d="M205 783q91 0 126 -21t35 -76q0 -50 -16.5 -74.5t-62.5 -30.5v-2q51 -7 70.5 -30t20.5 -74q1 -68 -37.5 -96t-133.5 -28q-78 0 -169 12l4 99q60 -2 126 -2q42 0 54.5 6.5t12.5 28.5q0 18 -9.5 25t-41.5 8l-86 2v85l86 3q30 0 38.5 6.5t8.5 23.5t-9.5 22t-40.5 5h-129
l-4 96q79 12 157 12z" />
    <glyph glyph-name="acute" unicode="&#xb4;" horiz-adv-x="374" 
d="M336 623l-241 -106l-51 76l218 149z" />
    <glyph glyph-name="paragraph" unicode="&#xb6;" horiz-adv-x="613" 
d="M353 702q110 0 182 -17v-685h-114v592l-49 2v-804h-114v411q-125 11 -179.5 69t-54.5 180q0 138 75.5 195t253.5 57z" />
    <glyph glyph-name="periodcentered" unicode="&#xb7;" horiz-adv-x="260" 
d="M108 343h44q36 0 49.5 -13.5t13.5 -49.5v-44q0 -35 -13.5 -49t-49.5 -14h-44q-36 0 -49.5 14t-13.5 49v44q0 36 13.5 49.5t49.5 13.5z" />
    <glyph glyph-name="cedilla" unicode="&#xb8;" horiz-adv-x="256" 
d="M59 -101l17 66q86 13 125 0.5t36 -65.5q-3 -79 -64.5 -116.5t-153.5 -25.5l20 72q82 0 87 54q1 11 -9 13t-58 2z" />
    <glyph glyph-name="onesuperior" unicode="&#xb9;" horiz-adv-x="314" 
d="M261 360h-138v249q0 36 5 56l-100 -18l-16 87l111 40h138v-414z" />
    <glyph glyph-name="ordmasculine" unicode="&#xba;" horiz-adv-x="437" 
d="M219 619q101 0 142.5 -40t41.5 -137q0 -96 -41.5 -135t-142.5 -39q-102 0 -143.5 39t-41.5 135q0 98 41.5 137.5t143.5 39.5zM219 527q-29 0 -38 -16t-10 -69q1 -51 10 -67t38 -16q28 0 37 16t9 67q0 53 -9 69t-37 16z" />
    <glyph glyph-name="guillemotright" unicode="&#xbb;" horiz-adv-x="537" 
d="M287 270v-38l-158 -203l-95 60l95 162l-95 156l95 61zM510 270v-38l-159 -203l-95 60l95 162l-95 156l96 61z" />
    <glyph glyph-name="onequarter" unicode="&#xbc;" horiz-adv-x="924" 
d="M127 276v249q0 32 6 56l-95 -18l-15 87l104 40h139v-414h-139zM674 690l-400 -690h-112l400 690h112zM896 92l-46 -12v-80h-128v80h-175q-29 0 -44 19.5t-3 47.5l107 267h124l-91 -230q-4 -13 12 -13h70v98l22 63h106v-161h46v-79z" />
    <glyph glyph-name="onehalf" unicode="&#xbd;" horiz-adv-x="929" 
d="M266 276h-139v249q0 32 6 56l-95 -18l-15 87l104 40h139v-414zM271 0h-111l399 690h113zM708 421q95 0 135.5 -23t40.5 -90q0 -52 -67 -111l-96 -86q29 7 58 7l116 -3l-1 -115h-343v70q0 37 20 56l84 77q69 64 78 86q4 11 -5.5 14.5t-33.5 3.5q-20 0 -61.5 -0.5
t-73.5 -0.5l-4 102q70 13 153 13z" />
    <glyph glyph-name="threequarters" unicode="&#xbe;" horiz-adv-x="1002" 
d="M371 388q1 -67 -37 -95t-131 -28q-72 0 -167 11l4 99q60 -2 123 -2q41 0 53 6.5t12 28.5q0 20 -9 28t-39 8l-85 -1v85l85 1q28 0 36 7t8 25q0 17 -8.5 21.5t-39.5 5.5q-47 1 -126 1l-4 95q80 12 156 12q89 0 123 -21t34 -76q0 -50 -16 -74.5t-62 -30.5v-2q51 -7 70 -30
t20 -74zM757 690l-400 -690h-112l399 690h113zM976 92l-46 -12v-80h-128v80h-175q-29 0 -44 19.5t-3 47.5l107 267h124l-91 -230q-4 -13 12 -13h70v98l22 63h106v-161h46v-79z" />
    <glyph glyph-name="questiondown" unicode="&#xbf;" horiz-adv-x="522" 
d="M257 514h41q36 0 49.5 -13.5t13.5 -49.5v-44q0 -36 -13.5 -49.5t-49.5 -13.5h-41q-36 0 -49.5 13.5t-13.5 49.5v44q0 36 13.5 49.5t49.5 13.5zM205 290h143q3 -58 -16 -109t-43.5 -80t-47 -58.5t-25.5 -48.5q-4 -25 13 -36t60 -11q66 0 204 2l5 -121q-7 -1 -36 -7t-36 -7
t-32 -4.5t-42 -4.5t-46 -2t-62 -1q-112 0 -166.5 38t-54.5 117q0 40 17 74t42.5 59.5t51 52t46 64.5t25.5 83z" />
    <glyph glyph-name="Agrave" unicode="&#xc0;" horiz-adv-x="668" 
d="M371 721l-241 106l74 119l218 -149zM440 164h-211l-42 -164h-191l188 641q6 22 23.5 35.5t40.5 13.5h173q23 0 40.5 -13.5t23.5 -35.5l188 -641h-191zM406 300l-45 177q-9 42 -13 72h-27q-4 -30 -13 -72l-45 -177h143z" />
    <glyph glyph-name="Aacute" unicode="&#xc1;" horiz-adv-x="668" 
d="M293 721l-51 76l218 149l74 -119zM440 164h-211l-42 -164h-191l188 641q6 22 23.5 35.5t40.5 13.5h173q23 0 40.5 -13.5t23.5 -35.5l188 -641h-191zM406 300l-45 177q-9 42 -13 72h-27q-4 -30 -13 -72l-45 -177h143z" />
    <glyph glyph-name="Acircumflex" unicode="&#xc2;" horiz-adv-x="668" 
d="M179 714l-46 68l138 133h131l134 -138l-45 -63l-151 94h-8zM440 164h-211l-42 -164h-191l188 641q6 22 23.5 35.5t40.5 13.5h173q23 0 40.5 -13.5t23.5 -35.5l188 -641h-191zM406 300l-45 177q-9 42 -13 72h-27q-4 -30 -13 -72l-45 -177h143z" />
    <glyph glyph-name="Atilde" unicode="&#xc3;" horiz-adv-x="668" 
d="M228 754h-76q-13 77 13.5 118t69.5 38q38 -3 91.5 -22t73.5 -23q22 -4 27.5 5t5.5 35h76q13 -75 -11.5 -117t-71.5 -39q-39 3 -94.5 23t-71.5 23q-22 3 -27 -5t-5 -36zM440 164h-211l-42 -164h-191l188 641q6 22 23.5 35.5t40.5 13.5h173q23 0 40.5 -13.5t23.5 -35.5
l188 -641h-191zM406 300l-45 177q-9 42 -13 72h-27q-4 -30 -13 -72l-45 -177h143z" />
    <glyph glyph-name="Adieresis" unicode="&#xc4;" horiz-adv-x="668" 
d="M270 762h-59q-36 0 -36 37v60q0 36 36 36h59q36 0 36 -36v-60q0 -37 -36 -37zM456 762h-59q-37 0 -37 37v60q0 36 37 36h59q36 0 36 -36v-60q0 -37 -36 -37zM440 164h-211l-42 -164h-191l188 641q6 22 23.5 35.5t40.5 13.5h173q23 0 40.5 -13.5t23.5 -35.5l188 -641h-191
zM406 300l-45 177q-9 42 -13 72h-27q-4 -30 -13 -72l-45 -177h143z" />
    <glyph glyph-name="Aring" unicode="&#xc5;" horiz-adv-x="668" 
d="M335 713q-51 0 -87.5 35t-36.5 86q0 50 36.5 85t87.5 35t87.5 -35t36.5 -85q0 -51 -36.5 -86t-87.5 -35zM335 882q-20 0 -33.5 -14t-13.5 -34q0 -21 13.5 -34.5t33.5 -13.5t33.5 13.5t13.5 34.5q0 20 -13.5 34t-33.5 14zM440 164h-211l-42 -164h-191l188 641
q6 22 23.5 35.5t40.5 13.5h173q23 0 40.5 -13.5t23.5 -35.5l188 -641h-191zM406 300l-45 177q-9 42 -13 72h-27q-4 -30 -13 -72l-45 -177h143z" />
    <glyph glyph-name="AE" unicode="&#xc6;" horiz-adv-x="944" 
d="M901 141l9 -133q-102 -11 -330 -11q-64 0 -101.5 41t-37.5 107v29h-185l-79 -174h-192l263 545q26 56 60 86t97 45.5t168 15.5q210 0 337 -10l-9 -133h-240q-20 0 -32.5 -12.5t-12.5 -31.5v-88h250v-122h-250v-111q0 -43 45 -43h240zM441 307v205q0 35 19 64h-13
q-10 -11 -31 -48l-100 -221h125z" />
    <glyph glyph-name="Ccedilla" unicode="&#xc7;" horiz-adv-x="596" 
d="M342 702q125 0 218 -25l-15 -138q-100 3 -203 3q-62 0 -84 -40.5t-22 -156.5t22 -156.5t84 -40.5q145 0 218 8l14 -137q-90 -31 -232 -31q-167 0 -235 80t-68 277t68 277t235 80zM244 -127l17 66q86 13 125 0.5t36 -65.5q-3 -79 -64.5 -116.5t-153.5 -25.5l20 72
q82 0 87 54q1 11 -9 13t-58 2z" />
    <glyph glyph-name="Egrave" unicode="&#xc8;" horiz-adv-x="587" 
d="M355 727l-241 106l74 119l218 -149zM545 143l9 -135q-97 -11 -342 -11q-70 0 -113.5 40.5t-43.5 107.5v400q0 67 43.5 107.5t113.5 40.5q245 0 342 -11l-9 -135h-258q-44 0 -44 -43v-84h266v-129h-266v-105q0 -43 44 -43h258z" />
    <glyph glyph-name="Eacute" unicode="&#xc9;" horiz-adv-x="587" 
d="M277 727l-51 76l218 149l74 -119zM545 143l9 -135q-97 -11 -342 -11q-70 0 -113.5 40.5t-43.5 107.5v400q0 67 43.5 107.5t113.5 40.5q245 0 342 -11l-9 -135h-258q-44 0 -44 -43v-84h266v-129h-266v-105q0 -43 44 -43h258z" />
    <glyph glyph-name="Ecircumflex" unicode="&#xca;" horiz-adv-x="587" 
d="M163 720l-46 68l138 133h131l134 -138l-45 -63l-151 94h-8zM545 143l9 -135q-97 -11 -342 -11q-70 0 -113.5 40.5t-43.5 107.5v400q0 67 43.5 107.5t113.5 40.5q245 0 342 -11l-9 -135h-258q-44 0 -44 -43v-84h266v-129h-266v-105q0 -43 44 -43h258z" />
    <glyph glyph-name="Edieresis" unicode="&#xcb;" horiz-adv-x="587" 
d="M254 768h-59q-36 0 -36 37v60q0 36 36 36h59q36 0 36 -36v-60q0 -37 -36 -37zM440 768h-59q-37 0 -37 37v60q0 36 37 36h59q36 0 36 -36v-60q0 -37 -36 -37zM545 143l9 -135q-97 -11 -342 -11q-70 0 -113.5 40.5t-43.5 107.5v400q0 67 43.5 107.5t113.5 40.5
q245 0 342 -11l-9 -135h-258q-44 0 -44 -43v-84h266v-129h-266v-105q0 -43 44 -43h258z" />
    <glyph glyph-name="Igrave" unicode="&#xcc;" horiz-adv-x="308" 
d="M241 797l-51 -76l-241 106l74 119zM247 0h-186v690h186v-690z" />
    <glyph glyph-name="Iacute" unicode="&#xcd;" horiz-adv-x="308" 
d="M353 827l-241 -106l-51 76l218 149zM247 0h-186v690h186v-690z" />
    <glyph glyph-name="Icircumflex" unicode="&#xce;" horiz-adv-x="308" 
d="M355 777l-45 -63l-151 94h-8l-153 -94l-46 68l138 133h131zM247 0h-186v690h186v-690z" />
    <glyph glyph-name="Idieresis" unicode="&#xcf;" horiz-adv-x="308" 
d="M30 895h59q36 0 36 -36v-60q0 -37 -36 -37h-59q-36 0 -36 37v60q0 36 36 36zM216 895h59q36 0 36 -36v-60q0 -37 -36 -37h-59q-37 0 -37 37v60q0 36 37 36zM247 0h-186v690h186v-690z" />
    <glyph glyph-name="Eth" unicode="&#xd0;" horiz-adv-x="693" 
d="M345 700q173 0 241 -75t68 -280t-68 -280t-241 -75q-144 0 -284 10v313h-50v92h50v285q170 10 284 10zM345 131q65 0 88 43.5t23 170.5t-23 171t-88 44h-96v-155h111v-92h-111v-181q29 -1 96 -1z" />
    <glyph glyph-name="Ntilde" unicode="&#xd1;" horiz-adv-x="731" 
d="M273 910q38 -3 91.5 -22t73.5 -23q22 -4 27.5 5t5.5 35h76q13 -75 -11.5 -117t-71.5 -39q-39 3 -94.5 23t-71.5 23q-22 3 -27 -5t-5 -36h-76q-13 77 13.5 118t69.5 38zM671 690v-624q0 -66 -65 -66h-89q-27 0 -42 12.5t-31 42.5l-164 296q-27 51 -45 113h-8q8 -62 8 -118
v-346h-175v624q0 66 66 66h88q27 0 41.5 -12.5t31.5 -42.5l158 -285q25 -45 52 -115h8q-7 72 -7 121l-1 334h174z" />
    <glyph glyph-name="Ograve" unicode="&#xd2;" horiz-adv-x="697" 
d="M435 797l-51 -76l-241 106l74 119zM348 704q118 0 183.5 -31.5t96.5 -109t31 -218.5t-31 -218.5t-96.5 -109t-183.5 -31.5q-88 0 -144.5 16.5t-94.5 58t-54 110t-16 174.5t16 174.5t54 110t94.5 58t144.5 16.5zM348 560q-66 0 -89 -44t-23 -171t23 -171t89 -44t89 44
t23 171t-23 171t-89 44z" />
    <glyph glyph-name="Oacute" unicode="&#xd3;" horiz-adv-x="697" 
d="M546 827l-241 -106l-51 76l218 149zM348 704q118 0 183.5 -31.5t96.5 -109t31 -218.5t-31 -218.5t-96.5 -109t-183.5 -31.5q-88 0 -144.5 16.5t-94.5 58t-54 110t-16 174.5t16 174.5t54 110t94.5 58t144.5 16.5zM348 560q-66 0 -89 -44t-23 -171t23 -171t89 -44t89 44
t23 171t-23 171t-89 44z" />
    <glyph glyph-name="Ocircumflex" unicode="&#xd4;" horiz-adv-x="697" 
d="M548 777l-45 -63l-151 94h-8l-153 -94l-46 68l138 133h131zM348 704q118 0 183.5 -31.5t96.5 -109t31 -218.5t-31 -218.5t-96.5 -109t-183.5 -31.5q-88 0 -144.5 16.5t-94.5 58t-54 110t-16 174.5t16 174.5t54 110t94.5 58t144.5 16.5zM348 560q-66 0 -89 -44t-23 -171
t23 -171t89 -44t89 44t23 171t-23 171t-89 44z" />
    <glyph glyph-name="Otilde" unicode="&#xd5;" horiz-adv-x="697" 
d="M248 910q38 -3 91.5 -22t73.5 -23q22 -4 27.5 5t5.5 35h76q13 -75 -11.5 -117t-71.5 -39q-39 3 -94.5 23t-71.5 23q-22 3 -27 -5t-5 -36h-76q-13 77 13.5 118t69.5 38zM348 704q118 0 183.5 -31.5t96.5 -109t31 -218.5t-31 -218.5t-96.5 -109t-183.5 -31.5
q-88 0 -144.5 16.5t-94.5 58t-54 110t-16 174.5t16 174.5t54 110t94.5 58t144.5 16.5zM348 560q-66 0 -89 -44t-23 -171t23 -171t89 -44t89 44t23 171t-23 171t-89 44z" />
    <glyph glyph-name="Odieresis" unicode="&#xd6;" horiz-adv-x="697" 
d="M224 895h59q36 0 36 -36v-60q0 -37 -36 -37h-59q-36 0 -36 37v60q0 36 36 36zM410 895h59q36 0 36 -36v-60q0 -37 -36 -37h-59q-37 0 -37 37v60q0 36 37 36zM348 704q118 0 183.5 -31.5t96.5 -109t31 -218.5t-31 -218.5t-96.5 -109t-183.5 -31.5q-88 0 -144.5 16.5
t-94.5 58t-54 110t-16 174.5t16 174.5t54 110t94.5 58t144.5 16.5zM348 560q-66 0 -89 -44t-23 -171t23 -171t89 -44t89 44t23 171t-23 171t-89 44z" />
    <glyph glyph-name="multiply" unicode="&#xd7;" horiz-adv-x="500" 
d="M350 292l128 -114l-85 -100l-142 126l-142 -126l-84 100l128 114l-128 114l84 101l142 -127l142 127l85 -101z" />
    <glyph glyph-name="Oslash" unicode="&#xd8;" horiz-adv-x="697" 
d="M616 734l-41 -90q84 -74 84 -299q0 -141 -31 -218.5t-96.5 -109t-183.5 -31.5q-49 0 -82 4l-49 -104l-140 67l45 94q-44 39 -63.5 110.5t-19.5 187.5q0 106 16 174.5t54 110t94.5 58t144.5 16.5q49 0 82 -4l46 100zM348 130q66 0 89 44t23 171t-23 171t-89 44t-89 -44
t-23 -171t23 -171t89 -44z" />
    <glyph glyph-name="Ugrave" unicode="&#xd9;" horiz-adv-x="694" 
d="M435 797l-51 -76l-241 106l74 119zM639 690v-410q0 -161 -63.5 -227.5t-218.5 -66.5q-166 0 -234 66.5t-68 227.5v410h188v-410q0 -88 22 -119t82 -31t82 31t22 119v410h188z" />
    <glyph glyph-name="Uacute" unicode="&#xda;" horiz-adv-x="694" 
d="M546 827l-241 -106l-51 76l218 149zM639 690v-410q0 -161 -63.5 -227.5t-218.5 -66.5q-166 0 -234 66.5t-68 227.5v410h188v-410q0 -88 22 -119t82 -31t82 31t22 119v410h188z" />
    <glyph glyph-name="Ucircumflex" unicode="&#xdb;" horiz-adv-x="694" 
d="M548 777l-45 -63l-151 94h-8l-153 -94l-46 68l138 133h131zM639 690v-410q0 -161 -63.5 -227.5t-218.5 -66.5q-166 0 -234 66.5t-68 227.5v410h188v-410q0 -88 22 -119t82 -31t82 31t22 119v410h188z" />
    <glyph glyph-name="Udieresis" unicode="&#xdc;" horiz-adv-x="694" 
d="M224 895h59q36 0 36 -36v-60q0 -37 -36 -37h-59q-36 0 -36 37v60q0 36 36 36zM410 895h59q36 0 36 -36v-60q0 -37 -36 -37h-59q-37 0 -37 37v60q0 36 37 36zM639 690v-410q0 -161 -63.5 -227.5t-218.5 -66.5q-166 0 -234 66.5t-68 227.5v410h188v-410q0 -88 22 -119
t82 -31t82 31t22 119v410h188z" />
    <glyph glyph-name="Yacute" unicode="&#xdd;" horiz-adv-x="633" 
d="M274 721l-51 76l218 149l74 -119zM411 221v-221h-188v221l-228 469h194l99 -233q10 -25 24 -93h11q14 70 23 93l99 233h194z" />
    <glyph glyph-name="Thorn" unicode="&#xde;" horiz-adv-x="623" 
d="M249 576h85q153 0 209 -48.5t56 -183.5q0 -133 -52.5 -181.5t-187.5 -48.5q-57 0 -110 6v-120h-188v690h188v-114zM249 251h80q48 0 65 19t17 74q0 57 -16.5 76t-65.5 19h-80v-188z" />
    <glyph glyph-name="germandbls" unicode="&#xdf;" horiz-adv-x="723" 
d="M564 316l63 -44q50 -38 66.5 -63t16.5 -72q0 -78 -44.5 -113t-155.5 -35q-62 0 -175 11l12 115q38 -1 120 -1q37 0 48.5 4.5t11.5 25.5q0 5 -1.5 10.5t-6 11t-8.5 10t-12 11t-13.5 10.5l-16.5 12t-17 13l-48 29q-72 51 -72 118q0 18 7 34.5t13.5 25t26 29t28.5 30.5
q24 29 32 44t8 34q0 26 -16 36t-66 10q-53 0 -70 -14t-17 -59v-539h-182v383h-83v110l83 4v64q0 100 60.5 138t205.5 38q147 0 199 -35.5t52 -124.5q0 -33 -10.5 -57.5t-44.5 -60.5q-3 -3 -10 -9.5t-9.5 -9.5t-8 -9t-8 -8.5t-6.5 -8t-5.5 -8.5t-3.5 -7.5t-3 -9t-1 -8.5
q0 -6 2.5 -11.5t5.5 -10t10.5 -11t12 -10t15 -11t15.5 -11.5z" />
    <glyph glyph-name="agrave" unicode="&#xe0;" 
d="M330 536l-241 106l74 119l218 -149zM326 511q106 0 157 -43.5t51 -150.5v-317h-144l-18 73q-70 -86 -177 -86q-72 0 -119.5 37.5t-47.5 104.5v50q0 59 42.5 93t116.5 34h165v12q-1 32 -15.5 44.5t-53.5 12.5q-97 0 -212 -7l-17 118q132 25 272 25zM206 172v-17
q0 -40 49 -40q45 0 97 35v61h-104q-42 -1 -42 -39z" />
    <glyph glyph-name="aacute" unicode="&#xe1;" 
d="M252 536l-51 76l218 149l74 -119zM326 511q106 0 157 -43.5t51 -150.5v-317h-144l-18 73q-70 -86 -177 -86q-72 0 -119.5 37.5t-47.5 104.5v50q0 59 42.5 93t116.5 34h165v12q-1 32 -15.5 44.5t-53.5 12.5q-97 0 -212 -7l-17 118q132 25 272 25zM206 172v-17
q0 -40 49 -40q45 0 97 35v61h-104q-42 -1 -42 -39z" />
    <glyph glyph-name="acircumflex" unicode="&#xe2;" 
d="M137 529l-46 68l138 133h131l134 -138l-45 -63l-151 94h-8zM326 511q106 0 157 -43.5t51 -150.5v-317h-144l-18 73q-70 -86 -177 -86q-72 0 -119.5 37.5t-47.5 104.5v50q0 59 42.5 93t116.5 34h165v12q-1 32 -15.5 44.5t-53.5 12.5q-97 0 -212 -7l-17 118q132 25 272 25z
M206 172v-17q0 -40 49 -40q45 0 97 35v61h-104q-42 -1 -42 -39z" />
    <glyph glyph-name="atilde" unicode="&#xe3;" 
d="M187 568h-76q-13 77 13.5 118t69.5 38q38 -3 91.5 -22t73.5 -23q22 -4 27.5 5t5.5 35h76q13 -75 -11.5 -117t-71.5 -39q-39 3 -94.5 23t-71.5 23q-22 3 -27 -5t-5 -36zM326 511q106 0 157 -43.5t51 -150.5v-317h-144l-18 73q-70 -86 -177 -86q-72 0 -119.5 37.5
t-47.5 104.5v50q0 59 42.5 93t116.5 34h165v12q-1 32 -15.5 44.5t-53.5 12.5q-97 0 -212 -7l-17 118q132 25 272 25zM206 172v-17q0 -40 49 -40q45 0 97 35v61h-104q-42 -1 -42 -39z" />
    <glyph glyph-name="adieresis" unicode="&#xe4;" 
d="M229 577h-59q-36 0 -36 37v60q0 36 36 36h59q36 0 36 -36v-60q0 -37 -36 -37zM415 577h-59q-37 0 -37 37v60q0 36 37 36h59q36 0 36 -36v-60q0 -37 -36 -37zM326 511q106 0 157 -43.5t51 -150.5v-317h-144l-18 73q-70 -86 -177 -86q-72 0 -119.5 37.5t-47.5 104.5v50
q0 59 42.5 93t116.5 34h165v12q-1 32 -15.5 44.5t-53.5 12.5q-97 0 -212 -7l-17 118q132 25 272 25zM206 172v-17q0 -40 49 -40q45 0 97 35v61h-104q-42 -1 -42 -39z" />
    <glyph glyph-name="aring" unicode="&#xe5;" 
d="M294 527q-51 0 -87.5 35t-36.5 86q0 50 36.5 85t87.5 35t87.5 -35t36.5 -85q0 -51 -36.5 -86t-87.5 -35zM294 696q-20 0 -33.5 -14t-13.5 -34q0 -21 13.5 -34.5t33.5 -13.5t33.5 13.5t13.5 34.5q0 20 -13.5 34t-33.5 14zM326 511q106 0 157 -43.5t51 -150.5v-317h-144
l-18 73q-70 -86 -177 -86q-72 0 -119.5 37.5t-47.5 104.5v50q0 59 42.5 93t116.5 34h165v12q-1 32 -15.5 44.5t-53.5 12.5q-97 0 -212 -7l-17 118q132 25 272 25zM206 172v-17q0 -40 49 -40q45 0 97 35v61h-104q-42 -1 -42 -39z" />
    <glyph glyph-name="ae" unicode="&#xe6;" horiz-adv-x="881" 
d="M633 129q89 0 190 12l17 -111q-83 -42 -228 -42q-172 0 -231 92q-71 -93 -189 -93q-71 0 -117.5 37.5t-46.5 104.5v50q0 58 41.5 91.5t114.5 33.5h160v14q0 32 -14.5 44.5t-51.5 12.5q-96 0 -209 -7l-16 118q129 25 268 25q83 0 131 -26q58 26 157 26q130 0 187 -43.5
t57 -132.5q1 -70 -38.5 -102t-134.5 -32h-149q7 -41 29 -56.5t73 -15.5zM615 388q-49 1 -67 -17t-20 -76h101q31 0 40 9.5t9 34.5q0 29 -14 39t-49 10zM252 115q45 0 100 38q-7 30 -8 57l-97 1q-41 -1 -41 -39v-17q0 -40 46 -40z" />
    <glyph glyph-name="ccedilla" unicode="&#xe7;" horiz-adv-x="518" 
d="M291 511q122 0 197 -34l-19 -113q-32 0 -80.5 0.5t-66.5 0.5q-57 0 -78.5 -24t-21.5 -92t21.5 -92t78.5 -24q88 0 157 8l16 -115q-76 -38 -206 -38q-142 0 -199.5 58.5t-57.5 202.5t58.5 203t200.5 59zM197 -117l17 66q86 13 125 0.5t36 -65.5q-3 -79 -64.5 -116.5
t-153.5 -25.5l20 72q82 0 87 54q1 11 -9 13t-58 2z" />
    <glyph glyph-name="egrave" unicode="&#xe8;" horiz-adv-x="576" 
d="M339 536l-241 106l74 119l218 -149zM325 129q91 0 194 12l17 -111q-83 -42 -232 -42q-147 0 -209.5 62t-62.5 196q0 146 61.5 205.5t207.5 59.5q131 0 189 -43.5t59 -132.5q1 -70 -39 -102t-135 -32h-149q7 -41 28.5 -56.5t70.5 -15.5zM307 388q-48 1 -65 -16.5
t-19 -76.5h101q31 0 40.5 9.5t9.5 34.5q0 29 -14.5 39t-52.5 10z" />
    <glyph glyph-name="eacute" unicode="&#xe9;" horiz-adv-x="576" 
d="M261 536l-51 76l218 149l74 -119zM325 129q91 0 194 12l17 -111q-83 -42 -232 -42q-147 0 -209.5 62t-62.5 196q0 146 61.5 205.5t207.5 59.5q131 0 189 -43.5t59 -132.5q1 -70 -39 -102t-135 -32h-149q7 -41 28.5 -56.5t70.5 -15.5zM307 388q-48 1 -65 -16.5t-19 -76.5
h101q31 0 40.5 9.5t9.5 34.5q0 29 -14.5 39t-52.5 10z" />
    <glyph glyph-name="ecircumflex" unicode="&#xea;" horiz-adv-x="576" 
d="M147 529l-46 68l138 133h131l134 -138l-45 -63l-151 94h-8zM325 129q91 0 194 12l17 -111q-83 -42 -232 -42q-147 0 -209.5 62t-62.5 196q0 146 61.5 205.5t207.5 59.5q131 0 189 -43.5t59 -132.5q1 -70 -39 -102t-135 -32h-149q7 -41 28.5 -56.5t70.5 -15.5zM307 388
q-48 1 -65 -16.5t-19 -76.5h101q31 0 40.5 9.5t9.5 34.5q0 29 -14.5 39t-52.5 10z" />
    <glyph glyph-name="edieresis" unicode="&#xeb;" horiz-adv-x="576" 
d="M238 577h-59q-36 0 -36 37v60q0 36 36 36h59q36 0 36 -36v-60q0 -37 -36 -37zM424 577h-59q-37 0 -37 37v60q0 36 37 36h59q36 0 36 -36v-60q0 -37 -36 -37zM325 129q91 0 194 12l17 -111q-83 -42 -232 -42q-147 0 -209.5 62t-62.5 196q0 146 61.5 205.5t207.5 59.5
q131 0 189 -43.5t59 -132.5q1 -70 -39 -102t-135 -32h-149q7 -41 28.5 -56.5t70.5 -15.5zM307 388q-48 1 -65 -16.5t-19 -76.5h101q31 0 40.5 9.5t9.5 34.5q0 29 -14.5 39t-52.5 10z" />
    <glyph glyph-name="igrave" unicode="&#xec;" horiz-adv-x="293" 
d="M234 612l-51 -76l-241 106l74 119zM238 0h-183v497h183v-497z" />
    <glyph glyph-name="iacute" unicode="&#xed;" horiz-adv-x="293" 
d="M346 642l-241 -106l-51 76l218 149zM238 0h-183v497h183v-497z" />
    <glyph glyph-name="icircumflex" unicode="&#xee;" horiz-adv-x="293" 
d="M347 592l-45 -63l-151 94h-8l-153 -94l-46 68l138 133h131zM238 0h-183v497h183v-497z" />
    <glyph glyph-name="idieresis" unicode="&#xef;" horiz-adv-x="293" 
d="M23 710h59q36 0 36 -36v-60q0 -37 -36 -37h-59q-36 0 -36 37v60q0 36 36 36zM209 710h59q36 0 36 -36v-60q0 -37 -36 -37h-59q-37 0 -37 37v60q0 36 37 36zM238 0h-183v497h183v-497z" />
    <glyph glyph-name="eth" unicode="&#xf0;" horiz-adv-x="590" 
d="M535 651l-70 -68q91 -108 91 -294q0 -163 -61.5 -233t-204.5 -70q-132 0 -195 55.5t-63 173.5q0 123 51 180t169 57q61 0 101 -15q-17 86 -69.5 119.5t-158.5 25.5l16 116q121 7 208 -30l83 83zM292 115q47 0 60 34t13 140v30q-37 5 -71 5q-40 0 -55.5 -21t-15.5 -85
q0 -60 14.5 -81.5t54.5 -21.5z" />
    <glyph glyph-name="ntilde" unicode="&#xf1;" horiz-adv-x="611" 
d="M207 568h-76q-13 77 13.5 118t69.5 38q38 -3 91.5 -22t73.5 -23q22 -4 27.5 5t5.5 35h76q13 -75 -11.5 -117t-71.5 -39q-39 3 -94.5 23t-71.5 23q-22 3 -27 -5t-5 -36zM419 511q71 0 107.5 -35.5t36.5 -103.5v-372h-182v315q0 24 -9 33t-32 9q-43 0 -107 -26v-331h-182
v497h145l15 -73q104 87 208 87z" />
    <glyph glyph-name="ograve" unicode="&#xf2;" horiz-adv-x="600" 
d="M389 612l-51 -76l-241 106l74 119zM300 511q146 0 206.5 -59.5t60.5 -203.5q0 -143 -60.5 -201.5t-206.5 -58.5q-147 0 -207.5 58.5t-60.5 201.5q0 144 60.5 203.5t207.5 59.5zM301 383q-47 0 -62.5 -26.5t-15.5 -108.5q0 -81 15.5 -107t62.5 -26q46 0 61.5 26t15.5 107
q0 82 -15.5 108.5t-61.5 26.5z" />
    <glyph glyph-name="oacute" unicode="&#xf3;" horiz-adv-x="600" 
d="M501 642l-241 -106l-51 76l218 149zM300 511q146 0 206.5 -59.5t60.5 -203.5q0 -143 -60.5 -201.5t-206.5 -58.5q-147 0 -207.5 58.5t-60.5 201.5q0 144 60.5 203.5t207.5 59.5zM301 383q-47 0 -62.5 -26.5t-15.5 -108.5q0 -81 15.5 -107t62.5 -26q46 0 61.5 26t15.5 107
q0 82 -15.5 108.5t-61.5 26.5z" />
    <glyph glyph-name="ocircumflex" unicode="&#xf4;" horiz-adv-x="600" 
d="M503 592l-45 -63l-151 94h-8l-153 -94l-46 68l138 133h131zM300 511q146 0 206.5 -59.5t60.5 -203.5q0 -143 -60.5 -201.5t-206.5 -58.5q-147 0 -207.5 58.5t-60.5 201.5q0 144 60.5 203.5t207.5 59.5zM301 383q-47 0 -62.5 -26.5t-15.5 -108.5q0 -81 15.5 -107t62.5 -26
q46 0 61.5 26t15.5 107q0 82 -15.5 108.5t-61.5 26.5z" />
    <glyph glyph-name="otilde" unicode="&#xf5;" horiz-adv-x="600" 
d="M202 724q38 -3 91.5 -22t73.5 -23q22 -4 27.5 5t5.5 35h76q13 -75 -11.5 -117t-71.5 -39q-39 3 -94.5 23t-71.5 23q-22 3 -27 -5t-5 -36h-76q-13 77 13.5 118t69.5 38zM300 511q146 0 206.5 -59.5t60.5 -203.5q0 -143 -60.5 -201.5t-206.5 -58.5q-147 0 -207.5 58.5
t-60.5 201.5q0 144 60.5 203.5t207.5 59.5zM301 383q-47 0 -62.5 -26.5t-15.5 -108.5q0 -81 15.5 -107t62.5 -26q46 0 61.5 26t15.5 107q0 82 -15.5 108.5t-61.5 26.5z" />
    <glyph glyph-name="odieresis" unicode="&#xf6;" horiz-adv-x="600" 
d="M178 710h59q36 0 36 -36v-60q0 -37 -36 -37h-59q-36 0 -36 37v60q0 36 36 36zM364 710h59q36 0 36 -36v-60q0 -37 -36 -37h-59q-37 0 -37 37v60q0 36 37 36zM300 511q146 0 206.5 -59.5t60.5 -203.5q0 -143 -60.5 -201.5t-206.5 -58.5q-147 0 -207.5 58.5t-60.5 201.5
q0 144 60.5 203.5t207.5 59.5zM301 383q-47 0 -62.5 -26.5t-15.5 -108.5q0 -81 15.5 -107t62.5 -26q46 0 61.5 26t15.5 107q0 82 -15.5 108.5t-61.5 26.5z" />
    <glyph glyph-name="divide" unicode="&#xf7;" horiz-adv-x="543" 
d="M249 565h44q38 0 52 -14.5t14 -52.5v-25q0 -38 -14 -52t-52 -14h-44q-38 0 -52 14t-14 52v25q0 38 14 52.5t52 14.5zM507 229h-471v127h471v-127zM249 176h44q38 0 52 -14.5t14 -52.5v-24q0 -38 -14 -52.5t-52 -14.5h-44q-38 0 -52 14.5t-14 52.5v24q0 38 14 52.5
t52 14.5z" />
    <glyph glyph-name="oslash" unicode="&#xf8;" horiz-adv-x="600" 
d="M516 543l-35 -71q86 -56 86 -224q0 -143 -60.5 -201.5t-206.5 -58.5q-19 0 -51 2l-44 -92l-123 62l33 68q-83 55 -83 220q0 144 60.5 203.5t207.5 59.5q17 0 47 -2l46 97zM301 115q46 0 61.5 26t15.5 107q0 82 -15.5 108.5t-61.5 26.5q-47 0 -62.5 -26.5t-15.5 -108.5
q0 -81 15.5 -107t62.5 -26z" />
    <glyph glyph-name="ugrave" unicode="&#xf9;" horiz-adv-x="604" 
d="M340 545l-241 106l74 119l218 -149zM552 497v-497h-143l-16 71q-98 -85 -201 -85q-144 0 -144 139v372h182v-315q0 -23 10 -33t34 -10q38 0 96 25v333h182z" />
    <glyph glyph-name="uacute" unicode="&#xfa;" horiz-adv-x="604" 
d="M261 545l-51 76l218 149l74 -119zM552 497v-497h-143l-16 71q-98 -85 -201 -85q-144 0 -144 139v372h182v-315q0 -23 10 -33t34 -10q38 0 96 25v333h182z" />
    <glyph glyph-name="ucircumflex" unicode="&#xfb;" horiz-adv-x="604" 
d="M147 538l-46 68l138 133h131l134 -138l-45 -63l-151 94h-8zM552 497v-497h-143l-16 71q-98 -85 -201 -85q-144 0 -144 139v372h182v-315q0 -23 10 -33t34 -10q38 0 96 25v333h182z" />
    <glyph glyph-name="udieresis" unicode="&#xfc;" horiz-adv-x="604" 
d="M239 586h-59q-36 0 -36 37v60q0 36 36 36h59q36 0 36 -36v-60q0 -37 -36 -37zM425 586h-59q-37 0 -37 37v60q0 36 37 36h59q36 0 36 -36v-60q0 -37 -36 -37zM552 497v-497h-143l-16 71q-98 -85 -201 -85q-144 0 -144 139v372h182v-315q0 -23 10 -33t34 -10q38 0 96 25
v333h182z" />
    <glyph glyph-name="yacute" unicode="&#xfd;" horiz-adv-x="584" 
d="M253 536l-51 76l218 149l74 -119zM582 497l-166 -492q-11 -34 -27 -64t-41.5 -62t-58.5 -50t-78.5 -29t-100.5 1l-13 101q60 14 94.5 36.5t53.5 61.5h-31q-45 0 -58 43l-154 454h193l74 -296q6 -30 14 -85h11q5 17 12.5 48.5t8.5 36.5l73 296h194z" />
    <glyph glyph-name="thorn" unicode="&#xfe;" horiz-adv-x="608" 
d="M394 509q96 0 138 -66t42 -200q0 -146 -44 -201.5t-142 -55.5q-97 0 -159 42q5 -60 4 -104v-109h-182v885h182v-116q1 -37 -6 -133q61 58 167 58zM316 110q40 0 55.5 25.5t15.5 106.5q0 82 -15 107.5t-53 25.5q-37 0 -86 -29v-218q47 -18 83 -18z" />
    <glyph glyph-name="ydieresis" unicode="&#xff;" horiz-adv-x="584" 
d="M231 577h-59q-36 0 -36 37v60q0 36 36 36h59q36 0 36 -36v-60q0 -37 -36 -37zM417 577h-59q-37 0 -37 37v60q0 36 37 36h59q36 0 36 -36v-60q0 -37 -36 -37zM582 497l-166 -492q-11 -34 -27 -64t-41.5 -62t-58.5 -50t-78.5 -29t-100.5 1l-13 101q60 14 94.5 36.5
t53.5 61.5h-31q-45 0 -58 43l-154 454h193l74 -296q6 -30 14 -85h11q5 17 12.5 48.5t8.5 36.5l73 296h194z" />
    <glyph glyph-name="Amacron" unicode="&#x100;" horiz-adv-x="668" 
d="M491 774h-310v110h310v-110zM440 164h-211l-42 -164h-191l188 641q6 22 23.5 35.5t40.5 13.5h173q23 0 40.5 -13.5t23.5 -35.5l188 -641h-191zM406 300l-45 177q-9 42 -13 72h-27q-4 -30 -13 -72l-45 -177h143z" />
    <glyph glyph-name="amacron" unicode="&#x101;" 
d="M450 589h-310v110h310v-110zM326 511q106 0 157 -43.5t51 -150.5v-317h-144l-18 73q-70 -86 -177 -86q-72 0 -119.5 37.5t-47.5 104.5v50q0 59 42.5 93t116.5 34h165v12q-1 32 -15.5 44.5t-53.5 12.5q-97 0 -212 -7l-17 118q132 25 272 25zM206 172v-17q0 -40 49 -40
q45 0 97 35v61h-104q-42 -1 -42 -39z" />
    <glyph glyph-name="Abreve" unicode="&#x102;" horiz-adv-x="668" 
d="M335 739q-86 0 -134.5 48t-38.5 114l85 12q0 -32 21 -47t67 -15t66.5 15t20.5 47l85 -12q10 -66 -38 -114t-134 -48zM440 164h-211l-42 -164h-191l188 641q6 22 23.5 35.5t40.5 13.5h173q23 0 40.5 -13.5t23.5 -35.5l188 -641h-191zM406 300l-45 177q-9 42 -13 72h-27
q-4 -30 -13 -72l-45 -177h143z" />
    <glyph glyph-name="abreve" unicode="&#x103;" 
d="M294 553q-86 0 -134.5 48t-38.5 114l85 12q0 -32 21 -47t67 -15t66.5 15t20.5 47l85 -12q10 -66 -38 -114t-134 -48zM326 511q106 0 157 -43.5t51 -150.5v-317h-144l-18 73q-70 -86 -177 -86q-72 0 -119.5 37.5t-47.5 104.5v50q0 59 42.5 93t116.5 34h165v12
q-1 32 -15.5 44.5t-53.5 12.5q-97 0 -212 -7l-17 118q132 25 272 25zM206 172v-17q0 -40 49 -40q45 0 97 35v61h-104q-42 -1 -42 -39z" />
    <glyph glyph-name="Aogonek" unicode="&#x104;" horiz-adv-x="668" 
d="M674 -128l13 -64q-78 -29 -123 -20.5t-61.5 37.5t-3.5 67q20 58 100 108h-117l-42 164h-211l-42 -164h-191l188 641q6 22 23.5 35.5t40.5 13.5h173q23 0 40.5 -13.5t23.5 -35.5l188 -641q-39 -62 -53 -93q-13 -27 4 -35.5t50 0.5zM406 300l-45 177q-9 42 -13 72h-27
q-4 -30 -13 -72l-45 -177h143z" />
    <glyph glyph-name="aogonek" unicode="&#x105;" 
d="M535 -128l13 -64q-78 -29 -123 -20.5t-61.5 37.5t-3.5 67q20 58 100 108h-70l-18 73q-70 -86 -177 -86q-72 0 -119.5 37.5t-47.5 104.5v50q0 59 42.5 93t116.5 34h165v12q-1 32 -15.5 44.5t-53.5 12.5q-97 0 -212 -7l-17 118q132 25 272 25q106 0 157 -43.5t51 -150.5
v-317q-39 -62 -53 -93q-13 -27 4 -35.5t50 0.5zM206 172v-17q0 -40 49 -40q45 0 97 35v61h-104q-42 -1 -42 -39z" />
    <glyph glyph-name="Cacute" unicode="&#x106;" horiz-adv-x="596" 
d="M536 827l-241 -106l-51 76l218 149zM342 702q125 0 218 -25l-15 -138q-100 3 -203 3q-62 0 -84 -40.5t-22 -156.5t22 -156.5t84 -40.5q145 0 218 8l14 -137q-90 -31 -232 -31q-167 0 -235 80t-68 277t68 277t235 80z" />
    <glyph glyph-name="cacute" unicode="&#x107;" horiz-adv-x="518" 
d="M484 642l-241 -106l-51 76l218 149zM291 511q122 0 197 -34l-19 -113q-32 0 -80.5 0.5t-66.5 0.5q-57 0 -78.5 -24t-21.5 -92t21.5 -92t78.5 -24q88 0 157 8l16 -115q-76 -38 -206 -38q-142 0 -199.5 58.5t-57.5 202.5t58.5 203t200.5 59z" />
    <glyph glyph-name="Cdotaccent" unicode="&#x10a;" horiz-adv-x="596" 
d="M311 901h55q51 0 51 -49v-50q0 -50 -51 -50h-55q-52 0 -52 50v50q0 49 52 49zM342 702q125 0 218 -25l-15 -138q-100 3 -203 3q-62 0 -84 -40.5t-22 -156.5t22 -156.5t84 -40.5q145 0 218 8l14 -137q-90 -31 -232 -31q-167 0 -235 80t-68 277t68 277t235 80z" />
    <glyph glyph-name="cdotaccent" unicode="&#x10b;" horiz-adv-x="518" 
d="M258 715h55q51 0 51 -49v-50q0 -50 -51 -50h-55q-52 0 -52 50v50q0 49 52 49zM291 511q122 0 197 -34l-19 -113q-32 0 -80.5 0.5t-66.5 0.5q-57 0 -78.5 -24t-21.5 -92t21.5 -92t78.5 -24q88 0 157 8l16 -115q-76 -38 -206 -38q-142 0 -199.5 58.5t-57.5 202.5t58.5 203
t200.5 59z" />
    <glyph glyph-name="Ccaron" unicode="&#x10c;" horiz-adv-x="596" 
d="M532 868l-158 -131h-73l-159 131l46 69l145 -78h8l146 78zM342 702q125 0 218 -25l-15 -138q-100 3 -203 3q-62 0 -84 -40.5t-22 -156.5t22 -156.5t84 -40.5q145 0 218 8l14 -137q-90 -31 -232 -31q-167 0 -235 80t-68 277t68 277t235 80z" />
    <glyph glyph-name="ccaron" unicode="&#x10d;" horiz-adv-x="518" 
d="M480 682l-158 -131h-73l-159 131l46 69l145 -78h8l146 78zM291 511q122 0 197 -34l-19 -113q-32 0 -80.5 0.5t-66.5 0.5q-57 0 -78.5 -24t-21.5 -92t21.5 -92t78.5 -24q88 0 157 8l16 -115q-76 -38 -206 -38q-142 0 -199.5 58.5t-57.5 202.5t58.5 203t200.5 59z" />
    <glyph glyph-name="Dcaron" unicode="&#x10e;" horiz-adv-x="691" 
d="M303 737l-159 131l46 69l145 -78h8l146 78l45 -69l-158 -131h-73zM343 700q174 0 241.5 -75t67.5 -280t-67.5 -280t-241.5 -75q-145 0 -283 10v690q168 10 283 10zM343 131q65 0 88 43.5t23 170.5t-23 171t-88 44h-95v-428q29 -1 95 -1z" />
    <glyph glyph-name="dcaron" unicode="&#x10f;" horiz-adv-x="608" 
d="M651 703h32q29 0 40 -9.5t11 -34.5v-46q0 -78 -49 -140l-58 16q14 39 14 94q-41 0 -43 39l2 37q1 25 12 34.5t39 9.5zM375 700h182v-700h-145l-14 77q-61 -89 -186 -89q-94 0 -136 67.5t-42 198.5q0 145 45.5 201t143.5 56t156 -43q-4 68 -4 106v126zM288 135q43 0 87 25
v210q-50 16 -83 16q-41 0 -56 -24.5t-15 -106.5q0 -74 14.5 -97t52.5 -23z" />
    <glyph glyph-name="Dcroat" unicode="&#x110;" horiz-adv-x="693" 
d="M345 700q173 0 241 -75t68 -280t-68 -280t-241 -75q-144 0 -284 10v313h-50v92h50v285q170 10 284 10zM345 131q65 0 88 43.5t23 170.5t-23 171t-88 44h-96v-155h111v-92h-111v-181q29 -1 96 -1z" />
    <glyph glyph-name="dcroat" unicode="&#x111;" horiz-adv-x="605" 
d="M614 553h-57v-553h-145l-14 77q-61 -89 -186 -89q-94 0 -136 67.5t-42 198.5q0 145 45.5 201t143.5 56t156 -43q-2 27 -4 85h-117v77h117v70h182v-70h57v-77zM288 135q43 0 87 25v210q-50 16 -83 16q-41 0 -56 -24.5t-15 -106.5q0 -74 14.5 -97t52.5 -23z" />
    <glyph glyph-name="Emacron" unicode="&#x112;" horiz-adv-x="587" 
d="M475 780h-310v110h310v-110zM545 143l9 -135q-97 -11 -342 -11q-70 0 -113.5 40.5t-43.5 107.5v400q0 67 43.5 107.5t113.5 40.5q245 0 342 -11l-9 -135h-258q-44 0 -44 -43v-84h266v-129h-266v-105q0 -43 44 -43h258z" />
    <glyph glyph-name="emacron" unicode="&#x113;" horiz-adv-x="576" 
d="M459 589h-310v110h310v-110zM325 129q91 0 194 12l17 -111q-83 -42 -232 -42q-147 0 -209.5 62t-62.5 196q0 146 61.5 205.5t207.5 59.5q131 0 189 -43.5t59 -132.5q1 -70 -39 -102t-135 -32h-149q7 -41 28.5 -56.5t70.5 -15.5zM307 388q-48 1 -65 -16.5t-19 -76.5h101
q31 0 40.5 9.5t9.5 34.5q0 29 -14.5 39t-52.5 10z" />
    <glyph glyph-name="Edotaccent" unicode="&#x116;" horiz-adv-x="587" 
d="M348 757h-55q-52 0 -52 50v50q0 49 52 49h55q51 0 51 -49v-50q0 -50 -51 -50zM545 143l9 -135q-97 -11 -342 -11q-70 0 -113.5 40.5t-43.5 107.5v400q0 67 43.5 107.5t113.5 40.5q245 0 342 -11l-9 -135h-258q-44 0 -44 -43v-84h266v-129h-266v-105q0 -43 44 -43h258z
" />
    <glyph glyph-name="edotaccent" unicode="&#x117;" horiz-adv-x="576" 
d="M332 566h-55q-52 0 -52 50v50q0 49 52 49h55q51 0 51 -49v-50q0 -50 -51 -50zM325 129q91 0 194 12l17 -111q-83 -42 -232 -42q-147 0 -209.5 62t-62.5 196q0 146 61.5 205.5t207.5 59.5q131 0 189 -43.5t59 -132.5q1 -70 -39 -102t-135 -32h-149q7 -41 28.5 -56.5
t70.5 -15.5zM307 388q-48 1 -65 -16.5t-19 -76.5h101q31 0 40.5 9.5t9.5 34.5q0 29 -14.5 39t-52.5 10z" />
    <glyph glyph-name="Eogonek" unicode="&#x118;" horiz-adv-x="587" 
d="M555 -120l13 -64q-78 -29 -123 -20.5t-61.5 37.5t-3.5 67q18 53 90 101q-82 -4 -258 -4q-70 0 -113.5 40.5t-43.5 107.5v400q0 67 43.5 107.5t113.5 40.5q245 0 342 -11l-9 -135h-258q-44 0 -44 -43v-84h266v-129h-266v-105q0 -43 44 -43h258l9 -135q-39 -62 -53 -93
q-13 -27 4 -35.5t50 0.5z" />
    <glyph glyph-name="eogonek" unicode="&#x119;" horiz-adv-x="576" 
d="M537 -98l13 -64q-78 -29 -123 -20.5t-61.5 37.5t-3.5 67q11 36 53 73q-52 -7 -111 -7q-147 0 -209.5 62t-62.5 196q0 146 61.5 205.5t207.5 59.5q131 0 189 -43.5t59 -132.5q1 -70 -39 -102t-135 -32h-149q7 -41 28.5 -56.5t70.5 -15.5q91 0 194 12l17 -111
q-39 -62 -53 -93q-13 -27 4 -35.5t50 0.5zM307 388q-48 1 -65 -16.5t-19 -76.5h101q31 0 40.5 9.5t9.5 34.5q0 29 -14.5 39t-52.5 10z" />
    <glyph glyph-name="Ecaron" unicode="&#x11a;" horiz-adv-x="587" 
d="M283 742l-159 131l46 69l145 -78h8l146 78l45 -69l-158 -131h-73zM545 143l9 -135q-97 -11 -342 -11q-70 0 -113.5 40.5t-43.5 107.5v400q0 67 43.5 107.5t113.5 40.5q245 0 342 -11l-9 -135h-258q-44 0 -44 -43v-84h266v-129h-266v-105q0 -43 44 -43h258z" />
    <glyph glyph-name="ecaron" unicode="&#x11b;" horiz-adv-x="576" 
d="M267 551l-159 131l46 69l145 -78h8l146 78l45 -69l-158 -131h-73zM325 129q91 0 194 12l17 -111q-83 -42 -232 -42q-147 0 -209.5 62t-62.5 196q0 146 61.5 205.5t207.5 59.5q131 0 189 -43.5t59 -132.5q1 -70 -39 -102t-135 -32h-149q7 -41 28.5 -56.5t70.5 -15.5z
M307 388q-48 1 -65 -16.5t-19 -76.5h101q31 0 40.5 9.5t9.5 34.5q0 29 -14.5 39t-52.5 10z" />
    <glyph glyph-name="Gbreve" unicode="&#x11e;" horiz-adv-x="658" 
d="M346 739q-86 0 -134.5 48t-38.5 114l85 12q0 -32 21 -47t67 -15t66.5 15t20.5 47l85 -12q10 -66 -38 -114t-134 -48zM613 397v-397h-138l-17 70q-30 -34 -80 -59t-114 -25q-118 0 -171.5 84t-53.5 276q0 200 71 279t247 79q131 0 230 -27l-14 -136q-110 3 -214 3
q-73 0 -98 -38.5t-25 -161.5q0 -115 21 -156t79 -41q48 0 97 17v233h180z" />
    <glyph glyph-name="gbreve" unicode="&#x11f;" horiz-adv-x="593" 
d="M287 553q-86 0 -134.5 48t-38.5 114l85 12q0 -32 21 -47t67 -15t66.5 15t20.5 47l85 -12q10 -66 -38 -114t-134 -48zM577 425l-58 -8q9 -28 9 -64q0 -87 -55 -122.5t-191 -35.5q-43 0 -79 3q-11 -13 -4 -30.5t33 -20.5l181 -16q81 -7 116.5 -43.5t35.5 -108.5
q0 -99 -60.5 -132t-214.5 -33q-112 0 -171.5 15t-81.5 44.5t-22 85.5q0 37 17.5 62t60.5 44q-33 35 -25 83.5t47 69.5q-79 34 -79 134q0 87 55.5 123t191.5 36q89 0 138 -14h165zM283 300q45 0 61 11t16 42t-16 41.5t-61 10.5t-61.5 -10.5t-16.5 -41.5t16.5 -42t61.5 -11z
M394 -19q0 21 -15.5 27.5t-63.5 10.5l-104 9q-25 -18 -25 -43q0 -27 19.5 -35t81.5 -8q65 0 86 7.5t21 31.5z" />
    <glyph glyph-name="Gdotaccent" unicode="&#x120;" horiz-adv-x="658" 
d="M374 752h-55q-52 0 -52 50v50q0 49 52 49h55q51 0 51 -49v-50q0 -50 -51 -50zM613 397v-397h-138l-17 70q-30 -34 -80 -59t-114 -25q-118 0 -171.5 84t-53.5 276q0 200 71 279t247 79q131 0 230 -27l-14 -136q-110 3 -214 3q-73 0 -98 -38.5t-25 -161.5q0 -115 21 -156
t79 -41q48 0 97 17v233h180z" />
    <glyph glyph-name="gdotaccent" unicode="&#x121;" horiz-adv-x="593" 
d="M315 566h-55q-52 0 -52 50v50q0 49 52 49h55q51 0 51 -49v-50q0 -50 -51 -50zM577 425l-58 -8q9 -28 9 -64q0 -87 -55 -122.5t-191 -35.5q-43 0 -79 3q-11 -13 -4 -30.5t33 -20.5l181 -16q81 -7 116.5 -43.5t35.5 -108.5q0 -99 -60.5 -132t-214.5 -33q-112 0 -171.5 15
t-81.5 44.5t-22 85.5q0 37 17.5 62t60.5 44q-33 35 -25 83.5t47 69.5q-79 34 -79 134q0 87 55.5 123t191.5 36q89 0 138 -14h165zM283 300q45 0 61 11t16 42t-16 41.5t-61 10.5t-61.5 -10.5t-16.5 -41.5t16.5 -42t61.5 -11zM394 -19q0 21 -15.5 27.5t-63.5 10.5l-104 9
q-25 -18 -25 -43q0 -27 19.5 -35t81.5 -8q65 0 86 7.5t21 31.5z" />
    <glyph glyph-name="Gcommaaccent" unicode="&#x122;" horiz-adv-x="658" 
d="M613 397v-397h-138l-17 70q-30 -34 -80 -59t-114 -25q-118 0 -171.5 84t-53.5 276q0 200 71 279t247 79q131 0 230 -27l-14 -136q-110 3 -214 3q-73 0 -98 -38.5t-25 -161.5q0 -115 21 -156t79 -41q48 0 97 17v233h180zM327 -49h34q32 0 44.5 -10.5t12.5 -38.5v-50
q0 -86 -54 -153l-64 17q15 42 15 103q-47 0 -47 43l2 40q1 28 13 38.5t44 10.5z" />
    <glyph glyph-name="gcommaaccent" unicode="&#x123;" horiz-adv-x="593" 
d="M316 549h-34q-32 0 -44.5 10.5t-12.5 38.5v50q0 86 54 153l64 -17q-15 -42 -15 -103q47 0 47 -43l-2 -40q-1 -28 -13 -38.5t-44 -10.5zM577 425l-58 -8q9 -28 9 -64q0 -87 -55 -122.5t-191 -35.5q-43 0 -79 3q-11 -13 -4 -30.5t33 -20.5l181 -16q81 -7 116.5 -43.5
t35.5 -108.5q0 -99 -60.5 -132t-214.5 -33q-112 0 -171.5 15t-81.5 44.5t-22 85.5q0 37 17.5 62t60.5 44q-33 35 -25 83.5t47 69.5q-79 34 -79 134q0 87 55.5 123t191.5 36q89 0 138 -14h165zM283 300q45 0 61 11t16 42t-16 41.5t-61 10.5t-61.5 -10.5t-16.5 -41.5t16.5 -42
t61.5 -11zM394 -19q0 21 -15.5 27.5t-63.5 10.5l-104 9q-25 -18 -25 -43q0 -27 19.5 -35t81.5 -8q65 0 86 7.5t21 31.5z" />
    <glyph glyph-name="Hbar" unicode="&#x126;" horiz-adv-x="705" 
d="M698 510h-55v-510h-188v298h-205v-298h-188v510h-54v84h54v96h188v-96h205v96h188v-96h55v-84zM455 510h-205v-75h205v75z" />
    <glyph glyph-name="hbar" unicode="&#x127;" horiz-adv-x="614" 
d="M422 511q71 0 107.5 -35.5t36.5 -103.5v-372h-182v315q0 24 -9 33t-32 9q-46 0 -107 -26v-331h-182v553h-59v77h59v70h182v-70h115v-77h-114v-12q0 -56 -10 -108q98 78 195 78z" />
    <glyph glyph-name="Imacron" unicode="&#x12a;" horiz-adv-x="308" 
d="M310 774h-310v110h310v-110zM247 0h-186v690h186v-690z" />
    <glyph glyph-name="imacron" unicode="&#x12b;" horiz-adv-x="293" 
d="M303 589h-310v110h310v-110zM238 0h-183v497h183v-497z" />
    <glyph glyph-name="Iogonek" unicode="&#x12e;" horiz-adv-x="308" 
d="M247 0h-23q-39 -62 -53 -93q-13 -27 4 -35.5t50 0.5l13 -64q-78 -29 -123 -20.5t-61.5 37.5t-3.5 67q20 58 100 108h-89v690h186v-690z" />
    <glyph glyph-name="iogonek" unicode="&#x12f;" horiz-adv-x="293" 
d="M175 566h-55q-52 0 -52 50v50q0 49 52 49h55q51 0 51 -49v-50q0 -50 -51 -50zM238 0h-17q-39 -62 -53 -93q-13 -27 4 -35.5t50 0.5l13 -64q-78 -29 -123 -20.5t-61.5 37.5t-3.5 67q20 58 100 108h-92v497h183v-497z" />
    <glyph glyph-name="Idotaccent" unicode="&#x130;" horiz-adv-x="308" 
d="M128 901h55q51 0 51 -49v-50q0 -50 -51 -50h-55q-52 0 -52 50v50q0 49 52 49zM247 0h-186v690h186v-690z" />
    <glyph glyph-name="dotlessi" unicode="&#x131;" horiz-adv-x="293" 
d="M238 0h-183v497h183v-497z" />
    <glyph glyph-name="IJ" unicode="&#x132;" horiz-adv-x="696" 
d="M247 0h-186v690h186v-690zM638 690v-555q0 -71 -45 -109.5t-125 -38.5q-97 0 -145 23l20 121h47q62 0 62 43v516h186z" />
    <glyph glyph-name="ij" unicode="&#x133;" horiz-adv-x="583" 
d="M396 728h79q52 0 52 -53v-53q0 -53 -52 -53h-79q-52 0 -52 53v53q0 53 52 53zM106 721h78q53 0 53 -54v-52q0 -53 -53 -53h-78q-53 0 -53 53v52q0 54 53 54zM236 0h-181v497h181v-497zM528 497v-455q0 -75 -39.5 -139.5t-106.5 -95.5l-100 80q65 68 65 155v455h181z" />
    <glyph glyph-name="Kcommaaccent" unicode="&#x136;" horiz-adv-x="656" 
d="M659 0h-209l-162 295h-47q8 -35 8 -64v-231h-188v690h188v-183q0 -44 -9 -86h47l159 269h202l-168 -272q-21 -37 -56 -59v-3q40 -22 64 -65zM323 -49h34q32 0 44.5 -10.5t12.5 -38.5v-50q0 -86 -54 -153l-64 17q15 42 15 103q-47 0 -47 43l2 40q1 28 13 38.5t44 10.5z
" />
    <glyph glyph-name="kcommaaccent" unicode="&#x137;" horiz-adv-x="585" 
d="M589 0h-202l-125 222h-36q7 -46 7 -74v-148h-182v700h182v-278q0 -51 -7 -94h37l107 169h200l-115 -167q-18 -33 -52 -54v-4q10 -6 26.5 -24t25.5 -36zM283 -42h34q32 0 44.5 -10.5t12.5 -38.5v-50q0 -86 -54 -153l-64 17q15 43 15 103q-47 0 -47 43l2 40q1 28 13 38.5
t44 10.5z" />
    <glyph glyph-name="Lacute" unicode="&#x139;" horiz-adv-x="546" 
d="M355 827l-241 -106l-51 76l218 149zM246 690v-497q0 -43 47 -43h234l9 -141q-98 -12 -317 -12q-77 0 -119 41.5t-42 110.5v541h188z" />
    <glyph glyph-name="lacute" unicode="&#x13a;" horiz-adv-x="344" 
d="M347 837l-241 -106l-51 76l218 149zM233 700v-527q0 -43 53 -43h36l21 -120q-40 -23 -134 -23q-73 0 -115 36.5t-42 101.5v575h181z" />
    <glyph glyph-name="Lcommaaccent" unicode="&#x13b;" horiz-adv-x="546" 
d="M246 690v-497q0 -43 47 -43h234l9 -141q-98 -12 -317 -12q-77 0 -119 41.5t-42 110.5v541h188zM277 -49h34q32 0 44.5 -10.5t12.5 -38.5v-50q0 -86 -54 -153l-64 17q15 42 15 103q-47 0 -47 43l2 40q1 28 13 38.5t44 10.5z" />
    <glyph glyph-name="lcommaaccent" unicode="&#x13c;" horiz-adv-x="344" 
d="M233 700v-527q0 -43 53 -43h36l21 -120q-40 -23 -134 -23q-73 0 -115 36.5t-42 101.5v575h181zM170 -49h34q32 0 44.5 -10.5t12.5 -38.5v-50q0 -86 -54 -153l-64 17q15 42 15 103q-47 0 -47 43l2 40q1 28 13 38.5t44 10.5z" />
    <glyph glyph-name="Lcaron" unicode="&#x13d;" horiz-adv-x="546" 
d="M375 691h34q32 0 44.5 -10.5t12.5 -38.5v-50q0 -86 -54 -153l-64 17q15 42 15 103q-47 0 -47 43l2 40q1 28 13 38.5t44 10.5zM246 690v-497q0 -43 47 -43h234l9 -141q-98 -12 -317 -12q-77 0 -119 41.5t-42 110.5v541h188z" />
    <glyph glyph-name="lcaron" unicode="&#x13e;" horiz-adv-x="344" 
d="M326 703h32q29 0 40 -9.5t11 -34.5v-46q0 -78 -49 -140l-58 16q14 39 14 94q-41 0 -43 39l2 37q1 25 12 34.5t39 9.5zM233 700v-527q0 -43 53 -43h36l21 -120q-40 -23 -134 -23q-73 0 -115 36.5t-42 101.5v575h181z" />
    <glyph glyph-name="Ldot" unicode="&#x13f;" horiz-adv-x="546" 
d="M246 690v-497q0 -43 47 -43h234l9 -141q-98 -12 -317 -12q-77 0 -119 41.5t-42 110.5v541h188zM452 343h-55q-51 0 -51 49v50q0 50 51 50h55q52 0 52 -50v-50q0 -49 -52 -49z" />
    <glyph glyph-name="ldot" unicode="&#x140;" horiz-adv-x="437" 
d="M233 700v-527q0 -43 53 -43h36l21 -120q-40 -23 -134 -23q-73 0 -115 36.5t-42 101.5v575h181zM387 317h-55q-51 0 -51 49v50q0 49 51 49h55q51 0 51 -49v-50q0 -49 -51 -49z" />
    <glyph glyph-name="Lslash" unicode="&#x141;" horiz-adv-x="548" 
d="M529 150l9 -141q-98 -12 -317 -12q-77 0 -119 41.5t-42 110.5v147l-50 -19v94l50 19v300h188v-226l106 41v-94l-106 -41v-177q0 -43 47 -43h234z" />
    <glyph glyph-name="lslash" unicode="&#x142;" horiz-adv-x="375" 
d="M349 130l20 -120q-39 -23 -133 -23q-73 0 -115 36.5t-42 101.5v171l-71 -28v94l71 28v310h181v-239l89 35v-94l-89 -35v-194q0 -43 53 -43h36z" />
    <glyph glyph-name="Nacute" unicode="&#x143;" horiz-adv-x="731" 
d="M572 827l-241 -106l-51 76l218 149zM671 690v-624q0 -66 -65 -66h-89q-27 0 -42 12.5t-31 42.5l-164 296q-27 51 -45 113h-8q8 -62 8 -118v-346h-175v624q0 66 66 66h88q27 0 41.5 -12.5t31.5 -42.5l158 -285q25 -45 52 -115h8q-7 72 -7 121l-1 334h174z" />
    <glyph glyph-name="nacute" unicode="&#x144;" horiz-adv-x="611" 
d="M272 536l-51 76l218 149l74 -119zM419 511q71 0 107.5 -35.5t36.5 -103.5v-372h-182v315q0 24 -9 33t-32 9q-43 0 -107 -26v-331h-182v497h145l15 -73q104 87 208 87z" />
    <glyph glyph-name="Ncommaaccent" unicode="&#x145;" horiz-adv-x="731" 
d="M671 690v-624q0 -66 -65 -66h-89q-27 0 -42 12.5t-31 42.5l-164 296q-27 51 -45 113h-8q8 -62 8 -118v-346h-175v624q0 66 66 66h88q27 0 41.5 -12.5t31.5 -42.5l158 -285q25 -45 52 -115h8q-7 72 -7 121l-1 334h174zM352 -49h34q32 0 44.5 -10.5t12.5 -38.5v-50
q0 -86 -54 -153l-64 17q15 42 15 103q-47 0 -47 43l2 40q1 28 13 38.5t44 10.5z" />
    <glyph glyph-name="ncommaaccent" unicode="&#x146;" horiz-adv-x="611" 
d="M419 511q71 0 107.5 -35.5t36.5 -103.5v-372h-182v315q0 24 -9 33t-32 9q-43 0 -107 -26v-331h-182v497h145l15 -73q104 87 208 87zM280 -42h34q32 0 44.5 -10.5t12.5 -38.5v-50q0 -86 -54 -153l-64 17q15 43 15 103q-47 0 -47 43l2 40q1 28 13 38.5t44 10.5z" />
    <glyph glyph-name="Ncaron" unicode="&#x147;" horiz-adv-x="731" 
d="M568 868l-158 -131h-73l-159 131l46 69l145 -78h8l146 78zM671 690v-624q0 -66 -65 -66h-89q-27 0 -42 12.5t-31 42.5l-164 296q-27 51 -45 113h-8q8 -62 8 -118v-346h-175v624q0 66 66 66h88q27 0 41.5 -12.5t31.5 -42.5l158 -285q25 -45 52 -115h8q-7 72 -7 121l-1 334
h174z" />
    <glyph glyph-name="ncaron" unicode="&#x148;" horiz-adv-x="611" 
d="M278 551l-159 131l46 69l145 -78h8l146 78l45 -69l-158 -131h-73zM419 511q71 0 107.5 -35.5t36.5 -103.5v-372h-182v315q0 24 -9 33t-32 9q-43 0 -107 -26v-331h-182v497h145l15 -73q104 87 208 87z" />
    <glyph glyph-name="Eng" unicode="&#x14a;" horiz-adv-x="732" 
d="M671 690v-733q0 -77 -39 -120.5t-104 -43.5q-79 0 -131 23l20 118h38q52 0 52 38v35h-13q-14 0 -41 47l-173 292q-17 27 -46 113h-7q8 -61 8 -112v-347h-175v624q0 66 66 66h81q27 0 42.5 -12.5t32.5 -42.5l163 -280q28 -51 51 -115h8q-8 64 -8 119v331h175z" />
    <glyph glyph-name="eng" unicode="&#x14b;" horiz-adv-x="611" 
d="M419 511q144 0 144 -139v-406q0 -78 -39 -120.5t-110 -42.5q-92 0 -138 23l20 117h38q47 0 47 39v333q0 22 -9 31t-33 9q-41 0 -106 -25v-330h-182v497h142l16 -74q103 88 210 88z" />
    <glyph glyph-name="Omacron" unicode="&#x14c;" horiz-adv-x="697" 
d="M503 774h-310v110h310v-110zM348 704q118 0 183.5 -31.5t96.5 -109t31 -218.5t-31 -218.5t-96.5 -109t-183.5 -31.5q-88 0 -144.5 16.5t-94.5 58t-54 110t-16 174.5t16 174.5t54 110t94.5 58t144.5 16.5zM348 560q-66 0 -89 -44t-23 -171t23 -171t89 -44t89 44t23 171
t-23 171t-89 44z" />
    <glyph glyph-name="omacron" unicode="&#x14d;" horiz-adv-x="600" 
d="M458 589h-310v110h310v-110zM300 511q146 0 206.5 -59.5t60.5 -203.5q0 -143 -60.5 -201.5t-206.5 -58.5q-147 0 -207.5 58.5t-60.5 201.5q0 144 60.5 203.5t207.5 59.5zM301 383q-47 0 -62.5 -26.5t-15.5 -108.5q0 -81 15.5 -107t62.5 -26q46 0 61.5 26t15.5 107
q0 82 -15.5 108.5t-61.5 26.5z" />
    <glyph glyph-name="Ohungarumlaut" unicode="&#x150;" horiz-adv-x="697" 
d="M395 882l-162 -172l-72 58l119 190zM598 882l-162 -172l-72 58l119 190zM348 704q118 0 183.5 -31.5t96.5 -109t31 -218.5t-31 -218.5t-96.5 -109t-183.5 -31.5q-88 0 -144.5 16.5t-94.5 58t-54 110t-16 174.5t16 174.5t54 110t94.5 58t144.5 16.5zM348 560
q-66 0 -89 -44t-23 -171t23 -171t89 -44t89 44t23 171t-23 171t-89 44z" />
    <glyph glyph-name="ohungarumlaut" unicode="&#x151;" horiz-adv-x="600" 
d="M350 697l-162 -172l-72 58l119 190zM553 697l-162 -172l-72 58l119 190zM300 511q146 0 206.5 -59.5t60.5 -203.5q0 -143 -60.5 -201.5t-206.5 -58.5q-147 0 -207.5 58.5t-60.5 201.5q0 144 60.5 203.5t207.5 59.5zM301 383q-47 0 -62.5 -26.5t-15.5 -108.5
q0 -81 15.5 -107t62.5 -26q46 0 61.5 26t15.5 107q0 82 -15.5 108.5t-61.5 26.5z" />
    <glyph glyph-name="OE" unicode="&#x152;" horiz-adv-x="965" 
d="M923 143l9 -135q-96 -11 -339 -11q-45 0 -81 22q-70 -33 -167 -33q-116 0 -180.5 31.5t-95 109t-30.5 218.5t30.5 218.5t95 109t180.5 31.5q100 0 177 -28q34 17 74 17q241 0 336 -11l-9 -135h-244q-45 0 -45 -43v-87h254v-122h-254v-109q0 -43 45 -43h244zM237 345
q0 -127 22 -171t86 -44q62 0 100 11v8v392v10q-38 9 -100 9q-64 0 -86 -43.5t-22 -171.5z" />
    <glyph glyph-name="oe" unicode="&#x153;" horiz-adv-x="907" 
d="M659 128q84 0 190 11l17 -111q-83 -41 -228 -41q-108 0 -170 36q-60 -35 -171 -35q-146 0 -205.5 58.5t-59.5 201.5q0 144 60 203.5t205 59.5q110 0 170 -35q57 33 166 33q130 0 188 -43t58 -128q1 -76 -39.5 -106.5t-144.5 -30.5h-136q7 -42 28.5 -57.5t71.5 -15.5z
M636 387q-45 0 -61 -17.5t-18 -75.5h95q33 0 43 9t9 38q-1 26 -16 36t-52 10zM297 115q43 0 59.5 21t18.5 83l-1 26q0 20 1 30q-2 64 -18 86t-58 22q-46 0 -60.5 -26.5t-14.5 -108.5q0 -81 14.5 -107t58.5 -26z" />
    <glyph glyph-name="Racute" unicode="&#x154;" horiz-adv-x="661" 
d="M287 721l-51 76l218 149l74 -119zM641 0h-197l-49 208q-7 30 -21.5 41t-43.5 11h-85v-260h-185v690q98 10 279 10q149 0 212 -45.5t63 -162.5q0 -152 -136 -167v-6q87 -14 106 -106zM245 397h90q53 0 71.5 17t18.5 66t-18.5 66t-71.5 17h-90v-166z" />
    <glyph glyph-name="racute" unicode="&#x155;" horiz-adv-x="440" 
d="M201 536l-51 76l218 149l74 -119zM193 497l16 -73q96 87 197 87h28l-17 -167h-47q-50 0 -137 -21v-323h-182v497h142z" />
    <glyph glyph-name="Rcommaaccent" unicode="&#x156;" horiz-adv-x="661" 
d="M641 0h-197l-49 208q-7 30 -21.5 41t-43.5 11h-85v-260h-185v690q98 10 279 10q149 0 212 -45.5t63 -162.5q0 -152 -136 -167v-6q87 -14 106 -106zM245 397h90q53 0 71.5 17t18.5 66t-18.5 66t-71.5 17h-90v-166zM325 -49h34q32 0 44.5 -10.5t12.5 -38.5v-50
q0 -86 -54 -153l-64 17q15 42 15 103q-47 0 -47 43l2 40q1 28 13 38.5t44 10.5z" />
    <glyph glyph-name="rcommaaccent" unicode="&#x157;" horiz-adv-x="440" 
d="M434 511l-17 -167h-47q-50 0 -137 -21v-323h-182v497h142l16 -73q96 87 197 87h28zM114 -42h34q32 0 44.5 -10.5t12.5 -38.5v-50q0 -86 -54 -153l-64 17q15 43 15 103q-47 0 -47 43l2 40q1 28 13 38.5t44 10.5z" />
    <glyph glyph-name="Rcaron" unicode="&#x158;" horiz-adv-x="661" 
d="M293 737l-159 131l46 69l145 -78h8l146 78l45 -69l-158 -131h-73zM641 0h-197l-49 208q-7 30 -21.5 41t-43.5 11h-85v-260h-185v690q98 10 279 10q149 0 212 -45.5t63 -162.5q0 -152 -136 -167v-6q87 -14 106 -106zM245 397h90q53 0 71.5 17t18.5 66t-18.5 66t-71.5 17
h-90v-166z" />
    <glyph glyph-name="rcaron" unicode="&#x159;" horiz-adv-x="440" 
d="M208 551l-159 131l46 69l145 -78h8l146 78l45 -69l-158 -131h-73zM193 497l16 -73q96 87 197 87h28l-17 -167h-47q-50 0 -137 -21v-323h-182v497h142z" />
    <glyph glyph-name="Sacute" unicode="&#x15a;" horiz-adv-x="597" 
d="M503 827l-241 -106l-51 76l218 149zM305 703q145 0 240 -31l-11 -123q-177 3 -231 3q-48 0 -64 -8t-16 -35q0 -23 13.5 -35.5t51.5 -25.5l128 -49q83 -33 116.5 -81t33.5 -126q0 -117 -58.5 -161t-211.5 -44q-132 0 -253 30l11 133q205 -5 241 -5q50 0 66.5 8.5
t16.5 34.5q0 24 -11.5 35t-43.5 23l-138 55q-81 33 -115 80.5t-34 124.5q0 115 59.5 156t209.5 41z" />
    <glyph glyph-name="sacute" unicode="&#x15b;" horiz-adv-x="541" 
d="M474 642l-241 -106l-51 76l218 149zM252 511q144 -2 243 -21l-11 -110q-66 1 -194 1q-58 0 -71 -2.5t-13 -18.5q0 -3 0.5 -6t2 -5t3 -3.5t4.5 -3l6 -3t8.5 -3t10 -2.5t12.5 -3t14 -4l120 -32q68 -19 98 -51.5t30 -95.5q0 -91 -53 -125t-182 -34q-127 0 -242 19l11 110
q10 0 73 -0.5t102 -0.5q74 0 94.5 4.5t20.5 21.5q0 4 -1 7t-4 6t-5.5 4.5t-9 3.5t-12 3.5t-16 4.5t-19.5 6l-116 32q-73 21 -99.5 57.5t-26.5 99.5q0 74 50.5 109t171.5 35z" />
    <glyph glyph-name="Scedilla" unicode="&#x15e;" horiz-adv-x="597" 
d="M305 703q145 0 240 -31l-11 -123q-177 3 -231 3q-48 0 -64 -8t-16 -35q0 -23 13.5 -35.5t51.5 -25.5l128 -49q83 -33 116.5 -81t33.5 -126q0 -117 -58.5 -161t-211.5 -44q-132 0 -253 30l11 133q205 -5 241 -5q50 0 66.5 8.5t16.5 34.5q0 24 -11.5 35t-43.5 23l-138 55
q-81 33 -115 80.5t-34 124.5q0 115 59.5 156t209.5 41zM220 -129l17 66q86 13 125 0.5t36 -65.5q-3 -79 -64.5 -116.5t-153.5 -25.5l20 72q82 0 87 54q1 11 -9 13t-58 2z" />
    <glyph glyph-name="scedilla" unicode="&#x15f;" horiz-adv-x="541" 
d="M252 511q144 -2 243 -21l-11 -110q-66 1 -194 1q-58 0 -71 -2.5t-13 -18.5q0 -3 0.5 -6t2 -5t3 -3.5t4.5 -3l6 -3t8.5 -3t10 -2.5t12.5 -3t14 -4l120 -32q68 -19 98 -51.5t30 -95.5q0 -91 -53 -125t-182 -34q-127 0 -242 19l11 110q10 0 73 -0.5t102 -0.5q74 0 94.5 4.5
t20.5 21.5q0 4 -1 7t-4 6t-5.5 4.5t-9 3.5t-12 3.5t-16 4.5t-19.5 6l-116 32q-73 21 -99.5 57.5t-26.5 99.5q0 74 50.5 109t171.5 35zM180 -116l17 66q86 13 125 0.5t36 -65.5q-3 -79 -64.5 -116.5t-153.5 -25.5l20 72q82 0 87 54q1 11 -9 13t-58 2z" />
    <glyph glyph-name="Scaron" unicode="&#x160;" horiz-adv-x="597" 
d="M499 868l-158 -131h-73l-159 131l46 69l145 -78h8l146 78zM305 703q145 0 240 -31l-11 -123q-177 3 -231 3q-48 0 -64 -8t-16 -35q0 -23 13.5 -35.5t51.5 -25.5l128 -49q83 -33 116.5 -81t33.5 -126q0 -117 -58.5 -161t-211.5 -44q-132 0 -253 30l11 133q205 -5 241 -5
q50 0 66.5 8.5t16.5 34.5q0 24 -11.5 35t-43.5 23l-138 55q-81 33 -115 80.5t-34 124.5q0 115 59.5 156t209.5 41z" />
    <glyph glyph-name="scaron" unicode="&#x161;" horiz-adv-x="541" 
d="M470 682l-158 -131h-73l-159 131l46 69l145 -78h8l146 78zM252 511q144 -2 243 -21l-11 -110q-66 1 -194 1q-58 0 -71 -2.5t-13 -18.5q0 -3 0.5 -6t2 -5t3 -3.5t4.5 -3l6 -3t8.5 -3t10 -2.5t12.5 -3t14 -4l120 -32q68 -19 98 -51.5t30 -95.5q0 -91 -53 -125t-182 -34
q-127 0 -242 19l11 110q10 0 73 -0.5t102 -0.5q74 0 94.5 4.5t20.5 21.5q0 4 -1 7t-4 6t-5.5 4.5t-9 3.5t-12 3.5t-16 4.5t-19.5 6l-116 32q-73 21 -99.5 57.5t-26.5 99.5q0 74 50.5 109t171.5 35z" />
    <glyph glyph-name="Tcedilla" unicode="&#x162;" horiz-adv-x="613" 
d="M600 545h-200v-545h-188v545h-198v145h586v-145zM220 -115l17 66q86 13 125 0.5t36 -65.5q-3 -79 -64.5 -116.5t-153.5 -25.5l20 72q82 0 87 54q1 11 -9 13t-58 2z" />
    <glyph glyph-name="tcedilla" unicode="&#x163;" horiz-adv-x="426" 
d="M281 383v-210q0 -24 11 -33.5t37 -9.5h58l20 -120q-59 -23 -156 -23q-71 0 -111 37t-40 104l-1 255h-85v109l85 4v135h182v-134h129v-114h-129zM155 -118l17 66q86 13 125 0.5t36 -65.5q-3 -79 -64.5 -116.5t-153.5 -25.5l20 72q82 0 87 54q1 11 -9 13t-58 2z" />
    <glyph glyph-name="Tcaron" unicode="&#x164;" horiz-adv-x="613" 
d="M270 737l-159 131l46 69l145 -78h8l146 78l45 -69l-158 -131h-73zM600 545h-200v-545h-188v545h-198v145h586v-145z" />
    <glyph glyph-name="tcaron" unicode="&#x165;" horiz-adv-x="426" 
d="M352 803h34q32 0 44.5 -10.5t12.5 -38.5v-50q0 -86 -54 -153l-64 17q15 42 15 103q-47 0 -47 43l2 40q1 28 13 38.5t44 10.5zM281 497h129v-114h-129v-210q0 -24 11 -33.5t37 -9.5h58l20 -120q-59 -23 -156 -23q-71 0 -111 37t-40 104l-1 255h-85v109l85 4v135h182v-134z
" />
    <glyph glyph-name="Tbar" unicode="&#x166;" horiz-adv-x="616" 
d="M402 545v-139h121v-85h-121v-321h-188v321h-122v85h122v139h-199v145h586v-145h-199z" />
    <glyph glyph-name="tbar" unicode="&#x167;" horiz-adv-x="426" 
d="M281 383v-60h93v-84h-93v-66q0 -24 11 -33.5t37 -9.5h58l20 -120q-59 -23 -156 -23q-71 0 -111 37t-40 104v111h-58v84h58l-1 60h-85v109l85 4v135h182v-134h129v-114h-129z" />
    <glyph glyph-name="Umacron" unicode="&#x16a;" horiz-adv-x="694" 
d="M503 774h-310v110h310v-110zM639 690v-410q0 -161 -63.5 -227.5t-218.5 -66.5q-166 0 -234 66.5t-68 227.5v410h188v-410q0 -88 22 -119t82 -31t82 31t22 119v410h188z" />
    <glyph glyph-name="umacron" unicode="&#x16b;" horiz-adv-x="604" 
d="M459 598h-310v110h310v-110zM552 497v-497h-143l-16 71q-98 -85 -201 -85q-144 0 -144 139v372h182v-315q0 -23 10 -33t34 -10q38 0 96 25v333h182z" />
    <glyph glyph-name="Uring" unicode="&#x16e;" horiz-adv-x="694" 
d="M348 954q51 0 87.5 -35t36.5 -85q0 -51 -36.5 -86t-87.5 -35t-87.5 35t-36.5 86q0 50 36.5 85t87.5 35zM348 882q-20 0 -33.5 -14t-13.5 -34q0 -21 13.5 -34.5t33.5 -13.5t33.5 13.5t13.5 34.5q0 20 -13.5 34t-33.5 14zM639 690v-410q0 -161 -63.5 -227.5t-218.5 -66.5
q-166 0 -234 66.5t-68 227.5v410h188v-410q0 -88 22 -119t82 -31t82 31t22 119v410h188z" />
    <glyph glyph-name="uring" unicode="&#x16f;" horiz-adv-x="604" 
d="M304 536q-51 0 -87.5 35t-36.5 86q0 50 36.5 85t87.5 35t87.5 -35t36.5 -85q0 -51 -36.5 -86t-87.5 -35zM304 705q-20 0 -33.5 -14t-13.5 -34q0 -21 13.5 -34.5t33.5 -13.5t33.5 13.5t13.5 34.5q0 20 -13.5 34t-33.5 14zM552 497v-497h-143l-16 71q-98 -85 -201 -85
q-144 0 -144 139v372h182v-315q0 -23 10 -33t34 -10q38 0 96 25v333h182z" />
    <glyph glyph-name="Uhungarumlaut" unicode="&#x170;" horiz-adv-x="694" 
d="M395 882l-162 -172l-72 58l119 190zM598 882l-162 -172l-72 58l119 190zM639 690v-410q0 -161 -63.5 -227.5t-218.5 -66.5q-166 0 -234 66.5t-68 227.5v410h188v-410q0 -88 22 -119t82 -31t82 31t22 119v410h188z" />
    <glyph glyph-name="uhungarumlaut" unicode="&#x171;" horiz-adv-x="604" 
d="M189 534l-72 58l119 190l115 -76zM320 592l119 190l115 -76l-162 -172zM370 497h182v-497h-143l-16 71q-98 -85 -201 -85q-144 0 -144 139v372h182v-315q0 -23 10 -33t34 -10q38 0 96 25v333z" />
    <glyph glyph-name="Uogonek" unicode="&#x172;" horiz-adv-x="694" 
d="M639 690v-410q0 -153 -56.5 -220t-192.5 -73q-37 -60 -50 -89q-13 -27 4 -35.5t50 0.5l13 -64q-78 -29 -123 -20.5t-61.5 37.5t-3.5 67q17 54 94 104q-141 8 -199.5 75t-58.5 218v410h188v-410q0 -88 22 -119t82 -31t82 31t22 119v410h188z" />
    <glyph glyph-name="uogonek" unicode="&#x173;" horiz-adv-x="604" 
d="M555 -128l13 -64q-78 -29 -123 -20.5t-61.5 37.5t-3.5 67q20 58 100 108h-71l-16 71q-98 -85 -201 -85q-144 0 -144 139v372h182v-315q0 -23 10 -33t34 -10q38 0 96 25v333h182v-497h2q-39 -62 -53 -93q-13 -27 4 -35.5t50 0.5z" />
    <glyph glyph-name="Wcircumflex" unicode="&#x174;" horiz-adv-x="989" 
d="M696 777l-45 -63l-151 94h-8l-153 -94l-46 68l138 133h131zM967 690l-97 -639q-4 -23 -22 -37t-43 -14h-167q-25 0 -43.5 14t-21.5 37l-59 413q-7 41 -10 95h-18q-8 -81 -10 -96l-58 -412q-3 -23 -22 -37t-44 -14h-167q-25 0 -43.5 14t-22.5 37l-96 639h187l50 -448
q6 -65 7 -109h17l16 109l58 392q3 25 21 40.5t44 15.5h144q25 0 43 -15.5t22 -40.5l59 -393q2 -18 7 -55t7 -53h18q1 44 7 107l50 450h187z" />
    <glyph glyph-name="wcircumflex" unicode="&#x175;" horiz-adv-x="863" 
d="M633 592l-45 -63l-151 94h-8l-153 -94l-46 68l138 133h131zM852 497l-111 -450q-4 -22 -20.5 -34.5t-39.5 -12.5h-133q-24 0 -42.5 15t-21.5 39l-38 251q-2 17 -4.5 47.5t-3.5 38.5h-13l-9 -86l-38 -251q-3 -24 -21 -39t-43 -15h-131q-23 0 -39.5 12.5t-20.5 34.5
l-111 450h181l51 -299q1 -5 4.5 -36.5t4.5 -48.5h13q1 16 5 45t5 40l38 246q3 23 20.5 38t42.5 15h110q24 0 41.5 -15t20.5 -39l37 -245q1 -12 5.5 -41t5.5 -44h13q8 71 10 85l50 299h182z" />
    <glyph glyph-name="Ycircumflex" unicode="&#x176;" horiz-adv-x="633" 
d="M160 714l-46 68l138 133h131l134 -138l-45 -63l-151 94h-8zM411 221v-221h-188v221l-228 469h194l99 -233q10 -25 24 -93h11q14 70 23 93l99 233h194z" />
    <glyph glyph-name="ycircumflex" unicode="&#x177;" horiz-adv-x="584" 
d="M139 529l-46 68l138 133h131l134 -138l-45 -63l-151 94h-8zM582 497l-166 -492q-11 -34 -27 -64t-41.5 -62t-58.5 -50t-78.5 -29t-100.5 1l-13 101q60 14 94.5 36.5t53.5 61.5h-31q-45 0 -58 43l-154 454h193l74 -296q6 -30 14 -85h11q5 17 12.5 48.5t8.5 36.5l73 296
h194z" />
    <glyph glyph-name="Ydieresis" unicode="&#x178;" horiz-adv-x="633" 
d="M252 762h-59q-36 0 -36 37v60q0 36 36 36h59q36 0 36 -36v-60q0 -37 -36 -37zM438 762h-59q-37 0 -37 37v60q0 36 37 36h59q36 0 36 -36v-60q0 -37 -36 -37zM411 221v-221h-188v221l-228 469h194l99 -233q10 -25 24 -93h11q14 70 23 93l99 233h194z" />
    <glyph glyph-name="Zacute" unicode="&#x179;" horiz-adv-x="595" 
d="M261 721l-51 76l218 149l74 -119zM562 136v-136h-528v136l312 418h-303v136h510v-136l-311 -418h320z" />
    <glyph glyph-name="zacute" unicode="&#x17a;" horiz-adv-x="534" 
d="M229 536l-51 76l218 149l74 -119zM500 122v-122h-466v122l250 253h-245v122h455v-122l-250 -253h256z" />
    <glyph glyph-name="Zdotaccent" unicode="&#x17b;" horiz-adv-x="595" 
d="M332 752h-55q-52 0 -52 50v50q0 49 52 49h55q51 0 51 -49v-50q0 -50 -51 -50zM562 136v-136h-528v136l312 418h-303v136h510v-136l-311 -418h320z" />
    <glyph glyph-name="zdotaccent" unicode="&#x17c;" horiz-adv-x="534" 
d="M299 566h-55q-52 0 -52 50v50q0 49 52 49h55q51 0 51 -49v-50q0 -50 -51 -50zM500 122v-122h-466v122l250 253h-245v122h455v-122l-250 -253h256z" />
    <glyph glyph-name="Zcaron" unicode="&#x17d;" horiz-adv-x="595" 
d="M267 737l-159 131l46 69l145 -78h8l146 78l45 -69l-158 -131h-73zM562 136v-136h-528v136l312 418h-303v136h510v-136l-311 -418h320z" />
    <glyph glyph-name="zcaron" unicode="&#x17e;" horiz-adv-x="534" 
d="M235 551l-159 131l46 69l145 -78h8l146 78l45 -69l-158 -131h-73zM500 122v-122h-466v122l250 253h-245v122h455v-122l-250 -253h256z" />
    <glyph glyph-name="florin" unicode="&#x192;" horiz-adv-x="497" 
d="M459 577h-64q-28 0 -39.5 -12t-14.5 -45l-10 -112h105l-10 -114h-105l-27 -308q-15 -158 -182 -158q-92 0 -143 12l27 114h62q28 0 40 12.5t15 44.5l25 283h-93l8 109l95 5l12 137q15 158 184 158q91 0 142 -12z" />
    <glyph glyph-name="Scommaaccent" unicode="&#x218;" horiz-adv-x="597" 
d="M305 703q145 0 240 -31l-11 -123q-177 3 -231 3q-48 0 -64 -8t-16 -35q0 -23 13.5 -35.5t51.5 -25.5l128 -49q83 -33 116.5 -81t33.5 -126q0 -117 -58.5 -161t-211.5 -44q-132 0 -253 30l11 133q205 -5 241 -5q50 0 66.5 8.5t16.5 34.5q0 24 -11.5 35t-43.5 23l-138 55
q-81 33 -115 80.5t-34 124.5q0 115 59.5 156t209.5 41zM260 -49h34q32 0 44.5 -10.5t12.5 -38.5v-50q0 -86 -54 -153l-64 17q15 42 15 103q-47 0 -47 43l2 40q1 28 13 38.5t44 10.5z" />
    <glyph glyph-name="scommaaccent" unicode="&#x219;" horiz-adv-x="541" 
d="M252 511q144 -2 243 -21l-11 -110q-66 1 -194 1q-58 0 -71 -2.5t-13 -18.5q0 -3 0.5 -6t2 -5t3 -3.5t4.5 -3l6 -3t8.5 -3t10 -2.5t12.5 -3t14 -4l120 -32q68 -19 98 -51.5t30 -95.5q0 -91 -53 -125t-182 -34q-127 0 -242 19l11 110q10 0 73 -0.5t102 -0.5q74 0 94.5 4.5
t20.5 21.5q0 4 -1 7t-4 6t-5.5 4.5t-9 3.5t-12 3.5t-16 4.5t-19.5 6l-116 32q-73 21 -99.5 57.5t-26.5 99.5q0 74 50.5 109t171.5 35zM247 -42h34q32 0 44.5 -10.5t12.5 -38.5v-50q0 -86 -54 -153l-64 17q15 43 15 103q-47 0 -47 43l2 40q1 28 13 38.5t44 10.5z" />
    <glyph glyph-name="uni021A" unicode="&#x21a;" horiz-adv-x="613" 
d="M600 545h-200v-545h-188v545h-198v145h586v-145zM282 -49h34q32 0 44.5 -10.5t12.5 -38.5v-50q0 -86 -54 -153l-64 17q15 42 15 103q-47 0 -47 43l2 40q1 28 13 38.5t44 10.5z" />
    <glyph glyph-name="uni021B" unicode="&#x21b;" horiz-adv-x="426" 
d="M281 383v-210q0 -24 11 -33.5t37 -9.5h58l20 -120q-59 -23 -156 -23q-71 0 -111 37t-40 104l-1 255h-85v109l85 4v135h182v-134h129v-114h-129zM220 -49h34q32 0 44.5 -10.5t12.5 -38.5v-50q0 -86 -54 -153l-64 17q15 42 15 103q-47 0 -47 43l2 40q1 28 13 38.5t44 10.5z
" />
    <glyph glyph-name="circumflex" unicode="&#x2c6;" horiz-adv-x="464" 
d="M433 592l-45 -63l-151 94h-8l-153 -94l-46 68l138 133h131z" />
    <glyph glyph-name="caron" unicode="&#x2c7;" horiz-adv-x="464" 
d="M428 679l-158 -131h-73l-159 131l46 69l145 -78h8l146 78z" />
    <glyph glyph-name="breve" unicode="&#x2d8;" horiz-adv-x="403" 
d="M289 714l85 -12q10 -66 -38 -114t-134 -48t-134.5 48t-38.5 114l85 12q0 -32 21 -47t67 -15t66.5 15t20.5 47z" />
    <glyph glyph-name="dotaccent" unicode="&#x2d9;" horiz-adv-x="244" 
d="M95 714h55q51 0 51 -49v-50q0 -50 -51 -50h-55q-52 0 -52 50v50q0 49 52 49z" />
    <glyph glyph-name="ring" unicode="&#x2da;" horiz-adv-x="314" 
d="M157 770q51 0 87.5 -35t36.5 -85q0 -51 -36.5 -86t-87.5 -35t-87.5 35t-36.5 86q0 50 36.5 85t87.5 35zM157 698q-20 0 -33.5 -14t-13.5 -34q0 -21 13.5 -34.5t33.5 -13.5t33.5 13.5t13.5 34.5q0 20 -13.5 34t-33.5 14z" />
    <glyph glyph-name="ogonek" unicode="&#x2db;" horiz-adv-x="250" 
d="M140 2l71 -2q-39 -62 -53 -93q-13 -27 4 -35.5t50 0.5l13 -64q-78 -29 -123 -20.5t-61.5 37.5t-3.5 67q19 58 103 110z" />
    <glyph glyph-name="tilde" unicode="&#x2dc;" horiz-adv-x="451" 
d="M130 718q38 -3 91.5 -22t73.5 -23q22 -4 27.5 5t5.5 35h76q13 -75 -11.5 -117t-71.5 -39q-39 3 -94.5 23t-71.5 23q-22 3 -27 -5t-5 -36h-76q-13 77 13.5 118t69.5 38z" />
    <glyph glyph-name="hungarumlaut" unicode="&#x2dd;" horiz-adv-x="526" 
d="M278 676l-162 -172l-72 58l119 190zM481 676l-162 -172l-72 58l119 190z" />
    <glyph glyph-name="Delta" unicode="&#x394;" horiz-adv-x="684" 
d="M666 61v-61h-648v61l231 629h186zM342 511l-21 -96l-93 -280h227l-92 281q-8 24 -21 95z" />
    <glyph glyph-name="Omega" unicode="&#x3a9;" horiz-adv-x="720" 
d="M361 704q165 0 236.5 -75t71.5 -235q0 -93 -30.5 -151t-106.5 -116q40 17 72 17h75l1 -144h-293v136q50 44 68.5 94.5t18.5 139.5q0 113 -24 152t-90 39q-68 0 -91 -39t-23 -154q0 -92 18.5 -138t67.5 -94v-136h-292v144h75q39 0 73 -17q-76 62 -107 120.5t-30 150.5
q0 157 72 231.5t238 74.5z" />
    <glyph glyph-name="mu" unicode="&#x3bc;" horiz-adv-x="639" 
d="M571 497v-497h-142l-17 73q-92 -87 -194 -87h-3q7 -33 7 -56v-115h-157v682h182v-315q0 -40 49 -40q39 0 93 21v334h182z" />
    <glyph glyph-name="pi" unicode="&#x3c0;" horiz-adv-x="652" 
d="M635 375h-70v-375h-182v375h-114v-375h-182v375h-70v123h618v-123z" />
    <glyph glyph-name="uni0401" unicode="&#x401;" horiz-adv-x="588" 
d="M256 768h-60q-36 0 -36 36v61q0 36 36 36h60q36 0 36 -36v-61q0 -36 -36 -36zM442 768h-60q-36 0 -36 36v61q0 36 36 36h60q36 0 36 -36v-61q0 -36 -36 -36zM546 143l9 -135q-97 -11 -342 -11q-70 0 -113.5 40.5t-43.5 107.5v400q0 67 43.5 107.5t113.5 40.5
q245 0 342 -11l-9 -135h-258q-44 0 -44 -43v-84h266v-129h-266v-105q0 -43 44 -43h258z" />
    <glyph glyph-name="uni0402" unicode="&#x402;" horiz-adv-x="771" 
d="M572 452q92 0 134.5 -46t42.5 -167q0 -140 -72 -197t-200 -55l-17 131q57 11 79 35t22 76q0 49 -12.5 62t-49.5 13q-52 0 -101 -19v-285h-188v545h-196v145h581v-145h-197v-135q90 42 174 42z" />
    <glyph glyph-name="uni0403" unicode="&#x403;" horiz-adv-x="544" 
d="M500 827l-241 -106l-51 76l218 149zM215 693q229 0 322 -12l-9 -134h-232q-47 0 -47 -45v-502h-188v541q0 67 43 109.5t111 42.5z" />
    <glyph glyph-name="uni0404" unicode="&#x404;" horiz-adv-x="599" 
d="M557 157l15 -138q-88 -31 -226 -31q-169 0 -238 80t-69 277t69 277t238 80q128 0 221 -25l-15 -138q-102 3 -206 3q-56 0 -80.5 -26.5t-31.5 -98.5h274v-121h-275q4 -85 28 -116.5t85 -31.5q141 0 211 9z" />
    <glyph glyph-name="uni0405" unicode="&#x405;" horiz-adv-x="597" 
d="M305 703q145 0 240 -31l-12 -123q-177 3 -230 3q-48 0 -64.5 -8t-16.5 -35q0 -23 14 -35.5t52 -25.5l127 -49q83 -33 117 -81t34 -126q0 -117 -58.5 -161t-211.5 -44q-132 0 -253 30l11 133q205 -5 241 -5q50 0 66.5 8.5t16.5 34.5q0 24 -11.5 35t-43.5 23l-138 55
q-81 33 -115 80.5t-34 124.5q0 116 59 156.5t210 40.5z" />
    <glyph glyph-name="uni0406" unicode="&#x406;" horiz-adv-x="314" 
d="M250 0h-186v690h186v-690z" />
    <glyph glyph-name="uni0407" unicode="&#x407;" horiz-adv-x="314" 
d="M33 896h60q36 0 36 -37v-60q0 -36 -36 -36h-60q-36 0 -36 36v60q0 37 36 37zM219 896h59q37 0 37 -37v-60q0 -36 -37 -36h-59q-36 0 -36 36v60q0 37 36 37zM250 0h-186v690h186v-690z" />
    <glyph glyph-name="uni0408" unicode="&#x408;" horiz-adv-x="391" 
d="M330 690v-555q0 -71 -45 -109.5t-125 -38.5q-97 0 -145 23l20 121h47q62 0 62 43v516h186z" />
    <glyph glyph-name="uni0409" unicode="&#x409;" horiz-adv-x="980" 
d="M624 444h67q149 0 206 -48t57 -177t-53 -178t-178 -49q-181 0 -280 8h-4v562h-57q-45 0 -51 -51q-12 -143 -22.5 -218.5t-29.5 -136.5q-32 -102 -92.5 -137.5t-160.5 -22.5l-13 128q36 8 58 24t38 59q12 32 21 86.5t13 99.5t11 141q10 156 166 156h304v-246zM624 127h67
q46 0 60 19t14 79q0 59 -14 79t-60 20h-67v-197z" />
    <glyph glyph-name="uni040A" unicode="&#x40a;" horiz-adv-x="975" 
d="M620 432h74q144 0 199.5 -46t55.5 -168q0 -128 -51 -177t-170 -49q-190 0 -289 8h-4v305h-183v-305h-188v690h188v-257h183v257h185v-258zM620 127h74q42 0 54.5 18t12.5 75q0 55 -12.5 73.5t-54.5 18.5h-74v-185z" />
    <glyph glyph-name="uni040B" unicode="&#x40b;" horiz-adv-x="799" 
d="M580 459q95 0 140 -42.5t45 -131.5v-285h-189v244q0 36 -12.5 48t-52.5 12q-56 0 -113 -11v-293h-188v545h-196v145h581v-145h-197v-122q99 36 182 36z" />
    <glyph glyph-name="uni040C" unicode="&#x40c;" horiz-adv-x="661" 
d="M300 721l-51 76l218 149l74 -119zM414 363v-6q97 -14 131.5 -66t93.5 -251q8 -26 12 -40h-196q-55 190 -73 229q-24 52 -63 62q-16 4 -41 4h-34q8 -35 8 -64v-231h-188v690h188v-183q0 -44 -9 -86h33q67 0 93.5 47.5t68.5 208.5q2 8 3 13h190q-56 -184 -68 -212
q-29 -72 -75 -95q-28 -14 -74 -20z" />
    <glyph glyph-name="uni040D" unicode="&#x40d;" horiz-adv-x="724" 
d="M456 797l-51 -76l-241 106l74 119zM660 0h-179v360q0 44 10 101h-7q-14 -48 -40 -99l-198 -362h-182v690h179v-351q0 -33 -10 -105h6q20 59 43 99l197 357h181v-690z" />
    <glyph glyph-name="uni040E" unicode="&#x40e;" horiz-adv-x="609" 
d="M308 739q-86 0 -134.5 48t-38.5 114l85 12q0 -32 21 -47t67 -15t66.5 15t20.5 47l85 -12q10 -66 -38 -114t-134 -48zM612 690l-158 -507q-30 -98 -69.5 -143t-114.5 -52q-70 -7 -191 14l20 130q56 -3 89.5 -2t50.5 10.5t26 34.5l5 19h-39q-74 0 -99 82l-132 414h192
l92 -349q3 -11 17 -11h16l103 360h192z" />
    <glyph glyph-name="uni040F" unicode="&#x40f;" horiz-adv-x="709" 
d="M645 690v-690h-216l-7 -151h-128l-8 151h-222v690h187v-562h206v562h188z" />
    <glyph glyph-name="uni0410" unicode="&#x410;" horiz-adv-x="668" 
d="M440 164h-212l-41 -164h-192l189 641q5 22 22.5 35.5t40.5 13.5h174q23 0 40.5 -13.5t23.5 -35.5l188 -641h-192zM406 300l-45 177q-11 52 -13 72h-27q-7 -38 -14 -72l-45 -177h144z" />
    <glyph glyph-name="uni0411" unicode="&#x411;" horiz-adv-x="635" 
d="M251 417h85q153 0 212.5 -45t59.5 -166q0 -126 -59.5 -170t-197.5 -44q-180 0 -283 8h-5v690q134 8 247 8q121 0 252 -8l-14 -138h-297v-135zM251 127h85q52 0 68 16t16 69q0 52 -16 69t-68 17h-85v-171z" />
    <glyph glyph-name="uni0412" unicode="&#x412;" horiz-adv-x="653" 
d="M473 361v-6q78 -7 111.5 -52t33.5 -131q0 -103 -55.5 -141.5t-186.5 -38.5q-207 0 -313 8v690q96 8 281 8q142 0 197 -37.5t55 -142.5q0 -75 -29 -113t-94 -44zM417 492q0 45 -17 59.5t-66 14.5h-88v-151h93q46 0 62 15.5t16 61.5zM246 124h97q53 0 70.5 17t17.5 68
q0 55 -18 73t-72 18h-95v-176z" />
    <glyph glyph-name="uni0413" unicode="&#x413;" horiz-adv-x="544" 
d="M215 693q229 0 321 -12l-8 -134h-232q-47 0 -47 -45v-502h-188v541q0 67 43 109.5t111 42.5z" />
    <glyph glyph-name="uni0414" unicode="&#x414;" horiz-adv-x="762" 
d="M745 128v-279h-135l-13 151h-435l-13 -151h-135v279h75q64 172 86 413q6 66 51 107.5t116 41.5h311v-562h92zM465 128v434h-63q-48 0 -52 -53q-14 -139 -32.5 -224.5t-52.5 -156.5h200z" />
    <glyph glyph-name="uni0415" unicode="&#x415;" horiz-adv-x="588" 
d="M546 143l9 -135q-97 -11 -342 -11q-70 0 -113.5 40.5t-43.5 107.5v400q0 67 43.5 107.5t113.5 40.5q245 0 342 -11l-9 -135h-258q-44 0 -44 -43v-84h266v-129h-266v-105q0 -43 44 -43h258z" />
    <glyph glyph-name="uni0416" unicode="&#x416;" horiz-adv-x="954" 
d="M712 363v-6q95 -14 128 -66t91 -254q7 -24 11 -37h-197q-7 21 -18 60q-50 165 -69 198q-28 35 -66 37h-33q8 -35 8 -64v-231h-179v231q0 31 9 64h-36q-43 0 -64 -38.5t-68 -191.5q-4 -14 -6.5 -21.5t-6.5 -20t-7 -23.5h-196q58 202 78 248q30 68 79 90q28 13 72 19v6
q-85 11 -114.5 56t-74.5 200q-13 45 -21 71h190q53 -180 69 -213q23 -50 59 -55q6 -1 12 -1h35q-9 42 -9 86v183h179v-183q0 -41 -8 -86h32q43 0 64 40.5t62 177.5q3 11 5 17t4.5 16t5.5 18h190q-55 -186 -64 -209q-28 -73 -72 -97q-27 -15 -74 -21z" />
    <glyph glyph-name="uni0417" unicode="&#x417;" horiz-adv-x="577" 
d="M274 698q138 0 191.5 -37.5t53.5 -142.5q0 -75 -28 -113t-91 -44v-6q75 -7 107.5 -52t32.5 -131q0 -103 -54 -141.5t-181 -38.5q-169 0 -281 34l14 125q134 -21 230 -21q47 0 63.5 16t16.5 63q0 51 -17 68t-65 17l-143 3v121l142 3q40 0 54 14.5t14 56.5q0 41 -15 54.5
t-57 13.5q-92 0 -210 -14l-14 131q97 21 237 21z" />
    <glyph glyph-name="uni0418" unicode="&#x418;" horiz-adv-x="724" 
d="M660 0h-179v360q0 44 10 101h-7q-18 -57 -41 -99l-198 -362h-181v690h178v-351q0 -45 -10 -105h7q19 57 42 99l198 357h181v-690z" />
    <glyph glyph-name="uni0419" unicode="&#x419;" horiz-adv-x="724" 
d="M426 903h115q10 -65 -38.5 -114.5t-133.5 -49.5t-134 49.5t-39 114.5h115q-4 -43 10.5 -61t47.5 -18q32 0 46.5 18t10.5 61zM660 0h-179v360q0 44 10 101h-7q-14 -48 -40 -99l-198 -362h-182v690h179v-351q0 -33 -10 -105h6q20 59 43 99l197 357h181v-690z" />
    <glyph glyph-name="uni041A" unicode="&#x41a;" horiz-adv-x="661" 
d="M414 363v-6q42 -6 68.5 -17.5t46.5 -29.5t37 -57.5t32.5 -85t39.5 -126.5q8 -27 12 -41h-196q-54 190 -72 229q-24 52 -63 62q-17 4 -41 4h-35q8 -35 8 -64v-231h-187v690h187v-183q0 -44 -9 -86h34q66 0 92 45.5t67 204.5q3 13 5 19h191q-8 -25 -21 -68t-18 -59.5
t-15 -48t-16 -42t-15.5 -31t-18 -27.5t-20.5 -18.5t-25.5 -16t-30 -9t-37.5 -7.5z" />
    <glyph glyph-name="uni041B" unicode="&#x41b;" horiz-adv-x="696" 
d="M632 690v-690h-188v562h-63q-54 0 -57 -51q-22 -263 -53 -355q-32 -102 -97 -138.5t-161 -21.5l-13 145q40 6 63 19.5t35 46.5q31 86 47 320q12 163 173 163h314z" />
    <glyph glyph-name="uni041C" unicode="&#x41c;" horiz-adv-x="939" 
d="M625 690h171q65 0 68 -67l25 -623h-172l-22 547h-16l-84 -386q-11 -58 -73 -58h-106q-62 0 -74 58l-85 386h-16l-19 -547h-171l24 623q3 67 68 67h168q61 0 72 -59l66 -306q6 -31 14 -100h11q1 7 6 44t9 57l63 305q12 59 73 59z" />
    <glyph glyph-name="uni041D" unicode="&#x41d;" horiz-adv-x="708" 
d="M645 690v-690h-188v298h-206v-298h-187v690h187v-255h206v255h188z" />
    <glyph glyph-name="uni041E" unicode="&#x41e;" horiz-adv-x="697" 
d="M348 704q118 0 183 -31.5t96 -109t31 -218.5t-31 -218.5t-96 -109t-183 -31.5q-174 0 -241.5 75.5t-67.5 283.5t67.5 283.5t241.5 75.5zM348 560q-66 0 -89 -44t-23 -171t23 -171t89 -44t89 44t23 171t-23 171t-89 44z" />
    <glyph glyph-name="uni041F" unicode="&#x41f;" horiz-adv-x="705" 
d="M642 690v-690h-188v562h-203v-562h-187v690h578z" />
    <glyph glyph-name="uni0420" unicode="&#x420;" horiz-adv-x="635" 
d="M342 700q156 0 213 -48t57 -183q0 -133 -53.5 -181.5t-191.5 -48.5q-51 0 -116 7v-246h-188v690q98 10 279 10zM251 376h86q51 0 69 19t18 74q0 56 -18 75t-69 19h-86v-187z" />
    <glyph glyph-name="uni0421" unicode="&#x421;" horiz-adv-x="596" 
d="M341 702q126 0 218 -25l-14 -138q-102 3 -204 3q-62 0 -83.5 -40.5t-21.5 -156.5t21.5 -156.5t83.5 -40.5q145 0 218 8l15 -137q-90 -31 -233 -31q-166 0 -234 80t-68 277t68 277t234 80z" />
    <glyph glyph-name="uni0422" unicode="&#x422;" horiz-adv-x="613" 
d="M599 545h-199v-545h-188v545h-198v145h585v-145z" />
    <glyph glyph-name="uni0423" unicode="&#x423;" horiz-adv-x="609" 
d="M612 690l-159 -507q-30 -98 -69 -143t-114 -52q-70 -7 -191 14l20 130q96 -3 124 2.5t41 40.5l5 19h-38q-41 0 -64 21t-35 61l-133 414h193l92 -349q2 -11 16 -11h17l103 360h192z" />
    <glyph glyph-name="uni0424" unicode="&#x424;" horiz-adv-x="862" 
d="M839 354q-1 -149 -71 -212.5t-243 -74.5v-86h-188v86q-174 11 -244 74.5t-70 212.5q0 154 70 219.5t244 76.5v86h188v-86q174 -11 243.5 -76.5t70.5 -219.5zM212 354q0 -82 26.5 -113.5t107.5 -38.5v313q-81 -7 -107.5 -40.5t-26.5 -120.5zM516 515v-313q81 7 107.5 38.5
t26.5 113.5q0 87 -26.5 120.5t-107.5 40.5z" />
    <glyph glyph-name="uni0425" unicode="&#x425;" horiz-adv-x="661" 
d="M332 300h-3l-138 -300h-189l175 353l-161 337h187l125 -280h5l124 280h188l-161 -337l175 -353h-189z" />
    <glyph glyph-name="uni0426" unicode="&#x426;" horiz-adv-x="724" 
d="M706 128v-279h-134l-14 151h-494v690h187v-562h189v562h188v-562h78z" />
    <glyph glyph-name="uni0427" unicode="&#x427;" horiz-adv-x="677" 
d="M614 690v-690h-188v273q-106 -49 -199 -49q-96 0 -141 42.5t-45 131.5v292h188v-251q-2 -34 12.5 -47t54.5 -13q67 0 130 23v288h188z" />
    <glyph glyph-name="uni0428" unicode="&#x428;" horiz-adv-x="997" 
d="M934 690v-690h-870v690h183v-562h160v562h183v-562h160v562h184z" />
    <glyph glyph-name="uni0429" unicode="&#x429;" horiz-adv-x="1026" 
d="M1007 128v-279h-134l-13 151h-796v690h183v-562h158v562h183v-562h158v562h184v-562h77z" />
    <glyph glyph-name="uni042A" unicode="&#x42a;" horiz-adv-x="776" 
d="M412 444h74q150 0 207 -48t57 -178q0 -128 -53 -177t-178 -49q-191 0 -292 8h-4v545h-210v145h399v-246zM412 127h74q47 0 61 18.5t14 78.5t-14.5 80t-60.5 20h-74v-197z" />
    <glyph glyph-name="uni042B" unicode="&#x42b;" horiz-adv-x="929" 
d="M252 444h76q150 0 207 -48t57 -178q0 -129 -53 -177.5t-178 -48.5q-193 0 -292 8h-5v690h188v-246zM865 690v-690h-188v690h188zM252 127h76q48 0 62 18.5t14 78.5t-14.5 80t-61.5 20h-76v-197z" />
    <glyph glyph-name="uni042C" unicode="&#x42c;" horiz-adv-x="624" 
d="M251 444h80q151 0 208.5 -48t57.5 -178q0 -129 -53.5 -177.5t-179.5 -48.5q-194 0 -295 8h-5v690h187v-246zM251 127h80q49 0 63.5 18.5t14.5 78.5t-15 80t-63 20h-80v-197z" />
    <glyph glyph-name="uni042D" unicode="&#x42d;" horiz-adv-x="599" 
d="M253 702q170 0 239 -80t69 -277t-69 -277t-239 -80q-137 0 -226 31l15 138q71 -9 212 -9q60 0 84 31.5t28 116.5h-275v121h274q-6 71 -30.5 98t-80.5 27q-104 0 -207 -3l-14 138q92 25 220 25z" />
    <glyph glyph-name="uni042E" unicode="&#x42e;" horiz-adv-x="998" 
d="M651 704q117 0 182 -31.5t95.5 -109t30.5 -218.5t-30.5 -218.5t-95.5 -109t-182 -31.5q-152 0 -216 65.5t-71 241.5h-112v-293h-188v690h188v-270h113q10 162 74.5 223t211.5 61zM651 130q64 0 86.5 43.5t23.5 171.5q-1 128 -23.5 171.5t-86.5 43.5q-62 0 -83 -43.5
t-21 -171.5t21 -171.5t83 -43.5z" />
    <glyph glyph-name="uni042F" unicode="&#x42f;" horiz-adv-x="651" 
d="M315 700q177 0 273 -10v-690h-188v258h-75q-28 0 -41.5 -11t-20.5 -41l-46 -206h-197l54 212q20 90 107 105v6q-133 14 -133 169q0 116 62 162t205 46zM400 395v168h-81q-49 0 -65.5 -16.5t-17.5 -66.5q0 -49 17.5 -67t65.5 -18h81z" />
    <glyph glyph-name="uni0430" unicode="&#x430;" horiz-adv-x="584" 
d="M327 511q105 0 156.5 -43.5t51.5 -150.5v-317h-145l-17 73q-70 -86 -177 -86q-72 0 -119.5 37.5t-47.5 104.5v50q0 59 42.5 93t116.5 34h165v12q-1 32 -15.5 44.5t-53.5 12.5q-97 0 -213 -7l-16 118q132 25 272 25zM207 172v-17q0 -40 49 -40q44 0 97 35v61h-104
q-42 -1 -42 -39z" />
    <glyph glyph-name="uni0431" unicode="&#x431;" horiz-adv-x="605" 
d="M517 740l27 -138q-55 -30 -142.5 -35t-113.5 -12q-67 -19 -91 -69q-14 -24 -22 -74h4q31 34 71 51t103 17q121 0 169.5 -54.5t48.5 -180.5q0 -133 -58 -195t-198 -62q-55 0 -97.5 9t-71 22.5t-48.5 39t-30.5 48.5t-16 61t-7 67t-1.5 76q0 77 7 132.5t26.5 105.5t56.5 84
t93 53q47 16 143.5 23.5t147.5 30.5zM308 368q-49 0 -63.5 -24t-14.5 -98q0 -79 15 -104.5t60 -25.5t60.5 26t15.5 104q0 74 -14.5 98t-58.5 24z" />
    <glyph glyph-name="uni0432" unicode="&#x432;" horiz-adv-x="583" 
d="M425 258v-4q69 -5 99 -37.5t30 -93.5q0 -75 -49 -103t-165 -28q-185 0 -287 6v499q92 6 258 6q127 0 175.5 -27.5t48.5 -104.5q0 -54 -26 -81.5t-84 -31.5zM366 346q0 24 -13.5 32.5t-50.5 8.5h-78v-84h83q34 0 46.5 9t12.5 34zM224 110h85q37 0 51 10t14 40
q0 28 -14.5 38.5t-52.5 10.5h-83v-99z" />
    <glyph glyph-name="uni0433" unicode="&#x433;" horiz-adv-x="487" 
d="M188 504q209 0 290 -15l-8 -127h-200q-21 0 -30 -8.5t-9 -28.5v-325h-180v378q0 64 33.5 95t103.5 31z" />
    <glyph glyph-name="uni0434" unicode="&#x434;" horiz-adv-x="653" 
d="M636 122v-260h-120l-13 138h-355l-13 -138h-120v260h62q39 110 59 254q17 121 144 121h273v-375h83zM383 122v259h-45q-40 0 -44 -40q-23 -141 -58 -219h147z" />
    <glyph glyph-name="uni0435" unicode="&#x435;" horiz-adv-x="578" 
d="M325 129q91 0 194 12l17 -111q-83 -42 -232 -42q-147 0 -209.5 62t-62.5 196q0 146 61.5 205.5t207.5 59.5q131 0 189.5 -43.5t58.5 -132.5q1 -70 -38.5 -102t-134.5 -32h-150q7 -41 28.5 -56.5t70.5 -15.5zM307 388q-48 1 -65 -16.5t-19 -76.5h102q31 0 40 9.5t9 34.5
q0 29 -14.5 39t-52.5 10z" />
    <glyph glyph-name="uni0436" unicode="&#x436;" horiz-adv-x="841" 
d="M635 262v-5q26 -4 39.5 -6t30.5 -9.5t24.5 -11.5t20 -22t17.5 -29t17.5 -44.5t19.5 -57t24 -77.5h-184q-49 148 -64 174t-54 26h-32q6 -22 6 -42v-158h-159v158q0 20 6 42h-33q-37 0 -51.5 -25.5t-65.5 -174.5h-184q49 161 70 195q22 40 66 52q18 4 57 10v5
q-78 10 -100 37t-62 152q-10 29 -15 46h178q41 -127 56.5 -154t52.5 -27h32q-6 32 -6 62v119h158v-119q0 -33 -7 -62h31q37 0 52.5 26.5t56.5 154.5h179q-46 -146 -59 -171q-21 -41 -60 -53q-20 -6 -58 -11z" />
    <glyph glyph-name="uni0437" unicode="&#x437;" horiz-adv-x="527" 
d="M222 510q145 0 200 -26t55 -110q0 -58 -25 -84.5t-83 -31.5v-4q68 -5 98 -36.5t30 -93.5q0 -85 -54 -111t-184 -26q-137 0 -236 22l12 120q106 -11 211 -11q41 0 53 6.5t12 33.5q0 23 -12.5 29.5t-53.5 8.5l-156 2v107l155 3q34 1 45 7.5t11 27.5q0 22 -12.5 28t-54.5 6
q-85 0 -186 -11l-11 119q81 25 186 25z" />
    <glyph glyph-name="uni0438" unicode="&#x438;" horiz-adv-x="620" 
d="M566 0l-162 -1v223q0 30 7 88h-4q-14 -42 -40 -83l-155 -227h-158v497h161v-234q0 -26 -7 -77h4q12 33 38 73l158 238h158v-497z" />
    <glyph glyph-name="uni0439" unicode="&#x439;" horiz-adv-x="620" 
d="M367 717h115q10 -65 -38.5 -114.5t-133.5 -49.5t-134 49.5t-39 114.5h115q-4 -43 10.5 -61t47.5 -18q32 0 46.5 18t10.5 61zM567 0l-162 -1v223q0 38 6 88h-4q-14 -42 -40 -83l-154 -227h-159v497h161v-234q0 -36 -7 -77h5q9 29 38 73l157 238h159v-497z" />
    <glyph glyph-name="uni043A" unicode="&#x43a;" 
d="M378 261v-5q21 -3 32 -4.5t26 -6.5t21.5 -7t18 -12.5t15.5 -15.5t13.5 -23.5t13.5 -30t14 -41.5t16 -51t19 -64h-189q-43 149 -58 173q-14 22 -44 24h-14h-32q5 -23 5 -40v-157h-181v497h181v-117q0 -34 -7 -63h22q52 0 68 26t49 154h183q-45 -149 -56 -170
q-18 -41 -53 -53q-19 -7 -63 -13z" />
    <glyph glyph-name="uni043B" unicode="&#x43b;" horiz-adv-x="608" 
d="M554 497v-497h-181v376h-43q-43 0 -47 -42q-17 -148 -30 -209q-27 -163 -228 -130l-18 133q5 1 17.5 2.5t16.5 2.5t13.5 3.5t13 5t9.5 7t9 11t5 14.5q15 53 26 195q11 128 137 128h300z" />
    <glyph glyph-name="uni043C" unicode="&#x43c;" horiz-adv-x="804" 
d="M526 497h157q60 0 62 -62l13 -435h-164l-13 365h-12l-59 -241q-10 -55 -68 -55h-81q-59 0 -69 55l-59 241h-12l-10 -365h-164l12 435q2 62 63 62h154q58 0 67 -56l44 -185q2 -9 10 -74h8q2 10 4.5 35t5.5 39l43 185q9 56 68 56z" />
    <glyph glyph-name="uni043D" unicode="&#x43d;" horiz-adv-x="617" 
d="M563 497v-497h-178v201h-152v-201h-179v497h179v-175h152v175h178z" />
    <glyph glyph-name="uni043E" unicode="&#x43e;" horiz-adv-x="601" 
d="M301 511q146 0 206.5 -59.5t60.5 -203.5q0 -143 -60.5 -201.5t-206.5 -58.5q-147 0 -207.5 58.5t-60.5 201.5q0 144 60.5 203.5t207.5 59.5zM301 383q-47 0 -62.5 -26.5t-15.5 -108.5q0 -81 15.5 -107t62.5 -26q46 0 61.5 26t15.5 107q0 82 -15.5 108.5t-61.5 26.5z" />
    <glyph glyph-name="uni043F" unicode="&#x43f;" horiz-adv-x="609" 
d="M556 498v-498h-177v375h-149v-375h-176v498h502z" />
    <glyph glyph-name="uni0440" unicode="&#x440;" horiz-adv-x="614" 
d="M404 509q176 0 176 -266q0 -145 -45.5 -200.5t-143.5 -55.5q-102 0 -159 45q5 -53 3 -108v-109h-181v682h146l14 -71q27 36 79.5 59.5t110.5 23.5zM322 111q41 0 56 24.5t15 106.5q0 81 -14 106.5t-51 25.5q-42 0 -93 -31v-215q51 -17 87 -17z" />
    <glyph glyph-name="uni0441" unicode="&#x441;" horiz-adv-x="519" 
d="M292 511q122 0 197 -34l-19 -113q-32 0 -80.5 0.5t-66.5 0.5q-57 0 -78.5 -24t-21.5 -92t21.5 -92t78.5 -24q88 0 157 8l16 -115q-76 -38 -206 -38q-142 0 -199.5 58.5t-57.5 202.5t58.5 203t200.5 59z" />
    <glyph glyph-name="uni0442" unicode="&#x442;" horiz-adv-x="526" 
d="M511 360h-157v-360h-181v360h-158v137h496v-137z" />
    <glyph glyph-name="uni0443" unicode="&#x443;" horiz-adv-x="585" 
d="M582 497l-166 -492q-26 -83 -67 -126.5t-103 -66.5q-81 -33 -205 -10l15 118q96 -3 139 21q29 15 52 59h-33q-45 0 -58 43l-154 454h193l75 -296q10 -56 14 -85h10q5 16 12 46.5t9 38.5l73 296h194z" />
    <glyph glyph-name="uni0444" unicode="&#x444;" horiz-adv-x="765" 
d="M733 248q0 -127 -62 -187t-207 -70v-176h-163v176q-146 10 -207.5 70t-61.5 187q0 128 62 188.5t207 71.5v192h163v-192q145 -11 207 -71.5t62 -188.5zM455 386v-274q61 7 83.5 37t22.5 99q0 71 -22.5 101t-83.5 37zM204 248q0 -69 22 -99t83 -37v274q-61 -7 -83 -37
t-22 -101z" />
    <glyph glyph-name="uni0445" unicode="&#x445;" horiz-adv-x="588" 
d="M402 0l-108 199l-108 -199h-183l148 254l-136 243h181l98 -186l98 186h181l-136 -243l148 -254h-183z" />
    <glyph glyph-name="uni0446" unicode="&#x446;" horiz-adv-x="644" 
d="M626 122v-260h-121l-13 138h-438v497h179v-375h136v375h179v-375h78z" />
    <glyph glyph-name="uni0447" unicode="&#x447;" horiz-adv-x="588" 
d="M534 497l-1 -497h-180v175q-78 -28 -156 -28q-82 0 -121 28.5t-39 88.5v233h180v-179q0 -20 9.5 -29t32.5 -9q46 0 94 17v200h181z" />
    <glyph glyph-name="uni0448" unicode="&#x448;" horiz-adv-x="855" 
d="M801 497v-497h-747v497h175v-375h118v375h160v-375h119v375h175z" />
    <glyph glyph-name="uni0449" unicode="&#x449;" horiz-adv-x="895" 
d="M877 122v-260h-121l-13 138h-689v497h175v-375h118v375h159v-375h119v375h175v-375h77z" />
    <glyph glyph-name="uni044A" unicode="&#x44a;" horiz-adv-x="670" 
d="M353 334h51q140 0 191.5 -36t51.5 -134q0 -96 -49 -133t-162 -37q-164 0 -254 6h-4v365h-163v132h338v-163zM353 114h51q37 0 49 11t12 46t-11.5 46t-49.5 11h-51v-114z" />
    <glyph glyph-name="uni044B" unicode="&#x44b;" horiz-adv-x="814" 
d="M229 334h52q140 0 192 -36t52 -134q0 -96 -49 -133t-163 -37q-164 0 -254 6h-5v497h175v-163zM760 497v-497h-183v497h183zM229 114h52q38 0 49.5 11t11.5 46t-11.5 46t-49.5 11h-52v-114z" />
    <glyph glyph-name="uni044C" unicode="&#x44c;" horiz-adv-x="551" 
d="M228 334h56q140 0 192.5 -36t52.5 -134q0 -96 -49.5 -133t-164.5 -37q-166 0 -256 6h-5v497h174v-163zM228 114h56q38 0 50.5 11t12.5 46t-12.5 46t-50.5 11h-56v-114z" />
    <glyph glyph-name="uni044D" unicode="&#x44d;" horiz-adv-x="550" 
d="M234 509q157 0 220.5 -58t63.5 -205q0 -143 -64 -201t-220 -58q-122 0 -208 30l14 114q97 -5 194 -5q55 0 75 13.5t24 61.5h-249v102h248q-6 41 -27.5 54.5t-70.5 13.5q-42 0 -101 -0.5t-88 -0.5l-15 111q83 28 204 28z" />
    <glyph glyph-name="uni044E" unicode="&#x44e;" horiz-adv-x="852" 
d="M559 511q146 0 202.5 -54t56.5 -210q0 -151 -56.5 -204t-202.5 -53q-126 0 -180 42.5t-62 160.5h-82v-193h-181v497h181v-182h83q9 114 63.5 155t177.5 41zM557 127q45 0 59 23t15 100q-1 77 -15 100t-59 23q-47 0 -60.5 -22.5t-13.5 -100.5t13.5 -100.5t60.5 -22.5z" />
    <glyph glyph-name="uni044F" unicode="&#x44f;" horiz-adv-x="577" 
d="M272 509q180 0 251 -8v-501h-176v162h-66q-24 0 -33.5 -6t-12.5 -23l-31 -133h-186l39 157q14 46 95 54v4q-108 22 -108 134q0 94 46 127t182 33zM347 273v108h-71q-35 0 -45.5 -9t-10.5 -37q0 -38 10.5 -50t45.5 -12h71z" />
    <glyph glyph-name="uni0451" unicode="&#x451;" horiz-adv-x="578" 
d="M240 577h-60q-36 0 -36 37v60q0 36 36 36h60q35 0 35 -36v-60q0 -37 -35 -37zM425 577h-59q-37 0 -37 37v60q0 36 37 36h59q36 0 36 -36v-60q0 -37 -36 -37zM325 129q91 0 194 12l17 -111q-83 -42 -232 -42q-147 0 -209.5 62t-62.5 196q0 146 61.5 205.5t207.5 59.5
q131 0 189.5 -43.5t58.5 -132.5q1 -70 -38.5 -102t-134.5 -32h-150q7 -41 28.5 -56.5t70.5 -15.5zM307 388q-48 1 -65 -16.5t-19 -76.5h102q31 0 40 9.5t9 34.5q0 29 -14.5 39t-52.5 10z" />
    <glyph glyph-name="uni0452" unicode="&#x452;" horiz-adv-x="618" 
d="M440 419q144 0 144 -139v-238q0 -75 -37.5 -139.5t-101.5 -95.5l-102 80q58 64 58 155v181q0 23 -10 32t-36 9q-42 0 -98 -22v-242h-182v473h-61v82h61v145h182v-145h169v-82h-169v-24q0 -45 -8 -103q92 73 191 73z" />
    <glyph glyph-name="uni0453" unicode="&#x453;" horiz-adv-x="487" 
d="M456 642l-241 -106l-51 76l218 149zM188 504q209 0 290 -15l-8 -127h-200q-21 0 -30 -8.5t-9 -28.5v-325h-180v378q0 64 33.5 95t103.5 31z" />
    <glyph glyph-name="uni0454" unicode="&#x454;" horiz-adv-x="550" 
d="M511 131l13 -114q-77 -30 -208 -30q-156 0 -219.5 58t-63.5 201q0 147 63 205t220 58q129 0 204 -28l-14 -111h-190q-49 1 -69.5 -12.5t-27.5 -54.5h249v-102h-250q4 -48 24.5 -61.5t73.5 -13.5q97 0 195 5z" />
    <glyph glyph-name="uni0455" unicode="&#x455;" horiz-adv-x="543" 
d="M252 511q145 -2 244 -21l-12 -110q-65 1 -194 1q-58 0 -71 -2.5t-13 -18.5q0 -3 0.5 -6t2 -5t3 -3.5t5 -3t6 -3t8 -3t10 -2.5t13 -3t14.5 -4l120 -32q67 -19 97 -51.5t30 -95.5q0 -92 -52.5 -125.5t-181.5 -33.5q-127 0 -243 19l12 110q10 0 72.5 -0.5t101.5 -0.5
q75 0 95.5 4.5t20.5 21.5q0 4 -1 7t-4 6t-5.5 4.5t-9.5 3.5t-12 3.5t-16 4.5t-20 6l-116 32q-72 21 -98.5 57.5t-26.5 99.5q0 74 50.5 109t170.5 35z" />
    <glyph glyph-name="uni0456" unicode="&#x456;" horiz-adv-x="296" 
d="M109 721h78q53 0 53 -54v-52q0 -53 -53 -53h-78q-53 0 -53 53v52q0 54 53 54zM239 0h-181v497h181v-497z" />
    <glyph glyph-name="uni0457" unicode="&#x457;" horiz-adv-x="298" 
d="M25 710h60q36 0 36 -36v-60q0 -37 -36 -37h-60q-36 0 -36 37v60q0 36 36 36zM211 710h60q36 0 36 -36v-60q0 -37 -36 -37h-60q-36 0 -36 37v60q0 36 36 36zM240 0h-182v497h182v-497z" />
    <glyph glyph-name="uni0458" unicode="&#x458;" horiz-adv-x="297" 
d="M107 728h79q52 0 52 -53v-53q0 -53 -52 -53h-79q-53 0 -53 53v53q0 53 53 53zM239 497v-455q0 -75 -39.5 -139.5t-106.5 -95.5l-100 80q65 68 65 155v455h181z" />
    <glyph glyph-name="uni0459" unicode="&#x459;" horiz-adv-x="835" 
d="M529 331h47q136 0 186.5 -35.5t50.5 -133.5q0 -95 -48 -131.5t-159 -36.5q-130 0 -240 6h-4v385h-36q-22 0 -31.5 -9t-12.5 -34q-14 -146 -38 -222q-48 -153 -216 -124l-11 124q22 3 33.5 6t25.5 14.5t20 31.5q15 44 33 203q14 122 138 122h262v-166zM529 111h47
q38 0 50 11.5t12 46.5t-12 46t-50 11h-47v-115z" />
    <glyph glyph-name="uni045A" unicode="&#x45a;" horiz-adv-x="829" 
d="M524 320h54q132 0 181 -33.5t49 -124.5q0 -95 -46.5 -131.5t-153.5 -36.5q-162 0 -251 6h-3v209h-135v-209h-165v497h165v-177h135v177h170v-177zM524 111h54q33 0 44 10.5t11 42.5q0 31 -10.5 41.5t-44.5 10.5h-54v-105z" />
    <glyph glyph-name="uni045B" unicode="&#x45b;" horiz-adv-x="618" 
d="M440 419q144 0 144 -139v-280h-183v223q0 23 -10 32t-36 9q-42 0 -98 -22v-242h-182v473h-61v82h61v145h182v-145h169v-82h-169v-24q0 -45 -8 -103q92 73 191 73z" />
    <glyph glyph-name="uni045C" unicode="&#x45c;" 
d="M260 536l-51 76l218 149l74 -119zM379 261v-5q26 -4 39 -5.5t30 -9t23.5 -11t19 -21t17.5 -29t17 -44.5t19 -57.5t23 -78.5h-189q-43 149 -58 173q-14 22 -44 24h-14h-32q5 -23 5 -40v-157h-181v497h181v-117q0 -34 -7 -63h22q52 0 68 25.5t49 154.5h184
q-46 -149 -56 -170q-19 -40 -54 -53q-18 -7 -62 -13z" />
    <glyph glyph-name="uni045D" unicode="&#x45d;" horiz-adv-x="620" 
d="M397 612l-51 -76l-241 106l74 119zM567 0l-162 -1v223q0 38 6 88h-4q-14 -42 -40 -83l-154 -227h-159v497h161v-234q0 -36 -7 -77h5q9 29 38 73l157 238h159v-497z" />
    <glyph glyph-name="uni045E" unicode="&#x45e;" horiz-adv-x="585" 
d="M291 553q-85 0 -134 49.5t-38 115.5h114q-4 -43 10.5 -61.5t47.5 -18.5q66 0 58 80h114q10 -66 -38.5 -115.5t-133.5 -49.5zM582 497l-167 -492q-25 -82 -66.5 -126t-103.5 -67q-80 -33 -204 -10l14 118q97 -3 140 21q29 15 52 59h-33q-45 0 -58 43l-154 454h193l74 -296
q6 -30 14 -85h11q7 26 20 85l74 296h194z" />
    <glyph glyph-name="uni045F" unicode="&#x45f;" horiz-adv-x="614" 
d="M560 497v-497h-181l-11 -163h-122l-12 163h-180v497h178l2 -375h146l2 375h178z" />
    <glyph glyph-name="uni0490" unicode="&#x490;" horiz-adv-x="547" 
d="M539 843v-165l-8 -131h-235q-47 0 -47 -45v-502h-188v541q0 67 43 109.5t111 42.5q125 0 186 -2l14 152h124z" />
    <glyph glyph-name="uni0491" unicode="&#x491;" horiz-adv-x="488" 
d="M479 640v-151l-9 -127h-200q-21 0 -30 -8.5t-9 -28.5v-325h-180v378q0 64 33.5 95t103.5 31q105 0 158 -2l14 138h119z" />
    <glyph glyph-name="uni04B0" unicode="&#x4b0;" horiz-adv-x="639" 
d="M551 203h-137v-203h-188v203h-136v93h100l-192 394h194l99 -233q13 -30 23 -93h12q14 70 23 93l99 233h193l-191 -394h100z" />
    <glyph glyph-name="uni04B1" unicode="&#x4b1;" horiz-adv-x="637" 
d="M450 107h98v-108h-134v-184h-189v184h-135v108h98l-189 390h194l98 -229q5 -12 9 -27.5t8 -35.5t6 -29h11q15 75 23 93l97 228h194z" />
    <glyph glyph-name="uni04B6" unicode="&#x4b6;" horiz-adv-x="719" 
d="M702 124v-275h-134l-14 151h-131v271q-107 -47 -196 -47q-96 0 -141 42.5t-45 131.5v292h188v-251q-2 -34 12.5 -47t55.5 -13q66 0 126 21v290h188v-566h91z" />
    <glyph glyph-name="uni04B7" unicode="&#x4b7;" horiz-adv-x="625" 
d="M607 122v-260h-120l-14 138h-124v175q-78 -28 -154 -28q-81 0 -119.5 28.5t-38.5 88.5v233h180v-179q0 -20 9.5 -29t31.5 -9q45 0 91 17v200h181l-1 -375h78z" />
    <glyph glyph-name="uni04BA" unicode="&#x4ba;" horiz-adv-x="677" 
d="M449 466q97 0 142.5 -42.5t45.5 -131.5v-292h-188v251q2 35 -13 47.5t-56 12.5q-66 0 -129 -21v-290h-187v690h187v-271q107 47 198 47z" />
    <glyph glyph-name="uni04C0" unicode="&#x4c0;" horiz-adv-x="314" 
d="M250 0h-186v690h186v-690z" />
    <glyph glyph-name="Wgrave" unicode="&#x1e80;" horiz-adv-x="989" 
d="M582 797l-51 -76l-241 106l74 119zM967 690l-97 -639q-4 -23 -22 -37t-43 -14h-167q-25 0 -43.5 14t-21.5 37l-59 413q-7 41 -10 95h-18q-8 -81 -10 -96l-58 -412q-3 -23 -22 -37t-44 -14h-167q-25 0 -43.5 14t-22.5 37l-96 639h187l50 -448q6 -65 7 -109h17l16 109
l58 392q3 25 21 40.5t44 15.5h144q25 0 43 -15.5t22 -40.5l59 -393q2 -18 7 -55t7 -53h18q1 44 7 107l50 450h187z" />
    <glyph glyph-name="wgrave" unicode="&#x1e81;" horiz-adv-x="863" 
d="M520 612l-51 -76l-241 106l74 119zM852 497l-111 -450q-4 -22 -20.5 -34.5t-39.5 -12.5h-133q-24 0 -42.5 15t-21.5 39l-38 251q-2 17 -4.5 47.5t-3.5 38.5h-13l-9 -86l-38 -251q-3 -24 -21 -39t-43 -15h-131q-23 0 -39.5 12.5t-20.5 34.5l-111 450h181l51 -299
q1 -5 4.5 -36.5t4.5 -48.5h13q1 16 5 45t5 40l38 246q3 23 20.5 38t42.5 15h110q24 0 41.5 -15t20.5 -39l37 -245q1 -12 5.5 -41t5.5 -44h13q8 71 10 85l50 299h182z" />
    <glyph glyph-name="Wacute" unicode="&#x1e82;" horiz-adv-x="989" 
d="M694 827l-241 -106l-51 76l218 149zM967 690l-97 -639q-4 -23 -22 -37t-43 -14h-167q-25 0 -43.5 14t-21.5 37l-59 413q-7 41 -10 95h-18q-8 -81 -10 -96l-58 -412q-3 -23 -22 -37t-44 -14h-167q-25 0 -43.5 14t-22.5 37l-96 639h187l50 -448q6 -65 7 -109h17l16 109
l58 392q3 25 21 40.5t44 15.5h144q25 0 43 -15.5t22 -40.5l59 -393q2 -18 7 -55t7 -53h18q1 44 7 107l50 450h187z" />
    <glyph glyph-name="wacute" unicode="&#x1e83;" horiz-adv-x="863" 
d="M632 642l-241 -106l-51 76l218 149zM852 497l-111 -450q-4 -22 -20.5 -34.5t-39.5 -12.5h-133q-24 0 -42.5 15t-21.5 39l-38 251q-2 17 -4.5 47.5t-3.5 38.5h-13l-9 -86l-38 -251q-3 -24 -21 -39t-43 -15h-131q-23 0 -39.5 12.5t-20.5 34.5l-111 450h181l51 -299
q1 -5 4.5 -36.5t4.5 -48.5h13q1 16 5 45t5 40l38 246q3 23 20.5 38t42.5 15h110q24 0 41.5 -15t20.5 -39l37 -245q1 -12 5.5 -41t5.5 -44h13q8 71 10 85l50 299h182z" />
    <glyph glyph-name="Wdieresis" unicode="&#x1e84;" horiz-adv-x="989" 
d="M371 895h59q36 0 36 -36v-60q0 -37 -36 -37h-59q-36 0 -36 37v60q0 36 36 36zM557 895h59q36 0 36 -36v-60q0 -37 -36 -37h-59q-37 0 -37 37v60q0 36 37 36zM967 690l-97 -639q-4 -23 -22 -37t-43 -14h-167q-25 0 -43.5 14t-21.5 37l-59 413q-7 41 -10 95h-18
q-8 -81 -10 -96l-58 -412q-3 -23 -22 -37t-44 -14h-167q-25 0 -43.5 14t-22.5 37l-96 639h187l50 -448q6 -65 7 -109h17l16 109l58 392q3 25 21 40.5t44 15.5h144q25 0 43 -15.5t22 -40.5l59 -393q2 -18 7 -55t7 -53h18q1 44 7 107l50 450h187z" />
    <glyph glyph-name="wdieresis" unicode="&#x1e85;" horiz-adv-x="863" 
d="M309 710h59q36 0 36 -36v-60q0 -37 -36 -37h-59q-36 0 -36 37v60q0 36 36 36zM495 710h59q36 0 36 -36v-60q0 -37 -36 -37h-59q-37 0 -37 37v60q0 36 37 36zM852 497l-111 -450q-4 -22 -20.5 -34.5t-39.5 -12.5h-133q-24 0 -42.5 15t-21.5 39l-38 251q-2 17 -4.5 47.5
t-3.5 38.5h-13l-9 -86l-38 -251q-3 -24 -21 -39t-43 -15h-131q-23 0 -39.5 12.5t-20.5 34.5l-111 450h181l51 -299q1 -5 4.5 -36.5t4.5 -48.5h13q1 16 5 45t5 40l38 246q3 23 20.5 38t42.5 15h110q24 0 41.5 -15t20.5 -39l37 -245q1 -12 5.5 -41t5.5 -44h13q8 71 10 85
l50 299h182z" />
    <glyph glyph-name="Ygrave" unicode="&#x1ef2;" horiz-adv-x="633" 
d="M353 721l-241 106l74 119l218 -149zM411 221v-221h-188v221l-228 469h194l99 -233q10 -25 24 -93h11q14 70 23 93l99 233h194z" />
    <glyph glyph-name="ygrave" unicode="&#x1ef3;" horiz-adv-x="584" 
d="M332 536l-241 106l74 119l218 -149zM582 497l-166 -492q-11 -34 -27 -64t-41.5 -62t-58.5 -50t-78.5 -29t-100.5 1l-13 101q60 14 94.5 36.5t53.5 61.5h-31q-45 0 -58 43l-154 454h193l74 -296q6 -30 14 -85h11q5 17 12.5 48.5t8.5 36.5l73 296h194z" />
    <glyph glyph-name="endash" unicode="&#x2013;" horiz-adv-x="543" 
d="M493 201h-443v110h443v-110z" />
    <glyph glyph-name="emdash" unicode="&#x2014;" horiz-adv-x="836" 
d="M786 201h-736v110h736v-110z" />
    <glyph glyph-name="quoteleft" unicode="&#x2018;" horiz-adv-x="222" 
d="M130 420h-34q-32 0 -44 12.5t-13 44.5v58q0 101 54 180l64 -20q-14 -47 -16 -121q46 0 48 -50l-2 -47q-1 -32 -13 -44.5t-44 -12.5z" />
    <glyph glyph-name="quoteright" unicode="&#x2019;" horiz-adv-x="219" 
d="M91 706h34q32 0 44 -12t13 -45v-58q0 -101 -54 -180l-64 20q15 50 15 121q-45 0 -47 51l2 46q1 33 13 45t44 12z" />
    <glyph glyph-name="quotesinglbase" unicode="&#x201a;" horiz-adv-x="233" 
d="M99 166h35q32 0 44 -13.5t12 -47.5l1 -63q-1 -107 -54 -193l-64 21q15 54 15 130q-47 0 -47 55l2 50q1 34 13 47.5t43 13.5z" />
    <glyph glyph-name="quotedblleft" unicode="&#x201c;" horiz-adv-x="412" 
d="M130 420h-34q-32 0 -44 12.5t-13 44.5v58q0 101 54 180l64 -20q-14 -47 -16 -121q46 0 48 -50l-2 -47q-1 -32 -13 -44.5t-44 -12.5zM320 420h-34q-32 0 -44 12.5t-13 44.5v58q0 101 54 180l64 -20q-15 -50 -15 -121q45 0 47 -50l-2 -47q-1 -32 -13 -44.5t-44 -12.5z" />
    <glyph glyph-name="quotedblright" unicode="&#x201d;" horiz-adv-x="409" 
d="M91 706h34q32 0 44 -12t13 -45v-58q0 -101 -54 -180l-64 20q15 50 15 121q-45 0 -47 51l2 46q1 33 13 45t44 12zM281 706h34q32 0 44 -12t13 -45v-58q0 -101 -54 -180l-64 20q14 47 16 121q-46 0 -48 51l2 46q1 33 13 45t44 12z" />
    <glyph glyph-name="quotedblbase" unicode="&#x201e;" horiz-adv-x="422" 
d="M99 144h34q31 0 43.5 -12.5t13.5 -44.5v-59q0 -101 -54 -180l-64 20q15 50 15 121q-45 0 -47 51l2 47q1 32 13.5 44.5t43.5 12.5zM289 144h34q31 0 43.5 -12.5t13.5 -44.5v-59q0 -101 -54 -180l-64 20q14 47 16 121q-46 0 -48 51l2 47q1 32 13.5 44.5t43.5 12.5z" />
    <glyph glyph-name="dagger" unicode="&#x2020;" horiz-adv-x="479" 
d="M312 -110h-145l8 511l1 83l-9 207h145l-9 -207l1 -83zM26 368v129h129v-110zM453 497v-129l-129 19v110h129z" />
    <glyph glyph-name="daggerdbl" unicode="&#x2021;" horiz-adv-x="516" 
d="M322 496l-1 -401l10 -205h-146l9 205v401l-9 195h146zM174 387l-129 -19v129h129v-110zM471 368l-129 19v110h129v-129zM174 194v-110h-129v129zM471 84h-129v110l129 19v-129z" />
    <glyph glyph-name="bullet" unicode="&#x2022;" horiz-adv-x="377" 
d="M184 392h16q63 0 88 -25t25 -88v-16q0 -68 -25 -94t-88 -26h-16q-68 0 -94 26t-26 94v16q0 63 26 88t94 25z" />
    <glyph glyph-name="ellipsis" unicode="&#x2026;" horiz-adv-x="911" 
d="M98 170h43q36 0 49.5 -13.5t13.5 -49.5v-44q0 -36 -13.5 -49.5t-49.5 -13.5h-43q-36 0 -49.5 13.5t-13.5 49.5v44q0 36 13.5 49.5t49.5 13.5zM427 170h43q36 0 49.5 -13.5t13.5 -49.5v-44q0 -36 -13.5 -49.5t-49.5 -13.5h-43q-36 0 -49.5 13.5t-13.5 49.5v44
q0 36 13.5 49.5t49.5 13.5zM755 170h44q36 0 49.5 -13.5t13.5 -49.5v-44q0 -36 -13.5 -49.5t-49.5 -13.5h-44q-35 0 -48.5 13.5t-13.5 49.5v44q0 36 13.5 49.5t48.5 13.5z" />
    <glyph glyph-name="perthousand" unicode="&#x2030;" horiz-adv-x="1311" 
d="M204 704q100 0 139 -45t39 -161t-39 -161t-139 -45q-99 0 -137.5 45t-38.5 161t38.5 161t137.5 45zM315 0h-112l395 690h112zM204 607q-27 0 -35 -19.5t-8 -89.5q0 -71 8 -90t35 -19q28 0 36 19t8 90t-8 90t-36 19zM710 399q100 0 139 -45t39 -161t-39 -161t-139 -45
q-99 0 -137.5 45t-38.5 161t38.5 161t137.5 45zM1105 399q100 0 139 -45t39 -161t-39 -161t-139 -45q-99 0 -137.5 45t-38.5 161t38.5 161t137.5 45zM710 301q-28 0 -36 -18.5t-7 -89.5q-1 -71 7 -90t36 -19q27 0 35.5 19.5t8.5 89.5t-8.5 89t-35.5 19zM1105 301
q-27 0 -35 -18.5t-8 -89.5q0 -70 8 -89.5t35 -19.5q28 0 36.5 19.5t8.5 89.5q0 71 -8.5 89.5t-36.5 18.5z" />
    <glyph glyph-name="guilsinglleft" unicode="&#x2039;" horiz-adv-x="314" 
d="M280 407l-94 -156l95 -162l-96 -60l-158 203v38l158 198z" />
    <glyph glyph-name="guilsinglright" unicode="&#x203a;" horiz-adv-x="315" 
d="M288 270v-38l-159 -203l-95 60l95 162l-95 156l95 61z" />
    <glyph glyph-name="fraction" unicode="&#x2044;" horiz-adv-x="160" 
d="M-62 0h-112l395 690h112z" />
    <glyph glyph-name="Euro" unicode="&#x20ac;" horiz-adv-x="642" 
d="M503 364h-469v103h71q20 121 93 178t216 57q98 0 180 -25l-16 -131q-117 15 -179 3q-73 -10 -94 -82h209zM597 150l14 -131q-83 -31 -197 -31q-144 0 -217 58.5t-92 181.5h-72v103h459l-11 -103h-178q10 -42 33 -62.5t63 -24.5q88 -11 198 9z" />
    <glyph glyph-name="trademark" unicode="&#x2122;" horiz-adv-x="989" 
d="M398 696v-95h-112v-285h-124v285h-113v95h349zM937 316h-113l-12 287h-9l-38 -187q-6 -38 -47 -38h-70q-42 0 -48 38l-38 187h-9l-10 -287h-114l13 337q2 43 43 43h113q40 0 46 -38l29 -146q1 -9 3 -28t4 -28h6q5 43 7 57l27 145q6 38 47 38h115q41 0 43 -43z" />
    <glyph glyph-name="partialdiff" unicode="&#x2202;" horiz-adv-x="602" 
d="M110 583v121q129 4 213.5 -10t143 -55t82 -114.5t18.5 -186.5q-9 -194 -79 -272t-213 -78q-59 0 -104.5 16t-72 41t-42.5 59t-21 68t-2 70q7 90 60.5 152t161.5 62q81 -2 130 -41q-1 64 -22.5 98.5t-80.5 52t-172 17.5zM284 127q27 0 44 11t27.5 37.5t15 56t9.5 81.5
q-43 11 -79 11q-81 0 -87 -86q-9 -111 70 -111z" />
    <glyph glyph-name="emptyset" unicode="&#x2205;" horiz-adv-x="685" 
d="M343 633q121 0 206.5 -85.5t85.5 -206.5t-85.5 -207t-206.5 -86t-207 86t-86 207t86 206.5t207 85.5zM343 545q-51 0 -122 -11l3 -45q60 9 119 9q66 0 66 -46q0 -21 -15 -44.5t-33.5 -42.5t-33.5 -52t-15 -72h54q0 35 14.5 64.5t32.5 46.5t32.5 43.5t14.5 56.5
q0 93 -117 93zM359 171h-39q-7 0 -7 -8v-37q0 -7 7 -7h39q8 0 8 7v37q0 8 -8 8z" />
    <glyph glyph-name="product" unicode="&#x220f;" horiz-adv-x="712" 
d="M684 559h-78v-652h-182v652h-137v-652h-181v652h-78v131h656v-131z" />
    <glyph glyph-name="summation" unicode="&#x2211;" horiz-adv-x="597" 
d="M555 562h-303l129 -235l-143 -350h327v-128h-529v128l143 350l-131 235v128h507v-128z" />
    <glyph glyph-name="minus" unicode="&#x2212;" horiz-adv-x="575" 
d="M523 229h-471v127h471v-127z" />
    <glyph glyph-name="radical" unicode="&#x221a;" horiz-adv-x="585" 
d="M582 876l-206 -868q-3 -8 -13 -8h-215q-11 0 -13 8l-125 489h145l94 -382h13l173 761h147z" />
    <glyph glyph-name="infinity" unicode="&#x221e;" horiz-adv-x="762" 
d="M574 456q65 0 108.5 -38t43.5 -110q0 -75 -47 -116.5t-119 -41.5q-92 0 -178 76q-93 -76 -185 -76q-68 0 -115 42t-47 116q0 73 45.5 110.5t115.5 37.5q97 0 186 -82q99 82 192 82zM167 304q0 -44 56 -44q46 0 89 43q-20 22 -38.5 32t-51.5 10q-55 0 -55 -41zM539 260
q55 0 55 43q0 42 -53 42q-32 0 -51.5 -11.5t-38.5 -35.5q38 -38 88 -38z" />
    <glyph glyph-name="integral" unicode="&#x222b;" horiz-adv-x="356" 
d="M198 714q90 0 133 -4l-10 -131h-61q-17 0 -23 -7t-5 -27l51 -634q5 -69 -25.5 -101t-110.5 -32q-96 0 -123 4l11 131h57q18 0 25 8.5t5 31.5l-49 628q-4 64 31 98.5t94 34.5z" />
    <glyph glyph-name="approxequal" unicode="&#x2248;" horiz-adv-x="578" 
d="M182 474q23 -2 98.5 -22.5t99.5 -22.5q11 -1 17 0t8.5 8.5t2.5 11.5v20h111q19 -82 -14 -124.5t-111 -39.5q-26 1 -101 22.5t-98 23.5q-11 1 -17 -0.5t-8.5 -9t-2.5 -11.5v-20h-111q-19 84 17.5 127t108.5 37zM182 274q24 -2 99.5 -23t98.5 -23q11 -1 17 0t8.5 9t2.5 12
v20h111q19 -82 -14 -124.5t-111 -39.5q-26 1 -101 22.5t-98 23.5q-11 1 -17 0t-8.5 -9t-2.5 -12v-21h-111q-19 85 17.5 128t108.5 37z" />
    <glyph glyph-name="notequal" unicode="&#x2260;" horiz-adv-x="614" 
d="M543 471v-128h-472v128h231l46 128l102 -37l-32 -91h125zM71 256h472v-127h-247l-47 -131l-104 36l34 95h-108v127z" />
    <glyph glyph-name="lessequal" unicode="&#x2264;" horiz-adv-x="555" 
d="M491 435l-281 -49l281 -49v-142l-435 121v140l435 121v-142zM491 36h-446v137h446v-137z" />
    <glyph glyph-name="greaterequal" unicode="&#x2265;" horiz-adv-x="555" 
d="M499 456v-140l-435 -121v142l281 49l-281 49v142zM511 36h-446v137h446v-137z" />
    <glyph glyph-name="lozenge" unicode="&#x25ca;" horiz-adv-x="571" 
d="M296 689l250 -333q7 -10 0 -20l-250 -335q-10 -13 -20 0l-252 335q-6 10 0 20l252 333q10 13 20 0zM165 346l121 -169l119 169l-119 167z" />
    <glyph glyph-name="fi" unicode="&#xfb01;" horiz-adv-x="700" 
d="M515 728h77q54 0 54 -53v-53q0 -53 -54 -53h-77q-53 0 -53 53v53q0 53 53 53zM645 497v-497h-183v383h-182v-383h-183v383h-84v109l84 5v63q0 162 174 162q85 0 142 -12v-113h-78q-31 0 -43 -13.5t-12 -47.5v-39h365z" />
    <glyph glyph-name="fl" unicode="&#xfb02;" horiz-adv-x="750" 
d="M727 126l20 -116q-39 -23 -130 -23q-70 0 -110 35.5t-40 98.5v478h-134q-31 0 -43 -13.5t-12 -49.5v-39h114v-114h-114v-383h-182v383h-83v109l83 5v63q0 163 172 162q271 0 381 -21v-532q0 -43 46 -43h32z" />
    <glyph glyph-name="uni00630074" horiz-adv-x="872" 
d="M728 383v-210q0 -24 11 -33.5t37 -9.5h57l20 -120q-57 -23 -156 -23q-71 0 -111 37t-40 104l-1 255h-222q-58 0 -79 -27.5t-21 -106.5q0 -68 21 -92t79 -24q74 0 132 8l16 -115q-67 -38 -181 -38q-142 0 -200 58.5t-58 202.5q0 136 59.5 192t200.5 56h253v134h183v-134
h128v-114h-128z" />
    <glyph glyph-name="f_f" horiz-adv-x="782" 
d="M793 597h-94q-32 0 -44.5 -13t-12.5 -45v-42h131v-114h-131v-383h-176v383h-191v-383h-177v383h-85v109l85 5v57q3 158 172 158q97 0 152 -12l-17 -113h-74q-32 0 -44 -12t-12 -46v-32h191v67q0 158 171 158q109 0 173 -12z" />
    <glyph glyph-name="f_f_i" horiz-adv-x="1061" 
d="M877 728h77q53 0 53 -53v-53q0 -53 -53 -53h-77q-54 0 -54 53v53q0 53 54 53zM1006 497v-497h-183v383h-183v-383h-176v383h-192v-383h-177v383h-82v109l82 5v57q3 158 172 158q97 0 152 -12l-17 -113h-74q-32 0 -44 -12.5t-12 -45.5v-32h192v63q0 162 173 162
q80 0 137 -12v-113h-72q-36 0 -49 -13.5t-13 -47.5v-39h366z" />
    <glyph glyph-name="f_f_l" horiz-adv-x="1118" 
d="M1096 126l20 -116q-39 -23 -130 -23q-70 0 -109.5 35.5t-39.5 98.5v478h-140q-28 0 -41.5 -14t-13.5 -49v-39h119v-114h-119v-383h-176v383h-191v-383h-177v383h-85v109l85 5v57q3 158 172 158q97 0 152 -12l-17 -113h-74q-32 0 -44 -12t-12 -46v-32h191v63
q0 163 171 162q271 0 381 -21v-532q0 -43 47 -43h31z" />
    <glyph glyph-name="uni006600660079" horiz-adv-x="1313" 
d="M1311 497l-167 -492q-14 -44 -36 -81t-57.5 -71t-90 -48.5t-121.5 -3.5l-13 101q112 25 148 98h-31q-45 0 -58 43l-104 305q-12 35 -48 35h-90v-383h-178v383h-190v-383h-177v383h-85v109l85 5v57q3 158 172 158q97 0 152 -12l-17 -113h-74q-32 0 -44 -12t-12 -46v-32
h190v67q0 158 174 158q104 0 167 -12l-17 -113h-90q-32 0 -44 -12.5t-12 -45.5v-42h154q126 0 156 -123l45 -173q6 -30 14 -85h11q5 17 13 50t8 35l73 296h194z" />
    <glyph glyph-name="uni00660074" horiz-adv-x="789" 
d="M644 383v-210q0 -24 11 -33.5t37 -9.5h58l20 -120q-58 -23 -156 -23q-71 0 -111 37t-40 104l-1 255h-181v-383h-183v383h-85v109l85 5v67q0 158 174 158q95 0 148 -12l-17 -113h-66q-32 0 -44 -12.5t-12 -45.5v-42h181v134h182v-134h129v-114h-129z" />
    <glyph glyph-name="uni00660079" horiz-adv-x="946" 
d="M944 497l-167 -492q-14 -44 -36 -81t-57.5 -71t-90 -48.5t-121.5 -3.5l-13 101q112 25 148 98h-31q-45 0 -58 43l-104 305q-12 35 -48 35h-85v-383h-183v383h-85v109l85 5v67q0 158 174 158q109 0 172 -12l-17 -113h-90q-32 0 -44 -12.5t-12 -45.5v-42h149
q126 0 156 -123l45 -173q6 -30 14 -85h11q8 24 21 85l73 296h194z" />
    <glyph glyph-name="s_t" horiz-adv-x="909" 
d="M765 383v-210q0 -24 11 -33.5t37 -9.5h57l20 -120q-58 -23 -156 -23q-70 0 -110.5 37.5t-40.5 103.5v254h-293q-58 0 -71 -2.5t-13 -17.5q0 -3 0.5 -6t2 -5t3 -3.5t4.5 -3l6 -3t8.5 -3t10 -2.5t12.5 -3t14 -4l120 -34q64 -19 92.5 -51.5t28.5 -95.5q0 -91 -51.5 -125
t-176.5 -34q-127 0 -242 19l11 110q11 0 75 -0.5t100 -0.5q66 0 87 4.5t21 21.5q0 14 -11.5 19.5t-48.5 15.5l-116 32q-73 21 -99.5 57.5t-26.5 99.5q0 67 50.5 98.5t171.5 31.5h331v134h182v-134h128v-114h-128z" />
    <glyph glyph-name="uni00740074" horiz-adv-x="805" 
d="M660 383v-210q0 -24 11 -33.5t37 -9.5h58l20 -120q-59 -23 -156 -23q-71 0 -111 37t-40 104l-1 255h-196v-210q0 -24 10.5 -33.5t36.5 -9.5h58l20 -120q-57 -23 -156 -23q-71 0 -111 37t-40 104l-1 255h-85v109l85 4v135h183v-134h196v134h182v-134h128v-114h-128z" />
    <glyph glyph-name="uni00740079" horiz-adv-x="970" 
d="M967 497l-166 -492q-14 -44 -36.5 -81t-58 -71t-90 -48.5t-121.5 -3.5l-13 101q60 14 95 36.5t53 61.5h-31q-45 0 -58 43l-104 305q-10 35 -47 35h-108v-210q0 -24 10.5 -33.5t36.5 -9.5h58l20 -120q-57 -23 -156 -23q-71 0 -111 37t-40 104l-1 255h-85v109l85 4v135h183
v-134h172q126 0 156 -123l45 -173q10 -56 14 -85h10q6 20 21 85l74 296h193z" />
    <glyph glyph-name="brevecy" horiz-adv-x="403" 
d="M259 704h115q10 -65 -38.5 -114.5t-133.5 -49.5t-134 49.5t-39 114.5h115q-4 -43 10.5 -61t47.5 -18q32 0 46.5 18t10.5 61z" />
    </font>
</defs>
</svg>
