<?xml version="1.0" standalone="no"?>
<!DOCTYPE svg PUBLIC "-//W3C//DTD SVG 1.1//EN" "http://www.w3.org/Graphics/SVG/1.1/DTD/svg11.dtd" >
<svg>
<metadata>
Created by FontForge 20120731 at Wed Jun 15 09:21:26 2016
 By www-data
Copyright (c) 2013, Natanael Gama (www.ndiscovered.com . info(at)ndiscovered.com), with Reserved Font Name Exo. This Font Software is licensed under the SIL Open Font License, Version 1.1.
</metadata>
<defs>
<font id="Exo2-Light" horiz-adv-x="567" >
  <font-face 
    font-family="Exo 2 Light"
    font-weight="300"
    font-stretch="normal"
    units-per-em="1000"
    panose-1="0 0 4 0 0 0 0 0 0 0"
    ascent="800"
    descent="-200"
    x-height="484"
    cap-height="690"
    bbox="-174 -270 1204 929"
    underline-thickness="50"
    underline-position="-50"
    unicode-range="U+0020-FB02"
  />
<missing-glyph horiz-adv-x="600" 
 />
    <glyph glyph-name=".notdef" horiz-adv-x="600" 
 />
    <glyph glyph-name=".null" horiz-adv-x="0" 
 />
    <glyph glyph-name="nonmarkingreturn" horiz-adv-x="333" 
 />
    <glyph glyph-name="space" unicode=" " horiz-adv-x="226" 
 />
    <glyph glyph-name="exclam" unicode="!" horiz-adv-x="266" 
d="M165 377l-6 -169h-51l-7 169v318h64v-318zM125 107h17q25 0 25 -25v-57q0 -25 -25 -25h-17q-25 0 -25 25v57q0 25 25 25z" />
    <glyph glyph-name="quotedbl" unicode="&#x22;" horiz-adv-x="344" 
d="M126 478h-45l-4 212h53zM263 478h-44l-4 212h53z" />
    <glyph glyph-name="numbersign" unicode="#" horiz-adv-x="678" 
d="M510 456l-34 -195h110l-8 -43h-109l-38 -218h-52l38 218h-199l-38 -218h-52l38 218h-116l8 43h115l34 195h-115l8 43h115l33 191h52l-33 -191h199l33 191h52l-33 -191h110l-8 -43h-110zM458 456h-199l-34 -195h199z" />
    <glyph glyph-name="dollar" unicode="$" horiz-adv-x="562" 
d="M308 375l59 -12q76 -15 107.5 -59.5t31.5 -129.5q0 -60 -12.5 -97t-42.5 -56t-68 -25.5t-100 -6.5h-6l-8 -119h-37l8 119q-80 2 -168 15l5 51q81 -4 167 -6l19 272l-66 14q-73 15 -104.5 59.5t-31.5 127.5q0 60 12.5 96.5t42.5 54.5t66 23.5t98 4.5h12l7 100h36l-6 -101
q74 -2 149 -15l-5 -48q-125 6 -148 6zM127 520q0 -62 22 -89.5t74 -37.5l48 -10l17 260h-6q-39 0 -59 -1.5t-42 -7.5t-31.5 -19t-16 -36t-6.5 -59zM281 49h4q91 1 123 24.5t32 101.5q0 65 -21.5 92t-75.5 37l-43 9z" />
    <glyph glyph-name="percent" unicode="%" horiz-adv-x="890" 
d="M209 702q87 0 122 -47t35 -157t-35 -157t-122 -47t-122 47t-35 157t35 157t122 47zM238 0h-48l459 690h48zM208 661q-59 0 -82.5 -37t-23.5 -126q0 -90 23.5 -126.5t82.5 -36.5q61 0 84 36.5t23 126.5q0 89 -23.5 126t-83.5 37zM681 401q86 0 121.5 -47.5t35.5 -157.5
t-35 -157t-122 -47t-122 47t-35 157t35.5 157.5t121.5 47.5zM680 359q-59 0 -82.5 -37t-22.5 -126q-1 -89 22.5 -126t82.5 -37q60 0 83.5 36.5t23.5 126.5t-23.5 126.5t-83.5 36.5z" />
    <glyph glyph-name="ampersand" unicode="&#x26;" horiz-adv-x="776" 
d="M718 48l7 -46q-48 -10 -98 -10q-106 0 -117 91q-46 -50 -101 -71t-137 -21q-110 0 -155 40t-45 143q0 84 31 130t105 52v4q-63 5 -89.5 44.5t-26.5 116.5q0 59 14 95t49 54t78 23.5t118 5.5q90 0 159 -9l-8 -49q-36 3 -153 3q-113 0 -152 -24t-39 -107q0 -77 32 -103.5
t117 -26.5h203l7 138h52v-138h131l-1 -51h-130v-213q0 -37 17 -54t53 -17h79zM285 48q142 0 224 92v192h-205q-92 0 -128 -31.5t-36 -116.5q0 -78 31.5 -107t113.5 -29z" />
    <glyph glyph-name="quotesingle" unicode="'" horiz-adv-x="206" 
d="M126 478h-45l-4 212h53z" />
    <glyph glyph-name="parenleft" unicode="(" horiz-adv-x="358" 
d="M313 790l8 -33q-103 -51 -151 -160t-48 -284q0 -172 48 -281.5t151 -163.5l-8 -33q-131 55 -192.5 170.5t-61.5 306.5q0 192 61.5 308t192.5 170z" />
    <glyph glyph-name="parenright" unicode=")" horiz-adv-x="358" 
d="M37 757l8 33q131 -54 192.5 -170t61.5 -308q0 -191 -61.5 -306.5t-192.5 -170.5l-8 33q103 54 151 163.5t48 281.5q0 175 -48 284t-151 160z" />
    <glyph glyph-name="asterisk" unicode="*" horiz-adv-x="451" 
d="M240 533l98 -129l-33 -25l-80 125l-79 -124l-34 25l98 128l-5 157h42zM194 553l-1 -18l-8 -12l-125 36l14 39zM391 557l-125 -34l-9 12v18l121 44z" />
    <glyph glyph-name="plus" unicode="+" horiz-adv-x="552" 
d="M491 274h-191v-181h-49v181h-191v49h190v180h51v-180h190v-49z" />
    <glyph glyph-name="comma" unicode="," horiz-adv-x="221" 
d="M101 107h20q24 0 24 -25v-64q-2 -80 -29 -144l-30 9q8 64 8 117q-20 0 -18 21v61q1 25 25 25z" />
    <glyph glyph-name="hyphen" unicode="-" horiz-adv-x="461" 
d="M384 227h-307v50h307v-50z" />
    <glyph glyph-name="period" unicode="." horiz-adv-x="221" 
d="M99 107h22q25 0 25 -25v-57q0 -25 -25 -25h-22q-24 0 -24 25v57q0 25 24 25z" />
    <glyph glyph-name="slash" unicode="/" horiz-adv-x="509" 
d="M85 -63h-54l393 753h54z" />
    <glyph glyph-name="zero" unicode="0" horiz-adv-x="596" 
d="M189 87q37 -42 109 -42q92 0 128.5 69t36.5 231q0 145 -28 213zM406 605q-37 40 -108 40q-92 0 -128.5 -69t-36.5 -231q0 -142 27 -210zM298 702q126 0 178 -83.5t52 -273.5t-52 -273.5t-178 -83.5t-177.5 83.5t-51.5 273.5t51.5 273.5t177.5 83.5z" />
    <glyph glyph-name="one" unicode="1" horiz-adv-x="391" 
d="M274 0h-66v572q0 31 4 55l-175 -56l-9 47l180 72h66v-690z" />
    <glyph glyph-name="two" unicode="2" horiz-adv-x="560" 
d="M269 702q107 0 157.5 -29.5t50.5 -115.5q0 -65 -29 -122t-100 -137l-210 -238q37 2 115 2h251v-62h-446v40q0 19 10 30l214 244q69 77 99 133.5t29 109.5q-2 54 -36 70.5t-108 16.5q-95 0 -197 -19l-6 51q112 26 206 26z" />
    <glyph glyph-name="three" unicode="3" horiz-adv-x="555" 
d="M254 702q116 0 163.5 -35t47.5 -124q0 -153 -105 -174v-4q66 -11 93.5 -54.5t29.5 -118.5q2 -106 -47 -155t-167 -49q-86 0 -214 17l6 52q117 -11 194 -11q88 0 125.5 34.5t37.5 117.5q0 67 -31 103t-118 37h-128v51l128 1q43 1 71.5 13t41 34t16.5 43t4 50
q-1 69 -33.5 91.5t-121.5 22.5q-91 0 -174 -9l-7 50q104 17 188 17z" />
    <glyph glyph-name="four" unicode="4" horiz-adv-x="608" 
d="M560 186l-86 -6v-180h-63v179h-301q-38 0 -57 30.5t-2 65.5l206 415h65l-204 -414q-9 -19 -1 -31t27 -12h267v211l13 115h50v-326h86v-47z" />
    <glyph glyph-name="five" unicode="5" horiz-adv-x="533" 
d="M449 634h-297l-11 -215l68 -4q146 -8 205 -51.5t58 -158.5q0 -36 -4.5 -64.5t-18 -58.5t-37 -49.5t-63.5 -32t-95 -12.5q-87 0 -197 26l8 52q103 -20 175 -20q100 0 133.5 38.5t34.5 120.5q0 31 -4.5 53.5t-12.5 39t-26 27.5t-35 17.5t-50 10.5t-60.5 5.5t-76.5 3.5
l-34 3q-12 0 -19.5 8.5t-6.5 21.5l15 295h354z" />
    <glyph glyph-name="six" unicode="6" horiz-adv-x="569" 
d="M321 447q108 0 148.5 -50.5t40.5 -179.5q0 -58 -8 -96t-29.5 -70t-65 -47.5t-110.5 -15.5q-72 0 -115.5 15.5t-68 57t-33 100t-8.5 157.5q0 124 14 200.5t49 117t79.5 53.5t119.5 13q79 0 132 -14l-8 -48q-42 6 -124 6q-75 0 -113.5 -20t-59.5 -80.5t-23 -180.5
q38 46 79 64t104 18zM298 44q92 0 120.5 40.5t28.5 133.5q0 97 -29.5 136t-111.5 39q-49 0 -86.5 -16t-82.5 -60v-2q0 -67 2.5 -106.5t11.5 -75.5t27 -53t47 -26.5t73 -9.5z" />
    <glyph glyph-name="seven" unicode="7" horiz-adv-x="510" 
d="M42 690h386q57 0 40 -54l-219 -636h-66l203 588q2 6 18 46h-359z" />
    <glyph glyph-name="eight" unicode="8" horiz-adv-x="609" 
d="M305 699q124 0 169 -41.5t45 -139.5q0 -147 -98 -158v-4q62 -7 87.5 -52t25.5 -132q0 -99 -47 -139.5t-182 -41.5q-133 -1 -181.5 40t-48.5 141q0 87 25.5 132.5t87.5 51.5v4q-98 11 -98 158q0 98 45.5 139.5t169.5 41.5zM305 645q-92 0 -123.5 -28t-31.5 -104
q0 -79 30.5 -103.5t125.5 -24.5q96 0 124 24t28 104q0 76 -30.5 104t-122.5 28zM306 331q-104 -1 -136.5 -28.5t-32.5 -118.5q0 -77 34.5 -106.5t133.5 -29.5t132.5 29t33.5 107q0 92 -32 119.5t-133 27.5z" />
    <glyph glyph-name="nine" unicode="9" horiz-adv-x="570" 
d="M274 702q60 0 99.5 -12t64 -33.5t37 -67t16.5 -97t4 -138.5q0 -94 -10 -158t-28 -105.5t-51.5 -64t-73 -30.5t-99.5 -8q-82 0 -140 14l8 48q56 -5 132 -5t115.5 21t60 82t22.5 179q-40 -47 -81.5 -65.5t-104.5 -18.5q-100 0 -143 58t-43 167q0 120 48 177t167 57z
M261 296q49 0 86.5 16.5t83.5 60.5q0 59 -1.5 93t-6.5 69.5t-15 53t-28 32.5t-43.5 20t-63.5 5q-88 0 -119.5 -43.5t-31.5 -135.5q0 -87 30.5 -129t108.5 -42z" />
    <glyph glyph-name="colon" unicode=":" horiz-adv-x="225" 
d="M100 437h22q24 0 24 -25v-57q0 -25 -24 -25h-22q-25 0 -25 25v57q0 25 25 25zM100 107h22q24 0 24 -25v-57q0 -25 -24 -25h-22q-25 0 -25 25v57q0 25 25 25z" />
    <glyph glyph-name="semicolon" unicode=";" horiz-adv-x="227" 
d="M103 437h21q25 0 25 -25v-57q0 -25 -25 -25h-21q-25 0 -25 25v57q0 25 25 25zM105 107h19q24 0 24 -25v-64q-2 -80 -29 -144l-30 9q8 64 8 117q-18 0 -18 21l1 61q0 25 25 25z" />
    <glyph glyph-name="less" unicode="&#x3c;" horiz-adv-x="534" 
d="M459 448l-346 -151l346 -147v-52l-402 173v51l402 178v-52z" />
    <glyph glyph-name="equal" unicode="=" horiz-adv-x="587" 
d="M509 373h-431v49h431v-49zM509 162h-431v49h431v-49z" />
    <glyph glyph-name="greater" unicode="&#x3e;" horiz-adv-x="534" 
d="M476 322v-51l-401 -173v52l345 147l-345 151v52z" />
    <glyph glyph-name="question" unicode="?" horiz-adv-x="506" 
d="M257 712q200 0 200 -155q0 -41 -18.5 -76.5t-45.5 -62.5t-54 -54.5t-46 -67.5t-20 -88h-56q-1 52 16.5 95t43 71.5t51.5 54.5t44 56t19 63q1 56 -34 83t-111 27q-83 0 -198 -12l-5 46q8 1 35.5 6t37.5 6t34 3.5t49 3.5t58 1zM235 107h18q25 0 25 -25v-57q0 -25 -25 -25
h-18q-24 0 -24 25v57q0 25 24 25z" />
    <glyph glyph-name="at" unicode="@" horiz-adv-x="709" 
d="M346 578h143q70 0 106.5 -31.5t36.5 -101.5v-314h-47l-7 77q-33 -32 -92 -58t-118 -26q-60 0 -94.5 29.5t-34.5 84.5v52q0 48 30 74.5t85 26.5h219v52q0 42 -21 62t-74 20h-131q-38 0 -60.5 -1t-47 -5t-37 -10.5t-25.5 -21t-18 -31.5t-10 -46t-6 -62t-1 -82q0 -51 1 -85
t6.5 -64t11 -47.5t20.5 -32t29 -21t42.5 -11t54 -5t70.5 -0.5h252v-48q-125 -6 -251 -6q-71 -1 -114.5 2t-80 16.5t-54 32.5t-29.5 58.5t-15 86t-3 123.5q0 75 2.5 119.5t13.5 83.5t26.5 57.5t47.5 32t71 17t103 3.5zM573 352l-200 -4q-74 -3 -74 -65v-35q0 -72 79 -72
q47 -1 102.5 19.5t92.5 52.5v104z" />
    <glyph glyph-name="A" unicode="A" horiz-adv-x="615" 
d="M458 228h-301l-76 -228h-68l231 671q6 19 26 19h75q20 0 26 -19l231 -671h-68zM439 285l-99 297q-2 5 -8.5 25t-9.5 31h-28q-15 -47 -19 -56l-99 -297h263z" />
    <glyph glyph-name="B" unicode="B" horiz-adv-x="617" 
d="M416 360v-4q75 -7 106.5 -52.5t31.5 -131.5q0 -104 -48.5 -142t-169.5 -38q-157 0 -243 8v690q75 8 213 8q128 0 177.5 -37.5t49.5 -142.5q0 -75 -28 -113.5t-89 -44.5zM469 511q0 78 -35.5 104.5t-129.5 26.5q-110 0 -147 -1v-258h163q85 1 117 27t32 101zM328 48
q91 0 125 27t34 106q0 87 -36 118t-131 33h-163v-283q42 -1 171 -1z" />
    <glyph glyph-name="C" unicode="C" 
d="M331 702q109 0 184 -19l-8 -49q-76 9 -176 9q-110 0 -153 -65t-43 -233t43 -233t153 -65q114 0 190 11l8 -49q-78 -21 -198 -21q-146 0 -205 80t-59 277t59 277t205 80z" />
    <glyph glyph-name="D" unicode="D" horiz-adv-x="662" 
d="M332 699q146 0 204.5 -78.5t58.5 -275.5t-58.5 -275.5t-204.5 -78.5q-113 0 -239 9v690q124 9 239 9zM332 49q109 0 151.5 65t42.5 231t-42.5 231.5t-151.5 65.5q-70 0 -174 -2v-589q100 -2 174 -2z" />
    <glyph glyph-name="E" unicode="E" horiz-adv-x="557" 
d="M500 55l4 -50q-94 -6 -295 -6q-55 0 -88.5 31t-33.5 83v464q0 52 33.5 83t88.5 31q201 0 295 -6l-4 -50h-280q-67 0 -67 -73v-169h308v-53h-308v-213q0 -72 67 -72h280z" />
    <glyph glyph-name="F" unicode="F" horiz-adv-x="536" 
d="M495 635h-267q-72 0 -72 -73v-177h300v-53l-300 -1v-331h-66v574q0 54 33.5 85.5t88.5 31.5q195 0 287 -6z" />
    <glyph glyph-name="G" unicode="G" horiz-adv-x="626" 
d="M553 399v-399h-47l-9 77q-89 -89 -209 -89q-118 0 -169.5 85t-51.5 273q0 201 61 278.5t216 77.5q114 0 194 -19l-8 -49q-90 10 -182 10q-82 0 -126 -25t-65 -89.5t-21 -186.5q0 -162 38 -230t131 -68q37 0 73 13t57.5 27t53.5 39v275h64z" />
    <glyph glyph-name="H" unicode="H" horiz-adv-x="664" 
d="M571 690v-690h-65v341h-348v-341h-65v690h65v-293h348v293h65z" />
    <glyph glyph-name="I" unicode="I" horiz-adv-x="251" 
d="M158 0h-65v690h65v-690z" />
    <glyph glyph-name="J" unicode="J" horiz-adv-x="334" 
d="M245 690v-556q0 -142 -130 -142q-40 0 -82 10l7 46h53q86 0 86 84v558h66z" />
    <glyph glyph-name="K" unicode="K" horiz-adv-x="581" 
d="M248 333h-96q6 -41 6 -78v-255h-65v690h65v-223q0 -41 -6 -80h97l220 303h73l-212 -293q-11 -17 -32 -36v-3q21 -19 35 -39l224 -319h-74z" />
    <glyph glyph-name="L" unicode="L" horiz-adv-x="511" 
d="M156 690v-562q0 -73 72 -73h257l2 -50q-106 -6 -270 -6q-63 0 -95 33t-32 87v571h66z" />
    <glyph glyph-name="M" unicode="M" horiz-adv-x="869" 
d="M654 690h78q29 0 29 -29l29 -661h-65l-27 635h-22l-179 -541q-7 -22 -30 -22h-66q-23 0 -30 22l-180 541h-21l-26 -635h-65l28 661q0 29 29 29h79q21 0 29 -23l151 -450q16 -50 28 -94h22q6 22 29 95l151 449q6 23 29 23z" />
    <glyph glyph-name="N" unicode="N" horiz-adv-x="699" 
d="M606 690v-662q0 -28 -27 -28h-70q-22 0 -32 22l-263 524q-37 77 -39 83h-19q2 -27 2 -83v-546h-65v662q0 28 27 28h68q22 0 32 -22l257 -512l46 -93h21q-3 49 -3 99v528h65z" />
    <glyph glyph-name="O" unicode="O" horiz-adv-x="666" 
d="M333 702q148 0 207 -78.5t59 -278.5t-59 -278.5t-207 -78.5t-207 78.5t-59 278.5t59 278.5t207 78.5zM333 644q-111 0 -154.5 -65.5t-43.5 -233.5t43.5 -233.5t154.5 -65.5t154 65.5t43 233.5t-43 233.5t-154 65.5z" />
    <glyph glyph-name="P" unicode="P" horiz-adv-x="587" 
d="M324 698q121 0 167.5 -44.5t46.5 -166.5t-45.5 -166.5t-161.5 -44.5q-87 0 -173 8v-284h-65v690q83 8 231 8zM158 333h165q84 1 116 32.5t32 121.5q0 91 -32 123t-116 32q-125 0 -165 -1v-308z" />
    <glyph glyph-name="Q" unicode="Q" horiz-adv-x="667" 
d="M333 702q148 0 207.5 -78.5t59.5 -278.5t-59.5 -278.5t-207.5 -78.5t-207 78.5t-59 278.5t59 278.5t207 78.5zM333 644q-111 0 -154 -65.5t-43 -233.5t43 -233.5t154 -65.5t154.5 65.5t43.5 233.5t-43.5 233.5t-154.5 65.5zM275 -85l20 39q107 -54 251 -75l-21 -66
q-135 25 -250 102z" />
    <glyph glyph-name="R" unicode="R" horiz-adv-x="614" 
d="M564 0h-70l-66 217q-28 79 -99 79q-91 0 -171 2v-298h-65v690q83 8 231 8q119 0 167 -41.5t48 -155.5q0 -87 -29.5 -128.5t-97.5 -51.5v-4q27 -8 49 -33.5t33 -64.5zM158 353h166q84 1 116.5 31.5t32.5 113.5q0 84 -32.5 114t-116.5 30q-86 0 -166 -2v-287z" />
    <glyph glyph-name="S" unicode="S" horiz-adv-x="559" 
d="M277 701q111 0 199 -16l-5 -48q-118 6 -191 6q-49 0 -72 -2.5t-45.5 -14.5t-30 -37t-7.5 -69q0 -62 21.5 -89.5t73.5 -37.5l144 -30q77 -15 108.5 -59.5t31.5 -129.5q0 -60 -13 -97t-43 -56t-68 -25.5t-100 -6.5q-114 0 -210 15l4 49q124 -6 208 -6q91 1 123 25t32 103
q0 65 -21.5 92t-74.5 37l-147 31q-73 15 -104 59.5t-31 127.5q0 60 12 96.5t42 54.5t66 23.5t98 4.5z" />
    <glyph glyph-name="T" unicode="T" horiz-adv-x="575" 
d="M550 632h-230v-632h-66v632h-229v58h525v-58z" />
    <glyph glyph-name="U" unicode="U" horiz-adv-x="667" 
d="M579 690v-429q0 -149 -55 -211t-188 -62q-136 0 -192 62t-56 211v429h65v-429q0 -119 40.5 -167t140.5 -48q99 0 139 48t40 167v429h66z" />
    <glyph glyph-name="V" unicode="V" horiz-adv-x="603" 
d="M583 690l-219 -671q-7 -19 -26 -19h-73q-21 0 -26 19l-219 671h68l178 -563q8 -25 22 -75h27q14 50 22 75l178 563h68z" />
    <glyph glyph-name="W" unicode="W" horiz-adv-x="941" 
d="M910 690l-156 -670q-5 -20 -27 -20h-79q-23 0 -28 21l-121 541q-13 57 -17 77h-22l-18 -77l-121 -541q-5 -21 -27 -21h-80q-22 0 -27 20l-155 670h69l126 -559q8 -33 16 -80h25q8 43 16 79l122 537q5 23 27 23h75q22 0 27 -23l122 -537q5 -21 16 -79h26q2 9 4.5 25t5 29
t5.5 24l127 561h69z" />
    <glyph glyph-name="X" unicode="X" horiz-adv-x="605" 
d="M316 334h-27l-187 -334h-72l203 358l-190 332h71l173 -305h31l172 305h72l-190 -332l203 -358h-73z" />
    <glyph glyph-name="Y" unicode="Y" horiz-adv-x="559" 
d="M312 248v-248h-65v248l-232 442h70l158 -306q13 -26 33 -74h7q13 31 33 73l158 307h69z" />
    <glyph glyph-name="Z" unicode="Z" horiz-adv-x="563" 
d="M515 56v-56h-465v56l386 578h-382v56h455v-56l-386 -578h392z" />
    <glyph glyph-name="bracketleft" unicode="[" horiz-adv-x="323" 
d="M278 724h-107q-14 0 -14 -14v-817q0 -14 14 -14h107v-44h-136q-20 0 -32.5 12t-12.5 34v841q0 20 12.5 33t32.5 13h136v-44z" />
    <glyph glyph-name="backslash" unicode="\" horiz-adv-x="510" 
d="M479 -63h-55l-393 753h55z" />
    <glyph glyph-name="bracketright" unicode="]" horiz-adv-x="323" 
d="M44 768h136q20 0 33 -13t13 -33v-841q0 -20 -13 -33t-33 -13h-136v44h108q14 0 14 14v817q0 14 -14 14h-108v44z" />
    <glyph glyph-name="asciicircum" unicode="^" horiz-adv-x="414" 
d="M384 386l-26 -19l-147 177h-8l-146 -177l-27 19l154 205h46z" />
    <glyph glyph-name="underscore" unicode="_" horiz-adv-x="582" 
d="M509 -50h-436v50h436v-50z" />
    <glyph glyph-name="grave" unicode="`" horiz-adv-x="301" 
d="M238 572l-24 -30l-178 128l38 48z" />
    <glyph glyph-name="a" unicode="a" horiz-adv-x="545" 
d="M310 497q78 0 116.5 -34.5t38.5 -114.5v-348h-50l-8 85q-36 -36 -93 -64.5t-119 -28.5q-64 0 -101 34t-37 97v56q0 56 33 87t94 31h217v51q0 48 -22.5 71t-80.5 23q-86 0 -215 -14l-6 47q145 22 233 22zM206 48q43 -1 97.5 21.5t97.5 59.5v119l-207 -2q-73 -3 -73 -75
v-42q0 -81 85 -81z" />
    <glyph glyph-name="b" unicode="b" horiz-adv-x="566" 
d="M330 497q93 0 134.5 -59t41.5 -195q0 -133 -46.5 -194t-161.5 -61q-111 0 -216 33v679h63v-194q0 -70 -7 -104q97 95 192 95zM297 43q78 0 110.5 45t32.5 155q0 111 -27.5 154.5t-100.5 43.5q-39 0 -74.5 -19t-92.5 -63v-297q74 -21 152 -19z" />
    <glyph glyph-name="c" unicode="c" horiz-adv-x="485" 
d="M287 497q89 0 149 -22l-10 -41q-53 8 -129 8q-96 0 -133.5 -42.5t-37.5 -157.5t37.5 -157t133.5 -42q84 0 141 11l7 -44q-74 -22 -158 -22q-125 0 -176 57t-51 197t51 197.5t176 57.5z" />
    <glyph glyph-name="d" unicode="d" horiz-adv-x="569" 
d="M484 700v-700h-49l-6 74q-101 -86 -195 -86q-92 0 -132.5 61t-40.5 194q0 138 43 196t138 58q89 0 183 -47q-4 33 -4 95v155h63zM127 244q0 -113 28 -156.5t97 -43.5q41 0 76.5 17t92.5 59v286q-103 35 -166 35q-71 0 -99.5 -42.5t-28.5 -154.5z" />
    <glyph glyph-name="e" unicode="e" horiz-adv-x="534" 
d="M294 43q75 0 167 12l7 -43q-61 -24 -183 -24t-173.5 58.5t-51.5 197.5q0 140 50 196.5t167 56.5q103 0 152 -37.5t50 -113.5q2 -135 -111 -135h-241q5 -96 43 -132t124 -36zM280 442q-84 0 -118 -39.5t-36 -141.5h227q64 0 62 84q-1 51 -33 74t-102 23z" />
    <glyph glyph-name="f" unicode="f" horiz-adv-x="371" 
d="M380 663h-104q-52 0 -73 -21t-21 -71v-87h163v-50h-163v-434h-64v434h-87v45l87 5v93q0 69 31.5 104t104.5 35q74 0 130 -6z" />
    <glyph glyph-name="g" unicode="g" horiz-adv-x="553" 
d="M525 448l-81 -5q28 -35 28 -100q0 -79 -46 -115t-156 -36q-70 0 -110 13q-15 -19 -18 -39.5t10.5 -38t44.5 -22.5l186 -31q66 -10 91.5 -41t25.5 -92q0 -82 -49.5 -114t-175.5 -32q-128 0 -178 31.5t-50 112.5q0 48 18 76.5t64 51.5q-43 27 -41.5 75.5t39.5 76.5
q-60 33 -60 124q0 81 46 117.5t157 36.5q69 0 109 -13h150zM270 241q78 0 110 24t32 78q0 56 -32 80t-110 24q-79 0 -111.5 -24t-32.5 -80q0 -54 33 -78t111 -24zM438 -57q0 42 -16.5 58.5t-68.5 24.5l-181 28l-4 -3q-33 -23 -46 -46t-13 -62q0 -55 35 -74.5t131 -19.5
q94 0 128.5 20t34.5 74z" />
    <glyph glyph-name="h" unicode="h" horiz-adv-x="577" 
d="M365 497q64 0 97.5 -34t33.5 -99v-364h-64v347q0 51 -19.5 73t-64.5 22q-44 0 -89 -19.5t-112 -64.5v-358h-63v700h63l2 -201q0 -59 -7 -95q126 93 223 93z" />
    <glyph glyph-name="i" unicode="i" horiz-adv-x="238" 
d="M105 688h29q21 0 21 -21v-58q0 -21 -21 -21h-29q-21 0 -21 21v58q0 21 21 21zM151 0h-63v484h63v-484z" />
    <glyph glyph-name="j" unicode="j" horiz-adv-x="239" 
d="M105 688h30q21 0 21 -21v-58q0 -21 -21 -21h-30q-20 0 -20 21v58q0 21 20 21zM152 484v-508q0 -110 -84 -182l-35 28q55 70 55 154v508h64z" />
    <glyph glyph-name="k" unicode="k" horiz-adv-x="497" 
d="M216 251h-73q4 -37 4 -81v-170h-63v700h63l2 -318q0 -42 -6 -83h72l167 185h75l-162 -181q-15 -19 -30 -28v-2q15 -11 30 -34l178 -239h-74z" />
    <glyph glyph-name="l" unicode="l" horiz-adv-x="287" 
d="M148 700v-580q0 -70 71 -70h51l7 -48q-27 -10 -80 -10q-52 0 -82 30.5t-30 85.5v592h63z" />
    <glyph glyph-name="m" unicode="m" horiz-adv-x="877" 
d="M669 497q62 0 95 -34t33 -99v-364h-63v347q-1 50 -21.5 72.5t-64.5 22.5q-40 0 -76.5 -18.5t-100.5 -66.5v-357h-61v347q0 50 -21 72.5t-65 22.5q-39 0 -76.5 -18.5t-100.5 -65.5v-358h-63v484h52l4 -81q105 94 204 94q103 0 123 -92q104 92 202 92z" />
    <glyph glyph-name="n" unicode="n" horiz-adv-x="577" 
d="M366 497q130 0 130 -133v-364h-63v347q0 51 -19.5 73t-64.5 22q-44 0 -88.5 -19.5t-113.5 -64.5l1 -358h-64v484h53l4 -80q121 93 225 93z" />
    <glyph glyph-name="o" unicode="o" horiz-adv-x="565" 
d="M283 497q122 0 172 -57.5t50 -197.5t-50 -197t-172 -57t-172.5 57.5t-50.5 196.5q0 140 50.5 197.5t172.5 57.5zM283 442q-88 0 -122 -43t-34 -157t34 -157t122 -43t122 43t34 157t-34 157t-122 43z" />
    <glyph glyph-name="p" unicode="p" horiz-adv-x="573" 
d="M342 497q90 0 130 -62t40 -195q0 -137 -42.5 -194.5t-137.5 -57.5q-96 0 -187 51q4 -41 2 -96v-147h-63v688h52l6 -80q93 93 200 93zM318 44q71 0 100 42.5t29 154.5q0 110 -28 155t-95 45q-41 0 -81.5 -19.5t-95.5 -64.5v-277q110 -36 171 -36z" />
    <glyph glyph-name="q" unicode="q" horiz-adv-x="566" 
d="M272 497q108 0 212 -34v-667h-63l-1 178q0 62 7 99q-104 -85 -201 -85q-86 0 -126 60.5t-40 192.5q0 135 47 195.5t165 60.5zM126 237q0 -104 26.5 -148.5t93.5 -44.5q43 0 81 17.5t94 57.5v303q-78 22 -148 20q-82 -1 -114.5 -44.5t-32.5 -160.5z" />
    <glyph glyph-name="r" unicode="r" horiz-adv-x="394" 
d="M375 497l-8 -60h-24q-42 0 -84.5 -17.5t-110.5 -56.5v-363h-64v484h49l7 -81q118 94 214 94h21z" />
    <glyph glyph-name="s" unicode="s" horiz-adv-x="505" 
d="M240 497q110 -2 198 -15l-6 -46q-120 6 -184 6q-80 1 -106 -11.5t-26 -65.5q0 -41 17 -57t57 -24l149 -28q58 -12 85 -41.5t27 -88.5q0 -85 -45.5 -111t-155.5 -26q-99 0 -185 13l5 47q79 -7 169 -6q89 1 119.5 16.5t30.5 66.5q0 39 -19 55t-60 24l-148 28
q-57 11 -82.5 41.5t-25.5 90.5q0 82 41.5 107.5t144.5 24.5z" />
    <glyph glyph-name="t" unicode="t" horiz-adv-x="369" 
d="M180 434v-314q0 -70 71 -70h79l8 -48q-50 -10 -101 -10q-120 0 -120 121v321h-88v45l88 5v147h63v-147h164v-50h-164z" />
    <glyph glyph-name="u" unicode="u" 
d="M482 484v-484h-50l-5 76q-112 -88 -215 -88q-131 0 -131 132v364h63v-347q0 -50 21 -72t68 -22q41 0 82.5 18.5t103.5 60.5v362h63z" />
    <glyph glyph-name="v" unicode="v" horiz-adv-x="522" 
d="M499 484l-185 -468q-6 -16 -24 -16h-59q-18 0 -24 16l-185 468h68l132 -350q6 -15 16.5 -45t15.5 -42h13l33 88l132 349h67z" />
    <glyph glyph-name="w" unicode="w" horiz-adv-x="820" 
d="M792 484l-151 -465q-6 -19 -26 -19h-59q-21 0 -26 21l-96 347q-3 12 -9 37t-10 38h-11q-3 -12 -9.5 -37t-9.5 -38l-95 -347q-5 -21 -27 -21h-58q-21 0 -26 19l-151 465h66l114 -371q5 -17 19 -70h13q3 13 9.5 36.5t9.5 33.5l97 351q5 20 25 20h58q20 0 25 -21l97 -350
l18 -70h14q15 58 18 70l115 371h66z" />
    <glyph glyph-name="x" unicode="x" horiz-adv-x="520" 
d="M271 227h-22l-151 -227h-70l169 251l-157 233h70l137 -206h26l137 206h70l-157 -233l170 -251h-71z" />
    <glyph glyph-name="y" unicode="y" horiz-adv-x="521" 
d="M498 484l-204 -518q-29 -74 -73 -119.5t-119 -53.5l-8 41q57 19 89 53t52 86l12 27h-16q-19 0 -25 17l-184 467h68l143 -378q16 -42 20 -56h14l21 57l142 377h68z" />
    <glyph glyph-name="z" unicode="z" horiz-adv-x="506" 
d="M456 53v-53h-406v53l330 379h-326v52h398v-52l-329 -379h333z" />
    <glyph glyph-name="braceleft" unicode="{" horiz-adv-x="312" 
d="M266 768v-41q-54 0 -74.5 -21.5t-20.5 -71.5v-189q1 -60 -16 -83t-68 -34q52 -17 70 -39t18 -74v-246q0 -50 20.5 -71.5t74.5 -21.5v-41q-82 -4 -119 28t-37 102v262q0 20 -2.5 31.5t-13.5 20.5t-18 12t-31 12v50q25 8 31.5 10.5t16.5 11.5t11.5 21.5t1.5 36.5v205
q0 70 37 102t119 28z" />
    <glyph glyph-name="bar" unicode="|" horiz-adv-x="242" 
d="M145 -169h-48v950h48v-950z" />
    <glyph glyph-name="braceright" unicode="}" horiz-adv-x="312" 
d="M46 727v41q82 4 119 -28t37 -102v-205q0 -45 10 -56t51 -24v-50q-44 -17 -53 -28q-12 -14 -12 -48v-262q0 -70 -37 -102t-119 -28v41q54 0 74.5 21.5t20.5 71.5v246q0 52 18 74t70 39q-51 11 -68 34t-16 83v189q0 50 -20.5 71.5t-74.5 21.5z" />
    <glyph glyph-name="asciitilde" unicode="~" horiz-adv-x="528" 
d="M157 341q39 -2 106 -30.5t101 -31.5q28 -2 39 11t11 46h34q5 -53 -16 -80.5t-60 -24.5q-47 2 -113 30.5t-95 30.5q-27 3 -38 -11t-11 -48h-35q-4 54 17.5 82t59.5 26z" />
    <glyph glyph-name="uni00A0" unicode="&#xa0;" horiz-adv-x="226" 
 />
    <glyph glyph-name="exclamdown" unicode="&#xa1;" horiz-adv-x="248" 
d="M116 488h17q25 0 25 -24v-58q0 -24 -25 -24h-17q-25 0 -25 24v58q0 24 25 24zM156 112v-311h-64v311l6 168h52z" />
    <glyph glyph-name="cent" unicode="&#xa2;" horiz-adv-x="506" 
d="M438 161l7 -44q-74 -22 -159 -22h-2l-8 -95h-36l8 96q-103 8 -146 66.5t-43 187.5q0 139 51.5 196.5t175.5 57.5h2l8 86h37l-8 -87q67 -6 110 -20l-9 -44q-43 8 -106 10l-31 -399h8q82 0 141 11zM123 350q0 -102 29 -146t101 -52l31 397q-90 -2 -125.5 -45t-35.5 -154z
" />
    <glyph glyph-name="sterling" unicode="&#xa3;" horiz-adv-x="566" 
d="M512 56v-56h-447v56q49 28 66.5 77t13.5 123l-5 87h-80l-1 40h79l-7 140q-3 57 8 93.5t38.5 54.5t59 24t80.5 6q75 0 171 -10l-4 -51q-70 5 -176 5q-67 0 -92 -27t-21 -95l7 -140h226l-2 -40h-222l5 -87q3 -74 -12.5 -122t-59.5 -80q21 2 64 2h311z" />
    <glyph glyph-name="currency" unicode="&#xa4;" horiz-adv-x="597" 
d="M491 352q0 -69 -43 -122l75 -74l-30 -29l-74 74q-53 -43 -121 -43q-67 0 -122 42l-73 -73l-31 31l73 73q-42 53 -42 121q0 70 44 122l-73 72l29 30l73 -73q53 43 122 43q70 0 122 -44l74 74l29 -30l-74 -72q42 -55 42 -122zM298 198q62 -1 107 44.5t45 109.5t-45 109
t-107 45q-64 0 -109 -45t-45 -109t45 -109.5t109 -44.5z" />
    <glyph glyph-name="yen" unicode="&#xa5;" horiz-adv-x="612" 
d="M364 317h160v-40h-182l-3 -6v-66h185v-40h-185v-165h-66v165h-180v40h180v66l-3 6h-177l-1 40h156l-206 373h69l156 -285q19 -39 36 -75h7q26 57 35 74l156 286h69z" />
    <glyph glyph-name="brokenbar" unicode="&#xa6;" horiz-adv-x="244" 
d="M146 381h-48v400h48v-400zM146 -169h-48v400h48v-400z" />
    <glyph glyph-name="section" unicode="&#xa7;" horiz-adv-x="544" 
d="M257 702q123 -2 217 -12l-5 -49q-92 6 -198 7q-29 0 -46 -0.5t-36.5 -4t-30 -10.5t-17.5 -20.5t-7 -32.5q-1 -36 17 -59.5t53 -43.5l173 -97q66 -36 83.5 -89.5t3.5 -140.5h-48q6 68 -9 110t-59 67l-179 102q-55 32 -79 65t-24 87q0 73 46 97.5t145 23.5zM81 398h48
q-7 -69 7.5 -109t60.5 -66l179 -102q53 -30 77.5 -64.5t24.5 -88.5q0 -33 -9.5 -56.5t-24.5 -36.5t-41.5 -20t-51.5 -8.5t-63 -1.5q-122 2 -217 12l5 49q100 -6 199 -7q29 0 45 0.5t36 4t30 10.5t17.5 21t7.5 35q1 64 -70 103l-172 97q-67 36 -84.5 88.5t-3.5 139.5z" />
    <glyph glyph-name="dieresis" unicode="&#xa8;" horiz-adv-x="407" 
d="M104 686h22q19 0 19 -20v-55q0 -19 -19 -19h-22q-18 0 -18 19v55q0 20 18 20zM282 686h21q19 0 19 -20v-55q0 -19 -19 -19h-21q-19 0 -19 19v55q0 20 19 20z" />
    <glyph glyph-name="copyright" unicode="&#xa9;" horiz-adv-x="844" 
d="M422 702q151 0 254.5 -101.5t103.5 -255.5t-103.5 -255.5t-254.5 -101.5q-150 0 -254 101.5t-104 255.5t104 255.5t254 101.5zM422 665q-134 0 -227.5 -91.5t-93.5 -228.5t93.5 -228.5t227.5 -91.5t227 91.5t93 228.5t-93 228.5t-227 91.5zM427 572q82 0 134 -13l-7 -37
q-54 5 -128 5q-80 0 -111.5 -39.5t-31.5 -139.5q0 -101 31.5 -140.5t111.5 -39.5q92 0 140 6l5 -37q-62 -14 -144 -14q-108 0 -151.5 50.5t-43.5 174.5q0 123 43.5 173.5t151.5 50.5z" />
    <glyph glyph-name="ordfeminine" unicode="&#xaa;" horiz-adv-x="442" 
d="M255 605q53 0 80.5 -24t27.5 -79v-231h-39l-6 63q-26 -26 -67.5 -47t-85.5 -21q-45 0 -70.5 22t-25.5 63v39q0 38 23.5 58.5t66.5 20.5h155v34q0 60 -68 60q-63 0 -157 -9l-5 36q101 15 171 15zM179 309q31 -1 69 15t66 39v77l-141 -6q-55 -3 -55 -47v-27q0 -51 61 -51z
" />
    <glyph glyph-name="guillemotleft" unicode="&#xab;" horiz-adv-x="473" 
d="M241 435l-134 -184l135 -187l-33 -22l-162 201v16l161 198zM414 435l-134 -184l135 -187l-33 -22l-162 201v16l161 198z" />
    <glyph glyph-name="logicalnot" unicode="&#xac;" horiz-adv-x="591" 
d="M509 322v-191h-51v141h-380v50h431z" />
    <glyph glyph-name="softhyphen" unicode="&#xad;" horiz-adv-x="460" 
d="M384 227h-307v50h307v-50z" />
    <glyph glyph-name="registered" unicode="&#xae;" horiz-adv-x="563" 
d="M282 701q92 0 157 -65t65 -157q0 -93 -65 -158t-157 -65q-93 0 -158 65t-65 158q0 92 65 157t158 65zM282 281q80 0 138 58t58 140t-57.5 140t-138.5 58t-138.5 -58t-57.5 -140t57.5 -140t138.5 -58zM333 471v-2q29 -5 39 -39l33 -84h-34l-31 82q-12 31 -46 31
q-61 0 -80 1v-114h-32v267q35 3 110 3q56 0 79 -16.5t23 -59.5q0 -33 -14 -49t-47 -20zM214 483h77q40 1 55.5 12.5t15.5 41.5q0 31 -15.5 42t-55.5 11h-77v-107z" />
    <glyph glyph-name="macron" unicode="&#xaf;" horiz-adv-x="400" 
d="M336 615h-272v49h272v-49z" />
    <glyph glyph-name="degree" unicode="&#xb0;" horiz-adv-x="370" 
d="M185 702q52 0 90 -37t38 -88q0 -52 -38 -89.5t-90 -37.5t-89.5 37.5t-37.5 89.5t37 88.5t90 36.5zM185 662q-36 0 -60.5 -24.5t-24.5 -60.5q0 -35 25 -60.5t60 -25.5t60.5 25.5t25.5 60.5q0 36 -25 60.5t-61 24.5z" />
    <glyph glyph-name="plusminus" unicode="&#xb1;" horiz-adv-x="592" 
d="M511 379v-49h-191v-138h-49v138h-190v49h190v138h50v-138h190zM81 127h430v-49h-430v49z" />
    <glyph glyph-name="twosuperior" unicode="&#xb2;" horiz-adv-x="437" 
d="M207 781q77 0 111 -18.5t34 -72.5q0 -36 -20 -70t-65 -80l-137 -136q50 2 73 1h168l-1 -45h-305v28q0 12 9 23l139 138q84 84 84 138q0 31 -22.5 41t-69.5 10q-59 0 -132 -10l-4 38q74 15 138 15z" />
    <glyph glyph-name="threesuperior" unicode="&#xb3;" horiz-adv-x="419" 
d="M200 781q81 0 113 -20.5t32 -74.5q0 -92 -76 -105v-2q47 -6 66.5 -32.5t20.5 -71.5q2 -64 -32 -93t-115 -29q-54 0 -144 10l4 38q66 -6 129 -6q58 0 82 19t24 67q0 36 -20.5 56.5t-75.5 20.5h-85v37l85 1q28 1 47 8t27 20t10.5 24t2.5 27q0 37 -21.5 50.5t-79.5 13.5
q-66 0 -118 -5l-4 37q63 10 128 10z" />
    <glyph glyph-name="acute" unicode="&#xb4;" horiz-adv-x="301" 
d="M259 670l-178 -128l-24 30l164 146z" />
    <glyph glyph-name="paragraph" unicode="&#xb6;" horiz-adv-x="595" 
d="M348 702q87 0 146 -17v-685h-51v652q-60 6 -117 6v-868h-51v411q-123 11 -176.5 69t-53.5 180q0 138 69.5 195t233.5 57z" />
    <glyph glyph-name="periodcentered" unicode="&#xb7;" horiz-adv-x="225" 
d="M102 311h22q24 0 24 -25v-57q0 -25 -24 -25h-22q-25 0 -25 25v57q0 25 25 25z" />
    <glyph glyph-name="cedilla" unicode="&#xb8;" horiz-adv-x="228" 
d="M88 -76l7 31q52 5 76 -9.5t23 -55.5q-2 -60 -45.5 -92.5t-111.5 -23.5l10 35q44 -1 71.5 21t28.5 56q0 21 -12.5 29t-46.5 9z" />
    <glyph glyph-name="onesuperior" unicode="&#xb9;" horiz-adv-x="291" 
d="M210 360h-51v332q0 24 3 36l-116 -32l-7 35l120 43h51v-414z" />
    <glyph glyph-name="ordmasculine" unicode="&#xba;" horiz-adv-x="446" 
d="M223 605q87 0 122.5 -38.5t35.5 -132.5t-35.5 -132.5t-122.5 -38.5t-122.5 38.5t-35.5 132.5t35.5 132.5t122.5 38.5zM223 564q-60 0 -83.5 -28t-23.5 -102t23.5 -101.5t83.5 -27.5t83 27.5t23 101.5t-23 102t-83 28z" />
    <glyph glyph-name="guillemotright" unicode="&#xbb;" horiz-adv-x="473" 
d="M253 259v-16l-162 -201l-33 22l135 187l-134 184l33 22zM426 259v-16l-162 -201l-33 22l135 187l-134 184l33 22z" />
    <glyph glyph-name="onequarter" unicode="&#xbc;" horiz-adv-x="855" 
d="M164 276v332q0 24 3 36l-117 -32l-6 35l120 43h50v-414h-50zM640 690l-459 -690h-48l459 690h48zM809 109l-47 -4v-105h-48v104h-206q-25 0 -37 17t0 42l134 251h50l-131 -245q-5 -10 0.5 -17.5t17.5 -7.5h172v123l10 68h38v-191h47v-35z" />
    <glyph glyph-name="onehalf" unicode="&#xbd;" horiz-adv-x="881" 
d="M214 276h-50v332q0 24 3 36l-117 -32l-6 35l120 43h50v-414zM177 0h-48l459 690h48zM665 421q77 0 111 -18.5t34 -72.5q0 -36 -20 -70t-66 -80l-136 -136q49 2 73 1h167v-45h-305v28q0 12 8 23l140 138q84 85 84 138q0 31 -22.5 41t-69.5 10q-59 0 -132 -10l-4 38
q74 15 138 15z" />
    <glyph glyph-name="threequarters" unicode="&#xbe;" horiz-adv-x="946" 
d="M352 389q2 -64 -32 -93t-115 -29q-53 0 -145 10l4 38q67 -6 130 -6q58 0 82 19t24 66q0 36 -20.5 57t-75.5 21l-86 1v35l86 2q28 1 47 8t27 20t10.5 24t2.5 26q0 38 -21.5 51.5t-79.5 13.5q-66 0 -118 -5l-4 37q64 10 128 10q81 0 113 -20.5t32 -74.5q0 -92 -76 -105v-2
q47 -6 66.5 -32t20.5 -72zM742 690l-459 -690h-48l459 690h48zM900 109l-53 -4v-105h-47v104h-202q-25 0 -37 17.5t0 41.5l135 251h50l-132 -245q-5 -10 0.5 -17.5t17.5 -7.5h168v123l9 68h38v-191h53v-35z" />
    <glyph glyph-name="questiondown" unicode="&#xbf;" horiz-adv-x="502" 
d="M251 496h18q24 0 24 -25v-57q0 -25 -24 -25h-18q-25 0 -25 25v57q0 25 25 25zM231 288h55q1 -52 -16.5 -95t-43 -71.5t-51 -54.5t-43.5 -56t-19 -63q-1 -56 34.5 -82.5t110.5 -26.5q92 0 197 11l5 -46q-7 -1 -35 -6t-37.5 -6t-33.5 -3.5t-49 -3.5t-59 -1q-200 0 -200 155
q0 41 18.5 76.5t45.5 62.5t54 54.5t46.5 67.5t20.5 88z" />
    <glyph glyph-name="Agrave" unicode="&#xc0;" horiz-adv-x="615" 
d="M330 731l-178 128l38 48l164 -146zM458 228h-301l-76 -228h-68l231 671q5 19 26 19h75q20 0 25 -19l232 -671h-68zM439 285l-100 297l-18 56h-28l-18 -56l-99 -297h263z" />
    <glyph glyph-name="Aacute" unicode="&#xc1;" horiz-adv-x="615" 
d="M273 731l-24 30l164 146l38 -48zM458 228h-301l-76 -228h-68l231 671q5 19 26 19h75q20 0 25 -19l232 -671h-68zM439 285l-100 297l-18 56h-28l-18 -56l-99 -297h263z" />
    <glyph glyph-name="Acircumflex" unicode="&#xc2;" horiz-adv-x="615" 
d="M174 739l-23 28l133 124h47l133 -124l-23 -28l-130 99h-8zM458 228h-301l-76 -228h-68l231 671q5 19 26 19h75q20 0 25 -19l232 -671h-68zM439 285l-100 297l-18 56h-28l-18 -56l-99 -297h263z" />
    <glyph glyph-name="Atilde" unicode="&#xc3;" horiz-adv-x="615" 
d="M187 770h-32q-4 53 17.5 80.5t59.5 24.5q31 -3 74.5 -30t71.5 -30q29 -3 40.5 10t11.5 45h32q4 -51 -17.5 -78t-59.5 -24q-37 3 -81.5 30.5t-65.5 30.5q-28 3 -39.5 -11.5t-11.5 -47.5zM458 228h-301l-76 -228h-68l231 671q5 19 26 19h75q20 0 25 -19l232 -671h-68z
M439 285l-100 297l-18 56h-28l-18 -56l-99 -297h263z" />
    <glyph glyph-name="Adieresis" unicode="&#xc4;" horiz-adv-x="615" 
d="M230 771h-22q-18 0 -18 19v55q0 20 18 20h22q19 0 19 -20v-55q0 -19 -19 -19zM407 771h-21q-19 0 -19 19v55q0 20 19 20h21q19 0 19 -20v-55q0 -19 -19 -19zM458 228h-301l-76 -228h-68l231 671q5 19 26 19h75q20 0 25 -19l232 -671h-68zM439 285l-100 297l-18 56h-28
l-18 -56l-99 -297h263z" />
    <glyph glyph-name="Aring" unicode="&#xc5;" horiz-adv-x="615" 
d="M308 716q-43 0 -73 29t-30 72t30 72.5t73 29.5q42 0 72.5 -30t30.5 -72q0 -43 -30 -72t-73 -29zM308 884q-28 0 -46.5 -19t-18.5 -48q0 -30 18.5 -48t46.5 -18t46.5 18.5t18.5 47.5t-19 48t-46 19zM458 228h-301l-76 -228h-68l231 671q5 19 26 19h75q20 0 25 -19
l232 -671h-68zM439 285l-100 297l-18 56h-28l-18 -56l-99 -297h263z" />
    <glyph glyph-name="AE" unicode="&#xc6;" horiz-adv-x="911" 
d="M855 55l2 -50q-94 -6 -287 -6q-49 0 -79.5 32t-30.5 82v129h-240l-147 -242h-70l363 590q35 59 80 79.5t124 20.5q183 0 287 -5l-2 -51h-261q-32 0 -52 -20t-20 -54v-166l292 -1v-53l-292 -1v-211q0 -73 72 -73h261zM460 297v271q0 22 10.5 43.5t24.5 30.5h-8
q-34 -18 -64 -66l-170 -279h207z" />
    <glyph glyph-name="Ccedilla" unicode="&#xc7;" 
d="M332 702q108 0 183 -19l-8 -49q-75 9 -175 9q-110 0 -153 -65t-43 -233t43 -233t153 -65q115 0 189 11l8 -49q-78 -21 -197 -21q-147 0 -206 80t-59 277t59 277t206 80zM282 -88l7 31q52 5 76 -9.5t23 -55.5q-2 -60 -45.5 -92.5t-111.5 -23.5l10 35q44 -1 71.5 21
t28.5 56q0 21 -12.5 29t-46.5 9z" />
    <glyph glyph-name="Egrave" unicode="&#xc8;" horiz-adv-x="557" 
d="M332 753l-178 128l38 48l164 -146zM501 55l3 -50q-94 -6 -295 -6q-55 0 -88.5 31t-33.5 83v464q0 52 33.5 83t88.5 31q201 0 295 -6l-3 -50h-281q-67 0 -67 -73v-169h308v-53h-308v-213q0 -72 67 -72h281z" />
    <glyph glyph-name="Eacute" unicode="&#xc9;" horiz-adv-x="557" 
d="M275 753l-24 30l164 146l38 -48zM501 55l3 -50q-94 -6 -295 -6q-55 0 -88.5 31t-33.5 83v464q0 52 33.5 83t88.5 31q201 0 295 -6l-3 -50h-281q-67 0 -67 -73v-169h308v-53h-308v-213q0 -72 67 -72h281z" />
    <glyph glyph-name="Ecircumflex" unicode="&#xca;" horiz-adv-x="557" 
d="M176 761l-23 28l133 124h47l133 -124l-23 -28l-130 99h-8zM501 55l3 -50q-94 -6 -295 -6q-55 0 -88.5 31t-33.5 83v464q0 52 33.5 83t88.5 31q201 0 295 -6l-3 -50h-281q-67 0 -67 -73v-169h308v-53h-308v-213q0 -72 67 -72h281z" />
    <glyph glyph-name="Edieresis" unicode="&#xcb;" horiz-adv-x="557" 
d="M232 793h-22q-18 0 -18 19v55q0 20 18 20h22q19 0 19 -20v-55q0 -19 -19 -19zM409 793h-21q-19 0 -19 19v55q0 20 19 20h21q19 0 19 -20v-55q0 -19 -19 -19zM501 55l3 -50q-94 -6 -295 -6q-55 0 -88.5 31t-33.5 83v464q0 52 33.5 83t88.5 31q201 0 295 -6l-3 -50h-281
q-67 0 -67 -73v-169h308v-53h-308v-213q0 -72 67 -72h281z" />
    <glyph glyph-name="Igrave" unicode="&#xcc;" horiz-adv-x="251" 
d="M171 761l-24 -30l-178 128l38 48zM158 0h-65v690h65v-690z" />
    <glyph glyph-name="Iacute" unicode="&#xcd;" horiz-adv-x="251" 
d="M268 859l-178 -128l-24 30l164 146zM158 0h-65v690h65v-690z" />
    <glyph glyph-name="Icircumflex" unicode="&#xce;" horiz-adv-x="251" 
d="M281 767l-23 -28l-130 99h-8l-129 -99l-23 28l133 124h47zM158 0h-65v690h65v-690z" />
    <glyph glyph-name="Idieresis" unicode="&#xcf;" horiz-adv-x="251" 
d="M25 865h22q19 0 19 -20v-55q0 -19 -19 -19h-22q-18 0 -18 19v55q0 20 18 20zM203 865h21q19 0 19 -20v-55q0 -19 -19 -19h-21q-19 0 -19 19v55q0 20 19 20zM158 0h-65v690h65v-690z" />
    <glyph glyph-name="Eth" unicode="&#xd0;" horiz-adv-x="666" 
d="M336 699q146 0 204.5 -78.5t58.5 -275.5t-58.5 -275.5t-204.5 -78.5q-113 0 -239 9v349h-73v39h73v302q124 9 239 9zM336 49q109 0 151.5 65t42.5 231t-42.5 231.5t-151.5 65.5q-70 0 -174 -2v-252h163v-39h-163v-298q100 -2 174 -2z" />
    <glyph glyph-name="Ntilde" unicode="&#xd1;" horiz-adv-x="699" 
d="M283 875q31 -3 74.5 -30t71.5 -30q29 -3 40.5 10t11.5 45h32q4 -51 -17.5 -78t-59.5 -24q-37 3 -81.5 30.5t-65.5 30.5q-28 3 -39.5 -11.5t-11.5 -47.5h-32q-4 53 17.5 80.5t59.5 24.5zM607 690v-662q0 -28 -28 -28h-70q-22 0 -32 22l-263 524q-36 74 -39 83h-19
q2 -27 2 -83v-546h-65v662q0 28 28 28h67q22 0 32 -22l257 -512l46 -93h21q-2 33 -2 99v528h65z" />
    <glyph glyph-name="Ograve" unicode="&#xd2;" horiz-adv-x="666" 
d="M379 761l-24 -30l-178 128l38 48zM333 702q148 0 207.5 -78.5t59.5 -278.5t-59.5 -278.5t-207.5 -78.5t-207 78.5t-59 278.5t59 278.5t207 78.5zM332 644q-110 0 -153.5 -65.5t-43.5 -233.5t43.5 -233.5t153.5 -65.5q111 0 154.5 65.5t43.5 233.5t-43.5 233.5
t-154.5 65.5z" />
    <glyph glyph-name="Oacute" unicode="&#xd3;" horiz-adv-x="666" 
d="M476 859l-178 -128l-24 30l164 146zM333 702q148 0 207.5 -78.5t59.5 -278.5t-59.5 -278.5t-207.5 -78.5t-207 78.5t-59 278.5t59 278.5t207 78.5zM332 644q-110 0 -153.5 -65.5t-43.5 -233.5t43.5 -233.5t153.5 -65.5q111 0 154.5 65.5t43.5 233.5t-43.5 233.5
t-154.5 65.5z" />
    <glyph glyph-name="Ocircumflex" unicode="&#xd4;" horiz-adv-x="666" 
d="M489 767l-23 -28l-130 99h-8l-129 -99l-23 28l133 124h47zM333 702q148 0 207.5 -78.5t59.5 -278.5t-59.5 -278.5t-207.5 -78.5t-207 78.5t-59 278.5t59 278.5t207 78.5zM332 644q-110 0 -153.5 -65.5t-43.5 -233.5t43.5 -233.5t153.5 -65.5q111 0 154.5 65.5t43.5 233.5
t-43.5 233.5t-154.5 65.5z" />
    <glyph glyph-name="Otilde" unicode="&#xd5;" horiz-adv-x="666" 
d="M256 875q31 -3 74.5 -30t71.5 -30q29 -3 40.5 10t11.5 45h32q4 -51 -17.5 -78t-59.5 -24q-37 3 -81.5 30.5t-65.5 30.5q-28 3 -39.5 -11.5t-11.5 -47.5h-32q-4 53 17.5 80.5t59.5 24.5zM333 702q148 0 207.5 -78.5t59.5 -278.5t-59.5 -278.5t-207.5 -78.5t-207 78.5
t-59 278.5t59 278.5t207 78.5zM332 644q-110 0 -153.5 -65.5t-43.5 -233.5t43.5 -233.5t153.5 -65.5q111 0 154.5 65.5t43.5 233.5t-43.5 233.5t-154.5 65.5z" />
    <glyph glyph-name="Odieresis" unicode="&#xd6;" horiz-adv-x="666" 
d="M233 865h22q19 0 19 -20v-55q0 -19 -19 -19h-22q-18 0 -18 19v55q0 20 18 20zM411 865h21q19 0 19 -20v-55q0 -19 -19 -19h-21q-19 0 -19 19v55q0 20 19 20zM333 702q148 0 207.5 -78.5t59.5 -278.5t-59.5 -278.5t-207.5 -78.5t-207 78.5t-59 278.5t59 278.5t207 78.5z
M332 644q-110 0 -153.5 -65.5t-43.5 -233.5t43.5 -233.5t153.5 -65.5q111 0 154.5 65.5t43.5 233.5t-43.5 233.5t-154.5 65.5z" />
    <glyph glyph-name="multiply" unicode="&#xd7;" horiz-adv-x="486" 
d="M283 289l155 -140l-31 -38l-161 145l-161 -145l-32 38l156 140l-156 139l32 39l161 -145l161 145l31 -38z" />
    <glyph glyph-name="Oslash" unicode="&#xd8;" horiz-adv-x="666" 
d="M530 731l-32 -68q54 -36 78 -112t24 -206q0 -200 -59.5 -278.5t-207.5 -78.5q-88 0 -139 24l-32 -67l-37 16l34 72q-49 38 -70.5 112.5t-21.5 199.5q0 200 59 278.5t207 78.5q79 0 130 -20l30 65zM135 345q0 -184 54 -248l246 527q-39 20 -103 20q-110 0 -153.5 -65.5
t-43.5 -233.5zM332 46q111 0 154.5 65.5t43.5 233.5q0 194 -61 255l-248 -530q40 -24 111 -24z" />
    <glyph glyph-name="Ugrave" unicode="&#xd9;" horiz-adv-x="667" 
d="M380 761l-24 -30l-178 128l38 48zM579 690v-429q0 -149 -55 -211t-188 -62q-136 0 -192 62t-56 211v429h65v-429q0 -119 40.5 -167t140.5 -48q99 0 139 48t40 167v429h66z" />
    <glyph glyph-name="Uacute" unicode="&#xda;" horiz-adv-x="667" 
d="M478 859l-178 -128l-24 30l164 146zM579 690v-429q0 -149 -55 -211t-188 -62q-136 0 -192 62t-56 211v429h65v-429q0 -119 40.5 -167t140.5 -48q99 0 139 48t40 167v429h66z" />
    <glyph glyph-name="Ucircumflex" unicode="&#xdb;" horiz-adv-x="667" 
d="M490 767l-23 -28l-130 99h-8l-129 -99l-23 28l133 124h47zM579 690v-429q0 -149 -55 -211t-188 -62q-136 0 -192 62t-56 211v429h65v-429q0 -119 40.5 -167t140.5 -48q99 0 139 48t40 167v429h66z" />
    <glyph glyph-name="Udieresis" unicode="&#xdc;" horiz-adv-x="667" 
d="M234 865h22q19 0 19 -20v-55q0 -19 -19 -19h-22q-18 0 -18 19v55q0 20 18 20zM412 865h21q19 0 19 -20v-55q0 -19 -19 -19h-21q-19 0 -19 19v55q0 20 19 20zM579 690v-429q0 -149 -55 -211t-188 -62q-136 0 -192 62t-56 211v429h65v-429q0 -119 40.5 -167t140.5 -48
q99 0 139 48t40 167v429h66z" />
    <glyph glyph-name="Yacute" unicode="&#xdd;" horiz-adv-x="559" 
d="M244 731l-24 30l164 146l38 -48zM312 248v-248h-65v248l-232 442h70l158 -306q1 -2 34 -74h6q13 31 33 73l158 307h69z" />
    <glyph glyph-name="Thorn" unicode="&#xde;" horiz-adv-x="589" 
d="M324 563q121 0 167.5 -44.5t46.5 -168.5t-45.5 -168t-161.5 -44q-98 0 -173 7v-145h-65v690h65v-130q45 3 166 3zM158 195h165q84 1 116 32.5t32 122.5q0 92 -32 124t-116 32q-125 0 -165 -1v-310z" />
    <glyph glyph-name="germandbls" unicode="&#xdf;" horiz-adv-x="667" 
d="M419 295l115 -43q48 -20 69 -47.5t21 -79.5q0 -82 -40.5 -109t-129.5 -27q-81 0 -162 11l4 48q65 -6 147 -6q68 1 93.5 16.5t25.5 68.5q0 37 -16 53t-54 31l-115 45q-84 32 -84 109q0 15 3 27.5t6.5 21.5t13 18.5t15 14.5t20.5 13.5t21.5 11.5t26.5 12t27 12q41 19 56 39
t15 57q0 39 -36.5 56t-121.5 17q-92 0 -124.5 -26.5t-32.5 -105.5v-533h-64v433h-87v49l87 2v55q0 58 14.5 95t46 55t67 23.5t91.5 5.5q116 0 167.5 -27.5t51.5 -97.5q0 -49 -19.5 -77t-72.5 -54q-12 -6 -32.5 -15t-28.5 -13t-20.5 -11.5t-17 -14t-8 -17.5t-3.5 -25
q0 -28 15 -42t50 -29z" />
    <glyph glyph-name="agrave" unicode="&#xe0;" horiz-adv-x="545" 
d="M290 550l-178 128l38 48l164 -146zM310 497q78 0 116.5 -34.5t38.5 -114.5v-348h-50l-8 85q-36 -36 -93 -64.5t-119 -28.5q-64 0 -101 34t-37 97v56q0 56 33.5 87t94.5 31h216v51q0 48 -22.5 71t-80.5 23q-86 0 -215 -14l-6 47q145 22 233 22zM206 48q44 -1 98 21t97 60
v119l-206 -2q-73 -3 -73 -75v-42q0 -81 84 -81z" />
    <glyph glyph-name="aacute" unicode="&#xe1;" horiz-adv-x="545" 
d="M233 550l-24 30l164 146l38 -48zM310 497q78 0 116.5 -34.5t38.5 -114.5v-348h-50l-8 85q-36 -36 -93 -64.5t-119 -28.5q-64 0 -101 34t-37 97v56q0 56 33.5 87t94.5 31h216v51q0 48 -22.5 71t-80.5 23q-86 0 -215 -14l-6 47q145 22 233 22zM206 48q44 -1 98 21t97 60
v119l-206 -2q-73 -3 -73 -75v-42q0 -81 84 -81z" />
    <glyph glyph-name="acircumflex" unicode="&#xe2;" horiz-adv-x="545" 
d="M134 558l-23 28l133 124h47l133 -124l-23 -28l-130 99h-8zM310 497q78 0 116.5 -34.5t38.5 -114.5v-348h-50l-8 85q-36 -36 -93 -64.5t-119 -28.5q-64 0 -101 34t-37 97v56q0 56 33.5 87t94.5 31h216v51q0 48 -22.5 71t-80.5 23q-86 0 -215 -14l-6 47q145 22 233 22z
M206 48q44 -1 98 21t97 60v119l-206 -2q-73 -3 -73 -75v-42q0 -81 84 -81z" />
    <glyph glyph-name="atilde" unicode="&#xe3;" horiz-adv-x="545" 
d="M147 589h-32q-4 53 17.5 80.5t59.5 24.5q31 -3 74.5 -30t71.5 -30q29 -3 40.5 10t11.5 45h32q4 -51 -17.5 -78t-59.5 -24q-37 3 -81.5 30.5t-65.5 30.5q-28 3 -39.5 -11.5t-11.5 -47.5zM310 497q78 0 116.5 -34.5t38.5 -114.5v-348h-50l-8 85q-36 -36 -93 -64.5
t-119 -28.5q-64 0 -101 34t-37 97v56q0 56 33.5 87t94.5 31h216v51q0 48 -22.5 71t-80.5 23q-86 0 -215 -14l-6 47q145 22 233 22zM206 48q44 -1 98 21t97 60v119l-206 -2q-73 -3 -73 -75v-42q0 -81 84 -81z" />
    <glyph glyph-name="adieresis" unicode="&#xe4;" horiz-adv-x="545" 
d="M190 591h-22q-18 0 -18 19v55q0 20 18 20h22q19 0 19 -20v-55q0 -19 -19 -19zM367 591h-21q-19 0 -19 19v55q0 20 19 20h21q19 0 19 -20v-55q0 -19 -19 -19zM310 497q78 0 116.5 -34.5t38.5 -114.5v-348h-50l-8 85q-36 -36 -93 -64.5t-119 -28.5q-64 0 -101 34t-37 97v56
q0 56 33.5 87t94.5 31h216v51q0 48 -22.5 71t-80.5 23q-86 0 -215 -14l-6 47q145 22 233 22zM206 48q44 -1 98 21t97 60v119l-206 -2q-73 -3 -73 -75v-42q0 -81 84 -81z" />
    <glyph glyph-name="aring" unicode="&#xe5;" horiz-adv-x="545" 
d="M269 536q-43 0 -73 29t-30 72t30 72.5t73 29.5q42 0 72.5 -30t30.5 -72q0 -43 -30 -72t-73 -29zM269 704q-28 0 -46.5 -19t-18.5 -48q0 -30 18.5 -48t46.5 -18t46.5 18.5t18.5 47.5t-19 48t-46 19zM310 497q78 0 116.5 -34.5t38.5 -114.5v-348h-50l-8 85
q-36 -36 -93 -64.5t-119 -28.5q-64 0 -101 34t-37 97v56q0 56 33.5 87t94.5 31h216v51q0 48 -22.5 71t-80.5 23q-86 0 -215 -14l-6 47q145 22 233 22zM206 48q44 -1 98 21t97 60v119l-206 -2q-73 -3 -73 -75v-42q0 -81 84 -81z" />
    <glyph glyph-name="ae" unicode="&#xe6;" horiz-adv-x="874" 
d="M635 43q77 0 167 12l7 -43q-61 -24 -182 -24q-83 0 -132 25.5t-72 82.5q-36 -39 -98 -71.5t-130 -32.5q-64 0 -101 34t-37 97v56q0 56 33 87t94 31h217v51q0 48 -22.5 71t-80.5 23q-86 0 -215 -14l-6 47q145 22 233 22q104 0 137 -62q49 62 171 62q103 0 152 -37.5
t50 -113.5q1 -70 -30.5 -102.5t-101.5 -32.5h-220q5 -96 43 -132t124 -36zM621 442q-84 0 -118 -39.5t-36 -141.5h207q46 0 64.5 21.5t17.5 62.5q-1 50 -33 73.5t-102 23.5zM206 48q46 -1 103.5 23t101.5 64q-10 48 -10 100v13l-207 -2q-73 -3 -73 -75v-42q0 -81 85 -81z
" />
    <glyph glyph-name="ccedilla" unicode="&#xe7;" horiz-adv-x="485" 
d="M287 497q89 0 149 -22l-9 -41q-55 8 -129 8q-97 0 -134.5 -42.5t-37.5 -157.5t37.5 -157t134.5 -42q82 0 141 11l7 -44q-74 -22 -159 -22q-125 0 -176 57t-51 197t51.5 197.5t175.5 57.5zM236 -88l7 31q52 5 76 -9.5t23 -55.5q-2 -60 -45.5 -92.5t-111.5 -23.5l10 35
q44 -1 71.5 21t28.5 56q0 21 -12.5 29t-46.5 9z" />
    <glyph glyph-name="egrave" unicode="&#xe8;" horiz-adv-x="534" 
d="M301 550l-178 128l38 48l164 -146zM294 43q77 0 167 12l7 -43q-60 -24 -182 -24t-174 58.5t-52 197.5q0 140 50 196.5t167 56.5q103 0 152 -37.5t50 -113.5q3 -135 -111 -135h-241q5 -96 43 -132t124 -36zM280 442q-84 0 -118 -39.5t-36 -141.5h228q63 0 61 84
q-1 51 -33 74t-102 23z" />
    <glyph glyph-name="eacute" unicode="&#xe9;" horiz-adv-x="534" 
d="M244 550l-24 30l164 146l38 -48zM294 43q77 0 167 12l7 -43q-60 -24 -182 -24t-174 58.5t-52 197.5q0 140 50 196.5t167 56.5q103 0 152 -37.5t50 -113.5q3 -135 -111 -135h-241q5 -96 43 -132t124 -36zM280 442q-84 0 -118 -39.5t-36 -141.5h228q63 0 61 84
q-1 51 -33 74t-102 23z" />
    <glyph glyph-name="ecircumflex" unicode="&#xea;" horiz-adv-x="534" 
d="M145 558l-23 28l133 124h47l133 -124l-23 -28l-130 99h-8zM294 43q77 0 167 12l7 -43q-60 -24 -182 -24t-174 58.5t-52 197.5q0 140 50 196.5t167 56.5q103 0 152 -37.5t50 -113.5q3 -135 -111 -135h-241q5 -96 43 -132t124 -36zM280 442q-84 0 -118 -39.5t-36 -141.5
h228q63 0 61 84q-1 51 -33 74t-102 23z" />
    <glyph glyph-name="edieresis" unicode="&#xeb;" horiz-adv-x="534" 
d="M201 591h-22q-18 0 -18 19v55q0 20 18 20h22q19 0 19 -20v-55q0 -19 -19 -19zM378 591h-21q-19 0 -19 19v55q0 20 19 20h21q19 0 19 -20v-55q0 -19 -19 -19zM294 43q77 0 167 12l7 -43q-60 -24 -182 -24t-174 58.5t-52 197.5q0 140 50 196.5t167 56.5q103 0 152 -37.5
t50 -113.5q3 -135 -111 -135h-241q5 -96 43 -132t124 -36zM280 442q-84 0 -118 -39.5t-36 -141.5h228q63 0 61 84q-1 51 -33 74t-102 23z" />
    <glyph glyph-name="igrave" unicode="&#xec;" horiz-adv-x="239" 
d="M165 580l-24 -30l-178 128l38 48zM152 0h-64v484h64v-484z" />
    <glyph glyph-name="iacute" unicode="&#xed;" horiz-adv-x="239" 
d="M262 678l-178 -128l-24 30l164 146zM152 0h-64v484h64v-484z" />
    <glyph glyph-name="icircumflex" unicode="&#xee;" horiz-adv-x="239" 
d="M275 586l-23 -28l-130 99h-8l-129 -99l-23 28l133 124h47zM152 0h-64v484h64v-484z" />
    <glyph glyph-name="idieresis" unicode="&#xef;" horiz-adv-x="239" 
d="M19 685h22q19 0 19 -20v-55q0 -19 -19 -19h-22q-18 0 -18 19v55q0 20 18 20zM197 685h21q19 0 19 -20v-55q0 -19 -19 -19h-21q-19 0 -19 19v55q0 20 19 20zM152 0h-64v484h64v-484z" />
    <glyph glyph-name="eth" unicode="&#xf0;" horiz-adv-x="555" 
d="M437 676l-72 -53q120 -106 120 -342q0 -69 -8 -117t-29.5 -90.5t-65 -64t-109.5 -21.5q-110 0 -161 55.5t-51 176.5q0 112 47 169.5t155 57.5q82 0 148 -42q-22 123 -91 185l-83 -62l-23 30l74 55q-66 41 -170 39l8 46q119 5 207 -51l80 60zM274 42q89 0 117.5 58
t28.5 187q0 40 -3 73q-69 33 -147 33t-110.5 -44.5t-32.5 -128.5q0 -96 35 -137t112 -41z" />
    <glyph glyph-name="ntilde" unicode="&#xf1;" horiz-adv-x="577" 
d="M174 589h-32q-4 53 17.5 80.5t59.5 24.5q31 -3 74.5 -30t71.5 -30q29 -3 40.5 10t11.5 45h32q4 -51 -17.5 -78t-59.5 -24q-37 3 -81.5 30.5t-65.5 30.5q-28 3 -39.5 -11.5t-11.5 -47.5zM365 497q131 0 131 -133v-364h-63v347q0 51 -19.5 73t-64.5 22q-44 0 -88.5 -19.5
t-113.5 -64.5l1 -358h-64v484h53l4 -80q121 93 224 93z" />
    <glyph glyph-name="ograve" unicode="&#xf2;" horiz-adv-x="565" 
d="M328 580l-24 -30l-178 128l38 48zM283 497q122 0 172 -57.5t50 -197.5t-50 -197t-172 -57t-172.5 57.5t-50.5 196.5q0 140 50.5 197.5t172.5 57.5zM283 442q-88 0 -122 -43t-34 -157t34 -157t122 -43t122.5 43t34.5 157t-34.5 157t-122.5 43z" />
    <glyph glyph-name="oacute" unicode="&#xf3;" horiz-adv-x="565" 
d="M425 678l-178 -128l-24 30l164 146zM283 497q122 0 172 -57.5t50 -197.5t-50 -197t-172 -57t-172.5 57.5t-50.5 196.5q0 140 50.5 197.5t172.5 57.5zM283 442q-88 0 -122 -43t-34 -157t34 -157t122 -43t122.5 43t34.5 157t-34.5 157t-122.5 43z" />
    <glyph glyph-name="ocircumflex" unicode="&#xf4;" horiz-adv-x="565" 
d="M438 586l-23 -28l-130 99h-8l-129 -99l-23 28l133 124h47zM283 497q122 0 172 -57.5t50 -197.5t-50 -197t-172 -57t-172.5 57.5t-50.5 196.5q0 140 50.5 197.5t172.5 57.5zM283 442q-88 0 -122 -43t-34 -157t34 -157t122 -43t122.5 43t34.5 157t-34.5 157t-122.5 43z" />
    <glyph glyph-name="otilde" unicode="&#xf5;" horiz-adv-x="565" 
d="M205 694q31 -3 74.5 -30t71.5 -30q29 -3 40.5 10t11.5 45h32q4 -51 -17.5 -78t-59.5 -24q-37 3 -81.5 30.5t-65.5 30.5q-28 3 -39.5 -11.5t-11.5 -47.5h-32q-4 53 17.5 80.5t59.5 24.5zM283 497q122 0 172 -57.5t50 -197.5t-50 -197t-172 -57t-172.5 57.5t-50.5 196.5
q0 140 50.5 197.5t172.5 57.5zM283 442q-88 0 -122 -43t-34 -157t34 -157t122 -43t122.5 43t34.5 157t-34.5 157t-122.5 43z" />
    <glyph glyph-name="odieresis" unicode="&#xf6;" horiz-adv-x="565" 
d="M182 685h22q19 0 19 -20v-55q0 -19 -19 -19h-22q-18 0 -18 19v55q0 20 18 20zM360 685h21q19 0 19 -20v-55q0 -19 -19 -19h-21q-19 0 -19 19v55q0 20 19 20zM283 497q122 0 172 -57.5t50 -197.5t-50 -197t-172 -57t-172.5 57.5t-50.5 196.5q0 140 50.5 197.5t172.5 57.5z
M283 442q-88 0 -122 -43t-34 -157t34 -157t122 -43t122.5 43t34.5 157t-34.5 157t-122.5 43z" />
    <glyph glyph-name="divide" unicode="&#xf7;" horiz-adv-x="577" 
d="M278 517h18q25 0 25 -25v-54q0 -24 -25 -24h-18q-14 0 -19 5t-5 19v54q0 25 24 25zM504 271h-431v49h431v-49zM278 176h18q25 0 25 -25v-53q0 -24 -25 -24h-18q-14 0 -19 5t-5 19v53q0 25 24 25z" />
    <glyph glyph-name="oslash" unicode="&#xf8;" horiz-adv-x="565" 
d="M436 537l-29 -62q52 -24 75 -80t23 -153q0 -140 -50 -197t-172 -57q-56 0 -98 12l-32 -70l-32 15l31 68q-48 25 -70 80t-22 149q0 140 50.5 197.5t172.5 57.5q54 0 90 -10l31 66zM127 242q0 -135 51 -174l171 367q-27 7 -66 7q-88 0 -122 -43t-34 -157zM283 42
q88 0 122.5 43t34.5 157q0 142 -58 179l-172 -369q29 -10 73 -10z" />
    <glyph glyph-name="ugrave" unicode="&#xf9;" 
d="M306 553l-178 128l38 48l164 -146zM482 484v-484h-50l-6 75q-112 -87 -214 -87q-131 0 -131 132v364h64v-347q-1 -50 20 -72t68 -22q41 0 82.5 18.5t103.5 60.5v362h63z" />
    <glyph glyph-name="uacute" unicode="&#xfa;" 
d="M250 553l-24 30l164 146l38 -48zM482 484v-484h-50l-6 75q-112 -87 -214 -87q-131 0 -131 132v364h64v-347q-1 -50 20 -72t68 -22q41 0 82.5 18.5t103.5 60.5v362h63z" />
    <glyph glyph-name="ucircumflex" unicode="&#xfb;" 
d="M151 561l-23 28l133 124h47l133 -124l-23 -28l-130 99h-8zM482 484v-484h-50l-6 75q-112 -87 -214 -87q-131 0 -131 132v364h64v-347q-1 -50 20 -72t68 -22q41 0 82.5 18.5t103.5 60.5v362h63z" />
    <glyph glyph-name="udieresis" unicode="&#xfc;" 
d="M206 593h-22q-18 0 -18 19v55q0 20 18 20h22q19 0 19 -20v-55q0 -19 -19 -19zM383 593h-21q-19 0 -19 19v55q0 20 19 20h21q19 0 19 -20v-55q0 -19 -19 -19zM482 484v-484h-50l-6 75q-112 -87 -214 -87q-131 0 -131 132v364h64v-347q-1 -50 20 -72t68 -22q41 0 82.5 18.5
t103.5 60.5v362h63z" />
    <glyph glyph-name="yacute" unicode="&#xfd;" horiz-adv-x="521" 
d="M228 550l-24 30l164 146l38 -48zM498 484l-204 -518q-29 -73 -73.5 -119t-118.5 -54l-8 41q57 19 89 53t52 86l12 27h-17q-18 0 -24 17l-184 467h68l143 -378q12 -32 20 -56h14l21 57l142 377h68z" />
    <glyph glyph-name="thorn" unicode="&#xfe;" horiz-adv-x="570" 
d="M332 496q95 0 135 -59.5t40 -196.5q0 -139 -40.5 -195.5t-135.5 -56.5t-186 47q3 -32 3 -92v-147h-64v904h64v-182q0 -63 -3 -97q93 75 187 75zM313 41q70 0 99.5 44t29.5 155q0 112 -28.5 156.5t-97.5 44.5q-70 0 -168 -74v-286q104 -40 165 -40z" />
    <glyph glyph-name="ydieresis" unicode="&#xff;" horiz-adv-x="521" 
d="M185 591h-22q-18 0 -18 19v55q0 20 18 20h22q19 0 19 -20v-55q0 -19 -19 -19zM362 591h-21q-19 0 -19 19v55q0 20 19 20h21q19 0 19 -20v-55q0 -19 -19 -19zM498 484l-204 -518q-29 -73 -73.5 -119t-118.5 -54l-8 41q57 19 89 53t52 86l12 27h-17q-18 0 -24 17l-184 467
h68l143 -378q12 -32 20 -56h14l21 57l142 377h68z" />
    <glyph glyph-name="Amacron" unicode="&#x100;" horiz-adv-x="615" 
d="M444 793h-272v49h272v-49zM458 228h-301l-76 -228h-68l231 671q5 19 26 19h75q20 0 25 -19l232 -671h-68zM439 285l-100 297l-18 56h-28l-18 -56l-99 -297h263z" />
    <glyph glyph-name="amacron" unicode="&#x101;" horiz-adv-x="545" 
d="M404 612h-272v49h272v-49zM310 497q78 0 116.5 -34.5t38.5 -114.5v-348h-50l-8 85q-36 -36 -93 -64.5t-119 -28.5q-64 0 -101 34t-37 97v56q0 56 33.5 87t94.5 31h216v51q0 48 -22.5 71t-80.5 23q-86 0 -215 -14l-6 47q145 22 233 22zM206 48q44 -1 98 21t97 60v119
l-206 -2q-73 -3 -73 -75v-42q0 -81 84 -81z" />
    <glyph glyph-name="Abreve" unicode="&#x102;" horiz-adv-x="615" 
d="M308 749q-69 0 -108.5 34.5t-36.5 90.5l34 6q0 -39 29.5 -60.5t82.5 -21.5q51 0 80 21.5t29 60.5l35 -6q2 -57 -37 -91t-108 -34zM458 228h-301l-76 -228h-68l231 671q5 19 26 19h75q20 0 25 -19l232 -671h-68zM439 285l-100 297l-18 56h-28l-18 -56l-99 -297h263z" />
    <glyph glyph-name="abreve" unicode="&#x103;" horiz-adv-x="545" 
d="M268 568q-69 0 -108.5 34.5t-36.5 90.5l34 6q0 -39 29.5 -60.5t82.5 -21.5q51 0 80 21.5t29 60.5l35 -6q2 -57 -37 -91t-108 -34zM310 497q78 0 116.5 -34.5t38.5 -114.5v-348h-50l-8 85q-36 -36 -93 -64.5t-119 -28.5q-64 0 -101 34t-37 97v56q0 56 33.5 87t94.5 31h216
v51q0 48 -22.5 71t-80.5 23q-86 0 -215 -14l-6 47q145 22 233 22zM206 48q44 -1 98 21t97 60v119l-206 -2q-73 -3 -73 -75v-42q0 -81 84 -81z" />
    <glyph glyph-name="Aogonek" unicode="&#x104;" horiz-adv-x="615" 
d="M606 -166l8 -28q-87 -33 -122.5 -7.5t-14.5 81.5q20 61 92 120h-35l-76 228h-301l-76 -228h-68l231 671q5 19 26 19h75q20 0 25 -19l232 -671q-58 -64 -79 -118q-16 -40 8.5 -53t74.5 5zM439 285l-100 297l-18 56h-28l-18 -56l-99 -297h263z" />
    <glyph glyph-name="aogonek" unicode="&#x105;" horiz-adv-x="545" 
d="M469 -166l8 -28q-87 -33 -122.5 -7.5t-14.5 81.5q20 61 92 120h-17l-8 85q-36 -36 -93 -64.5t-119 -28.5q-64 0 -101 34t-37 97v56q0 56 33.5 87t94.5 31h216v51q0 48 -22.5 71t-80.5 23q-86 0 -215 -14l-6 47q145 22 233 22q78 0 116.5 -34.5t38.5 -114.5v-348
q-58 -64 -79 -118q-16 -40 8.5 -53t74.5 5zM206 48q44 -1 98 21t97 60v119l-206 -2q-73 -3 -73 -75v-42q0 -81 84 -81z" />
    <glyph glyph-name="Cacute" unicode="&#x106;" 
d="M464 859l-178 -128l-24 30l164 146zM332 702q108 0 183 -19l-8 -49q-75 9 -175 9q-110 0 -153 -65t-43 -233t43 -233t153 -65q115 0 189 11l8 -49q-78 -21 -197 -21q-147 0 -206 80t-59 277t59 277t206 80z" />
    <glyph glyph-name="cacute" unicode="&#x107;" horiz-adv-x="485" 
d="M413 678l-178 -128l-24 30l164 146zM287 497q89 0 149 -22l-9 -41q-55 8 -129 8q-97 0 -134.5 -42.5t-37.5 -157.5t37.5 -157t134.5 -42q82 0 141 11l7 -44q-74 -22 -159 -22q-125 0 -176 57t-51 197t51.5 197.5t175.5 57.5z" />
    <glyph glyph-name="Cdotaccent" unicode="&#x10a;" 
d="M310 865h21q21 0 21 -21v-59q0 -20 -21 -20h-21q-21 0 -21 20v59q0 21 21 21zM332 702q108 0 183 -19l-8 -49q-75 9 -175 9q-110 0 -153 -65t-43 -233t43 -233t153 -65q115 0 189 11l8 -49q-78 -21 -197 -21q-147 0 -206 80t-59 277t59 277t206 80z" />
    <glyph glyph-name="cdotaccent" unicode="&#x10b;" horiz-adv-x="485" 
d="M259 684h21q21 0 21 -21v-59q0 -20 -21 -20h-21q-21 0 -21 20v59q0 21 21 21zM287 497q89 0 149 -22l-9 -41q-55 8 -129 8q-97 0 -134.5 -42.5t-37.5 -157.5t37.5 -157t134.5 -42q82 0 141 11l7 -44q-74 -22 -159 -22q-125 0 -176 57t-51 197t51.5 197.5t175.5 57.5z" />
    <glyph glyph-name="Ccaron" unicode="&#x10c;" 
d="M480 870l-142 -123h-32l-140 123l23 28l129 -92h8l130 92zM332 702q108 0 183 -19l-8 -49q-75 9 -175 9q-110 0 -153 -65t-43 -233t43 -233t153 -65q115 0 189 11l8 -49q-78 -21 -197 -21q-147 0 -206 80t-59 277t59 277t206 80z" />
    <glyph glyph-name="ccaron" unicode="&#x10d;" horiz-adv-x="485" 
d="M428 689l-142 -123h-32l-140 123l23 28l129 -92h8l130 92zM287 497q89 0 149 -22l-9 -41q-55 8 -129 8q-97 0 -134.5 -42.5t-37.5 -157.5t37.5 -157t134.5 -42q82 0 141 11l7 -44q-74 -22 -159 -22q-125 0 -176 57t-51 197t51.5 197.5t175.5 57.5z" />
    <glyph glyph-name="Dcaron" unicode="&#x10e;" horiz-adv-x="662" 
d="M305 747l-140 123l23 28l129 -92h8l130 92l24 -28l-142 -123h-32zM333 699q145 0 204 -78.5t59 -275.5t-59 -275.5t-204 -78.5q-114 0 -240 9v690q126 9 240 9zM333 49q108 0 151 65.5t43 230.5q0 166 -43 231.5t-151 65.5q-71 0 -175 -2v-589q100 -2 175 -2z" />
    <glyph glyph-name="dcaron" unicode="&#x10f;" horiz-adv-x="569" 
d="M577 703h17q22 0 22 -21v-53q-2 -67 -26 -120l-27 7q7 48 7 98q-16 0 -16 18l1 50q0 21 22 21zM421 700h64v-700h-50l-6 74q-101 -86 -195 -86q-92 0 -132.5 61t-40.5 194q0 138 43 196t138 58q89 0 183 -47q-4 33 -4 95v155zM126 244q0 -113 28.5 -156.5t96.5 -43.5
q42 0 78 17t92 60v285q-103 35 -166 35q-71 0 -100 -42.5t-29 -154.5z" />
    <glyph glyph-name="Dcroat" unicode="&#x110;" horiz-adv-x="666" 
d="M336 699q146 0 204.5 -78.5t58.5 -275.5t-58.5 -275.5t-204.5 -78.5q-113 0 -239 9v349h-73v39h73v302q124 9 239 9zM336 49q109 0 151.5 65t42.5 231t-42.5 231.5t-151.5 65.5q-70 0 -174 -2v-252h163v-39h-163v-298q100 -2 174 -2z" />
    <glyph glyph-name="dcroat" unicode="&#x111;" horiz-adv-x="562" 
d="M554 579h-69v-579h-50l-6 74q-101 -86 -195 -86q-92 0 -132.5 61t-40.5 194q0 138 43 196t138 58q89 0 183 -47q-4 33 -4 95v34h-162v39h162v82h64v-82h69v-39zM126 244q0 -113 28.5 -156.5t96.5 -43.5q42 0 78 17t92 60v285q-103 35 -166 35q-71 0 -100 -42.5
t-29 -154.5z" />
    <glyph glyph-name="Emacron" unicode="&#x112;" horiz-adv-x="557" 
d="M446 815h-272v49h272v-49zM501 55l3 -50q-94 -6 -295 -6q-55 0 -88.5 31t-33.5 83v464q0 52 33.5 83t88.5 31q201 0 295 -6l-3 -50h-281q-67 0 -67 -73v-169h308v-53h-308v-213q0 -72 67 -72h281z" />
    <glyph glyph-name="emacron" unicode="&#x113;" horiz-adv-x="534" 
d="M415 612h-272v49h272v-49zM294 43q77 0 167 12l7 -43q-60 -24 -182 -24t-174 58.5t-52 197.5q0 140 50 196.5t167 56.5q103 0 152 -37.5t50 -113.5q3 -135 -111 -135h-241q5 -96 43 -132t124 -36zM280 442q-84 0 -118 -39.5t-36 -141.5h228q63 0 61 84q-1 51 -33 74
t-102 23z" />
    <glyph glyph-name="Edotaccent" unicode="&#x116;" horiz-adv-x="557" 
d="M320 787h-21q-21 0 -21 20v59q0 21 21 21h21q21 0 21 -21v-59q0 -20 -21 -20zM501 55l3 -50q-94 -6 -295 -6q-55 0 -88.5 31t-33.5 83v464q0 52 33.5 83t88.5 31q201 0 295 -6l-3 -50h-281q-67 0 -67 -73v-169h308v-53h-308v-213q0 -72 67 -72h281z" />
    <glyph glyph-name="edotaccent" unicode="&#x117;" horiz-adv-x="534" 
d="M289 584h-21q-21 0 -21 20v59q0 21 21 21h21q21 0 21 -21v-59q0 -20 -21 -20zM294 43q77 0 167 12l7 -43q-60 -24 -182 -24t-174 58.5t-52 197.5q0 140 50 196.5t167 56.5q103 0 152 -37.5t50 -113.5q3 -135 -111 -135h-241q5 -96 43 -132t124 -36zM280 442
q-84 0 -118 -39.5t-36 -141.5h228q63 0 61 84q-1 51 -33 74t-102 23z" />
    <glyph glyph-name="Eogonek" unicode="&#x118;" horiz-adv-x="557" 
d="M508 -161l8 -28q-87 -33 -122.5 -7.5t-14.5 81.5q20 61 89 118q-84 -4 -259 -4q-55 0 -88.5 31t-33.5 83v464q0 52 33.5 83t88.5 31q201 0 295 -6l-3 -50h-281q-67 0 -67 -73v-169h308v-53h-308v-213q0 -72 67 -72h281l3 -50q-58 -64 -79 -118q-16 -40 8.5 -53t74.5 5z
" />
    <glyph glyph-name="eogonek" unicode="&#x119;" horiz-adv-x="534" 
d="M472 -154l8 -28q-87 -33 -122.5 -7.5t-14.5 81.5q18 54 77 108q-63 -12 -134 -12q-122 0 -174 58.5t-52 197.5q0 140 50 196.5t167 56.5q103 0 152 -37.5t50 -113.5q3 -135 -111 -135h-241q5 -96 43 -132t124 -36q77 0 167 12l7 -43q-58 -64 -79 -118q-16 -40 8.5 -53
t74.5 5zM280 442q-84 0 -118 -39.5t-36 -141.5h228q63 0 61 84q-1 51 -33 74t-102 23z" />
    <glyph glyph-name="Ecaron" unicode="&#x11a;" horiz-adv-x="557" 
d="M295 769l-140 123l23 28l129 -92h8l130 92l24 -28l-142 -123h-32zM501 55l3 -50q-94 -6 -295 -6q-55 0 -88.5 31t-33.5 83v464q0 52 33.5 83t88.5 31q201 0 295 -6l-3 -50h-281q-67 0 -67 -73v-169h308v-53h-308v-213q0 -72 67 -72h281z" />
    <glyph glyph-name="ecaron" unicode="&#x11b;" horiz-adv-x="534" 
d="M263 566l-140 123l23 28l129 -92h8l130 92l24 -28l-142 -123h-32zM294 43q77 0 167 12l7 -43q-60 -24 -182 -24t-174 58.5t-52 197.5q0 140 50 196.5t167 56.5q103 0 152 -37.5t50 -113.5q3 -135 -111 -135h-241q5 -96 43 -132t124 -36zM280 442q-84 0 -118 -39.5
t-36 -141.5h228q63 0 61 84q-1 51 -33 74t-102 23z" />
    <glyph glyph-name="Gbreve" unicode="&#x11e;" horiz-adv-x="626" 
d="M326 749q-69 0 -108.5 34.5t-36.5 90.5l34 6q0 -39 29.5 -60.5t82.5 -21.5q51 0 80 21.5t29 60.5l35 -6q2 -57 -37 -91t-108 -34zM553 399v-399h-48l-8 78q-88 -90 -209 -90q-118 0 -169.5 85t-51.5 273q0 201 61 278.5t216 77.5q113 0 194 -19l-8 -49q-90 10 -182 10
q-82 0 -126 -25t-65 -89.5t-21 -186.5q0 -162 38 -230t131 -68q37 0 73 13t57.5 27t53.5 39v275h64z" />
    <glyph glyph-name="gbreve" unicode="&#x11f;" horiz-adv-x="553" 
d="M271 568q-69 0 -108.5 34.5t-36.5 90.5l34 6q0 -39 29.5 -60.5t82.5 -21.5q51 0 80 21.5t29 60.5l35 -6q2 -57 -37 -91t-108 -34zM525 448l-81 -5q28 -35 28 -100q0 -79 -46 -115t-156 -36q-68 0 -110 13q-15 -19 -18 -39.5t11 -38t45 -22.5l186 -31q65 -10 90.5 -41
t25.5 -92q0 -82 -49.5 -114t-174.5 -32q-128 0 -178.5 31.5t-50.5 112.5q0 48 18 76.5t64 51.5q-43 27 -41.5 75.5t39.5 76.5q-60 33 -60 124q0 81 46 117.5t157 36.5q69 0 109 -13h151zM270 241q78 0 110 24t32 78q0 56 -31.5 80t-110.5 24t-111.5 -24t-32.5 -80
q0 -54 33 -78t111 -24zM438 -57q0 42 -16.5 58.5t-68.5 24.5l-181 28l-4 -3q-33 -23 -46 -46.5t-13 -61.5q0 -55 35 -74.5t131 -19.5q94 0 128.5 20t34.5 74z" />
    <glyph glyph-name="Gdotaccent" unicode="&#x120;" horiz-adv-x="626" 
d="M337 765h-21q-21 0 -21 20v59q0 21 21 21h21q21 0 21 -21v-59q0 -20 -21 -20zM553 399v-399h-48l-8 78q-88 -90 -209 -90q-118 0 -169.5 85t-51.5 273q0 201 61 278.5t216 77.5q113 0 194 -19l-8 -49q-90 10 -182 10q-82 0 -126 -25t-65 -89.5t-21 -186.5q0 -162 38 -230
t131 -68q37 0 73 13t57.5 27t53.5 39v275h64z" />
    <glyph glyph-name="gdotaccent" unicode="&#x121;" horiz-adv-x="553" 
d="M282 584h-21q-21 0 -21 20v59q0 21 21 21h21q21 0 21 -21v-59q0 -20 -21 -20zM525 448l-81 -5q28 -35 28 -100q0 -79 -46 -115t-156 -36q-68 0 -110 13q-15 -19 -18 -39.5t11 -38t45 -22.5l186 -31q65 -10 90.5 -41t25.5 -92q0 -82 -49.5 -114t-174.5 -32
q-128 0 -178.5 31.5t-50.5 112.5q0 48 18 76.5t64 51.5q-43 27 -41.5 75.5t39.5 76.5q-60 33 -60 124q0 81 46 117.5t157 36.5q69 0 109 -13h151zM270 241q78 0 110 24t32 78q0 56 -31.5 80t-110.5 24t-111.5 -24t-32.5 -80q0 -54 33 -78t111 -24zM438 -57q0 42 -16.5 58.5
t-68.5 24.5l-181 28l-4 -3q-33 -23 -46 -46.5t-13 -61.5q0 -55 35 -74.5t131 -19.5q94 0 128.5 20t34.5 74z" />
    <glyph glyph-name="Gcommaaccent" unicode="&#x122;" horiz-adv-x="626" 
d="M553 399v-399h-48l-8 78q-88 -90 -209 -90q-118 0 -169.5 85t-51.5 273q0 201 61 278.5t216 77.5q113 0 194 -19l-8 -49q-90 10 -182 10q-82 0 -126 -25t-65 -89.5t-21 -186.5q0 -162 38 -230t131 -68q37 0 73 13t57.5 27t53.5 39v275h64zM315 -61h18q22 0 22 -21v-56
q-2 -69 -26 -127l-28 8q7 50 7 103q-18 0 -16 19v53q1 21 23 21z" />
    <glyph glyph-name="gcommaaccent" unicode="&#x123;" horiz-adv-x="553" 
d="M289 560h-18q-22 0 -22 21v56q2 69 26 127l28 -8q-7 -50 -7 -103q18 0 16 -19v-53q-1 -21 -23 -21zM525 448l-81 -5q28 -35 28 -100q0 -79 -46 -115t-156 -36q-68 0 -110 13q-15 -19 -18 -39.5t11 -38t45 -22.5l186 -31q65 -10 90.5 -41t25.5 -92q0 -82 -49.5 -114
t-174.5 -32q-128 0 -178.5 31.5t-50.5 112.5q0 48 18 76.5t64 51.5q-43 27 -41.5 75.5t39.5 76.5q-60 33 -60 124q0 81 46 117.5t157 36.5q69 0 109 -13h151zM270 241q78 0 110 24t32 78q0 56 -31.5 80t-110.5 24t-111.5 -24t-32.5 -80q0 -54 33 -78t111 -24zM438 -57
q0 42 -16.5 58.5t-68.5 24.5l-181 28l-4 -3q-33 -23 -46 -46.5t-13 -61.5q0 -55 35 -74.5t131 -19.5q94 0 128.5 20t34.5 74z" />
    <glyph glyph-name="Hbar" unicode="&#x126;" horiz-adv-x="672" 
d="M649 521h-74v-521h-65v341h-348v-341h-65v521h-74v38h74v131h65v-131h348v131h65v-131h74v-38zM510 521h-348v-124h348v124z" />
    <glyph glyph-name="hbar" unicode="&#x127;" horiz-adv-x="581" 
d="M369 497q64 0 97.5 -34t33.5 -99v-364h-64v347q0 51 -19.5 73t-64.5 22q-44 0 -89 -19.5t-112 -64.5v-358h-63v579h-79v39h79v82h63l1 -82h152v-39h-152l1 -80q0 -59 -7 -95q126 93 223 93z" />
    <glyph glyph-name="Imacron" unicode="&#x12a;" horiz-adv-x="251" 
d="M261 793h-272v49h272v-49zM158 0h-65v690h65v-690z" />
    <glyph glyph-name="imacron" unicode="&#x12b;" horiz-adv-x="239" 
d="M255 612h-272v49h272v-49zM152 0h-64v484h64v-484z" />
    <glyph glyph-name="Iogonek" unicode="&#x12e;" horiz-adv-x="251" 
d="M156 -166l8 -28q-87 -33 -122.5 -7.5t-14.5 81.5q20 61 92 120h-26v690h65v-690h-6q-58 -64 -79 -118q-16 -40 8.5 -53t74.5 5z" />
    <glyph glyph-name="iogonek" unicode="&#x12f;" horiz-adv-x="239" 
d="M130 584h-21q-21 0 -21 20v59q0 21 21 21h21q21 0 21 -21v-59q0 -20 -21 -20zM151 -166l8 -28q-87 -33 -122.5 -7.5t-14.5 81.5q20 61 92 120h-26v484h64v-484h-5q-58 -64 -79 -118q-16 -40 8.5 -53t74.5 5z" />
    <glyph glyph-name="Idotaccent" unicode="&#x130;" horiz-adv-x="251" 
d="M115 865h21q21 0 21 -21v-59q0 -20 -21 -20h-21q-21 0 -21 20v59q0 21 21 21zM158 0h-65v690h65v-690z" />
    <glyph glyph-name="dotlessi" unicode="&#x131;" horiz-adv-x="239" 
d="M151 0h-63v484h63v-484z" />
    <glyph glyph-name="IJ" unicode="&#x132;" horiz-adv-x="585" 
d="M158 0h-65v690h65v-690zM496 690v-556q0 -142 -130 -142q-40 0 -82 10l7 46h53q86 0 86 84v558h66z" />
    <glyph glyph-name="ij" unicode="&#x133;" horiz-adv-x="478" 
d="M105 688h29q21 0 21 -21v-58q0 -21 -21 -21h-29q-21 0 -21 21v58q0 21 21 21zM343 688h30q21 0 21 -21v-58q0 -21 -21 -21h-30q-20 0 -20 21v58q0 21 20 21zM151 0h-63v484h63v-484zM390 484v-508q0 -110 -84 -182l-35 28q55 70 55 154v508h64z" />
    <glyph glyph-name="Kcommaaccent" unicode="&#x136;" horiz-adv-x="581" 
d="M557 0h-75l-234 333h-95q5 -45 5 -78v-255h-65v690h65v-223q0 -37 -5 -80h96l220 303h73l-212 -293q-16 -21 -33 -36v-3q24 -22 36 -39zM302 -61h18q22 0 22 -21v-56q-2 -69 -26 -127l-28 8q7 50 7 103q-18 0 -16 19v53q1 21 23 21z" />
    <glyph glyph-name="kcommaaccent" unicode="&#x137;" horiz-adv-x="497" 
d="M473 0h-74l-183 251h-72q4 -56 4 -81v-170h-64v700h64l1 -318q0 -49 -5 -83h71l167 185h75l-162 -181q-15 -19 -30 -28v-2q15 -11 30 -34zM262 -61h18q22 0 22 -21v-56q-2 -69 -26 -127l-28 8q7 50 7 103q-18 0 -16 19v53q1 21 23 21z" />
    <glyph glyph-name="Lacute" unicode="&#x139;" horiz-adv-x="511" 
d="M267 859l-178 -128l-24 30l164 146zM155 690v-562q0 -73 73 -73h257l2 -50q-106 -6 -271 -6q-62 0 -94 33t-32 87v571h65z" />
    <glyph glyph-name="lacute" unicode="&#x13a;" horiz-adv-x="287" 
d="M261 881l-178 -128l-24 30l164 146zM149 700l-1 -580q0 -70 71 -70h51l8 -48q-28 -10 -80 -10t-82.5 30t-30.5 86v592h64z" />
    <glyph glyph-name="Lcommaaccent" unicode="&#x13b;" horiz-adv-x="511" 
d="M155 690v-562q0 -73 73 -73h257l2 -50q-106 -6 -271 -6q-62 0 -94 33t-32 87v571h65zM289 -66h18q22 0 22 -21v-56q-2 -69 -26 -127l-28 8q7 50 7 103q-18 0 -16 19v53q1 21 23 21z" />
    <glyph glyph-name="lcommaaccent" unicode="&#x13c;" horiz-adv-x="287" 
d="M149 700l-1 -580q0 -70 71 -70h51l8 -48q-28 -10 -80 -10t-82.5 30t-30.5 86v592h64zM162 -66h18q22 0 22 -21v-56q-2 -69 -26 -127l-28 8q7 50 7 103q-18 0 -16 19v53q1 21 23 21z" />
    <glyph glyph-name="Lcaron" unicode="&#x13d;" horiz-adv-x="511" 
d="M307 691h18q22 0 22 -21v-56q-2 -69 -26 -127l-28 8q7 50 7 103q-18 0 -16 19v53q1 21 23 21zM155 690v-562q0 -73 73 -73h257l2 -50q-106 -6 -271 -6q-62 0 -94 33t-32 87v571h65z" />
    <glyph glyph-name="lcaron" unicode="&#x13e;" horiz-adv-x="287" 
d="M242 703h17q22 0 22 -21v-53q-2 -67 -26 -120l-27 7q7 48 7 98q-16 0 -16 18l1 50q0 21 22 21zM149 700l-1 -580q0 -70 71 -70h51l8 -48q-28 -10 -80 -10t-82.5 30t-30.5 86v592h64z" />
    <glyph glyph-name="Ldot" unicode="&#x13f;" horiz-adv-x="511" 
d="M155 690v-562q0 -73 73 -73h257l2 -50q-106 -6 -271 -6q-62 0 -94 33t-32 87v571h65zM392 336h-21q-21 0 -21 21v59q0 20 21 20h21q21 0 21 -20v-59q0 -21 -21 -21z" />
    <glyph glyph-name="ldot" unicode="&#x140;" horiz-adv-x="314" 
d="M149 700l-1 -580q0 -70 71 -70h51l8 -48q-28 -10 -80 -10t-82.5 30t-30.5 86v592h64zM278 339h-21q-21 0 -21 21v59q0 21 21 21h21q21 0 21 -21v-59q0 -21 -21 -21z" />
    <glyph glyph-name="Lslash" unicode="&#x141;" horiz-adv-x="517" 
d="M491 55l2 -50q-107 -6 -271 -6q-63 0 -94.5 33t-31.5 87v224l-73 -31v42l73 31v305h65v-277l121 51v-42l-121 -51v-243q0 -73 72 -73h258z" />
    <glyph glyph-name="lslash" unicode="&#x142;" horiz-adv-x="318" 
d="M292 50l8 -48q-28 -10 -80 -10t-82.5 30t-30.5 86v236l-83 -35v43l83 35v313h64v-286l111 48v-43l-112 -48v-251q0 -70 71 -70h51z" />
    <glyph glyph-name="Nacute" unicode="&#x143;" horiz-adv-x="699" 
d="M503 859l-178 -128l-24 30l164 146zM607 690v-662q0 -28 -28 -28h-70q-22 0 -32 22l-263 524q-36 74 -39 83h-19q2 -27 2 -83v-546h-65v662q0 28 28 28h67q22 0 32 -22l257 -512l46 -93h21q-2 33 -2 99v528h65z" />
    <glyph glyph-name="nacute" unicode="&#x144;" horiz-adv-x="577" 
d="M261 550l-24 30l164 146l38 -48zM365 497q131 0 131 -133v-364h-63v347q0 51 -19.5 73t-64.5 22q-44 0 -88.5 -19.5t-113.5 -64.5l1 -358h-64v484h53l4 -80q121 93 224 93z" />
    <glyph glyph-name="Ncommaaccent" unicode="&#x145;" horiz-adv-x="699" 
d="M607 690v-662q0 -28 -28 -28h-70q-22 0 -32 22l-263 524q-36 74 -39 83h-19q2 -27 2 -83v-546h-65v662q0 28 28 28h67q22 0 32 -22l257 -512l46 -93h21q-2 33 -2 99v528h65zM327 -61h18q22 0 22 -21v-56q-2 -69 -26 -127l-28 8q7 50 7 103q-18 0 -16 19v53q1 21 23 21z
" />
    <glyph glyph-name="ncommaaccent" unicode="&#x146;" horiz-adv-x="577" 
d="M365 497q131 0 131 -133v-364h-63v347q0 51 -19.5 73t-64.5 22q-44 0 -88.5 -19.5t-113.5 -64.5l1 -358h-64v484h53l4 -80q121 93 224 93zM282 -60h18q22 0 22 -22v-56q-2 -66 -27 -127l-27 9q7 49 7 102q-18 0 -16 19v53q1 22 23 22z" />
    <glyph glyph-name="Ncaron" unicode="&#x147;" horiz-adv-x="699" 
d="M518 870l-142 -123h-32l-140 123l23 28l129 -92h8l130 92zM607 690v-662q0 -28 -28 -28h-70q-22 0 -32 22l-263 524q-36 74 -39 83h-19q2 -27 2 -83v-546h-65v662q0 28 28 28h67q22 0 32 -22l257 -512l46 -93h21q-2 33 -2 99v528h65z" />
    <glyph glyph-name="ncaron" unicode="&#x148;" horiz-adv-x="577" 
d="M280 566l-140 123l23 28l129 -92h8l130 92l24 -28l-142 -123h-32zM365 497q131 0 131 -133v-364h-63v347q0 51 -19.5 73t-64.5 22q-44 0 -88.5 -19.5t-113.5 -64.5l1 -358h-64v484h53l4 -80q121 93 224 93z" />
    <glyph glyph-name="Eng" unicode="&#x14a;" horiz-adv-x="699" 
d="M606 690v-777q0 -64 -34 -98t-96 -33q-43 0 -80 10l7 41h53q88 0 88 85v82h-34q-13 0 -24 20l-273 517q-19 38 -39 83h-18q2 -28 2 -85v-535h-65v662q0 28 27 28h58q20 0 32 -22l266 -502q12 -22 46 -94h21q-2 66 -2 98v520h65z" />
    <glyph glyph-name="eng" unicode="&#x14b;" horiz-adv-x="577" 
d="M365 497q131 0 131 -133v-439q0 -65 -30 -99t-89 -33q-33 0 -74 11l7 40h45q78 0 78 85v418q0 48 -20 69.5t-66 21.5q-73 0 -200 -81l1 -357h-64v484h49l6 -83q120 96 226 96z" />
    <glyph glyph-name="Omacron" unicode="&#x14c;" horiz-adv-x="666" 
d="M469 793h-272v49h272v-49zM333 702q148 0 207.5 -78.5t59.5 -278.5t-59.5 -278.5t-207.5 -78.5t-207 78.5t-59 278.5t59 278.5t207 78.5zM332 644q-110 0 -153.5 -65.5t-43.5 -233.5t43.5 -233.5t153.5 -65.5q111 0 154.5 65.5t43.5 233.5t-43.5 233.5t-154.5 65.5z" />
    <glyph glyph-name="omacron" unicode="&#x14d;" horiz-adv-x="565" 
d="M418 612h-272v49h272v-49zM283 497q122 0 172 -57.5t50 -197.5t-50 -197t-172 -57t-172.5 57.5t-50.5 196.5q0 140 50.5 197.5t172.5 57.5zM283 442q-88 0 -122 -43t-34 -157t34 -157t122 -43t122.5 43t34.5 157t-34.5 157t-122.5 43z" />
    <glyph glyph-name="Ohungarumlaut" unicode="&#x150;" horiz-adv-x="666" 
d="M372 883l-128 -156l-30 21l110 168zM528 883l-129 -156l-29 21l110 168zM333 702q148 0 207.5 -78.5t59.5 -278.5t-59.5 -278.5t-207.5 -78.5t-207 78.5t-59 278.5t59 278.5t207 78.5zM332 644q-110 0 -153.5 -65.5t-43.5 -233.5t43.5 -233.5t153.5 -65.5
q111 0 154.5 65.5t43.5 233.5t-43.5 233.5t-154.5 65.5z" />
    <glyph glyph-name="ohungarumlaut" unicode="&#x151;" horiz-adv-x="565" 
d="M321 702l-128 -156l-30 21l110 168zM477 702l-129 -156l-29 21l110 168zM283 497q122 0 172 -57.5t50 -197.5t-50 -197t-172 -57t-172.5 57.5t-50.5 196.5q0 140 50.5 197.5t172.5 57.5zM283 442q-88 0 -122 -43t-34 -157t34 -157t122 -43t122.5 43t34.5 157t-34.5 157
t-122.5 43z" />
    <glyph glyph-name="OE" unicode="&#x152;" horiz-adv-x="905" 
d="M849 55l2 -50q-92 -6 -288 -6q-39 0 -67 22q-73 -33 -163 -33q-148 0 -207 78.5t-59 278.5t59 278.5t207 78.5q90 0 165 -32q28 21 69 21q193 0 284 -6l-2 -50h-261q-72 0 -72 -73v-168l292 -1v-53l-292 -1v-212q0 -72 72 -72h261zM135 345q0 -168 43.5 -233.5
t154.5 -65.5q73 0 127 20q-10 27 -10 53v452q0 29 11 53q-60 20 -128 20q-111 0 -154.5 -64.5t-43.5 -234.5z" />
    <glyph glyph-name="oe" unicode="&#x153;" horiz-adv-x="913" 
d="M674 43q74 0 166 12l7 -43q-61 -24 -183 -24q-143 0 -191 83q-46 -83 -190 -83q-122 0 -172.5 57.5t-50.5 196.5q0 140 50.5 197.5t172.5 57.5q141 0 188 -81q46 81 182 81q204 0 206 -145q1 -78 -33 -108.5t-116 -30.5h-204q5 -98 43 -134t125 -36zM283 42q88 0 122 43
t34 157t-34 157t-122 43t-122 -43t-34 -157t34 -157t122 -43zM655 442q-81 0 -114.5 -40t-35.5 -140h202q50 0 69.5 20t18.5 69q-4 91 -140 91z" />
    <glyph glyph-name="Racute" unicode="&#x154;" horiz-adv-x="614" 
d="M268 731l-24 30l164 146l38 -48zM564 0h-70l-66 217q-26 79 -99 79q-91 0 -171 2v-298h-65v690q83 8 232 8q119 0 166.5 -41.5t47.5 -155.5q0 -87 -29.5 -128.5t-97.5 -51.5v-4q27 -8 49 -33.5t33 -64.5zM158 353h166q84 1 116.5 31.5t32.5 113.5q0 84 -32.5 114
t-116.5 30q-86 0 -166 -2v-287z" />
    <glyph glyph-name="racute" unicode="&#x155;" horiz-adv-x="394" 
d="M190 550l-24 30l164 146l38 -48zM375 497l-8 -60h-24q-42 0 -85 -17.5t-110 -57.5v-362h-64v484h49l7 -81q118 94 214 94h21z" />
    <glyph glyph-name="Rcommaaccent" unicode="&#x156;" horiz-adv-x="614" 
d="M564 0h-70l-66 217q-26 79 -99 79q-91 0 -171 2v-298h-65v690q83 8 232 8q119 0 166.5 -41.5t47.5 -155.5q0 -87 -29.5 -128.5t-97.5 -51.5v-4q27 -8 49 -33.5t33 -64.5zM158 353h166q84 1 116.5 31.5t32.5 113.5q0 84 -32.5 114t-116.5 30q-86 0 -166 -2v-287zM319 -61
h18q22 0 22 -21v-56q-2 -69 -26 -127l-28 8q7 50 7 103q-18 0 -16 19v53q1 21 23 21z" />
    <glyph glyph-name="rcommaaccent" unicode="&#x157;" horiz-adv-x="394" 
d="M375 497l-8 -60h-24q-42 0 -85 -17.5t-110 -57.5v-362h-64v484h49l7 -81q118 94 214 94h21zM100 -61h18q22 0 22 -21v-56q-2 -69 -26 -127l-28 8q7 50 7 103q-18 0 -16 19v53q1 21 23 21z" />
    <glyph glyph-name="Rcaron" unicode="&#x158;" horiz-adv-x="614" 
d="M288 747l-140 123l23 28l129 -92h8l130 92l24 -28l-142 -123h-32zM564 0h-70l-66 217q-26 79 -99 79q-91 0 -171 2v-298h-65v690q83 8 232 8q119 0 166.5 -41.5t47.5 -155.5q0 -87 -29.5 -128.5t-97.5 -51.5v-4q27 -8 49 -33.5t33 -64.5zM158 353h166q84 1 116.5 31.5
t32.5 113.5q0 84 -32.5 114t-116.5 30q-86 0 -166 -2v-287z" />
    <glyph glyph-name="rcaron" unicode="&#x159;" horiz-adv-x="394" 
d="M210 566l-140 123l23 28l129 -92h8l130 92l24 -28l-142 -123h-32zM133 484l7 -81q118 94 214 94h21l-8 -60h-24q-42 0 -85 -17.5t-110 -57.5v-362h-64v484h49z" />
    <glyph glyph-name="Sacute" unicode="&#x15a;" horiz-adv-x="559" 
d="M422 859l-178 -128l-24 30l164 146zM277 701q111 0 199 -16l-5 -48q-118 6 -191 6q-49 0 -72 -2.5t-45.5 -14.5t-30 -37t-7.5 -69q0 -62 21.5 -89.5t73.5 -37.5l144 -30q77 -15 108.5 -59.5t31.5 -129.5q0 -60 -13 -97t-43 -56t-68 -25.5t-100 -6.5q-114 0 -210 15l4 49
q124 -6 208 -6q91 1 123 25t32 103q0 65 -21.5 92t-74.5 37l-147 31q-72 15 -103.5 59.5t-31.5 127.5q0 60 12 96.5t42 54.5t66 23.5t98 4.5z" />
    <glyph glyph-name="sacute" unicode="&#x15b;" horiz-adv-x="505" 
d="M399 678l-178 -128l-24 30l164 146zM239 497q111 -2 198 -15l-5 -46q-122 6 -185 6q-80 1 -105.5 -11.5t-25.5 -65.5q0 -41 17 -57t57 -24l149 -28q58 -12 85 -41.5t27 -88.5q0 -85 -45.5 -111t-156.5 -26q-98 0 -184 13l4 47q80 -7 170 -6q89 1 119.5 16.5t30.5 66.5
q0 39 -19 55t-60 24l-148 28q-57 11 -82.5 41.5t-25.5 90.5q0 82 41 107.5t144 24.5z" />
    <glyph glyph-name="Scedilla" unicode="&#x15e;" horiz-adv-x="559" 
d="M277 701q111 0 199 -16l-5 -48q-118 6 -191 6q-49 0 -72 -2.5t-45.5 -14.5t-30 -37t-7.5 -69q0 -62 21.5 -89.5t73.5 -37.5l144 -30q77 -15 108.5 -59.5t31.5 -129.5q0 -60 -13 -97t-43 -56t-68 -25.5t-100 -6.5q-114 0 -210 15l4 49q124 -6 208 -6q91 1 123 25t32 103
q0 65 -21.5 92t-74.5 37l-147 31q-72 15 -103.5 59.5t-31.5 127.5q0 60 12 96.5t42 54.5t66 23.5t98 4.5zM238 -87l7 31q52 5 76 -9.5t23 -55.5q-2 -60 -45.5 -92.5t-111.5 -23.5l10 35q44 -1 71.5 21t28.5 56q0 21 -12.5 29t-46.5 9z" />
    <glyph glyph-name="scedilla" unicode="&#x15f;" horiz-adv-x="505" 
d="M239 497q111 -2 198 -15l-5 -46q-122 6 -185 6q-80 1 -105.5 -11.5t-25.5 -65.5q0 -41 17 -57t57 -24l149 -28q58 -12 85 -41.5t27 -88.5q0 -85 -45.5 -111t-156.5 -26q-98 0 -184 13l4 47q80 -7 170 -6q89 1 119.5 16.5t30.5 66.5q0 39 -19 55t-60 24l-148 28
q-57 11 -82.5 41.5t-25.5 90.5q0 82 41 107.5t144 24.5zM204 -87l7 31q52 5 76 -9.5t23 -55.5q-2 -60 -45.5 -92.5t-111.5 -23.5l10 35q44 -1 71.5 21t28.5 56q0 21 -12.5 29t-46.5 9z" />
    <glyph glyph-name="Scaron" unicode="&#x160;" horiz-adv-x="559" 
d="M438 870l-142 -123h-32l-140 123l23 28l129 -92h8l130 92zM277 701q111 0 199 -16l-5 -48q-118 6 -191 6q-49 0 -72 -2.5t-45.5 -14.5t-30 -37t-7.5 -69q0 -62 21.5 -89.5t73.5 -37.5l144 -30q77 -15 108.5 -59.5t31.5 -129.5q0 -60 -13 -97t-43 -56t-68 -25.5t-100 -6.5
q-114 0 -210 15l4 49q124 -6 208 -6q91 1 123 25t32 103q0 65 -21.5 92t-74.5 37l-147 31q-72 15 -103.5 59.5t-31.5 127.5q0 60 12 96.5t42 54.5t66 23.5t98 4.5z" />
    <glyph glyph-name="scaron" unicode="&#x161;" horiz-adv-x="505" 
d="M415 689l-142 -123h-32l-140 123l23 28l129 -92h8l130 92zM239 497q111 -2 198 -15l-5 -46q-122 6 -185 6q-80 1 -105.5 -11.5t-25.5 -65.5q0 -41 17 -57t57 -24l149 -28q58 -12 85 -41.5t27 -88.5q0 -85 -45.5 -111t-156.5 -26q-98 0 -184 13l4 47q80 -7 170 -6
q89 1 119.5 16.5t30.5 66.5q0 39 -19 55t-60 24l-148 28q-57 11 -82.5 41.5t-25.5 90.5q0 82 41 107.5t144 24.5z" />
    <glyph glyph-name="Tcedilla" unicode="&#x162;" horiz-adv-x="575" 
d="M550 690v-58h-230v-632h-66v632h-229v58h525zM241 -76l7 31q52 5 76 -9.5t23 -55.5q-2 -60 -45.5 -92.5t-111.5 -23.5l10 35q44 -1 71.5 21t28.5 56q0 21 -12.5 29t-46.5 9z" />
    <glyph glyph-name="tcedilla" unicode="&#x163;" horiz-adv-x="369" 
d="M180 434v-314q0 -37 17 -53.5t54 -16.5h79l7 -48q-48 -10 -101 -10q-119 0 -119 121v321h-88v45l88 5v147h63v-147h163v-50h-163zM165 -84l7 31q52 5 76 -9.5t23 -55.5q-2 -60 -45.5 -92.5t-111.5 -23.5l10 35q44 -1 71.5 21t28.5 56q0 21 -12.5 29t-46.5 9z" />
    <glyph glyph-name="Tcaron" unicode="&#x164;" horiz-adv-x="575" 
d="M272 747l-140 123l23 28l129 -92h8l130 92l24 -28l-142 -123h-32zM550 632h-230v-632h-66v632h-229v58h525v-58z" />
    <glyph glyph-name="tcaron" unicode="&#x165;" horiz-adv-x="369" 
d="M279 669q-18 0 -16 19v53q1 21 23 21h18q22 0 22 -21v-56q-2 -69 -26 -127l-28 8q7 50 7 103zM180 434v-314q0 -37 17 -53.5t54 -16.5h79l7 -48q-48 -10 -101 -10q-119 0 -119 121v321h-88v45l88 5v147h63v-147h163v-50h-163z" />
    <glyph glyph-name="Tbar" unicode="&#x166;" horiz-adv-x="575" 
d="M320 632v-210h143v-39h-143v-383h-66v383h-146v39h146v210h-229v58h525v-58h-230z" />
    <glyph glyph-name="tbar" unicode="&#x167;" horiz-adv-x="369" 
d="M180 434v-104h140v-38h-140v-172q0 -37 17 -53.5t54 -16.5h79l7 -48q-48 -10 -101 -10q-119 0 -119 121v179h-68v38h68v104h-88v45l88 5v147h63v-147h163v-50h-163z" />
    <glyph glyph-name="Umacron" unicode="&#x16a;" horiz-adv-x="667" 
d="M471 793h-272v49h272v-49zM579 690v-429q0 -149 -55 -211t-188 -62q-136 0 -192 62t-56 211v429h65v-429q0 -119 40.5 -167t140.5 -48q99 0 139 48t40 167v429h66z" />
    <glyph glyph-name="umacron" unicode="&#x16b;" 
d="M421 614h-272v49h272v-49zM482 484v-484h-50l-6 75q-112 -87 -214 -87q-131 0 -131 132v364h64v-347q-1 -50 20 -72t68 -22q41 0 82.5 18.5t103.5 60.5v362h63z" />
    <glyph glyph-name="Uring" unicode="&#x16e;" horiz-adv-x="667" 
d="M335 919q42 0 72.5 -30t30.5 -72q0 -43 -30 -72t-73 -29t-73 29t-30 72t30 72.5t73 29.5zM335 884q-28 0 -46.5 -19t-18.5 -48q0 -30 18.5 -48t46.5 -18t46.5 18.5t18.5 47.5t-19 48t-46 19zM579 690v-429q0 -149 -55 -211t-188 -62q-136 0 -192 62t-56 211v429h65v-429
q0 -119 40.5 -167t140.5 -48q99 0 139 48t40 167v429h66z" />
    <glyph glyph-name="uring" unicode="&#x16f;" 
d="M285 538q-43 0 -73 29t-30 72t30 72.5t73 29.5q42 0 72.5 -30t30.5 -72q0 -43 -30 -72t-73 -29zM285 706q-28 0 -46.5 -19t-18.5 -48q0 -30 18.5 -48t46.5 -18t46.5 18.5t18.5 47.5t-19 48t-46 19zM482 484v-484h-50l-6 75q-112 -87 -214 -87q-131 0 -131 132v364h64
v-347q-1 -50 20 -72t68 -22q41 0 82.5 18.5t103.5 60.5v362h63z" />
    <glyph glyph-name="Uhungarumlaut" unicode="&#x170;" horiz-adv-x="667" 
d="M373 883l-128 -156l-30 21l110 168zM529 883l-129 -156l-29 21l110 168zM579 690v-429q0 -149 -55 -211t-188 -62q-136 0 -192 62t-56 211v429h65v-429q0 -119 40.5 -167t140.5 -48q99 0 139 48t40 167v429h66z" />
    <glyph glyph-name="uhungarumlaut" unicode="&#x171;" 
d="M195 549l-30 21l110 168l48 -33zM321 570l110 168l48 -33l-129 -156zM482 484v-484h-50l-6 75q-112 -87 -214 -87q-131 0 -131 132v364h64v-347q-1 -50 20 -72t68 -22q41 0 82.5 18.5t103.5 60.5v362h63z" />
    <glyph glyph-name="Uogonek" unicode="&#x172;" horiz-adv-x="667" 
d="M579 690v-429q0 -139 -47 -202t-160 -70q-55 -61 -77 -116q-16 -40 8.5 -53t74.5 5l8 -28q-87 -33 -122.5 -7.5t-14.5 81.5q20 59 88 117h-1q-136 0 -192 62t-56 211v429h65v-429q0 -119 40.5 -167t140.5 -48q99 0 139 48t40 167v429h66z" />
    <glyph glyph-name="uogonek" unicode="&#x173;" 
d="M488 -166l8 -28q-87 -33 -122.5 -7.5t-14.5 81.5q20 61 92 120h-19l-6 75q-112 -87 -214 -87q-131 0 -131 132v364h64v-347q-1 -50 20 -72t68 -22q41 0 82.5 18.5t103.5 60.5v362h63v-484h2q-58 -64 -79 -118q-16 -40 8.5 -53t74.5 5z" />
    <glyph glyph-name="Wcircumflex" unicode="&#x174;" horiz-adv-x="941" 
d="M628 766l-23 -28l-130 99h-8l-129 -99l-23 28l133 124h47zM910 690l-155 -670q-7 -20 -27 -20h-80q-22 0 -27 21l-122 541l-17 77h-22q-3 -11 -8.5 -37t-8.5 -40l-121 -541q-5 -21 -28 -21h-80q-22 0 -27 20l-155 670h69l127 -559l15 -80h25q8 43 16 79l123 537
q3 23 27 23h75q22 0 27 -23l122 -537q9 -37 15 -79h26l15 78l127 561h69z" />
    <glyph glyph-name="wcircumflex" unicode="&#x175;" horiz-adv-x="820" 
d="M566 586l-23 -28l-130 99h-8l-129 -99l-23 28l133 124h47zM792 484l-151 -465q-6 -19 -26 -19h-59q-21 0 -26 21l-96 347q-12 50 -19 75h-11q-3 -12 -9.5 -37t-9.5 -38l-95 -347q-5 -21 -27 -21h-58q-21 0 -26 19l-151 465h66l114 -371q3 -9 19 -70h13q3 13 9.5 36.5
t9.5 33.5l97 351q5 20 25 20h58q21 0 26 -21l96 -350q12 -46 19 -70h13q15 58 18 70l115 371h66z" />
    <glyph glyph-name="Ycircumflex" unicode="&#x176;" horiz-adv-x="559" 
d="M145 739l-23 28l133 124h47l133 -124l-23 -28l-130 99h-8zM312 248v-248h-65v248l-232 442h70l158 -306q1 -2 34 -74h6q13 31 33 73l158 307h69z" />
    <glyph glyph-name="ycircumflex" unicode="&#x177;" horiz-adv-x="521" 
d="M129 558l-23 28l133 124h47l133 -124l-23 -28l-130 99h-8zM498 484l-204 -518q-29 -73 -73.5 -119t-118.5 -54l-8 41q57 19 89 53t52 86l12 27h-17q-18 0 -24 17l-184 467h68l143 -378q12 -32 20 -56h14l21 57l142 377h68z" />
    <glyph glyph-name="Ydieresis" unicode="&#x178;" horiz-adv-x="559" 
d="M201 771h-22q-18 0 -18 19v55q0 20 18 20h22q19 0 19 -20v-55q0 -19 -19 -19zM378 771h-21q-19 0 -19 19v55q0 20 19 20h21q19 0 19 -20v-55q0 -19 -19 -19zM312 248v-248h-65v248l-232 442h70l158 -306q1 -2 34 -74h6q13 31 33 73l158 307h69z" />
    <glyph glyph-name="Zacute" unicode="&#x179;" horiz-adv-x="563" 
d="M248 731l-24 30l164 146l38 -48zM515 56v-56h-465v56l386 578h-382v56h455v-56l-386 -578h392z" />
    <glyph glyph-name="zacute" unicode="&#x17a;" horiz-adv-x="506" 
d="M217 550l-24 30l164 146l38 -48zM456 53v-53h-406v53l330 379h-326v52h399v-52h-1l-329 -379h333z" />
    <glyph glyph-name="Zdotaccent" unicode="&#x17b;" horiz-adv-x="563" 
d="M294 765h-21q-21 0 -21 20v59q0 21 21 21h21q21 0 21 -21v-59q0 -20 -21 -20zM515 56v-56h-465v56l386 578h-382v56h455v-56l-386 -578h392z" />
    <glyph glyph-name="zdotaccent" unicode="&#x17c;" horiz-adv-x="506" 
d="M262 584h-21q-21 0 -21 20v59q0 21 21 21h21q21 0 21 -21v-59q0 -20 -21 -20zM456 53v-53h-406v53l330 379h-326v52h399v-52h-1l-329 -379h333z" />
    <glyph glyph-name="Zcaron" unicode="&#x17d;" horiz-adv-x="563" 
d="M268 747l-140 123l23 28l129 -92h8l130 92l24 -28l-142 -123h-32zM515 56v-56h-465v56l386 578h-382v56h455v-56l-386 -578h392z" />
    <glyph glyph-name="zcaron" unicode="&#x17e;" horiz-adv-x="506" 
d="M237 566l-140 123l23 28l129 -92h8l130 92l24 -28l-142 -123h-32zM456 53v-53h-406v53l330 379h-326v52h399v-52h-1l-329 -379h333z" />
    <glyph glyph-name="florin" unicode="&#x192;" horiz-adv-x="428" 
d="M406 646h-71q-51 0 -73.5 -19.5t-26.5 -71.5l-15 -162h151l-5 -51h-151l-33 -343q-6 -70 -39 -104.5t-102 -34.5q-62 0 -93 6l7 47h69q48 0 69 20.5t26 71.5l32 337h-97l3 47l99 4l16 168q12 139 148 139q56 0 93 -6z" />
    <glyph glyph-name="Scommaaccent" unicode="&#x218;" horiz-adv-x="559" 
d="M277 701q111 0 199 -16l-5 -48q-118 6 -191 6q-49 0 -72 -2.5t-45.5 -14.5t-30 -37t-7.5 -69q0 -62 21.5 -89.5t73.5 -37.5l144 -30q77 -15 108.5 -59.5t31.5 -129.5q0 -60 -13 -97t-43 -56t-68 -25.5t-100 -6.5q-114 0 -210 15l4 49q124 -6 208 -6q91 1 123 25t32 103
q0 65 -21.5 92t-74.5 37l-147 31q-72 15 -103.5 59.5t-31.5 127.5q0 60 12 96.5t42 54.5t66 23.5t98 4.5zM279 -61h18q22 0 22 -21v-56q-2 -69 -26 -127l-28 8q7 50 7 103q-18 0 -16 19v53q1 21 23 21z" />
    <glyph glyph-name="scommaaccent" unicode="&#x219;" horiz-adv-x="505" 
d="M239 497q111 -2 198 -15l-5 -46q-122 6 -185 6q-80 1 -105.5 -11.5t-25.5 -65.5q0 -41 17 -57t57 -24l149 -28q58 -12 85 -41.5t27 -88.5q0 -85 -45.5 -111t-156.5 -26q-98 0 -184 13l4 47q80 -7 170 -6q89 1 119.5 16.5t30.5 66.5q0 39 -19 55t-60 24l-148 28
q-57 11 -82.5 41.5t-25.5 90.5q0 82 41 107.5t144 24.5zM252 -61h18q22 0 22 -21v-56q-2 -69 -26 -127l-28 8q7 50 7 103q-18 0 -16 19v53q1 21 23 21z" />
    <glyph glyph-name="uni021A" unicode="&#x21a;" horiz-adv-x="575" 
d="M550 632h-230v-632h-66v632h-229v58h525v-58zM268 -61h18q22 0 22 -21v-56q-2 -69 -26 -127l-28 8q7 50 7 103q-18 0 -16 19v53q1 21 23 21z" />
    <glyph glyph-name="uni021B" unicode="&#x21b;" horiz-adv-x="369" 
d="M180 434v-314q0 -37 17 -53.5t54 -16.5h79l7 -48q-48 -10 -101 -10q-119 0 -119 121v321h-88v45l88 5v147h63v-147h163v-50h-163zM221 -61h18q22 0 22 -21v-56q-2 -69 -26 -127l-28 8q7 50 7 103q-18 0 -16 19v53q1 21 23 21z" />
    <glyph glyph-name="circumflex" unicode="&#x2c6;" horiz-adv-x="410" 
d="M362 586l-23 -28l-130 99h-8l-129 -99l-23 28l133 124h47z" />
    <glyph glyph-name="caron" unicode="&#x2c7;" horiz-adv-x="410" 
d="M363 689l-142 -123h-32l-140 123l23 28l129 -92h8l130 92z" />
    <glyph glyph-name="breve" unicode="&#x2d8;" horiz-adv-x="368" 
d="M295 693l35 -6q2 -57 -37 -91t-108 -34t-108.5 34.5t-36.5 90.5l34 6q0 -39 29.5 -60.5t82.5 -21.5q51 0 80 21.5t29 60.5z" />
    <glyph glyph-name="dotaccent" unicode="&#x2d9;" horiz-adv-x="215" 
d="M97 682h21q21 0 21 -21v-59q0 -20 -21 -20h-21q-21 0 -21 20v59q0 21 21 21z" />
    <glyph glyph-name="ring" unicode="&#x2da;" horiz-adv-x="297" 
d="M149 739q42 0 72.5 -30t30.5 -72q0 -43 -30 -72t-73 -29t-73 29t-30 72t30 72.5t73 29.5zM149 704q-28 0 -46.5 -19t-18.5 -48q0 -30 18.5 -48t46.5 -18t46.5 18.5t18.5 47.5t-19 48t-46 19z" />
    <glyph glyph-name="ogonek" unicode="&#x2db;" horiz-adv-x="252" 
d="M145 2l31 -2q-58 -64 -79 -118q-16 -40 8.5 -53t74.5 5l8 -28q-87 -33 -122.5 -7.5t-14.5 81.5q20 61 94 122z" />
    <glyph glyph-name="tilde" unicode="&#x2dc;" horiz-adv-x="413" 
d="M130 695q31 -3 74.5 -30t71.5 -30q29 -3 40.5 10t11.5 45h32q4 -51 -17.5 -78t-59.5 -24q-37 3 -81.5 30.5t-65.5 30.5q-28 3 -39.5 -11.5t-11.5 -47.5h-32q-4 53 17.5 80.5t59.5 24.5z" />
    <glyph glyph-name="hungarumlaut" unicode="&#x2dd;" horiz-adv-x="439" 
d="M217 694l-128 -156l-30 21l110 168zM373 694l-129 -156l-29 21l110 168z" />
    <glyph glyph-name="Delta" unicode="&#x394;" horiz-adv-x="622" 
d="M593 32v-32h-564v32l248 658h68zM311 625l-24 -75l-183 -496h413l-182 497q-5 14 -13.5 40.5t-10.5 33.5z" />
    <glyph glyph-name="Omega" unicode="&#x3a9;" horiz-adv-x="718" 
d="M359 702q145 0 211 -83t66 -253q0 -114 -35 -185t-116 -127q46 4 65 4h115v-58h-242l-1 55q81 55 113.5 124.5t33.5 179.5q-1 149 -50.5 217t-159.5 68q-113 0 -161 -67.5t-48 -219.5q0 -114 33 -178.5t113 -123.5v-55h-243v58h115q36 0 65 -4q-81 57 -116 129t-35 184
q0 170 65.5 252.5t211.5 82.5z" />
    <glyph glyph-name="mu" unicode="&#x3bc;" horiz-adv-x="588" 
d="M494 484v-484h-49l-7 80q-110 -92 -205 -92q-56 0 -91 26q5 -29 5 -71v-147h-56v688h63v-347q0 -89 93 -89q42 0 82.5 17t100.5 56v363h64z" />
    <glyph glyph-name="pi" unicode="&#x3c0;" horiz-adv-x="642" 
d="M613 433h-100v-433h-63v433h-258v-433h-63v433h-100v51h584v-51z" />
    <glyph glyph-name="uni0401" unicode="&#x401;" horiz-adv-x="557" 
d="M232 793h-23q-18 0 -18 20v55q0 19 18 19h23q18 0 18 -19v-55q0 -20 -18 -20zM409 793h-22q-19 0 -19 20v55q0 19 19 19h22q19 0 19 -19v-55q0 -20 -19 -20zM500 55l3 -50q-94 -6 -295 -6q-55 0 -88 31t-33 83v464q0 52 33 83t88 31q201 0 295 -6l-3 -50h-280
q-68 0 -68 -73v-169h308v-53h-308v-213q0 -72 68 -72h280z" />
    <glyph glyph-name="uni0402" unicode="&#x402;" horiz-adv-x="751" 
d="M533 439q82 0 125.5 -46.5t43.5 -162.5q0 -242 -255 -232l-6 47q101 7 148 44t47 135q0 93 -28.5 125t-94.5 32q-52 0 -95 -14.5t-98 -47.5v-319h-66v632h-229v58h525v-58h-230v-260q100 67 213 67z" />
    <glyph glyph-name="uni0403" unicode="&#x403;" horiz-adv-x="516" 
d="M439 859l-178 -128l-24 30l164 146zM208 691q193 0 285 -6l-3 -50h-262q-73 0 -73 -75v-560h-65v571q0 52 33.5 86t84.5 34z" />
    <glyph glyph-name="uni0404" unicode="&#x404;" horiz-adv-x="574" 
d="M524 59l8 -50q-77 -21 -192 -21q-151 0 -212 80t-61 277t61 277t212 80q110 0 185 -19l-8 -50q-84 10 -178 10q-106 0 -152 -55.5t-52 -193.5l303 -1v-51l-304 -1q1 -165 46 -229.5t159 -64.5q113 0 185 12z" />
    <glyph glyph-name="uni0405" unicode="&#x405;" horiz-adv-x="559" 
d="M277 701q111 0 199 -16l-5 -48q-118 6 -191 6q-49 0 -72 -2.5t-45.5 -14.5t-30 -37t-7.5 -69q0 -62 21.5 -89.5t73.5 -37.5l144 -30q77 -15 108.5 -59.5t31.5 -129.5q0 -60 -13 -97t-43 -56t-68 -25.5t-100 -6.5q-114 0 -210 15l4 49q124 -6 208 -6q91 1 123 25t32 103
q0 65 -21.5 92t-74.5 37l-147 31q-73 15 -104 59.5t-31 127.5q0 60 12 96.5t42 54.5t66 23.5t98 4.5z" />
    <glyph glyph-name="uni0406" unicode="&#x406;" horiz-adv-x="251" 
d="M158 0h-65v690h65v-690z" />
    <glyph glyph-name="uni0407" unicode="&#x407;" horiz-adv-x="251" 
d="M25 864h22q19 0 19 -19v-55q0 -20 -19 -20h-22q-18 0 -18 20v55q0 19 18 19zM203 864h21q19 0 19 -19v-55q0 -20 -19 -20h-21q-19 0 -19 20v55q0 19 19 19zM158 0h-65v690h65v-690z" />
    <glyph glyph-name="uni0408" unicode="&#x408;" horiz-adv-x="334" 
d="M245 690v-556q0 -142 -130 -142q-40 0 -82 10l7 46h53q86 0 86 84v558h66z" />
    <glyph glyph-name="uni0409" unicode="&#x409;" horiz-adv-x="968" 
d="M541 402h157q124 0 172 -46t48 -160q0 -118 -47.5 -161t-163.5 -43q-148 0 -231 8v636h-144q-67 0 -73 -75q-19 -217 -31.5 -294.5t-45.5 -142.5q-28 -57 -64 -88t-88 -37l-7 45q58 25 98 99q32 60 44 128.5t26 236.5q3 40 5 62q9 120 130 120h215v-288zM698 50
q89 0 121 29.5t32 117.5q0 85 -31.5 117t-121.5 32h-157v-295q38 -1 157 -1z" />
    <glyph glyph-name="uni040A" unicode="&#x40a;" horiz-adv-x="980" 
d="M553 400h157q124 0 172 -45.5t48 -158.5q0 -118 -47.5 -161t-164.5 -43q-147 0 -230 8v345h-330v-345h-65v690h65v-290h330v290h65v-290zM710 50q89 0 121 29.5t32 116.5q0 84 -31.5 116.5t-121.5 32.5h-157v-294q38 -1 157 -1z" />
    <glyph glyph-name="uni040B" unicode="&#x40b;" horiz-adv-x="781" 
d="M567 439q153 0 153 -152v-287h-65v274q0 57 -25 81.5t-84 24.5q-60 0 -110 -14t-116 -49v-317h-66v632h-229v58h525v-58h-230v-261q121 68 247 68z" />
    <glyph glyph-name="uni040C" unicode="&#x40c;" horiz-adv-x="590" 
d="M263 731l-24 30l164 146l38 -48zM307 361v-2q19 -2 36.5 -8t31.5 -13.5t28 -23t24.5 -28t23 -36t20.5 -39.5t20.5 -47t20 -49.5t21.5 -56t22 -58.5h-70q-63 169 -83 209q-49 97 -116 117q-22 7 -47 7h-86q5 -45 5 -78v-255h-65v690h65v-223q0 -37 -5 -80h85q56 0 101 46
t65.5 91t58.5 148q5 12 7 18h67q-60 -162 -88 -212q-59 -109 -142 -117z" />
    <glyph glyph-name="uni040D" unicode="&#x40d;" horiz-adv-x="686" 
d="M391 761l-24 -30l-178 128l38 48zM594 0h-64v531q0 37 3 76h-3q-19 -44 -36 -70l-334 -537h-67v690h64v-527q0 -43 -4 -78h4q22 44 39 72l331 533h67v-690z" />
    <glyph glyph-name="uni040E" unicode="&#x40e;" horiz-adv-x="553" 
d="M278 749q-69 0 -108.5 34.5t-36.5 90.5l34 6q0 -39 29.5 -60.5t82.5 -21.5q51 0 80 21.5t29 60.5l35 -6q2 -57 -37 -91t-108 -34zM538 690l-192 -523q-14 -40 -25.5 -64.5t-29 -52t-40 -41t-50.5 -15.5q-57 -5 -114 13l8 47q36 -4 56 -5.5t39.5 3t28.5 9.5t21 22.5
t19 33.5t21 51l14 34h-40q-47 0 -62 43l-165 445h67l151 -414q7 -18 25 -18h43l157 432h68z" />
    <glyph glyph-name="uni040F" unicode="&#x40f;" horiz-adv-x="671" 
d="M579 690v-690h-215l-4 -151h-45l-5 151h-217v690h65v-636h355v636h66z" />
    <glyph glyph-name="uni0410" unicode="&#x410;" horiz-adv-x="615" 
d="M458 228h-301l-76 -228h-68l231 671q6 19 26 19h75q20 0 26 -19l231 -671h-68zM439 285l-99 297q-2 5 -8.5 25t-9.5 31h-28q-15 -47 -19 -56l-99 -297h263z" />
    <glyph glyph-name="uni0411" unicode="&#x411;" horiz-adv-x="596" 
d="M159 385h163q124 0 171.5 -44t47.5 -154q0 -62 -13 -101t-43.5 -59.5t-69.5 -27.5t-103 -7q-132 0 -218 8h-1v690q115 5 209 5q91 0 203 -5l-5 -54h-341v-251zM322 48q89 0 121 28t32 113q0 82 -31 112.5t-122 30.5h-163l-1 -283q40 -1 164 -1z" />
    <glyph glyph-name="uni0412" unicode="&#x412;" horiz-adv-x="617" 
d="M416 360v-4q75 -7 106.5 -52.5t31.5 -131.5q0 -104 -48.5 -142t-169.5 -38q-157 0 -243 8v690q75 8 213 8q128 0 177.5 -37.5t49.5 -142.5q0 -75 -28 -113.5t-89 -44.5zM469 511q0 78 -35.5 104.5t-129.5 26.5q-110 0 -147 -1v-258h163q85 1 117 27t32 101zM328 48
q91 0 125 27t34 106q0 87 -36 118t-131 33h-163v-283q42 -1 171 -1z" />
    <glyph glyph-name="uni0413" unicode="&#x413;" horiz-adv-x="516" 
d="M208 691q193 0 286 -6l-4 -50h-262q-72 0 -72 -75v-560h-66v571q0 52 33.5 86t84.5 34z" />
    <glyph glyph-name="uni0414" unicode="&#x414;" horiz-adv-x="679" 
d="M645 54v-205h-45l-8 151h-515l-8 -151h-46v205h64q93 188 106 516q2 57 35 88.5t92 31.5h241v-636h84zM496 54v582h-165q-38 0 -56 -17.5t-19 -56.5q-8 -164 -30.5 -285t-74.5 -223h345z" />
    <glyph glyph-name="uni0415" unicode="&#x415;" horiz-adv-x="557" 
d="M500 55l3 -50q-94 -6 -295 -6q-55 0 -88 31t-33 83v464q0 52 33 83t88 31q201 0 295 -6l-3 -50h-280q-68 0 -68 -73v-169h308v-53h-308v-213q0 -72 68 -72h280z" />
    <glyph glyph-name="uni0416" unicode="&#x416;" horiz-adv-x="897" 
d="M614 361v-2q35 -3 64.5 -22t49 -39.5t44 -71.5t36 -80t38.5 -103q11 -28 16 -43h-70q-7 17 -19 50q-18 48 -27 70.5t-24.5 59t-26.5 54t-28 40.5t-33 33t-37.5 18t-46.5 8h-73q6 -41 6 -78v-255h-63v255q0 37 6 78h-80q-34 0 -62 -15.5t-46.5 -33t-41.5 -62.5t-34.5 -73
t-37.5 -97q-13 -34 -20 -52h-69q66 179 89 224q54 107 125 129q16 5 33 6v2q-32 3 -60.5 22t-48 42.5t-41 67.5t-34.5 76.5t-34 90.5q-7 20 -11 30h67q59 -154 86 -201q59 -102 141 -102h79q-6 39 -6 80v223h63v-223q0 -47 -5 -80h71q40 0 72.5 21.5t57.5 62.5t45 86.5
t44 107.5l3 9t3 7.5t3 8.5h67q-60 -161 -86 -210q-60 -111 -144 -119z" />
    <glyph glyph-name="uni0417" unicode="&#x417;" horiz-adv-x="548" 
d="M238 698q127 0 176 -37.5t49 -142.5q0 -75 -27.5 -113.5t-88.5 -44.5v-4q74 -7 105 -52.5t31 -131.5q0 -104 -47.5 -142t-167.5 -38q-138 0 -229 19l7 48q129 -12 212 -12q90 0 124 27t34 107q0 87 -36 118.5t-130 31.5h-110v53h110q83 0 115 26.5t32 100.5
q0 79 -34.5 105.5t-127.5 26.5q-17 0 -174 -9l-7 49q83 15 184 15z" />
    <glyph glyph-name="uni0418" unicode="&#x418;" horiz-adv-x="686" 
d="M594 0h-64v531q0 37 3 76h-3q-24 -49 -36 -70l-335 -537h-66v690h63v-527q0 -39 -3 -78h3q13 26 39 72l332 533h67v-690z" />
    <glyph glyph-name="uni0419" unicode="&#x419;" horiz-adv-x="686" 
d="M439 881h51q2 -57 -37.5 -94.5t-106.5 -37.5q-69 0 -109 37.5t-37 94.5h50q0 -45 25.5 -70t70.5 -25q43 0 68 25t25 70zM594 0h-64v531q0 37 3 76h-3q-19 -44 -36 -70l-334 -537h-67v690h64v-527q0 -43 -4 -78h4q22 44 39 72l331 533h67v-690z" />
    <glyph glyph-name="uni041A" unicode="&#x41a;" horiz-adv-x="590" 
d="M307 361v-2q55 -5 98.5 -51t65 -93.5t63.5 -159.5q14 -36 21 -55h-69q-63 168 -82 206q-49 98 -115 119q-23 8 -50 8h-87q6 -41 6 -78v-255h-65v690h65v-223q0 -41 -6 -80h86q29 0 53.5 9.5t45 30.5t36 42t33 58.5t28 64.5t28.5 74l9 24h66q-60 -161 -86 -210
q-60 -111 -144 -119z" />
    <glyph glyph-name="uni041B" unicode="&#x41b;" horiz-adv-x="644" 
d="M552 690v-690h-66v636h-158q-72 0 -78 -75q-19 -216 -31.5 -294.5t-46.5 -142.5q-55 -115 -154 -125l-6 51q63 24 99 93q32 63 44.5 137.5t30.5 291.5q11 118 126 118h240z" />
    <glyph glyph-name="uni041C" unicode="&#x41c;" horiz-adv-x="869" 
d="M654 690h78q29 0 29 -29l29 -661h-65l-27 635h-22l-179 -541q-7 -22 -30 -22h-66q-23 0 -30 22l-180 541h-21l-26 -635h-65l28 661q0 29 29 29h79q21 0 29 -23l151 -450q16 -50 28 -94h22q6 22 29 95l151 449q6 23 29 23z" />
    <glyph glyph-name="uni041D" unicode="&#x41d;" horiz-adv-x="664" 
d="M571 690v-690h-66v341h-347v-341h-65v690h65v-293h347v293h66z" />
    <glyph glyph-name="uni041E" unicode="&#x41e;" horiz-adv-x="666" 
d="M333 702q148 0 207 -78.5t59 -278.5t-59 -278.5t-207 -78.5t-207 78.5t-59 278.5t59 278.5t207 78.5zM333 644q-111 0 -154.5 -65.5t-43.5 -233.5t43.5 -233.5t154.5 -65.5t154 65.5t43 233.5t-43 233.5t-154 65.5z" />
    <glyph glyph-name="uni041F" unicode="&#x41f;" horiz-adv-x="666" 
d="M574 690v-690h-66v636h-350v-636h-65v690h481z" />
    <glyph glyph-name="uni0420" unicode="&#x420;" horiz-adv-x="587" 
d="M324 698q121 0 167.5 -44.5t46.5 -166.5t-45.5 -166.5t-161.5 -44.5q-86 0 -172 8v-284h-66v690q83 8 231 8zM159 333h164q84 1 116 32.5t32 121.5q0 91 -32 123t-116 32q-124 0 -164 -1v-308z" />
    <glyph glyph-name="uni0421" unicode="&#x421;" 
d="M331 702q109 0 184 -19l-8 -49q-76 9 -176 9q-110 0 -153 -65t-43 -233t43 -233t153 -65q114 0 190 11l8 -49q-78 -21 -198 -21q-146 0 -205 80t-59 277t59 277t205 80z" />
    <glyph glyph-name="uni0422" unicode="&#x422;" horiz-adv-x="575" 
d="M550 632h-230v-632h-66v632h-229v58h525v-58z" />
    <glyph glyph-name="uni0423" unicode="&#x423;" horiz-adv-x="553" 
d="M538 690l-192 -523q-11 -31 -19.5 -51.5t-22 -45t-27.5 -39t-33 -25.5t-42 -12q-58 -5 -115 13l8 47q36 -4 56 -5.5t39.5 3t28.5 9.5t21.5 22.5t19.5 33.5t21 51l13 34h-41q-45 0 -62 43l-164 445h67l150 -414q7 -18 26 -18h43l158 432h67z" />
    <glyph glyph-name="uni0424" unicode="&#x424;" horiz-adv-x="821" 
d="M762 353q0 -157 -71.5 -223t-246.5 -71v-100h-66v100q-176 5 -247.5 70.5t-71.5 223.5q0 160 71.5 226.5t247.5 71.5v99h65l1 -99q175 -5 246.5 -71.5t71.5 -226.5zM127 353q0 -132 55 -183.5t198 -55.5v481q-143 -4 -198 -55.5t-55 -186.5zM441 595v-481q143 5 198 56
t56 183q-1 134 -56 185.5t-198 56.5z" />
    <glyph glyph-name="uni0425" unicode="&#x425;" horiz-adv-x="608" 
d="M317 334h-27l-187 -334h-72l203 358l-190 332h72l172 -305h31l172 305h73l-191 -332l204 -358h-73z" />
    <glyph glyph-name="uni0426" unicode="&#x426;" horiz-adv-x="684" 
d="M649 54v-205h-45l-8 151h-503v690h65v-636h342v636h66v-636h83z" />
    <glyph glyph-name="uni0427" unicode="&#x427;" horiz-adv-x="618" 
d="M526 690v-690h-66v328q-119 -71 -248 -71q-148 0 -148 152v281h65v-268q0 -56 25 -81t80 -25q60 0 110.5 14t115.5 50v310h66z" />
    <glyph glyph-name="uni0428" unicode="&#x428;" horiz-adv-x="919" 
d="M827 690v-690h-734v690h64v-636h271v636h64v-636h270v636h65z" />
    <glyph glyph-name="uni0429" unicode="&#x429;" horiz-adv-x="936" 
d="M902 54v-205h-45l-8 151h-756v690h64v-636h267v636h64v-636h267v636h64v-636h83z" />
    <glyph glyph-name="uni042A" unicode="&#x42a;" horiz-adv-x="746" 
d="M315 402h161q124 0 172 -46t48 -160q0 -118 -47.5 -161t-163.5 -43q-151 0 -236 8v632h-224v58h290v-288zM476 50q89 0 121 29.5t32 116.5q0 85 -31.5 117.5t-121.5 32.5h-161v-295q39 -1 161 -1z" />
    <glyph glyph-name="uni042B" unicode="&#x42b;" horiz-adv-x="833" 
d="M158 402h163q124 0 172 -46t48 -160q0 -118 -47.5 -161t-163.5 -43q-151 0 -236 8h-1v690h65v-288zM740 690v-690h-65v690h65zM321 50q89 0 121 29.5t32 116.5q0 85 -31.5 117.5t-121.5 32.5h-163v-295q40 -1 163 -1z" />
    <glyph glyph-name="uni042C" unicode="&#x42c;" horiz-adv-x="591" 
d="M158 402h163q124 0 172 -46t48 -160q0 -118 -47.5 -161t-163.5 -43q-151 0 -236 8h-1v690h65v-288zM321 50q89 0 121 29.5t32 116.5q0 85 -31.5 117.5t-121.5 32.5h-163v-295q40 -1 163 -1z" />
    <glyph glyph-name="uni042D" unicode="&#x42d;" horiz-adv-x="574" 
d="M235 702q151 0 212 -80t61 -277t-61 -277t-212 -80q-115 0 -193 21l9 50q71 -12 184 -12q114 0 159 64.5t46 229.5l-304 1v51l303 1q-6 138 -52 193.5t-152 55.5q-94 0 -177 -10l-9 50q76 19 186 19z" />
    <glyph glyph-name="uni042E" unicode="&#x42e;" horiz-adv-x="915" 
d="M581 702q148 0 207.5 -78.5t59.5 -278.5t-59.5 -278.5t-207.5 -78.5q-139 0 -196 76t-58 268h-168v-332h-65v690h65v-304h169q4 175 61.5 245.5t191.5 70.5zM581 46q111 0 154 65.5t44 233.5q-1 168 -44 233.5t-154 65.5q-106 0 -147.5 -65.5t-41.5 -233.5t41.5 -233.5
t147.5 -65.5z" />
    <glyph glyph-name="uni042F" unicode="&#x42f;" horiz-adv-x="609" 
d="M290 698q145 0 226 -8v-690h-65v289q-80 -2 -170 -2q-73 0 -99 -79l-65 -208h-70l68 211q25 80 88 96l-1 6q-63 9 -93.5 57.5t-30.5 125.5q0 110 49.5 156t162.5 46zM451 344v297q-39 1 -160 1q-80 0 -113 -32t-34 -117q0 -149 138 -149h169z" />
    <glyph glyph-name="uni0430" unicode="&#x430;" horiz-adv-x="547" 
d="M311 497q78 0 116.5 -34.5t38.5 -114.5v-348h-50l-8 85q-35 -36 -92.5 -64.5t-119.5 -28.5q-64 0 -101 34t-37 97v56q0 56 33 87t94 31h217v51q0 48 -22.5 71t-80.5 23q-86 0 -215 -14l-6 47q145 22 233 22zM207 48q44 -1 98.5 21.5t96.5 60.5v118l-207 -2
q-73 -3 -73 -75v-42q0 -81 85 -81z" />
    <glyph glyph-name="uni0431" unicode="&#x431;" horiz-adv-x="569" 
d="M466 736l16 -49q-27 -18 -55 -29.5t-46.5 -16.5t-49 -11t-47.5 -11q-79 -23 -110.5 -69t-40.5 -120q-6 -32 -8 -70h2q8 22 19 38.5t31 34.5t55.5 27.5t83.5 9.5q106 0 148.5 -53.5t42.5 -182.5q0 -124 -45.5 -185t-169.5 -61q-50 0 -86.5 9.5t-59.5 30.5t-37.5 45
t-21.5 63t-9 73t-2 86q0 70 3.5 117t15 92t32 74t54.5 52t83 38q20 6 62.5 14.5t73.5 20t66 33.5zM300 415q-94 0 -126 -43.5t-32 -136.5q0 -108 34 -150t117 -42t115.5 41.5t32.5 150.5q0 103 -30.5 141.5t-110.5 38.5z" />
    <glyph glyph-name="uni0432" unicode="&#x432;" horiz-adv-x="551" 
d="M370 250v-2q66 -5 94 -36.5t28 -91.5q0 -73 -42.5 -99.5t-149.5 -26.5q-136 0 -216 6v483q71 6 189 6q114 0 158 -27t44 -102q0 -52 -25 -79t-80 -31zM271 439h-127v-166h141q73 0 101 17t28 65q0 49 -31 66.5t-112 17.5zM291 45q78 0 107.5 17.5t29.5 68.5
q0 54 -31.5 74.5t-111.5 20.5h-141v-181h147z" />
    <glyph glyph-name="uni0433" unicode="&#x433;" horiz-adv-x="454" 
d="M184 486q166 0 245 -6l-2 -46h-218q-64 0 -64 -65v-369h-63v384q0 50 26 76t76 26z" />
    <glyph glyph-name="uni0434" unicode="&#x434;" horiz-adv-x="573" 
d="M530 52v-197h-42l-7 145h-403l-6 -145h-43v197h53q67 124 80 328q6 104 113 104h193v-432h62zM407 52v382h-122q-60 0 -65 -63q-12 -200 -80 -319h267z" />
    <glyph glyph-name="uni0435" unicode="&#x435;" horiz-adv-x="535" 
d="M294 43q76 0 168 12l7 -43q-61 -24 -183 -24t-173.5 58.5t-51.5 197.5q0 140 50 196.5t167 56.5q103 0 152 -37.5t50 -113.5q2 -135 -111 -135h-242q5 -96 43.5 -132t123.5 -36zM281 442q-84 0 -118.5 -39.5t-36.5 -141.5h228q64 0 62 84q-1 51 -33 74t-102 23z" />
    <glyph glyph-name="uni0436" unicode="&#x436;" horiz-adv-x="778" 
d="M547 254v-2q25 -2 45 -10t38 -27t29 -33.5t28 -51.5t25 -57.5t28 -72.5h-65q-54 130 -74 161q-40 64 -104 67h-5h-76q4 -24 4 -52v-176h-57v176q0 22 5 52h-82q-32 0 -54.5 -10.5t-45 -45t-32.5 -56t-38 -88.5q-8 -18 -12 -28h-66q54 139 80 178q43 67 114 74v2
q-28 3 -51 16.5t-38.5 29.5t-33.5 51.5t-27.5 58.5t-29.5 74h65q18 -46 28 -68.5t27.5 -54.5t32.5 -46.5t36.5 -26t47.5 -11.5h78q-4 25 -4 57v150h57v-150q0 -38 -4 -57h73q32 0 56.5 13.5t46 47.5t34.5 61.5t36 84.5h65q-20 -51 -29.5 -74t-27.5 -58.5t-33.5 -51.5
t-38.5 -29.5t-51 -16.5z" />
    <glyph glyph-name="uni0437" unicode="&#x437;" horiz-adv-x="488" 
d="M198 492q121 0 167 -26t46 -102q0 -55 -22.5 -82t-79.5 -32v-2q63 -5 90.5 -36t27.5 -93q0 -71 -45.5 -99t-157.5 -28q-101 0 -183 13l6 49q99 -8 173 -8q81 0 111 18.5t30 67.5q0 52 -30.5 71.5t-108.5 20.5h-108v47l107 1q74 0 100.5 17.5t26.5 66.5q0 50 -31.5 66
t-119.5 16q-84 0 -137 -8l-6 48q61 14 144 14z" />
    <glyph glyph-name="uni0438" unicode="&#x438;" horiz-adv-x="585" 
d="M500 0h-58v348q0 18 2 60h-2q-10 -21 -32 -51l-273 -357h-52v484h57v-346q0 -40 -1 -62h2q19 34 33 52l272 356h52v-484z" />
    <glyph glyph-name="uni0439" unicode="&#x439;" horiz-adv-x="585" 
d="M380 700h51q2 -57 -37.5 -94.5t-106.5 -37.5q-69 0 -109 37.5t-37 94.5h50q0 -45 25.5 -70t70.5 -25q43 0 68 25t25 70zM501 0h-59v348q0 18 2 60h-2q-10 -21 -32 -51l-272 -357h-53v484h58v-346q0 -18 -2 -62h2q19 35 34 52l271 356h53v-484z" />
    <glyph glyph-name="uni043A" unicode="&#x43a;" horiz-adv-x="529" 
d="M287 253v-2q20 -2 37 -6.5t32 -15.5t26 -20t24.5 -30t21 -33.5t21 -43.5t20 -46.5t22.5 -55.5h-67q-25 60 -34.5 82t-30 59t-36 50t-40.5 24.5t-57 11.5h-82q4 -24 4 -51v-176h-63v484h63v-150q0 -32 -4 -57h79q30 0 54.5 11.5t41 26t35 46.5t28.5 54.5t29 68.5h66
q-18 -44 -26 -62.5t-24.5 -51.5t-28 -47.5t-29 -32.5t-38 -26t-44.5 -11z" />
    <glyph glyph-name="uni043B" unicode="&#x43b;" horiz-adv-x="553" 
d="M468 484v-484h-64v434h-123q-32 0 -47 -15t-19 -49q-1 -7 -4 -34t-4.5 -37.5t-4.5 -35t-5.5 -37t-6.5 -33.5t-7.5 -35t-8.5 -30.5t-11 -29.5q-36 -94 -135 -103l-7 50q36 11 55.5 28.5t30.5 44.5q6 14 12 32t10 39.5t7.5 39t6.5 43t4.5 38.5t4 38.5t3.5 30.5
q7 54 34.5 79.5t82.5 25.5h196z" />
    <glyph glyph-name="uni043C" unicode="&#x43c;" horiz-adv-x="738" 
d="M546 484h70q26 0 26 -25l22 -459h-59l-21 435h-18l-144 -364q-8 -21 -26 -21h-55q-19 0 -27 21l-143 364h-18l-20 -435h-59l22 459q0 25 26 25h70q18 0 26 -21l118 -301q14 -34 24 -69h17q19 56 24 69l118 301q7 21 27 21z" />
    <glyph glyph-name="uni043D" unicode="&#x43d;" horiz-adv-x="576" 
d="M492 484v-484h-63v233h-282v-233h-62v484h62v-201h282v201h63z" />
    <glyph glyph-name="uni043E" unicode="&#x43e;" 
d="M284 497q122 0 172 -57.5t50 -197.5t-50 -197t-172 -57t-172.5 57.5t-50.5 196.5q0 140 50.5 197.5t172.5 57.5zM284 442q-88 0 -122.5 -43t-34.5 -157t34.5 -157t122.5 -43t122 43t34 157t-34 157t-122 43z" />
    <glyph glyph-name="uni043F" unicode="&#x43f;" horiz-adv-x="571" 
d="M486 484v-484h-62v433h-277v-433h-62v484h401z" />
    <glyph glyph-name="uni0440" unicode="&#x440;" horiz-adv-x="575" 
d="M343 497q90 0 130 -62t40 -195q0 -137 -42.5 -194.5t-138.5 -57.5q-94 0 -186 51q4 -41 2 -96v-147h-63v688h52l6 -80q93 93 200 93zM319 44q71 0 100 42.5t29 154.5q0 110 -28 155t-95 45q-41 0 -81.5 -19.5t-95.5 -64.5v-277q110 -36 171 -36z" />
    <glyph glyph-name="uni0441" unicode="&#x441;" horiz-adv-x="487" 
d="M288 497q89 0 149 -22l-10 -41q-53 8 -129 8q-96 0 -133.5 -42.5t-37.5 -157.5t37.5 -157t133.5 -42q84 0 141 11l7 -44q-74 -22 -158 -22q-125 0 -176 57t-51 197t51 197.5t176 57.5z" />
    <glyph glyph-name="uni0442" unicode="&#x442;" horiz-adv-x="483" 
d="M456 432h-183v-432h-63v432h-182v52h428v-52z" />
    <glyph glyph-name="uni0443" unicode="&#x443;" horiz-adv-x="522" 
d="M499 484l-204 -518q-38 -99 -89 -138q-62 -46 -163 -31l6 43q76 -4 118 26q39 31 69 107l12 27h-16q-19 0 -25 17l-184 467h68l143 -378q12 -32 20 -56h14l21 57l142 377h68z" />
    <glyph glyph-name="uni0444" unicode="&#x444;" horiz-adv-x="711" 
d="M651 242q0 -132 -61 -190.5t-205 -63.5v-192h-59v192q-144 5 -205 64t-61 190q0 132 61 191t205 64v203h59v-203q144 -5 205 -64t61 -191zM122 242q0 -107 46 -151t160 -48v399q-114 -4 -160 -48t-46 -152zM384 442v-399q114 5 159.5 48.5t45.5 150.5t-45.5 151
t-159.5 49z" />
    <glyph glyph-name="uni0445" unicode="&#x445;" horiz-adv-x="522" 
d="M272 227h-22l-151 -227h-71l170 251l-157 233h70l137 -206h26l137 206h70l-157 -233l169 -251h-70z" />
    <glyph glyph-name="uni0446" unicode="&#x446;" horiz-adv-x="584" 
d="M541 52v-195h-43l-8 143h-405v484h63v-432h268v432h63v-432h62z" />
    <glyph glyph-name="uni0447" unicode="&#x447;" horiz-adv-x="522" 
d="M438 484l-1 -484h-63v216q-98 -42 -201 -42q-115 0 -115 105v205h63v-186q0 -38 17 -54.5t55 -16.5q89 0 181 40v217h64z" />
    <glyph glyph-name="uni0448" unicode="&#x448;" horiz-adv-x="797" 
d="M712 484v-484h-627v484h62v-432h222v432h58v-432h224v432h61z" />
    <glyph glyph-name="uni0449" unicode="&#x449;" horiz-adv-x="819" 
d="M775 52v-195h-43l-7 143h-640v484h62v-432h223v432h57v-432h225v432h61v-432h62z" />
    <glyph glyph-name="uni044A" unicode="&#x44a;" horiz-adv-x="629" 
d="M265 287h129q107 0 147.5 -32.5t40.5 -114.5q0 -84 -40.5 -115t-138.5 -31q-126 0 -200 6v433h-176v51h238v-197zM394 45q70 0 96.5 20t26.5 78q0 55 -26 75.5t-97 20.5h-129v-193q33 -1 129 -1z" />
    <glyph glyph-name="uni044B" unicode="&#x44b;" horiz-adv-x="705" 
d="M146 287h131q101 0 139 -32.5t38 -114.5q0 -84 -37.5 -115t-130.5 -31q-126 0 -200 6h-1v484h61v-197zM619 484v-484h-63v484h63zM277 45q63 0 87.5 20t24.5 78q0 55 -23.5 75.5t-88.5 20.5h-131v-193q33 -1 131 -1z" />
    <glyph glyph-name="uni044C" unicode="&#x44c;" horiz-adv-x="512" 
d="M146 287h131q107 0 147.5 -32.5t40.5 -114.5q0 -84 -40.5 -115t-138.5 -31q-126 0 -200 6h-1v484h61v-197zM277 45q70 0 96.5 20t26.5 78q0 55 -26 75.5t-97 20.5h-131v-193q33 -1 131 -1z" />
    <glyph glyph-name="uni044D" unicode="&#x44d;" horiz-adv-x="498" 
d="M206 490q128 0 179.5 -55.5t51.5 -194.5q0 -138 -51.5 -193.5t-179.5 -55.5q-96 0 -163 17l8 45q64 -7 155 -7t127.5 38t38.5 139h-250v48l249 1q-4 92 -40.5 128t-124.5 36q-80 0 -150 -7l-7 45q58 16 157 16z" />
    <glyph glyph-name="uni044E" unicode="&#x44e;" horiz-adv-x="785" 
d="M498 497q126 0 176 -55t50 -199q0 -142 -50 -196.5t-176 -54.5q-117 0 -164.5 50.5t-50.5 182.5h-135v-225h-63v484h63v-209h136q4 125 52 173.5t162 48.5zM497 46q91 0 125.5 42.5t35.5 155.5q-1 113 -35.5 155.5t-125.5 42.5q-86 0 -119 -42.5t-33 -155.5
q0 -112 33 -155t119 -43z" />
    <glyph glyph-name="uni044F" unicode="&#x44f;" horiz-adv-x="537" 
d="M243 489q135 0 209 -7v-482h-62v186h-141q-83 0 -99 -57l-38 -129h-66l45 143q16 54 95 64v3q-115 10 -115 139q0 67 39.5 103.5t132.5 36.5zM390 234v201q-35 1 -146 1q-62 0 -86 -23.5t-24 -73.5q0 -55 26 -80t92 -25h138z" />
    <glyph glyph-name="uni0451" unicode="&#x451;" horiz-adv-x="535" 
d="M202 590h-22q-19 0 -19 20v55q0 19 19 19h22q18 0 18 -19v-55q0 -20 -18 -20zM379 590h-22q-19 0 -19 20v55q0 19 19 19h22q19 0 19 -19v-55q0 -20 -19 -20zM294 43q76 0 168 12l7 -43q-61 -24 -183 -24t-173.5 58.5t-51.5 197.5q0 140 50 196.5t167 56.5
q103 0 152 -37.5t50 -113.5q2 -135 -111 -135h-242q5 -96 43.5 -132t123.5 -36zM281 442q-84 0 -118.5 -39.5t-36.5 -141.5h228q64 0 62 84q-1 51 -33 74t-102 23z" />
    <glyph glyph-name="uni0452" unicode="&#x452;" horiz-adv-x="578" 
d="M387 399q130 0 132 -133v-290q0 -110 -84 -182l-35 28q55 68 55 154v274q0 48 -22 69.5t-71 21.5q-43 0 -86 -18t-106 -58v-265h-64v500h-77v39h77v161h64l1 -161h197v-39h-197v-99q0 -46 -5 -88q121 86 221 86z" />
    <glyph glyph-name="uni0453" unicode="&#x453;" horiz-adv-x="454" 
d="M407 678l-178 -128l-24 30l164 146zM184 486q166 0 245 -6l-2 -46h-218q-64 0 -64 -65v-369h-63v384q0 50 26 76t76 26z" />
    <glyph glyph-name="uni0454" unicode="&#x454;" horiz-adv-x="499" 
d="M448 53l7 -45q-65 -17 -163 -17q-127 0 -178.5 56t-51.5 193q0 139 51 194.5t179 55.5q100 0 158 -16l-8 -45q-69 7 -150 7q-87 0 -124 -36t-41 -128l250 -1v-48h-251q2 -100 39 -138.5t127 -38.5q92 0 156 7z" />
    <glyph glyph-name="uni0455" unicode="&#x455;" horiz-adv-x="507" 
d="M241 497q110 -2 198 -15l-6 -46q-120 6 -184 6q-80 1 -106 -11.5t-26 -65.5q0 -41 17 -57t57 -24l149 -28q58 -12 85 -41.5t27 -88.5q0 -85 -45.5 -111t-155.5 -26q-99 0 -185 13l5 47q79 -7 169 -6q89 1 119.5 16.5t30.5 66.5q0 39 -19 55t-60 24l-148 28
q-57 11 -82.5 41.5t-25.5 90.5q0 82 41.5 107.5t144.5 24.5z" />
    <glyph glyph-name="uni0456" unicode="&#x456;" horiz-adv-x="240" 
d="M105 688h30q21 0 21 -21v-58q0 -21 -21 -21h-30q-20 0 -20 21v58q0 21 20 21zM152 0h-63v484h63v-484z" />
    <glyph glyph-name="uni0457" unicode="&#x457;" horiz-adv-x="240" 
d="M20 684h22q18 0 18 -19v-55q0 -20 -18 -20h-22q-19 0 -19 20v55q0 19 19 19zM197 684h22q19 0 19 -19v-55q0 -20 -19 -20h-22q-19 0 -19 20v55q0 19 19 19zM152 0h-63v484h63v-484z" />
    <glyph glyph-name="uni0458" unicode="&#x458;" horiz-adv-x="241" 
d="M106 688h29q21 0 21 -21v-58q0 -21 -21 -21h-29q-21 0 -21 21v58q0 21 21 21zM152 484v-508q0 -111 -84 -182l-34 28q55 70 55 154v508h63z" />
    <glyph glyph-name="uni0459" unicode="&#x459;" horiz-adv-x="791" 
d="M443 293h119q103 0 142.5 -33t39.5 -117q0 -91 -41.5 -120t-144.5 -29q-106 0 -176 6v436h-98q-29 0 -43 -12t-17 -40q-14 -137 -24 -191t-34 -101q-38 -84 -130 -94l-7 45q55 24 79 66q34 59 54 253q1 7 1.5 11t1 10.5t1.5 11.5q9 89 104 89h173v-191zM443 46l105 -1
q76 0 103.5 18.5t27.5 81.5q0 56 -25 78.5t-92 22.5h-119v-200z" />
    <glyph glyph-name="uni045A" unicode="&#x45a;" horiz-adv-x="801" 
d="M452 292h121q102 0 141 -32.5t39 -115.5q0 -86 -38.5 -118t-133.5 -32q-118 0 -189 6v244h-248v-244h-59v484h59v-193h248v193h60v-192zM573 45q66 0 91 20t25 80q0 56 -24.5 78t-91.5 22h-121v-199q31 -1 121 -1z" />
    <glyph glyph-name="uni045B" unicode="&#x45b;" horiz-adv-x="578" 
d="M387 399q132 0 132 -133v-266h-64v250q0 49 -21.5 70t-71.5 21q-43 0 -86 -18t-106 -58v-265h-64v500h-77v39h77v161h64l1 -161h197v-39h-197v-99q0 -46 -5 -88q121 86 221 86z" />
    <glyph glyph-name="uni045C" unicode="&#x45c;" horiz-adv-x="529" 
d="M242 550l-24 30l164 146l38 -48zM286 253v-2q23 -2 42.5 -10t34 -16t30.5 -29.5t24.5 -34t24.5 -47t23 -51.5t26 -63h-68q-53 128 -78 164q-45 62 -119 63h-82q4 -24 4 -51v-176h-63v484h63v-150q0 -32 -4 -57h79q29 0 54 11.5t41 26t34.5 46.5t29 54.5t29.5 68.5h65
q-21 -51 -31 -74.5t-29 -58.5t-35 -51t-40.5 -30t-54.5 -17z" />
    <glyph glyph-name="uni045D" unicode="&#x45d;" horiz-adv-x="585" 
d="M332 580l-24 -30l-178 128l38 48zM501 0h-59v348q0 18 2 60h-2q-10 -21 -32 -51l-272 -357h-53v484h58v-346q0 -18 -2 -62h2q19 35 34 52l271 356h53v-484z" />
    <glyph glyph-name="uni045E" unicode="&#x45e;" horiz-adv-x="522" 
d="M263 568q-68 0 -108 37.5t-38 94.5h51q0 -45 25 -70t70 -25q44 0 69 25t25 70h50q2 -57 -37 -94.5t-107 -37.5zM499 484l-204 -518q-38 -99 -89 -138q-62 -46 -163 -31l6 43q76 -4 117 26q40 32 70 107l11 27h-16q-18 0 -24 17l-184 467h68l143 -378q12 -32 20 -56h13
l21 57l142 377h69z" />
    <glyph glyph-name="uni045F" unicode="&#x45f;" horiz-adv-x="574" 
d="M489 484v-484h-174l-6 -166h-43l-7 166h-174v484h63l1 -432h276l1 432h63z" />
    <glyph glyph-name="uni0490" unicode="&#x490;" horiz-adv-x="520" 
d="M496 841v-161l-3 -45h-265q-72 0 -72 -75v-560h-66v571q0 52 33.5 86t84.5 34q160 0 237 -6l8 156h43z" />
    <glyph glyph-name="uni0491" unicode="&#x491;" horiz-adv-x="455" 
d="M430 631v-151l-3 -46h-218q-33 0 -48 -15.5t-15 -49.5v-369h-63v384q0 102 102 102q130 0 194 -3l8 148h43z" />
    <glyph glyph-name="uni04B0" unicode="&#x4b0;" horiz-adv-x="572" 
d="M474 230h-155v-230h-65v230h-155v41h143l-220 419h70l158 -306q1 -2 34 -74h6q13 31 33 73l158 307h69l-219 -419h142z" />
    <glyph glyph-name="uni04B1" unicode="&#x4b1;" horiz-adv-x="576" 
d="M333 67h142v-42h-154v-229h-65v229h-155v42h143l-220 417h70l157 -304q1 -1 34 -74h7q22 53 33 73l157 305h70z" />
    <glyph glyph-name="uni04B6" unicode="&#x4b6;" horiz-adv-x="641" 
d="M606 47v-198h-45l-8 151h-92v324q-118 -67 -244 -67q-153 0 -153 152v281h66v-268q-1 -56 25 -81.5t83 -25.5q59 0 109 14t114 50v311h65v-643h80z" />
    <glyph glyph-name="uni04B7" unicode="&#x4b7;" horiz-adv-x="542" 
d="M499 52v-195h-42l-8 143h-75v216q-98 -42 -201 -42q-115 0 -115 105v205h63v-186q0 -38 17 -54.5t55 -16.5q89 0 181 40v217h64l-1 -432h62z" />
    <glyph glyph-name="uni04BA" unicode="&#x4ba;" horiz-adv-x="619" 
d="M401 433q154 0 154 -152v-281h-66v268q1 56 -25 81.5t-84 25.5q-109 0 -222 -64v-311h-65v690h65v-323q117 66 243 66z" />
    <glyph glyph-name="uni04C0" unicode="&#x4c0;" horiz-adv-x="252" 
d="M159 0h-66v690h66v-690z" />
    <glyph glyph-name="Wgrave" unicode="&#x1e80;" horiz-adv-x="941" 
d="M517 760l-24 -30l-178 128l38 48zM910 690l-155 -670q-7 -20 -27 -20h-80q-22 0 -27 21l-122 541l-17 77h-22q-3 -11 -8.5 -37t-8.5 -40l-121 -541q-5 -21 -28 -21h-80q-22 0 -27 20l-155 670h69l127 -559l15 -80h25q8 43 16 79l123 537q3 23 27 23h75q22 0 27 -23
l122 -537q9 -37 15 -79h26l15 78l127 561h69z" />
    <glyph glyph-name="wgrave" unicode="&#x1e81;" horiz-adv-x="820" 
d="M456 580l-24 -30l-178 128l38 48zM792 484l-151 -465q-6 -19 -26 -19h-59q-21 0 -26 21l-96 347q-12 50 -19 75h-11q-3 -12 -9.5 -37t-9.5 -38l-95 -347q-5 -21 -27 -21h-58q-21 0 -26 19l-151 465h66l114 -371q3 -9 19 -70h13q3 13 9.5 36.5t9.5 33.5l97 351q5 20 25 20
h58q21 0 26 -21l96 -350q12 -46 19 -70h13q15 58 18 70l115 371h66z" />
    <glyph glyph-name="Wacute" unicode="&#x1e82;" horiz-adv-x="941" 
d="M615 858l-178 -128l-24 30l164 146zM910 690l-155 -670q-7 -20 -27 -20h-80q-22 0 -27 21l-122 541l-17 77h-22q-3 -11 -8.5 -37t-8.5 -40l-121 -541q-5 -21 -28 -21h-80q-22 0 -27 20l-155 670h69l127 -559l15 -80h25q8 43 16 79l123 537q3 23 27 23h75q22 0 27 -23
l122 -537q9 -37 15 -79h26l15 78l127 561h69z" />
    <glyph glyph-name="wacute" unicode="&#x1e83;" horiz-adv-x="820" 
d="M553 678l-178 -128l-24 30l164 146zM792 484l-151 -465q-6 -19 -26 -19h-59q-21 0 -26 21l-96 347q-12 50 -19 75h-11q-3 -12 -9.5 -37t-9.5 -38l-95 -347q-5 -21 -27 -21h-58q-21 0 -26 19l-151 465h66l114 -371q3 -9 19 -70h13q3 13 9.5 36.5t9.5 33.5l97 351
q5 20 25 20h58q21 0 26 -21l96 -350q12 -46 19 -70h13q15 58 18 70l115 371h66z" />
    <glyph glyph-name="Wdieresis" unicode="&#x1e84;" horiz-adv-x="941" 
d="M371 865h22q19 0 19 -20v-55q0 -19 -19 -19h-22q-18 0 -18 19v55q0 20 18 20zM549 865h21q19 0 19 -20v-55q0 -19 -19 -19h-21q-19 0 -19 19v55q0 20 19 20zM910 690l-155 -670q-7 -20 -27 -20h-80q-22 0 -27 21l-122 541l-17 77h-22q-3 -11 -8.5 -37t-8.5 -40l-121 -541
q-5 -21 -28 -21h-80q-22 0 -27 20l-155 670h69l127 -559l15 -80h25q8 43 16 79l123 537q3 23 27 23h75q22 0 27 -23l122 -537q9 -37 15 -79h26l15 78l127 561h69z" />
    <glyph glyph-name="wdieresis" unicode="&#x1e85;" horiz-adv-x="820" 
d="M310 685h22q19 0 19 -20v-55q0 -19 -19 -19h-22q-18 0 -18 19v55q0 20 18 20zM488 685h21q19 0 19 -20v-55q0 -19 -19 -19h-21q-19 0 -19 19v55q0 20 19 20zM792 484l-151 -465q-6 -19 -26 -19h-59q-21 0 -26 21l-96 347q-12 50 -19 75h-11q-3 -12 -9.5 -37t-9.5 -38
l-95 -347q-5 -21 -27 -21h-58q-21 0 -26 19l-151 465h66l114 -371q3 -9 19 -70h13q3 13 9.5 36.5t9.5 33.5l97 351q5 20 25 20h58q21 0 26 -21l96 -350q12 -46 19 -70h13q15 58 18 70l115 371h66z" />
    <glyph glyph-name="Ygrave" unicode="&#x1ef2;" horiz-adv-x="559" 
d="M301 731l-178 128l38 48l164 -146zM312 248v-248h-65v248l-232 442h70l158 -306q1 -2 34 -74h6q13 31 33 73l158 307h69z" />
    <glyph glyph-name="ygrave" unicode="&#x1ef3;" horiz-adv-x="521" 
d="M285 550l-178 128l38 48l164 -146zM498 484l-204 -518q-29 -73 -73.5 -119t-118.5 -54l-8 41q57 19 89 53t52 86l12 27h-17q-18 0 -24 17l-184 467h68l143 -378q12 -32 20 -56h14l21 57l142 377h68z" />
    <glyph glyph-name="endash" unicode="&#x2013;" horiz-adv-x="603" 
d="M526 227h-449v50h449v-50z" />
    <glyph glyph-name="emdash" unicode="&#x2014;" horiz-adv-x="909" 
d="M832 227h-755v50h755v-50z" />
    <glyph glyph-name="quoteleft" unicode="&#x2018;" horiz-adv-x="210" 
d="M114 507h-18q-24 0 -24 24v61q2 74 28 138l30 -9q-8 -51 -8 -112q18 0 18 -20l-1 -58q0 -24 -25 -24z" />
    <glyph glyph-name="quoteright" unicode="&#x2019;" horiz-adv-x="207" 
d="M95 723h19q23 0 23 -24v-61q-2 -75 -28 -139l-29 9q7 55 7 112q-19 0 -17 21v58q1 24 25 24z" />
    <glyph glyph-name="quotesinglbase" unicode="&#x201a;" horiz-adv-x="221" 
d="M102 103h19q24 0 24 -24v-61q-2 -77 -29 -139l-30 9q8 62 8 112q-20 0 -18 21v58q1 24 26 24z" />
    <glyph glyph-name="quotedblleft" unicode="&#x201c;" horiz-adv-x="349" 
d="M114 507h-18q-24 0 -24 24v61q2 74 28 138l30 -9q-8 -51 -8 -112q18 0 18 -20l-1 -58q0 -24 -25 -24zM253 507h-19q-23 0 -23 24v61q2 74 28 138l30 -9q-8 -51 -8 -112q19 0 17 -20v-58q0 -24 -25 -24z" />
    <glyph glyph-name="quotedblright" unicode="&#x201d;" horiz-adv-x="346" 
d="M95 723h19q23 0 23 -24v-61q-2 -75 -28 -139l-29 9q7 55 7 112q-19 0 -17 21v58q1 24 25 24zM234 723h19q23 0 23 -24v-61q-2 -75 -28 -139l-30 9q8 52 8 112q-19 0 -17 21v58q1 24 25 24z" />
    <glyph glyph-name="quotedblbase" unicode="&#x201e;" horiz-adv-x="360" 
d="M101 103h19q24 0 24 -24v-61q-2 -75 -28 -139l-30 9q8 62 8 112q-18 0 -18 21l1 58q0 24 24 24zM240 103h19q24 0 24 -24v-61q-2 -75 -28 -139l-30 9q7 55 7 112q-17 0 -17 21l1 58q0 24 24 24z" />
    <glyph glyph-name="dagger" unicode="&#x2020;" horiz-adv-x="446" 
d="M252 -110h-58l2 555v35l-3 211h60l-3 -211v-35zM47 427v57h132v-49zM399 484v-57l-132 8v49h132z" />
    <glyph glyph-name="daggerdbl" unicode="&#x2021;" horiz-adv-x="483" 
d="M268 483v-385l3 -208h-59l2 208v385l-2 208h59zM197 435l-132 -8v57h132v-49zM417 427l-132 8v49h132v-57zM197 146v-49h-132v57zM417 97h-132v49l132 8v-57z" />
    <glyph glyph-name="bullet" unicode="&#x2022;" horiz-adv-x="359" 
d="M175 351h11q43 0 59.5 -17t16.5 -60v-11q0 -44 -16.5 -61.5t-59.5 -17.5h-11q-45 0 -62 17.5t-17 61.5v11q0 43 17 60t62 17z" />
    <glyph glyph-name="ellipsis" unicode="&#x2026;" horiz-adv-x="818" 
d="M98 107h21q25 0 25 -25v-57q0 -25 -25 -25h-21q-25 0 -25 25v57q0 25 25 25zM396 107h22q25 0 25 -25v-57q0 -25 -25 -25h-22q-24 0 -24 25v57q0 25 24 25zM695 107h22q25 0 25 -25v-57q0 -25 -25 -25h-22q-24 0 -24 25v57q0 25 24 25z" />
    <glyph glyph-name="perthousand" unicode="&#x2030;" horiz-adv-x="1258" 
d="M209 702q87 0 122 -47t35 -157t-35 -157t-122 -47t-122 47t-35 157t35 157t122 47zM238 0h-48l459 690h48zM208 661q-59 0 -82.5 -36.5t-23.5 -126.5t23.5 -126.5t82.5 -36.5q61 0 84 36.5t23 126.5t-23 126.5t-84 36.5zM681 401q86 0 121.5 -47.5t35.5 -157.5t-35 -157
t-122 -47t-122 47t-35 157t35.5 157.5t121.5 47.5zM1047 401q86 0 121.5 -47.5t35.5 -157.5t-35 -157t-122 -47q-86 0 -121 47t-35 157t35 157.5t121 47.5zM680 359q-59 0 -82.5 -37t-22.5 -126q-1 -89 22.5 -126t82.5 -37q60 0 83.5 36.5t23.5 126.5t-23.5 126.5
t-83.5 36.5zM1047 359q-60 0 -83 -36.5t-23 -126.5t23 -126.5t83 -36.5t83.5 36.5t23.5 126.5t-23.5 126.5t-83.5 36.5z" />
    <glyph glyph-name="guilsinglleft" unicode="&#x2039;" horiz-adv-x="264" 
d="M225 435l-134 -184l135 -187l-33 -22l-162 201v16l161 198z" />
    <glyph glyph-name="guilsinglright" unicode="&#x203a;" horiz-adv-x="265" 
d="M234 259v-16l-163 -201l-34 22l135 187l-134 184l34 22z" />
    <glyph glyph-name="fraction" unicode="&#x2044;" horiz-adv-x="160" 
d="M-126 0h-48l459 690h48z" />
    <glyph glyph-name="Euro" unicode="&#x20ac;" horiz-adv-x="642" 
d="M579 59l8 -50q-76 -21 -174 -21q-129 0 -191 68.5t-74 209.5h-90v42h88l-1 37q0 37 1 55h-87v42h91q14 131 76 195.5t187 64.5q94 0 164 -19l-9 -50q-80 12 -158 10q-88 -1 -133.5 -50.5t-58.5 -150.5h267l-7 -42h-263q-2 -36 -2 -56l1 -36h227l-8 -42h-217
q11 -110 56.5 -164t137.5 -55q96 -1 169 12z" />
    <glyph glyph-name="trademark" unicode="&#x2122;" horiz-adv-x="958" 
d="M390 696v-40h-136v-340h-48v340h-135v40h319zM879 316h-44l-16 343h-13l-105 -286q-4 -15 -20 -15h-40q-17 0 -20 15l-105 286h-13l-16 -343h-44l16 360q2 20 19 20h53q14 0 19 -16l88 -236q3 -8 8 -26.5t8 -26.5h13q2 6 5.5 17t6.5 20t6 17l86 235q4 16 20 16h53
q18 0 20 -20z" />
    <glyph glyph-name="partialdiff" unicode="&#x2202;" horiz-adv-x="570" 
d="M137 653v49q85 1 142 -7t105.5 -30.5t74.5 -63t38 -106t6 -159.5q-5 -82 -17.5 -141t-38.5 -108t-70.5 -74t-108.5 -25q-114 0 -163.5 67t-44.5 168q5 103 58 163.5t148 59.5q111 0 173 -89q4 92 -8 148.5t-49.5 90t-94 45.5t-150.5 12zM269 45q46 0 78 20.5t50 60.5
t26.5 84t13.5 106q-68 76 -160 76q-72 0 -111.5 -45.5t-42.5 -123.5q-3 -79 32.5 -128.5t113.5 -49.5z" />
    <glyph glyph-name="emptyset" unicode="&#x2205;" horiz-adv-x="685" 
d="M343 633q121 0 206.5 -85.5t85.5 -206.5t-85.5 -207t-206.5 -86t-207 86t-86 207t86 206.5t207 85.5zM343 545q-51 0 -122 -11l3 -45q60 9 119 9q66 0 66 -46q0 -21 -15 -44.5t-33.5 -42.5t-33.5 -52t-15 -72h54q0 35 14.5 64.5t32.5 46.5t32.5 43.5t14.5 56.5
q0 93 -117 93zM359 171h-39q-7 0 -7 -8v-37q0 -7 7 -7h39q8 0 8 7v37q0 8 -8 8z" />
    <glyph glyph-name="product" unicode="&#x220f;" horiz-adv-x="725" 
d="M684 636h-111v-742h-63v742h-295v-742h-64v742h-110v54h643v-54z" />
    <glyph glyph-name="summation" unicode="&#x2211;" horiz-adv-x="587" 
d="M522 636h-386l174 -283l-188 -399h410v-54h-480v54l187 399l-175 283v54h458v-54z" />
    <glyph glyph-name="minus" unicode="&#x2212;" horiz-adv-x="587" 
d="M509 271h-431v49h431v-49z" />
    <glyph glyph-name="radical" unicode="&#x221a;" horiz-adv-x="560" 
d="M532 876l-267 -868q-3 -8 -13 -8h-74q-11 0 -13 8l-126 476h55l114 -439h13l255 831h56z" />
    <glyph glyph-name="infinity" unicode="&#x221e;" horiz-adv-x="784" 
d="M585 443q58 0 95.5 -33.5t37.5 -97.5q0 -67 -41 -104.5t-104 -37.5q-93 0 -179 99q-89 -99 -185 -99q-61 0 -102 37.5t-41 104.5q0 65 38.5 98t100.5 33q102 0 188 -103q91 103 192 103zM220 218q45 0 77 22t68 65q-38 46 -70.5 68t-81.5 22q-91 0 -91 -85
q0 -45 26 -68.5t72 -23.5zM566 218q45 0 71 24t26 69q0 84 -88 84q-34 0 -64.5 -15.5t-47.5 -32.5t-40 -45q62 -84 143 -84z" />
    <glyph glyph-name="integral" unicode="&#x222b;" horiz-adv-x="377" 
d="M249 714q51 0 91 -4l-5 -46h-65q-42 0 -59.5 -20.5t-14.5 -71.5l43 -661q4 -67 -23 -100t-90 -33q-61 0 -89 4l5 46h64q43 0 60.5 21t14.5 72l-43 660q-8 133 111 133z" />
    <glyph glyph-name="approxequal" unicode="&#x2248;" horiz-adv-x="589" 
d="M170 442q38 0 123 -30t125 -31q26 -1 36.5 10.5t10.5 45.5h45q5 -54 -17.5 -80.5t-74.5 -25.5q-43 0 -127 30.5t-119 31.5q-26 0 -37 -12.5t-11 -47.5h-44q-11 111 90 109zM170 251q38 0 123 -30t125 -31q25 -1 36 10.5t11 45.5h45q5 -54 -17.5 -80.5t-74.5 -25.5
q-43 1 -127 31t-119 31q-26 0 -37 -12t-11 -48h-44q-6 59 18.5 85t71.5 24z" />
    <glyph glyph-name="notequal" unicode="&#x2260;" horiz-adv-x="615" 
d="M369 373l-98 -162h263v-49h-293l-75 -124l-24 12l68 112h-106v49h136l98 162h-234v49h264l65 108l24 -12l-58 -96h135v-49h-165z" />
    <glyph glyph-name="lessequal" unicode="&#x2264;" horiz-adv-x="575" 
d="M489 474l-346 -119l346 -106v-52l-403 132v52l403 145v-52zM500 88h-425v48h425v-48z" />
    <glyph glyph-name="greaterequal" unicode="&#x2265;" horiz-adv-x="575" 
d="M489 381v-52l-403 -132v51l346 107l-346 119v52zM500 88h-425v48h425v-48z" />
    <glyph glyph-name="lozenge" unicode="&#x25ca;" horiz-adv-x="582" 
d="M299 692l242 -338q5 -8 0 -16l-242 -340q-7 -11 -15 0l-243 340q-4 8 0 16l243 338q8 11 15 0zM95 346l197 -284l195 284l-195 282z" />
    <glyph glyph-name="fi" unicode="&#xfb01;" horiz-adv-x="586" 
d="M498 484v-484h-63v433h-253v-433h-64v433h-87v46l87 5v86q0 73 31.5 109.5t104.5 36.5q62 0 108 -6v-47h-86q-52 0 -73 -22t-21 -77v-80h316zM451 688h30q21 0 21 -21v-58q0 -21 -21 -21h-30q-21 0 -21 21v58q0 21 21 21z" />
    <glyph glyph-name="fl" unicode="&#xfb02;" horiz-adv-x="650" 
d="M633 43l7 -41q-27 -10 -80 -10q-52 0 -82 29t-30 81v561h-172q-52 1 -73 -21.5t-21 -77.5v-80h154v-51h-154v-433h-64v433h-87v46l87 5v86q0 73 31.5 109.5t104.5 36.5q187 0 257 -10v-592q0 -71 71 -71h51z" />
    <glyph glyph-name="uni00630074" horiz-adv-x="813" 
d="M624 434v-314q0 -37 17 -53.5t54 -16.5h79l7 -48q-50 -10 -101 -10q-119 0 -119 121v321h-264q-96 0 -133.5 -41t-37.5 -151q0 -115 36 -157t130 -42q73 0 126 11l7 -44q-68 -22 -144 -22q-122 0 -171.5 57t-49.5 197q0 131 53 186.5t174 55.5h274v147h63v-147h163v-50
h-163z" />
    <glyph glyph-name="f_f" horiz-adv-x="692" 
d="M701 663h-104q-52 0 -73 -20.5t-21 -71.5v-87h163v-50h-163v-434h-64v434h-257v-434h-64v434h-87v45l87 5v77q0 140 136 140q70 0 121 -6l-4 -47h-95q-52 0 -73 -20t-21 -73v-71h257v93q0 69 31.5 104t104.5 35q75 0 130 -6z" />
    <glyph glyph-name="f_f_i" horiz-adv-x="901" 
d="M814 484v-484h-63v433h-253v-433h-64v433l-257 1v-434h-63v434h-83v45l83 5v77q0 140 135 140q70 0 121 -6l-4 -47h-95q-52 0 -73 -20t-21 -73v-71h257v86q0 73 31.5 109.5t104.5 36.5q67 0 119 -6v-47h-97q-52 0 -73 -22t-21 -77v-80h316zM768 688h29q21 0 21 -21v-58
q0 -21 -21 -21h-29q-21 0 -21 21v58q0 21 21 21z" />
    <glyph glyph-name="f_f_l" horiz-adv-x="971" 
d="M954 43l7 -41q-28 -10 -80 -10t-82.5 29t-30.5 81v561h-171q-52 1 -73 -21t-21 -78v-80h158v-50h-158v-434h-64v434h-257v-434h-64v434h-87v45l87 5v77q0 140 136 140q70 0 121 -6l-4 -47h-95q-52 0 -73 -20t-21 -73v-71h257v86q0 73 31.5 109.5t104.5 36.5
q187 0 257 -10v-592q0 -71 71 -71h51z" />
    <glyph glyph-name="uni006600660079" horiz-adv-x="1177" 
d="M1154 484l-204 -518q-29 -74 -73 -119.5t-119 -53.5l-8 41q56 19 88 52.5t54 86.5l11 27h-16q-18 0 -24 17l-146 368q-19 49 -71 49h-143v-434h-63v434h-258v-434h-64v434h-87v45l87 5v77q0 140 136 140q70 0 121 -6l-4 -47h-95q-52 0 -73 -20t-21 -73v-71h258v93
q0 70 31 104.5t104 34.5q75 0 131 -6l-5 -47h-103q-52 0 -73.5 -21t-21.5 -71v-87h154q89 0 121 -83l112 -295q13 -34 19 -56h14l21 57l142 377h68z" />
    <glyph glyph-name="uni00660074" horiz-adv-x="697" 
d="M508 434v-314q0 -70 71 -70h79l8 -48q-50 -10 -101 -10q-120 0 -120 121v321h-263v-434h-64v434h-87v45l87 5v93q0 69 31.5 104t104.5 35q72 0 126 -6l-5 -47h-99q-52 0 -73 -21t-21 -71v-87h263v147h63v-147h164v-50h-164z" />
    <glyph glyph-name="uni00660079" horiz-adv-x="855" 
d="M833 484l-204 -518q-29 -73 -73.5 -119t-118.5 -54l-8 41q56 19 88.5 53t52.5 86l11 27h-16q-18 0 -24 17l-145 368q-19 49 -71 49h-143v-434h-64v434h-87v45l87 5v93q0 69 31.5 104t104.5 35q74 0 130 -6l-4 -47h-104q-52 0 -73 -21t-21 -71v-87h154q89 0 120 -83
l112 -295q12 -32 20 -56h13q3 11 16 43l148 391h68z" />
    <glyph glyph-name="s_t" horiz-adv-x="851" 
d="M662 434v-314q0 -37 17 -53.5t54 -16.5h79l7 -48q-50 -10 -101 -10q-119 0 -119 121v321h-351q-35 0 -51.5 -0.5t-36 -4t-26.5 -11t-12.5 -20.5t-5.5 -33q0 -41 17 -57t57 -24l149 -28q59 -12 85.5 -41.5t26.5 -88.5q0 -85 -45.5 -111t-155.5 -26q-99 0 -185 13l5 47
q79 -7 169 -6q89 1 119.5 16.5t30.5 66.5q0 39 -19 55t-60 24l-148 28q-57 11 -82.5 41.5t-25.5 90.5q0 74 41.5 97t144.5 22h359v147h63v-147h163v-50h-163z" />
    <glyph glyph-name="uni00740074" horiz-adv-x="705" 
d="M516 434v-314q0 -70 71 -70h79l7 -48q-48 -10 -101 -10q-119 0 -119 121v321h-273v-314q0 -70 71 -70h79l8 -48q-50 -10 -101 -10q-120 0 -120 121v321h-88v45l88 5v147h63v-147h273v147h63v-147h164v-50h-164z" />
    <glyph glyph-name="uni00740079" horiz-adv-x="880" 
d="M857 484l-204 -518q-29 -74 -73 -119.5t-119 -53.5l-8 41q56 19 88 52.5t54 86.5l11 27h-16q-19 0 -25 17l-145 368q-19 49 -71 49h-169v-314q0 -70 71 -70h79l8 -48q-50 -10 -101 -10q-120 0 -120 121v321h-88v45l88 5v147h63v-147h181q88 0 119 -82l113 -296
q13 -34 19 -56h14l18 49l145 385h68z" />
    <glyph glyph-name="brevecy" horiz-adv-x="368" 
d="M279 694h51q2 -57 -37.5 -94.5t-106.5 -37.5q-69 0 -109 37.5t-37 94.5h50q0 -45 25.5 -70t70.5 -25q43 0 68 25t25 70z" />
    </font>
</defs>
</svg>
