<?xml version="1.0" standalone="no"?>
<!DOCTYPE svg PUBLIC "-//W3C//DTD SVG 1.1//EN" "http://www.w3.org/Graphics/SVG/1.1/DTD/svg11.dtd" >
<svg>
<metadata>
Created by FontForge 20120731 at Wed Jun 15 09:20:28 2016
 By www-data
Copyright (c) 2013, Natanael Gama (www.ndiscovered.com . info(at)ndiscovered.com), with Reserved Font Name Exo. This Font Software is licensed under the SIL Open Font License, Version 1.1.
</metadata>
<defs>
<font id="Exo2-ExtraLightItalic" horiz-adv-x="559" >
  <font-face 
    font-family="Exo 2 Extra Light"
    font-weight="250"
    font-style="italic"
    font-stretch="normal"
    units-per-em="1000"
    panose-1="0 0 3 0 0 0 0 0 0 0"
    ascent="800"
    descent="-200"
    x-height="482"
    cap-height="690"
    bbox="-214 -263 1179.17 925"
    underline-thickness="50"
    underline-position="-50"
    slope="-8"
    unicode-range="U+0020-FB02"
  />
<missing-glyph horiz-adv-x="600" 
 />
    <glyph glyph-name=".notdef" horiz-adv-x="600" 
 />
    <glyph glyph-name=".null" horiz-adv-x="0" 
 />
    <glyph glyph-name="nonmarkingreturn" horiz-adv-x="333" 
 />
    <glyph glyph-name="space" unicode=" " horiz-adv-x="228" 
 />
    <glyph glyph-name="exclam" unicode="!" horiz-adv-x="257" 
d="M158 363l-25 -158h-33l18 158l47 332h40zM94 94h14q17 0 14 -18l-8 -60q-3 -16 -18 -16h-14q-18 0 -16 18l9 60q3 16 19 16z" />
    <glyph glyph-name="quotedbl" unicode="&#x22;" horiz-adv-x="329" 
d="M139 480h-30l27 210h36zM271 480h-30l26 210h36z" />
    <glyph glyph-name="numbersign" unicode="#" horiz-adv-x="667" 
d="M522 464l-66 -209h110l-9 -31h-111l-70 -224h-34l70 224h-217l-70 -224h-34l70 224h-117l10 31h117l66 209h-117l10 31h117l61 195h34l-61 -195h217l61 195h34l-61 -195h110l-10 -31h-110zM488 464h-217l-66 -209h217z" />
    <glyph glyph-name="dollar" unicode="$" horiz-adv-x="563" 
d="M525 687l-6 -30q-89 6 -149 7l-59 -302l58 -24q77 -32 101 -71t14 -115q-7 -43 -21.5 -73t-33.5 -48t-51 -27t-63.5 -12t-80.5 -3l-24 -122h-27l25 122q-95 2 -169 13l5 31q101 -7 171 -7l61 306l-66 27q-72 30 -96 71t-15 112q6 44 21 74.5t33.5 47t49.5 25.5t59.5 11
t71.5 1h17l20 102h27l-20 -103q82 -3 147 -13zM343 664h-23q-29 0 -44.5 -1t-38.5 -4.5t-35.5 -11.5t-26.5 -21.5t-22 -36t-12 -53.5q-6 -56 10 -85.5t71 -52.5l63 -26zM442 157q8 61 -9 89t-76 53l-56 23l-59 -296h2q51 1 81 5.5t56.5 17.5t40 39t20.5 69z" />
    <glyph glyph-name="percent" unicode="%" horiz-adv-x="882" 
d="M262 702q85 0 113.5 -48.5t13.5 -157.5q-15 -108 -55.5 -155t-122.5 -47q-85 0 -113.5 49t-13.5 157t54.5 155t123.5 47zM180 0h-35l568 690h35zM264 674q-71 0 -102 -40.5t-45 -137.5q-13 -94 7 -134t84 -40q70 0 102.5 41t45.5 137q12 96 -7 135t-85 39zM687 401
q85 0 113.5 -49t12.5 -158q-15 -107 -55.5 -154.5t-122.5 -47.5q-85 0 -113 49t-13 158q15 108 54.5 155t123.5 47zM689 373q-72 0 -103 -40.5t-44 -138.5q-13 -94 6.5 -134t84.5 -40q70 0 102.5 41.5t44.5 137.5q13 96 -6 135t-85 39z" />
    <glyph glyph-name="ampersand" unicode="&#x26;" horiz-adv-x="782" 
d="M735 341h-136q-17 -109 -67 -193q-51 -85 -122 -121t-170 -38q-115 -3 -159.5 38.5t-27.5 149.5q14 89 61.5 133t133.5 46v4q-73 5 -98 46t-12 117q18 104 73.5 140t174.5 36q86 0 159 -23l-7 -30q-71 17 -153 17q-103 0 -147 -28.5t-59 -116.5q-15 -84 21.5 -114
t138.5 -30h227q8 68 6 147h38q2 -84 -7 -147h140zM499 166q45 73 62 175h-225q-60 -1 -97 -7t-68 -23t-48 -49.5t-27 -85.5q-16 -90 17.5 -120t111.5 -30q99 0 164 33t110 107z" />
    <glyph glyph-name="quotesingle" unicode="'" horiz-adv-x="197" 
d="M139 480h-30l27 210h36z" />
    <glyph glyph-name="parenleft" unicode="(" horiz-adv-x="353" 
d="M376 790l6 -24q-116 -55 -182.5 -165.5t-91.5 -289.5q-25 -175 10 -284.5t134 -167.5l-7 -24q-231 110 -178 483q26 186 101.5 301.5t207.5 170.5z" />
    <glyph glyph-name="parenright" unicode=")" horiz-adv-x="353" 
d="M107 766l6 24q117 -54 161.5 -172t17.5 -312q-26 -187 -101 -301t-209 -170l-5 24q115 58 182 169.5t92 286.5q25 174 -9.5 285.5t-134.5 165.5z" />
    <glyph glyph-name="asterisk" unicode="*" horiz-adv-x="449" 
d="M267 534l79 -129l-26 -16l-65 124l-100 -123l-23 19l114 126l18 155h30zM232 550l-3 -13l-7 -9l-121 37l12 29zM421 563l-131 -35l-5 9l1 13l128 43z" />
    <glyph glyph-name="plus" unicode="+" horiz-adv-x="550" 
d="M484 281h-194l-27 -184h-32l26 184h-196l6 33h194l26 184h34l-27 -184h195z" />
    <glyph glyph-name="comma" unicode="," horiz-adv-x="211" 
d="M72 94h16q14 0 13 -16l-10 -66q-7 -57 -42 -132l-22 7q18 60 27 114q-13 0 -11 15l9 62q2 9 6 12.5t14 3.5z" />
    <glyph glyph-name="hyphen" unicode="-" horiz-adv-x="472" 
d="M383 235h-309l4 33h309z" />
    <glyph glyph-name="period" unicode="." horiz-adv-x="210" 
d="M70 94h15q18 0 15 -18l-8 -60q-3 -16 -19 -16h-14q-19 0 -16 18l9 60q1 16 18 16z" />
    <glyph glyph-name="slash" unicode="/" horiz-adv-x="504" 
d="M26 -61h-39l497 751h39z" />
    <glyph glyph-name="zero" unicode="0" horiz-adv-x="587" 
d="M141 73q33 -48 112 -48q101 0 152.5 75.5t75.5 246.5q23 164 -2 237zM462 617q-12 16 -28 27t-37 16t-48 5q-102 0 -152.5 -75t-75.5 -247q-22 -164 3 -237zM349 702q122 0 160.5 -85.5t11.5 -273.5q-26 -188 -86.5 -271.5t-180.5 -83.5q-122 0 -161 85.5t-12 273.5
q26 188 86.5 271.5t181.5 83.5z" />
    <glyph glyph-name="one" unicode="1" horiz-adv-x="379" 
d="M215 0h-41l85 601q2 16 10 50l-191 -62l-2 29l195 72h41z" />
    <glyph glyph-name="two" unicode="2" horiz-adv-x="550" 
d="M318 702q106 0 152 -29t35 -114q-9 -66 -47.5 -124.5t-122.5 -141.5l-259 -256q38 1 114 1h271l-5 -38h-439l3 26q4 14 9 19l267 264q82 81 121.5 141t45.5 119q6 61 -28 78.5t-114 17.5q-93 0 -200 -21l-5 31q115 27 202 27z" />
    <glyph glyph-name="three" unicode="3" horiz-adv-x="546" 
d="M305 702q115 0 156.5 -36t29.5 -125q-20 -153 -130 -173l-1 -4q64 -10 88.5 -57.5t13.5 -116.5q-13 -84 -72.5 -140t-174.5 -62q-97 -5 -196 17l8 31q95 -16 183 -11q186 12 212 172q24 151 -140 151l-130 1l4 31l128 2q148 3 167 157q9 74 -22 100t-129 26
q-86 0 -172 -11l-5 31q102 17 182 17z" />
    <glyph glyph-name="four" unicode="4" horiz-adv-x="595" 
d="M531 194l-84 -4l-27 -190h-40l27 189h-312q-36 0 -50 28.5t7 59.5l271 413h45l-276 -420q-12 -19 -6.5 -32.5t25.5 -13.5h301l31 219l25 116h31l-47 -335h84z" />
    <glyph glyph-name="five" unicode="5" horiz-adv-x="527" 
d="M493 654h-306l-46 -245l59 -1q74 -1 120 -9.5t81 -30t46.5 -62t3.5 -103.5q-3 -28 -11 -53t-26 -55t-44 -51.5t-69.5 -37.5t-98.5 -18q-88 -3 -177 27l8 32q83 -26 162 -23q108 5 157.5 58t58.5 126q6 45 -1 74.5t-23.5 47.5t-54 27.5t-77.5 12t-108 3.5l-27 1
q-9 1 -14.5 7.5t-3.5 15.5l55 293h342z" />
    <glyph glyph-name="six" unicode="6" horiz-adv-x="564" 
d="M388 666q-62 0 -100.5 -11.5t-72 -46.5t-54.5 -100t-37 -172v-1q79 102 208 108q102 5 139.5 -48t19.5 -179q-15 -112 -70 -170t-163 -58q-97 0 -141.5 38.5t-47.5 116.5t14 196q17 117 42 189.5t64.5 110.5t83.5 50.5t113 12.5t126 -13l-9 -30q-46 7 -115 7zM326 409
q-58 -3 -104.5 -27t-103.5 -87q-14 -94 -9.5 -154t39.5 -88.5t111 -28.5q88 0 133.5 50.5t58.5 147.5q15 103 -11.5 147t-113.5 40z" />
    <glyph glyph-name="seven" unicode="7" horiz-adv-x="502" 
d="M95 690h380q51 0 28 -47l-311 -643h-43l297 614q7 14 23 42l-376 -2z" />
    <glyph glyph-name="eight" unicode="8" horiz-adv-x="610" 
d="M359 699q123 0 161.5 -42.5t25.5 -140.5q-10 -74 -38.5 -112t-81.5 -44l-2 -4q61 -7 80.5 -52t7.5 -134q-14 -100 -64.5 -139t-181.5 -40q-129 -1 -172.5 41t-29.5 142q12 89 43.5 132.5t94.5 50.5l2 4q-98 12 -77 159q14 97 63.5 138t168.5 41zM358 663q-102 0 -141 -32
t-51 -117q-13 -88 16 -113.5t135 -25.5t141.5 27t48.5 116q12 84 -17 114.5t-132 30.5zM314 341q-116 -1 -155.5 -31t-54.5 -136q-12 -83 21.5 -114.5t141.5 -31.5q110 0 152 33t54 118q15 104 -15.5 133t-143.5 29z" />
    <glyph glyph-name="nine" unicode="9" horiz-adv-x="565" 
d="M329 702q132 0 165.5 -80t2.5 -271q-15 -94 -34 -157t-42 -104.5t-57.5 -63.5t-73.5 -30t-97 -8q-78 0 -139 13l10 30q51 -7 120 -7q91 1 139 25.5t79 94t54 211.5v2q-45 -57 -93.5 -82t-112.5 -28q-104 -4 -141 51.5t-19 175.5q16 115 71 171.5t168 56.5zM255 281
q58 2 104.5 27.5t102.5 87.5q14 92 9 152t-39 89t-105 29q-95 0 -138.5 -48t-59.5 -150q-15 -106 15 -148t111 -39z" />
    <glyph glyph-name="colon" unicode=":" horiz-adv-x="213" 
d="M142 433h16q17 0 14 -19l-8 -60q-3 -16 -18 -16h-15q-19 0 -16 19l9 59q2 17 18 17zM94 94h15q18 0 15 -18l-8 -60q-3 -16 -19 -16h-14q-19 0 -16 18l9 60q1 16 18 16z" />
    <glyph glyph-name="semicolon" unicode=";" horiz-adv-x="215" 
d="M119 433h16q17 0 15 -19l-9 -60q-1 -16 -18 -16h-15q-18 0 -16 19l9 59q2 17 18 17zM74 94h15q16 0 13 -16l-9 -66q-8 -55 -42 -132l-22 7q15 50 27 114q-14 0 -11 15l9 62q2 9 5.5 12.5t14.5 3.5z" />
    <glyph glyph-name="less" unicode="&#x3c;" horiz-adv-x="535" 
d="M480 457l-382 -162l336 -158l-4 -34l-372 176l5 34l422 180z" />
    <glyph glyph-name="equal" unicode="=" horiz-adv-x="590" 
d="M518 380h-423l5 33h422zM489 168h-423l5 33h422z" />
    <glyph glyph-name="greater" unicode="&#x3e;" horiz-adv-x="533" 
d="M476 313l-5 -34l-421 -176l4 37l382 158l-336 162l5 33z" />
    <glyph glyph-name="question" unicode="?" horiz-adv-x="498" 
d="M304 712q98 0 143.5 -39t34.5 -118q-5 -35 -23 -66.5t-42 -53t-51.5 -47t-52 -49t-43.5 -59t-25 -76.5l-36 2q7 52 31.5 94.5t55.5 71.5t62 55.5t54.5 59t28.5 69.5q8 64 -25.5 92.5t-115.5 28.5q-90 0 -201 -13l-4 29l30 5l30 5t27 3.5t34.5 3t37 1.5t50.5 1zM204 94h13
q17 0 16 -18l-9 -59q-2 -17 -18 -17h-14q-18 0 -15 18l8 60q3 16 19 16z" />
    <glyph glyph-name="at" unicode="@" horiz-adv-x="747" 
d="M421 621q50 0 83 -2t63 -8.5t47.5 -15.5t31.5 -27t19.5 -39.5t6.5 -56.5t-2.5 -74t-10.5 -95q-26 -189 -58 -251.5t-118 -62.5q-97 0 -80 109l2 15q-109 -125 -227 -125q-46 0 -74.5 19t-37.5 54.5t-8.5 73.5t9.5 89q24 133 73 176.5t174 43.5q69 0 177 -15l-50 -339
q-5 -35 5.5 -50.5t39.5 -15.5q63 0 87 52.5t49 230.5q7 53 11 88.5t2.5 67.5t-4.5 50t-16 33.5t-26.5 22t-41.5 11t-54 5.5t-72 1h-298l3 29q117 4 295 6zM184 23q111 0 227 133l36 248q-75 5 -122 5q-117 0 -157.5 -35.5t-61.5 -154.5q-9 -59 -10 -102.5t20.5 -68.5
t67.5 -25z" />
    <glyph glyph-name="A" unicode="A" horiz-adv-x="604" 
d="M458 242h-318l-119 -242h-45l337 678q4 12 18 12h56q15 0 17 -14l146 -676h-42zM450 279l-67 321l-11 56h-30l-27 -57l-157 -320h292z" />
    <glyph glyph-name="B" unicode="B" horiz-adv-x="612" 
d="M556 516q-11 -75 -43.5 -112.5t-95.5 -43.5v-4q73 -7 98.5 -53.5t12.5 -132.5q-15 -105 -66 -141.5t-170 -36.5q-152 0 -234 8l97 690q73 8 201 8q125 0 170 -38.5t30 -143.5zM151 374h178q93 1 133.5 30.5t52.5 113.5q12 86 -22.5 115t-137.5 29h-164zM487 178
q13 94 -21.5 127.5t-138.5 35.5h-181l-44 -311q78 -2 186 -2q101 0 144 30.5t55 119.5z" />
    <glyph glyph-name="C" unicode="C" 
d="M385 702q105 0 177 -18l-9 -30q-77 11 -167 11q-125 0 -182 -70t-83 -252q-25 -178 12 -248t157 -70q110 0 188 13l5 -31q-82 -19 -192 -19q-144 0 -192 81.5t-20 277.5q28 197 96 276t210 79z" />
    <glyph glyph-name="D" unicode="D" horiz-adv-x="659" 
d="M383 699q144 0 191.5 -79.5t20.5 -276.5q-28 -202 -95.5 -277t-212.5 -75q-107 0 -229 9l97 690q121 9 228 9zM553 347q25 179 -12.5 247t-158.5 68q-22 0 -190 -3l-89 -628q168 -3 183 -3q125 0 183 68t84 251z" />
    <glyph glyph-name="E" unicode="E" horiz-adv-x="551" 
d="M545 655h-283q-78 0 -89 -80l-26 -190h320l-5 -33l-320 -1l-33 -239q-5 -35 12.5 -56t52.5 -21h283l1 -31q-96 -4 -291 -4q-52 0 -80 31t-20 81l66 473q7 48 39 76.5t83 28.5q199 0 296 -4z" />
    <glyph glyph-name="F" unicode="F" horiz-adv-x="532" 
d="M541 655h-273q-79 0 -91 -80l-27 -195l312 -1l-5 -32l-312 -1l-49 -346h-41l82 584q8 50 40.5 78t81.5 28q194 0 288 -5z" />
    <glyph glyph-name="G" unicode="G" horiz-adv-x="621" 
d="M393 665q-131 0 -189 -69t-83 -253q-22 -174 10 -246t133 -72q58 0 108.5 30t112.5 88l35 257h40l-57 -400h-29l8 105q-107 -117 -226 -117t-160 84t-18 275q27 199 97.5 277t214.5 78q114 0 196 -18l-9 -30q-85 11 -184 11z" />
    <glyph glyph-name="H" unicode="H" horiz-adv-x="659" 
d="M617 690l-97 -690h-41l49 351h-380l-49 -351h-41l97 690h41l-43 -303h380l43 303h41z" />
    <glyph glyph-name="I" unicode="I" horiz-adv-x="239" 
d="M99 0h-41l97 690h41z" />
    <glyph glyph-name="J" unicode="J" horiz-adv-x="326" 
d="M287 690l-80 -568q-17 -131 -140 -129q-34 0 -72 8l9 28h54q95 0 109 95l79 566h41z" />
    <glyph glyph-name="K" unicode="K" horiz-adv-x="568" 
d="M284 361v-3q7 -8 23 -33l193 -325h-47l-204 343h-106q-1 -28 -9 -84l-36 -259h-40l97 690h40l-32 -232q-8 -50 -15 -81h104l278 313h51l-260 -294q-19 -21 -37 -35z" />
    <glyph glyph-name="L" unicode="L" horiz-adv-x="503" 
d="M193 690l-81 -578q-5 -35 12.5 -56t53.5 -21h267l-1 -31q-92 -4 -275 -4q-50 0 -77.5 31.5t-20.5 81.5l81 577h41z" />
    <glyph glyph-name="M" unicode="M" horiz-adv-x="860" 
d="M723 690h57q21 0 19 -22l-64 -668h-42l64 655h-23l-288 -577q-5 -13 -20 -13h-52q-16 0 -19 15l-127 575h-24l-120 -655h-41l124 671q3 19 22 19h55q16 0 18 -16l108 -483q5 -18 11.5 -50.5t8.5 -43.5h25q9 19 25 52.5t21 44.5l242 483q7 13 20 13z" />
    <glyph glyph-name="N" unicode="N" horiz-adv-x="692" 
d="M649 690l-94 -671q-3 -19 -21 -19h-51q-16 0 -22 17l-221 563q-25 65 -28 73h-23q-6 -52 -10 -82l-80 -571h-41l94 671q3 19 21 19h49q16 0 22 -17l216 -550q15 -37 32 -86h26q11 86 12 89l78 564h41z" />
    <glyph glyph-name="O" unicode="O" horiz-adv-x="662" 
d="M386 702q143 0 191 -81t20 -278q-27 -198 -94.5 -276.5t-210.5 -78.5t-192 80.5t-21 278.5q28 197 95.5 276t211.5 79zM385 665q-124 0 -181 -70.5t-83 -251.5q-24 -178 13.5 -248t157.5 -70q123 0 180 70.5t83 251.5q26 180 -11 249t-159 69z" />
    <glyph glyph-name="P" unicode="P" horiz-adv-x="582" 
d="M378 698q115 0 155 -45t24 -163q-18 -120 -67.5 -162t-163.5 -42q-108 0 -186 6l-41 -292h-41l97 690q82 8 223 8zM515 494q14 98 -16 133t-121 35q-110 0 -186 -2l-48 -338h181q95 2 135.5 37t54.5 135z" />
    <glyph glyph-name="Q" unicode="Q" horiz-adv-x="662" 
d="M386 702q143 0 191 -81t20 -278q-27 -198 -94.5 -276.5t-210.5 -78.5t-192 80.5t-21 278.5q28 197 95.5 276t211.5 79zM385 665q-124 0 -181 -70.5t-83 -251.5q-24 -178 13.5 -248t157.5 -70q123 0 180 70.5t83 251.5q26 180 -11 249t-159 69zM229 -73l17 24
q89 -61 224 -83l-15 -41q-138 23 -226 100z" />
    <glyph glyph-name="R" unicode="R" horiz-adv-x="609" 
d="M559 500q-13 -88 -48.5 -129t-105.5 -50v-5q51 -16 66 -97l45 -219h-43l-44 219q-9 46 -31.5 65.5t-61.5 19.5q-45 1 -109.5 2t-85.5 2l-43 -308h-40l97 690q82 8 223 8q113 0 154.5 -42.5t26.5 -155.5zM146 341h183q93 2 134 36t54 127q13 92 -17.5 125t-121.5 33
q-111 0 -187 -2z" />
    <glyph glyph-name="S" unicode="S" horiz-adv-x="555" 
d="M330 701q106 -2 190 -14l-5 -30q-118 7 -199 7q-35 0 -53.5 -1t-44 -7.5t-39 -19.5t-26 -38t-17.5 -62q-6 -56 10.5 -85.5t71.5 -52.5l146 -60q78 -32 102 -71.5t14 -114.5q-7 -43 -21.5 -73t-34 -48t-51 -27t-63.5 -12t-81 -3q-102 0 -195 13l6 31q116 -8 200 -7
q50 1 80 5.5t56.5 17.5t40.5 39t21 69q8 61 -9 89t-77 53l-146 60q-72 30 -96 71t-16 112q8 54 27 88t53 49t67.5 19t88.5 3z" />
    <glyph glyph-name="T" unicode="T" horiz-adv-x="562" 
d="M590 654h-238l-92 -654h-41l92 654h-237l5 36h516z" />
    <glyph glyph-name="U" unicode="U" horiz-adv-x="666" 
d="M629 690l-61 -434q-21 -146 -82.5 -207t-190.5 -61q-131 0 -178.5 62.5t-27.5 208.5l60 431h42l-61 -434q-18 -128 19 -179.5t145 -51.5q109 0 162 53t71 181l60 431h42z" />
    <glyph glyph-name="V" unicode="V" horiz-adv-x="592" 
d="M625 690l-325 -678q-4 -12 -19 -12h-53q-15 0 -17 14l-135 676h42l113 -583q6 -29 13 -74h27q4 11 10 24t13 28.5t11 24.5l276 580h44z" />
    <glyph glyph-name="W" unicode="W" horiz-adv-x="930" 
d="M954 690l-267 -677q-4 -13 -20 -13h-57q-15 0 -17 16l-58 565l-8 75h-24q-5 -12 -10 -25t-11 -28.5t-9 -24.5l-215 -564q-5 -14 -20 -14h-57q-16 0 -18 15l-78 675h42l65 -584l6 -74h28l27 75l218 568q5 15 19 15h54q16 0 18 -17l60 -568q0 -4 6 -73h28l27 75l228 583h43
z" />
    <glyph glyph-name="X" unicode="X" horiz-adv-x="595" 
d="M359 359l162 -359h-43l-154 343h-33l-250 -343h-49l264 360l-153 330h43l144 -313h35l234 313h46z" />
    <glyph glyph-name="Y" unicode="Y" horiz-adv-x="543" 
d="M284 253l-35 -253h-42l36 253l-172 437h42l126 -323q18 -47 26 -72h7q20 36 45 73l217 322h45z" />
    <glyph glyph-name="Z" unicode="Z" horiz-adv-x="555" 
d="M553 654l-493 -618h412l-6 -36h-459l6 36l492 618h-402l5 36h450z" />
    <glyph glyph-name="bracketleft" unicode="[" horiz-adv-x="312" 
d="M329 737h-113q-15 0 -17 -14l-118 -845q-1 -12 9 -12h117l-5 -31h-128q-16 0 -25.5 10.5t-6.5 27.5l120 859q7 36 41 36h130z" />
    <glyph glyph-name="backslash" unicode="\" horiz-adv-x="489" 
d="M410 -61h-35l-289 751h35z" />
    <glyph glyph-name="bracketright" unicode="]" horiz-adv-x="312" 
d="M112 768h128q16 0 25.5 -11t7.5 -27l-121 -859q-2 -16 -13 -26t-27 -10h-131l4 31h114q14 0 16 14l119 845q2 12 -10 12h-116z" />
    <glyph glyph-name="asciicircum" unicode="^" horiz-adv-x="401" 
d="M391 380l-20 -13l-121 179h-8l-174 -179l-19 14l184 201h30z" />
    <glyph glyph-name="underscore" unicode="_" horiz-adv-x="595" 
d="M473 -33h-432l4 33h433z" />
    <glyph glyph-name="grave" unicode="`" horiz-adv-x="287" 
d="M270 566l-19 -19l-147 137l26 29z" />
    <glyph glyph-name="a" unicode="a" horiz-adv-x="566" 
d="M313 494q84 0 191 -15l-67 -479h-31l13 118q-54 -61 -119 -95.5t-119 -34.5q-88 0 -113 59t-3 197q24 152 73.5 201t174.5 49zM419 155l41 298q-85 6 -139 6q-115 0 -155 -41t-61 -179q-20 -117 -3.5 -166t83.5 -49q49 0 112.5 34.5t121.5 96.5z" />
    <glyph glyph-name="b" unicode="b" horiz-adv-x="564" 
d="M364 494q85 0 114.5 -56.5t8.5 -199.5q-14 -105 -41.5 -159t-69.5 -72.5t-118 -18.5q-93 0 -209 32h-1l96 680h39l-29 -201q-12 -79 -24 -133q136 128 234 128zM446 243q17 124 -1.5 169.5t-88.5 45.5q-44 0 -96 -29.5t-128 -92.5l-41 -295q80 -18 156 -18
q106 0 143.5 42.5t55.5 177.5z" />
    <glyph glyph-name="c" unicode="c" horiz-adv-x="477" 
d="M312 494q83 0 139 -19l-8 -27q-45 10 -124 10q-106 0 -154.5 -46.5t-65.5 -172.5q-18 -125 16 -170t138 -45q85 0 142 11l4 -28q-74 -19 -152 -19q-123 0 -166 58t-24 197q19 138 77 194.5t178 56.5z" />
    <glyph glyph-name="d" unicode="d" horiz-adv-x="565" 
d="M534 700l-99 -700h-31l12 118q-120 -130 -246 -130q-80 0 -103 61t-4 195q22 151 72.5 200.5t174.5 49.5q74 0 157 -11q1 38 9 93l18 124h40zM417 156l42 298q-97 5 -139 5q-116 0 -156.5 -41t-60.5 -179q-18 -111 -3 -163t78 -52q113 0 239 132z" />
    <glyph glyph-name="e" unicode="e" horiz-adv-x="529" 
d="M311 494q100 0 142.5 -33.5t23.5 -116.5q-13 -61 -49.5 -86t-116.5 -33l-217 -23q-11 -104 24 -141.5t130 -37.5q80 0 177 13l4 -28q-68 -20 -192 -20q-119 0 -159 59.5t-20 199.5q11 76 30.5 124.5t51.5 75.5t71.5 37t99.5 10zM438 347q4 25 5.5 43t-7.5 30.5t-18.5 20
t-27.5 11.5t-35.5 5.5t-41.5 1.5q-54 0 -86.5 -7.5t-59 -30.5t-42 -65t-26.5 -112l-1 -10l214 24q62 7 88 25t38 64z" />
    <glyph glyph-name="f" unicode="f" horiz-adv-x="358" 
d="M424 680h-106q-58 0 -85 -23t-34 -81l-13 -94h172l-6 -34h-171l-74 -521q-9 -69 -41.5 -102t-96.5 -33q-43 0 -95 5l4 30h78q54 0 79 23t33 82l72 516h-87l4 29l88 5l14 98q9 68 43.5 101.5t102.5 33.5q79 0 124 -5z" />
    <glyph glyph-name="g" unicode="g" horiz-adv-x="571" 
d="M511 479l-74 -481q-30 -201 -233 -216q-93 -7 -184 6l5 28q95 -5 173 1q86 8 135.5 50.5t63.5 127.5q19 103 29 130q-55 -64 -122.5 -100.5t-123.5 -36.5q-86 0 -111 59t-4 197q24 152 73.5 201t172.5 49q86 0 194 -15h6zM186 24q49 0 112.5 35t123.5 99l44 295
q-90 6 -145 6q-115 0 -154.5 -40.5t-61.5 -179.5q-20 -116 -3.5 -165.5t84.5 -49.5z" />
    <glyph glyph-name="h" unicode="h" horiz-adv-x="570" 
d="M381 494q63 0 92.5 -34t20.5 -99l-51 -361h-40l51 355q7 55 -13 79t-70 24q-49 0 -103 -29.5t-133 -94.5l-48 -334h-39l99 700h39l-29 -211q-9 -71 -22 -121q149 126 246 126z" />
    <glyph glyph-name="i" unicode="i" horiz-adv-x="225" 
d="M158 683h18q16 0 14 -17l-9 -61q-1 -14 -16 -14h-17q-18 0 -16 17l9 60q1 15 17 15zM91 0h-39l68 482h39z" />
    <glyph glyph-name="j" unicode="j" horiz-adv-x="226" 
d="M158 683h18q16 0 14 -17l-9 -61q-1 -14 -16 -14h-17q-18 0 -16 17l9 60q1 15 17 15zM159 482l-73 -521q-13 -96 -96 -169l-21 17q66 73 78 155l73 518h39z" />
    <glyph glyph-name="k" unicode="k" horiz-adv-x="496" 
d="M286 267q5 -8 14 -26l13 -26l105 -215h-44l-120 249q-51 -28 -139 -57l-28 -192h-39l99 700h39l-51 -377q-9 -55 -20 -96q117 37 197.5 102t116.5 153h41q-52 -135 -184 -215z" />
    <glyph glyph-name="l" unicode="l" horiz-adv-x="272" 
d="M187 700l-83 -595q-12 -75 64 -75h57l1 -29q-22 -8 -70 -8q-49 0 -74.5 28.5t-18.5 79.5l85 599h39z" />
    <glyph glyph-name="m" unicode="m" horiz-adv-x="875" 
d="M686 494q64 0 93 -34.5t20 -98.5l-51 -361h-39l50 355q7 55 -13.5 79t-70.5 24q-43 0 -88.5 -28t-121.5 -94l-47 -336h-39l50 355q7 54 -13 78.5t-71 24.5q-43 0 -88.5 -28t-122.5 -95l-47 -335h-39l68 482h30l-12 -114q134 126 222 126q61 0 90 -31.5t24 -89.5
q66 61 117 91t99 30z" />
    <glyph glyph-name="n" unicode="n" horiz-adv-x="570" 
d="M381 494q63 0 92.5 -34t20.5 -99l-51 -361h-40l51 355q7 55 -13 79t-70 24q-48 0 -102.5 -29.5t-134.5 -93.5l-47 -335h-39l68 482h31l-12 -114q149 126 246 126z" />
    <glyph glyph-name="o" unicode="o" 
d="M305 494q119 0 160 -58t22 -198q-20 -138 -75 -194t-172 -56q-119 0 -160.5 58t-22.5 197q20 138 75 194.5t173 56.5zM305 458q-98 0 -143.5 -47.5t-62.5 -172.5q-17 -122 14 -168.5t127 -46.5q97 0 143 48t63 172q17 122 -14 168.5t-127 46.5z" />
    <glyph glyph-name="p" unicode="p" horiz-adv-x="566" 
d="M372 494q88 0 112 -58t4 -198q-23 -152 -73 -201t-174 -49q-74 0 -157 11q-1 -38 -9 -93l-18 -122h-40l99 698h31l-12 -119q54 60 120.5 95.5t116.5 35.5zM448 243q19 117 2.5 166t-83.5 49q-46 0 -110 -35t-123 -97l-42 -298q116 -6 139 -6q116 0 156.5 41.5t60.5 179.5
z" />
    <glyph glyph-name="q" unicode="q" horiz-adv-x="565" 
d="M291 494q94 0 210 -32l-95 -678h-40l30 207q10 66 25 132q-64 -70 -119.5 -102.5t-119.5 -32.5q-81 0 -110 56.5t-9 199.5q14 104 41.5 158t69.5 73t117 19zM191 24q55 0 103 28.5t125 102.5l40 286q-80 18 -157 18q-105 0 -143.5 -42.5t-55.5 -177.5q-15 -122 2 -168.5
t86 -46.5z" />
    <glyph glyph-name="r" unicode="r" horiz-adv-x="387" 
d="M394 494l-11 -38h-19q-47 0 -97.5 -29t-132.5 -95l-47 -332h-39l68 482h30l-12 -117q139 129 239 129h21z" />
    <glyph glyph-name="s" unicode="s" horiz-adv-x="500" 
d="M264 494q96 -1 191 -13l-6 -29q-117 6 -184 7q-86 2 -117.5 -11t-39.5 -66q-6 -39 8 -57.5t55 -34.5l154 -60q56 -22 78.5 -48t14.5 -80q-5 -38 -21 -61.5t-46 -35t-61.5 -14.5t-85.5 -3q-80 0 -174 13l5 29q83 -8 167 -7q97 2 133.5 17.5t43.5 66.5q5 40 -10.5 56.5
t-58.5 33.5l-153 60q-53 21 -74.5 47t-13.5 82q11 69 54.5 89.5t140.5 18.5z" />
    <glyph glyph-name="t" unicode="t" horiz-adv-x="350" 
d="M178 448l-48 -343q-12 -75 64 -75h86l1 -29q-45 -8 -91 -8q-57 0 -82.5 28.5t-17.5 81.5l48 345h-88l4 29l89 5l21 149h39l-21 -149h173l-6 -34h-171z" />
    <glyph glyph-name="u" unicode="u" 
d="M497 482l-68 -482h-30l13 121q-135 -133 -237 -133q-65 0 -94.5 34t-19.5 99l51 361h40l-51 -355q-7 -54 13 -78.5t71 -24.5q50 0 102 32t125 102l46 324h39z" />
    <glyph glyph-name="v" unicode="v" horiz-adv-x="510" 
d="M453 482h41q-37 -155 -115 -293q-63 -109 -105 -159q-25 -30 -62 -30h-41q-14 0 -16 13l-100 469h42l90 -449h18q16 0 25 5t22 21q43 54 94 147q74 135 107 276z" />
    <glyph glyph-name="w" unicode="w" horiz-adv-x="823" 
d="M177 33h13q21 0 39 25q41 58 79 150q46 107 83 263q2 12 15 12l42 -1q13 0 15 -12l64 -437h12q20 0 38 26q57 84 88 148q60 122 91 275h42q-40 -171 -102 -293q-58 -110 -98 -160q-26 -29 -59 -29h-28q-14 0 -16 13l-63 439h-11q-29 -138 -79 -254q-18 -45 -45 -94.5
t-46 -72.5q-23 -31 -62 -31h-28q-12 0 -16 13l-90 469h41z" />
    <glyph glyph-name="x" unicode="x" horiz-adv-x="507" 
d="M294 250l142 -250h-43l-131 235h-27l-197 -235h-48l213 251l-131 231h42l121 -214h28l182 214h46z" />
    <glyph glyph-name="y" unicode="y" horiz-adv-x="518" 
d="M455 482h41q-58 -228 -176 -418q-79 -130 -140 -193.5t-135 -79.5l-7 27q53 17 100 60.5t99 121.5h-38q-19 0 -32 11t-17 28l-97 443h42l89 -425q6 -24 30 -24l44 1l25 40q111 183 172 408z" />
    <glyph glyph-name="z" unicode="z" horiz-adv-x="490" 
d="M459 447l-395 -413h340l-5 -34h-390l5 34l395 413h-333l4 35h384z" />
    <glyph glyph-name="braceleft" unicode="{" horiz-adv-x="303" 
d="M322 768l-2 -27q-56 0 -82.5 -25t-33.5 -79l-27 -198q-9 -60 -27 -80t-69 -31q47 -17 61 -38t7 -72l-35 -255q-8 -53 10.5 -77t74.5 -24l-3 -27q-74 -1 -102.5 30t-18.5 99l37 268q6 44 -17 59q-9 7 -41 19l6 38q46 14 56 24q14 14 20 59l30 210q9 69 45 99t111 28z" />
    <glyph glyph-name="bar" unicode="|" horiz-adv-x="236" 
d="M70 -169h-33l133 950h33z" />
    <glyph glyph-name="braceright" unicode="}" horiz-adv-x="302" 
d="M110 741l2 27q74 2 102.5 -29.5t19.5 -99.5l-30 -211q-6 -46 3 -57.5t51 -24.5l-6 -38q-26 -9 -33.5 -12.5t-21 -12.5t-18 -21t-7.5 -33l-37 -267q-10 -69 -45 -98.5t-110 -28.5l2 27q56 0 81.5 25t32.5 78l37 256q7 52 25 71t72 36q-46 11 -59 32.5t-4 81.5l29 198
q7 54 -11 77.5t-75 23.5z" />
    <glyph glyph-name="asciitilde" unicode="~" horiz-adv-x="530" 
d="M162 335q43 -3 102.5 -33.5t97.5 -32.5q30 -2 45.5 12.5t20.5 49.5l24 -3q-4 -46 -27.5 -70.5t-58.5 -21.5q-52 3 -110 33.5t-90 32.5q-57 6 -66 -66l-24 3q4 49 27 73.5t59 22.5z" />
    <glyph glyph-name="uni00A0" unicode="&#xa0;" horiz-adv-x="228" 
 />
    <glyph glyph-name="exclamdown" unicode="&#xa1;" horiz-adv-x="236" 
d="M138 483h14q16 0 15 -18l-9 -58q-2 -18 -19 -18h-12q-19 0 -16 18l8 60q3 16 19 16zM114 120l-46 -323h-40l46 323l26 158h33z" />
    <glyph glyph-name="cent" unicode="&#xa2;" horiz-adv-x="503" 
d="M467 583l-8 -27q-41 9 -111 11l-92 -435h12q72 0 143 12l4 -29q-81 -19 -152 -19h-16l-21 -96h-27l22 98q-98 9 -132 68t-15 186q19 138 76.5 194t177.5 56h1l19 88h27l-19 -89q68 -2 111 -18zM115 349q-16 -114 10 -161t105 -54l91 433q-98 -2 -143.5 -49t-62.5 -169z
" />
    <glyph glyph-name="sterling" unicode="&#xa3;" horiz-adv-x="560" 
d="M357 665q-74 0 -107.5 -31.5t-40.5 -107.5l-14 -149h242l-5 -28h-239l-9 -98q-7 -78 -29.5 -131.5t-72.5 -84.5q18 1 60 1h327l-4 -36h-437l4 36q54 30 79.5 82.5t32.5 130.5l9 100h-82l4 28h81l13 150q6 57 22 93t45.5 53t59.5 22.5t78 5.5q71 0 162 -10l-5 -31
q-98 5 -174 5z" />
    <glyph glyph-name="currency" unicode="&#xa4;" horiz-adv-x="599" 
d="M499 350q-9 -80 -58 -129l69 -79l-21 -18l-68 79q-56 -43 -132 -43q-79 0 -128 47l-77 -69l-19 21l78 69q-36 52 -27 126q9 81 60 133l-68 79l21 19l69 -79q53 39 129 39t122 -43l79 70l18 -22l-78 -68q40 -54 31 -132zM283 187q77 -2 128.5 44.5t59.5 123.5
q7 71 -31 117t-113 46q-78 0 -126.5 -46.5t-56.5 -121.5q-8 -71 30.5 -116t108.5 -47z" />
    <glyph glyph-name="yen" unicode="&#xa5;" horiz-adv-x="605" 
d="M343 310h174l-4 -28h-190l-4 -6l-11 -76h194l-5 -28h-193l-24 -172h-41l24 172h-188l4 28h188l11 77l-2 5h-185l3 28h170l-162 380h43l127 -299q1 -3 12 -30t16 -41h8q18 30 47 71l210 299h46z" />
    <glyph glyph-name="brokenbar" unicode="&#xa6;" horiz-adv-x="236" 
d="M147 381h-33l56 400h33zM70 -169h-33l56 400h33z" />
    <glyph glyph-name="section" unicode="&#xa7;" horiz-adv-x="543" 
d="M308 702q118 0 216 -12l-5 -30q-95 6 -204 7q-80 1 -116.5 -13.5t-44.5 -68.5q-10 -70 59 -111l170 -105q61 -38 71.5 -93t-15.5 -132l-32 1q19 67 12 113t-51 74l-172 107q-53 33 -71.5 67.5t-11.5 84.5q10 68 55 90t140 21zM101 409l32 -2q-19 -66 -12.5 -110.5
t50.5 -71.5l174 -107q51 -31 70 -66t12 -86q-6 -40 -22 -64t-44.5 -35t-56 -13.5t-73.5 -2.5q-106 2 -216 12l5 31q129 -7 205 -8q31 0 48.5 0.5t40 5t35 13t23.5 25.5t14 41q8 71 -58 112l-170 104q-61 37 -72 91t15 131z" />
    <glyph glyph-name="dieresis" unicode="&#xa8;" horiz-adv-x="402" 
d="M169 682h13q14 0 13 -15l-8 -53q-3 -16 -17 -16h-12q-14 0 -13 15l8 54q1 15 16 15zM344 682h13q15 0 13 -15l-8 -53q-3 -16 -17 -16h-12q-14 0 -13 15l8 54q2 15 16 15z" />
    <glyph glyph-name="copyright" unicode="&#xa9;" horiz-adv-x="850" 
d="M479 702q154 0 243 -99.5t68 -259.5q-21 -158 -129.5 -256.5t-273.5 -98.5q-154 0 -243 100t-68 259q20 157 128.5 256t274.5 99zM479 677q-154 0 -255.5 -93t-121.5 -241q-19 -148 62.5 -239t221.5 -91q154 0 256 93t121 241q19 147 -61.5 238.5t-222.5 91.5zM470 577
q75 0 131 -13l-7 -22q-53 5 -122 5q-94 0 -136.5 -43t-59.5 -159q-15 -110 14 -153t117 -43q95 0 143 7l3 -24q-59 -13 -142 -13q-111 0 -148 51.5t-20 179.5q18 126 68.5 176.5t158.5 50.5z" />
    <glyph glyph-name="ordfeminine" unicode="&#xaa;" horiz-adv-x="445" 
d="M268 602q51 0 132 -11l-45 -321h-26l7 72q-73 -79 -150 -79q-63 0 -86.5 34.5t-9.5 136.5q14 100 55 134t123 34zM338 371l28 200q-57 3 -90 3q-76 0 -108 -27t-45 -116q-12 -84 2.5 -111.5t64.5 -27.5q67 0 148 79z" />
    <glyph glyph-name="guillemotleft" unicode="&#xab;" horiz-adv-x="458" 
d="M251 438l-170 -189l118 -190l-21 -15l-136 203l1 11l190 197zM415 438l-170 -189l118 -190l-21 -15l-136 203l1 11l190 197z" />
    <glyph glyph-name="logicalnot" unicode="&#xac;" horiz-adv-x="590" 
d="M508 313l-26 -179h-34l21 146h-388l4 33h423z" />
    <glyph glyph-name="softhyphen" unicode="&#xad;" horiz-adv-x="473" 
d="M383 235h-310l5 33h309z" />
    <glyph glyph-name="registered" unicode="&#xae;" horiz-adv-x="573" 
d="M334 701q102 0 157.5 -61.5t43.5 -162.5q-12 -96 -77.5 -158.5t-164.5 -62.5q-100 0 -157 63.5t-45 166.5q11 101 78 158t165 57zM514 482q11 93 -38.5 146.5t-141.5 53.5q-95 0 -154 -54.5t-69 -145.5q-10 -94 41 -150.5t141 -56.5q91 0 150.5 58.5t70.5 148.5zM328 620
q61 0 85.5 -15t18.5 -64q-4 -35 -19.5 -51t-50.5 -21v-2q22 -7 31 -40l23 -86h-25l-22 87q-9 33 -44 33q-81 0 -94 1l-17 -121h-23l39 276q37 3 98 3zM409 544q5 36 -11.5 46.5t-65.5 10.5l-81 -1l-17 -121h86q46 1 65.5 13t23.5 52z" />
    <glyph glyph-name="macron" unicode="&#xaf;" horiz-adv-x="400" 
d="M386 621h-265l4 33h265z" />
    <glyph glyph-name="degree" unicode="&#xb0;" horiz-adv-x="376" 
d="M239 702q55 0 87 -35.5t26 -90.5q-6 -56 -45 -89.5t-92 -33.5q-57 0 -87 37.5t-25 90.5q6 54 44.5 87.5t91.5 33.5zM238 675q-43 0 -72.5 -27.5t-33.5 -70.5q-4 -42 19 -69.5t65 -27.5t72.5 27t34.5 72q5 42 -18.5 69t-66.5 27z" />
    <glyph glyph-name="plusminus" unicode="&#xb1;" horiz-adv-x="594" 
d="M518 366l-5 -32h-194l-21 -144h-32l20 144h-195l5 32h194l20 144h34l-21 -144h195zM61 120h423l-5 -32h-423z" />
    <glyph glyph-name="twosuperior" unicode="&#xb2;" horiz-adv-x="429" 
d="M271 781q69 0 101 -18.5t25 -69.5q-6 -39 -30 -73t-78 -83l-164 -145q25 1 74 1h173l-3 -33h-292l2 22q2 11 7 15l169 151q53 47 78 81.5t29 67.5q3 33 -18.5 43t-72.5 10q-61 0 -132 -11l-3 26q73 16 135 16z" />
    <glyph glyph-name="threesuperior" unicode="&#xb3;" horiz-adv-x="410" 
d="M260 781q76 0 104.5 -22.5t21.5 -74.5q-13 -94 -83 -104l-1 -3q82 -11 68 -103q-8 -51 -47 -84.5t-116 -36.5q-63 -3 -131 10l6 27q71 -9 121 -6q119 8 133 96q6 38 -13 61t-77 23l-85 1l3 26l84 2q56 1 78 25.5t27 62.5q5 41 -14.5 55.5t-82.5 14.5q-42 0 -114 -7l-3 27
q64 10 121 10z" />
    <glyph glyph-name="acute" unicode="&#xb4;" horiz-adv-x="287" 
d="M301 683l-181 -136l-17 20l175 147z" />
    <glyph glyph-name="paragraph" unicode="&#xb6;" horiz-adv-x="595" 
d="M397 702q79 0 149 -17l-97 -685h-36l94 663q-60 8 -137 8l-124 -881h-35l58 411q-234 26 -197 266q20 138 91.5 186.5t233.5 48.5z" />
    <glyph glyph-name="periodcentered" unicode="&#xb7;" horiz-adv-x="212" 
d="M100 304h15q17 0 15 -18l-9 -60q-1 -16 -18 -16h-15q-18 0 -16 18l9 60q3 16 19 16z" />
    <glyph glyph-name="cedilla" unicode="&#xb8;" horiz-adv-x="223" 
d="M53 -68l4 21q92 6 79 -68q-8 -54 -52.5 -84.5t-107.5 -22.5l8 23q47 -2 81 23.5t40 63.5q4 25 -7 34t-45 10z" />
    <glyph glyph-name="onesuperior" unicode="&#xb9;" horiz-adv-x="283" 
d="M206 360h-34l49 349q3 19 7 32l-124 -35l-2 25l128 43h35z" />
    <glyph glyph-name="ordmasculine" unicode="&#xba;" horiz-adv-x="445" 
d="M262 602q86 0 116 -38.5t16 -133.5q-13 -93 -52 -130t-122 -37q-85 0 -114.5 38.5t-16.5 133.5q13 92 51.5 129.5t121.5 37.5zM263 574q-68 0 -98.5 -31t-41.5 -113q-11 -79 10 -109t87 -30t97 31.5t43 112.5q11 80 -10 109.5t-87 29.5z" />
    <glyph glyph-name="guillemotright" unicode="&#xbb;" horiz-adv-x="457" 
d="M30 61l170 189l-118 190l21 15l136 -203l-1 -11l-190 -197zM194 61l170 189l-118 190l21 15l136 -203l-1 -11l-190 -197z" />
    <glyph glyph-name="onequarter" unicode="&#xbc;" horiz-adv-x="839" 
d="M685 690l-569 -690h-34l569 690h34zM96 624l-1 22l129 44h33l-58 -414h-33l49 352q5 26 7 32zM767 114l-47 -3l-16 -111h-31l15 110h-218q-23 0 -32 17t4 37l177 250h35l-177 -251q-7 -10 -3 -18t17 -8h201l18 129l16 70h25l-28 -199h48z" />
    <glyph glyph-name="onehalf" unicode="&#xbd;" horiz-adv-x="865" 
d="M114 0h-34l568 690h34zM198 276h-33l49 352q3 19 7 32l-125 -36l-2 22l129 44h33zM669 421q74 0 105.5 -18t23.5 -71q-5 -37 -30.5 -71.5t-80.5 -83.5l-169 -148q27 1 78 1l180 -1l-5 -29h-298l3 20q1 8 8 15l171 151q100 90 108 151q4 35 -18 45t-74 10q-63 0 -134 -11
l-4 24q75 16 136 16z" />
    <glyph glyph-name="threequarters" unicode="&#xbe;" horiz-adv-x="931" 
d="M359 386q-8 -62 -44 -90.5t-113 -28.5q-53 0 -141 10l4 25q72 -7 129 -7q63 0 93.5 23t37.5 76q6 39 -12.5 62t-79.5 23l-87 1l4 24l84 1q98 2 110 91q6 41 -15.5 56t-84.5 15q-54 0 -118 -6l-3 24q63 10 122 10q82 0 111 -21.5t21 -76.5q-12 -89 -88 -102l-3 -2
q83 -12 73 -107zM790 690l-569 -690h-34l569 690h34zM859 114l-56 -3l-15 -111h-32l16 110h-211q-22 0 -31.5 17t3.5 37l178 250h34l-177 -251q-7 -10 -3 -18t17 -8h194l18 129l16 70h25l-28 -199h55z" />
    <glyph glyph-name="questiondown" unicode="&#xbf;" horiz-adv-x="497" 
d="M277 492h14q18 0 15 -17l-8 -60q-1 -17 -18 -17h-13q-17 0 -16 18l9 61q1 15 17 15zM238 288l35 -2q-7 -52 -31.5 -94.5t-55 -71.5t-61 -55t-54.5 -58.5t-29 -69.5q-9 -63 24.5 -92.5t115.5 -29.5q94 0 201 13l4 -29l-36 -6t-36 -5.5t-33.5 -3.5t-46.5 -3t-57 -1
q-98 0 -143 40t-35 118q6 41 30 76.5t55.5 62.5t63 55t57 68t32.5 88z" />
    <glyph glyph-name="Agrave" unicode="&#xc0;" horiz-adv-x="604" 
d="M391 734l-147 137l26 29l140 -147zM458 242h-318l-119 -242h-45l337 678q4 12 18 12h56q15 0 17 -14l146 -676h-42zM450 279l-67 321l-11 56h-30l-27 -57l-157 -320h292z" />
    <glyph glyph-name="Aacute" unicode="&#xc1;" horiz-adv-x="604" 
d="M333 734l-17 20l175 147l23 -31zM458 242h-318l-119 -242h-45l337 678q4 12 18 12h56q15 0 17 -14l146 -676h-42zM450 279l-67 321l-11 56h-30l-27 -57l-157 -320h292z" />
    <glyph glyph-name="Acircumflex" unicode="&#xc2;" horiz-adv-x="604" 
d="M235 745l-14 20l151 119h29l122 -121l-17 -17l-116 101h-9zM458 242h-318l-119 -242h-45l337 678q4 12 18 12h56q15 0 17 -14l146 -676h-42zM450 279l-67 321l-11 56h-30l-27 -57l-157 -320h292z" />
    <glyph glyph-name="Atilde" unicode="&#xc3;" horiz-adv-x="604" 
d="M314 837q-58 6 -67 -65l-23 3q4 49 27.5 73t59.5 21q31 -3 68 -32.5t64 -32.5q60 -4 67 61l23 -2q-4 -46 -27 -70t-59 -21t-74 33t-59 32zM458 242h-318l-119 -242h-45l337 678q4 12 18 12h56q15 0 17 -14l146 -676h-42zM450 279l-67 321l-11 56h-30l-27 -57l-157 -320
h292z" />
    <glyph glyph-name="Adieresis" unicode="&#xc4;" horiz-adv-x="604" 
d="M291 775h-12q-14 0 -13 15l8 54q2 15 16 15h13q15 0 13 -15l-8 -53q-3 -16 -17 -16zM466 775h-12q-14 0 -13 15l8 54q1 15 16 15h13q14 0 13 -15l-8 -53q-3 -16 -17 -16zM458 242h-318l-119 -242h-45l337 678q4 12 18 12h56q15 0 17 -14l146 -676h-42zM450 279l-67 321
l-11 56h-30l-27 -57l-157 -320h292z" />
    <glyph glyph-name="Aring" unicode="&#xc5;" horiz-adv-x="604" 
d="M370 718q-44 0 -70 29t-21 71q5 40 34.5 67.5t72.5 27.5q44 0 70 -29t21 -71q-6 -39 -35.5 -67t-71.5 -28zM307 814q-4 -30 14 -50t49 -20t53 21.5t26 52.5q3 30 -14 50t-49 20t-53.5 -21.5t-25.5 -52.5zM458 242h-318l-119 -242h-45l337 678q4 12 18 12h56q15 0 17 -14
l146 -676h-42zM450 279l-67 321l-11 56h-30l-27 -57l-157 -320h292z" />
    <glyph glyph-name="AE" unicode="&#xc6;" horiz-adv-x="906" 
d="M901 655h-265q-35 0 -59.5 -21.5t-30.5 -58.5l-26 -189l302 -1l-5 -33l-302 -1l-33 -239q-5 -35 12.5 -56t52.5 -21h267l-2 -31q-92 -4 -273 -4q-50 0 -77 31.5t-20 80.5l21 148h-247l-203 -260h-46l468 600q43 54 85 72t106 18q177 0 280 -4zM468 295l40 286
q2 23 16.5 45t31.5 29h-4q-41 -16 -83 -71l-225 -288z" />
    <glyph glyph-name="Ccedilla" unicode="&#xc7;" 
d="M385 702q105 0 177 -18l-9 -30q-77 11 -168 11q-125 0 -181.5 -70t-82.5 -252q-25 -178 12 -248t157 -70q109 0 188 13l5 -31q-82 -19 -193 -19q-144 0 -191.5 81.5t-19.5 277.5q28 197 95.5 276t210.5 79zM241 -80l4 21q92 6 79 -68q-8 -54 -52.5 -84.5t-107.5 -22.5
l8 23q47 -2 81 23.5t40 63.5q4 25 -7 34t-45 10z" />
    <glyph glyph-name="Egrave" unicode="&#xc8;" horiz-adv-x="551" 
d="M392 758l-147 137l26 29l140 -147zM544 655h-283q-78 0 -89 -80l-26 -190h321l-5 -33l-321 -1l-33 -239q-5 -36 12.5 -56.5t53.5 -20.5h283v-31q-96 -4 -290 -4q-52 0 -80 31t-20 81l66 473q6 48 38 76.5t84 28.5q199 0 296 -4z" />
    <glyph glyph-name="Eacute" unicode="&#xc9;" horiz-adv-x="551" 
d="M333 758l-17 20l175 147l23 -31zM544 655h-283q-78 0 -89 -80l-26 -190h321l-5 -33l-321 -1l-33 -239q-5 -36 12.5 -56.5t53.5 -20.5h283v-31q-96 -4 -290 -4q-52 0 -80 31t-20 81l66 473q6 48 38 76.5t84 28.5q199 0 296 -4z" />
    <glyph glyph-name="Ecircumflex" unicode="&#xca;" horiz-adv-x="551" 
d="M235 769l-14 20l151 119h29l122 -121l-17 -17l-116 101h-9zM544 655h-283q-78 0 -89 -80l-26 -190h321l-5 -33l-321 -1l-33 -239q-5 -36 12.5 -56.5t53.5 -20.5h283v-31q-96 -4 -290 -4q-52 0 -80 31t-20 81l66 473q6 48 38 76.5t84 28.5q199 0 296 -4z" />
    <glyph glyph-name="Edieresis" unicode="&#xcb;" horiz-adv-x="551" 
d="M292 799h-12q-14 0 -13 15l8 54q1 15 16 15h13q14 0 13 -15l-8 -53q-3 -16 -17 -16zM467 799h-12q-14 0 -13 15l8 54q2 15 16 15h13q15 0 13 -15l-8 -53q-3 -16 -17 -16zM544 655h-283q-78 0 -89 -80l-26 -190h321l-5 -33l-321 -1l-33 -239q-5 -36 12.5 -56.5t53.5 -20.5
h283v-31q-96 -4 -290 -4q-52 0 -80 31t-20 81l66 473q6 48 38 76.5t84 28.5q199 0 296 -4z" />
    <glyph glyph-name="Igrave" unicode="&#xcc;" horiz-adv-x="239" 
d="M224 753l-19 -19l-147 137l26 29zM99 0h-41l97 690h41z" />
    <glyph glyph-name="Iacute" unicode="&#xcd;" horiz-adv-x="239" 
d="M328 870l-181 -136l-17 20l175 147zM99 0h-41l97 690h41z" />
    <glyph glyph-name="Icircumflex" unicode="&#xce;" horiz-adv-x="239" 
d="M337 763l-17 -17l-116 101h-9l-146 -102l-14 20l151 119h29zM99 0h-41l97 690h41z" />
    <glyph glyph-name="Idieresis" unicode="&#xcf;" horiz-adv-x="239" 
d="M104 859h13q15 0 13 -15l-8 -53q-3 -16 -17 -16h-12q-14 0 -13 15l8 54q2 15 16 15zM279 859h13q14 0 13 -15l-8 -53q-3 -16 -17 -16h-12q-14 0 -13 15l8 54q1 15 16 15zM99 0h-41l97 690h41z" />
    <glyph glyph-name="Eth" unicode="&#xd0;" horiz-adv-x="659" 
d="M383 699q145 0 192 -79.5t20 -276.5q-27 -202 -95 -277t-212 -75q-106 0 -230 9l50 356h-79l4 28h79l43 306q121 9 228 9zM553 347q25 179 -12 247t-158 68q-20 0 -191 -3l-39 -275h173l-4 -28h-173l-46 -325q168 -3 184 -3q124 0 182 68t84 251z" />
    <glyph glyph-name="Ntilde" unicode="&#xd1;" horiz-adv-x="692" 
d="M361 869q31 -3 68 -32.5t64 -32.5q60 -4 67 61l23 -2q-4 -46 -27 -70t-59 -21t-74 33t-59 32q-58 6 -67 -65l-23 3q4 49 27.5 73t59.5 21zM650 690l-95 -671q-1 -19 -21 -19h-51q-16 0 -22 17l-221 563q-21 55 -28 73h-23q-6 -52 -10 -82l-80 -571h-41l94 671q4 19 22 19
h48q17 0 23 -17l216 -550l32 -86h25l12 89l79 564h41z" />
    <glyph glyph-name="Ograve" unicode="&#xd2;" horiz-adv-x="662" 
d="M441 753l-19 -19l-147 137l26 29zM386 702q143 0 191 -81t20 -278q-27 -198 -94.5 -276.5t-210.5 -78.5t-192 80.5t-21 278.5q28 197 95.5 276t211.5 79zM385 665q-124 0 -180.5 -70.5t-82.5 -251.5q-25 -178 12.5 -248t157.5 -70q123 0 180.5 71t82.5 251
q26 180 -10.5 249t-159.5 69z" />
    <glyph glyph-name="Oacute" unicode="&#xd3;" horiz-adv-x="662" 
d="M544 870l-181 -136l-17 20l175 147zM386 702q143 0 191 -81t20 -278q-27 -198 -94.5 -276.5t-210.5 -78.5t-192 80.5t-21 278.5q28 197 95.5 276t211.5 79zM385 665q-124 0 -180.5 -70.5t-82.5 -251.5q-25 -178 12.5 -248t157.5 -70q123 0 180.5 71t82.5 251
q26 180 -10.5 249t-159.5 69z" />
    <glyph glyph-name="Ocircumflex" unicode="&#xd4;" horiz-adv-x="662" 
d="M553 763l-17 -17l-116 101h-9l-146 -102l-14 20l151 119h29zM386 702q143 0 191 -81t20 -278q-27 -198 -94.5 -276.5t-210.5 -78.5t-192 80.5t-21 278.5q28 197 95.5 276t211.5 79zM385 665q-124 0 -180.5 -70.5t-82.5 -251.5q-25 -178 12.5 -248t157.5 -70
q123 0 180.5 71t82.5 251q26 180 -10.5 249t-159.5 69z" />
    <glyph glyph-name="Otilde" unicode="&#xd5;" horiz-adv-x="662" 
d="M342 869q31 -3 68 -32.5t64 -32.5q60 -4 67 61l23 -2q-4 -46 -27 -70t-59 -21t-74 33t-59 32q-58 6 -67 -65l-23 3q4 49 27.5 73t59.5 21zM386 702q143 0 191 -81t20 -278q-27 -198 -94.5 -276.5t-210.5 -78.5t-192 80.5t-21 278.5q28 197 95.5 276t211.5 79zM385 665
q-124 0 -180.5 -70.5t-82.5 -251.5q-25 -178 12.5 -248t157.5 -70q123 0 180.5 71t82.5 251q26 180 -10.5 249t-159.5 69z" />
    <glyph glyph-name="Odieresis" unicode="&#xd6;" horiz-adv-x="662" 
d="M321 859h13q14 0 13 -15l-8 -53q-3 -16 -17 -16h-12q-14 0 -13 15l8 54q1 15 16 15zM496 859h13q15 0 13 -15l-8 -53q-3 -16 -17 -16h-12q-14 0 -13 15l8 54q2 15 16 15zM386 702q143 0 191 -81t20 -278q-27 -198 -94.5 -276.5t-210.5 -78.5t-192 80.5t-21 278.5
q28 197 95.5 276t211.5 79zM385 665q-124 0 -180.5 -70.5t-82.5 -251.5q-25 -178 12.5 -248t157.5 -70q123 0 180.5 71t82.5 251q26 180 -10.5 249t-159.5 69z" />
    <glyph glyph-name="multiply" unicode="&#xd7;" horiz-adv-x="526" 
d="M287 286l140 -144l-24 -25l-143 148l-186 -148l-21 27l183 146l-139 143l24 24l142 -146l186 149l22 -27z" />
    <glyph glyph-name="Oslash" unicode="&#xd8;" horiz-adv-x="662" 
d="M589 730l-43 -71q86 -73 51 -316q-27 -198 -94.5 -276.5t-210.5 -78.5q-86 0 -138 28l-42 -69l-25 14l44 71q-86 73 -52 315q28 197 95.5 276t211.5 79q88 0 136 -27l42 69zM122 343q-29 -208 31 -274l348 572q-40 24 -116 24q-124 0 -180.5 -70.5t-82.5 -251.5zM555 347
q16 108 9 175.5t-40 100.5l-349 -572q42 -26 117 -26q123 0 180.5 71t82.5 251z" />
    <glyph glyph-name="Ugrave" unicode="&#xd9;" horiz-adv-x="666" 
d="M440 753l-19 -19l-147 137l26 29zM629 690l-61 -434q-20 -146 -82 -207t-191 -61q-131 0 -178.5 62.5t-27.5 208.5l61 431h41l-61 -434q-17 -128 19.5 -179.5t144.5 -51.5q110 0 162.5 53t70.5 181l61 431h41z" />
    <glyph glyph-name="Uacute" unicode="&#xda;" horiz-adv-x="666" 
d="M543 870l-181 -136l-17 20l175 147zM629 690l-61 -434q-20 -146 -82 -207t-191 -61q-131 0 -178.5 62.5t-27.5 208.5l61 431h41l-61 -434q-17 -128 19.5 -179.5t144.5 -51.5q110 0 162.5 53t70.5 181l61 431h41z" />
    <glyph glyph-name="Ucircumflex" unicode="&#xdb;" horiz-adv-x="666" 
d="M552 763l-17 -17l-116 101h-9l-146 -102l-14 20l151 119h29zM629 690l-61 -434q-20 -146 -82 -207t-191 -61q-131 0 -178.5 62.5t-27.5 208.5l61 431h41l-61 -434q-17 -128 19.5 -179.5t144.5 -51.5q110 0 162.5 53t70.5 181l61 431h41z" />
    <glyph glyph-name="Udieresis" unicode="&#xdc;" horiz-adv-x="666" 
d="M320 859h13q15 0 13 -15l-8 -53q-3 -16 -17 -16h-12q-14 0 -13 15l8 54q2 15 16 15zM495 859h13q14 0 13 -15l-8 -53q-3 -16 -17 -16h-12q-14 0 -13 15l8 54q1 15 16 15zM629 690l-61 -434q-20 -146 -82 -207t-191 -61q-131 0 -178.5 62.5t-27.5 208.5l61 431h41
l-61 -434q-17 -128 19.5 -179.5t144.5 -51.5q110 0 162.5 53t70.5 181l61 431h41z" />
    <glyph glyph-name="Yacute" unicode="&#xdd;" horiz-adv-x="543" 
d="M297 734l-17 20l175 147l23 -31zM284 252l-36 -252h-41l37 255l-173 435h42l127 -323l26 -72h6q35 58 46 73l216 322h46z" />
    <glyph glyph-name="Thorn" unicode="&#xde;" horiz-adv-x="584" 
d="M359 558q114 0 155 -45t23 -164q-16 -119 -66 -162t-162 -43q-120 0 -188 7l-21 -151h-42l77 550l20 140h42l-19 -136q69 4 181 4zM496 354q13 99 -16 133.5t-121 34.5q-108 0 -186 -2l-48 -339h181q94 2 135 37t55 136z" />
    <glyph glyph-name="germandbls" unicode="&#xdf;" horiz-adv-x="653" 
d="M386 289l120 -60q48 -24 66 -50.5t12 -75.5q-10 -70 -54.5 -92t-134.5 -22q-81 0 -155 11l5 30q84 -8 154 -6q71 1 104.5 17.5t40.5 67.5q3 20 0.5 34.5t-12.5 25t-16 14.5t-23 13q-5 3 -7 4l-120 60q-42 22 -59 46t-13 62q1 12 4.5 22t7 18t11.5 16t12.5 13t16.5 11.5
t17.5 10t21 9.5t21 8.5t24 9t24.5 8.5q19 7 30 13t28 18t26 30.5t10 43.5q2 28 -9 44.5t-46.5 26.5t-101.5 10q-104 0 -145 -30t-54 -119l-85 -604q-11 -73 -43.5 -104t-100.5 -31q-39 0 -89 5l4 30h78q54 0 78.5 23t33.5 82l73 516h-88l4 29l88 5l8 53q7 48 22 81.5
t34 52.5t49 29t56.5 13t66.5 3q116 0 163 -25t41 -93q-4 -51 -32 -79t-83 -50q-8 -3 -34.5 -12t-34 -12t-25 -12t-23.5 -17t-12.5 -21t-8.5 -29q-2 -26 10 -42.5t44 -32.5z" />
    <glyph glyph-name="agrave" unicode="&#xe0;" horiz-adv-x="566" 
d="M350 553l-147 137l26 29l140 -147zM312 494q85 0 192 -15l-67 -479h-31l13 118q-54 -61 -119 -95.5t-119 -34.5q-89 0 -113.5 58.5t-2.5 197.5q12 79 28.5 126t46 75.5t69 38.5t103.5 10zM419 155l41 298q-85 6 -139 6q-116 0 -155.5 -40.5t-60.5 -179.5
q-20 -117 -3.5 -166t83.5 -49q49 0 112.5 34.5t121.5 96.5z" />
    <glyph glyph-name="aacute" unicode="&#xe1;" horiz-adv-x="566" 
d="M291 553l-17 20l175 147l23 -31zM312 494q85 0 192 -15l-67 -479h-31l13 118q-54 -61 -119 -95.5t-119 -34.5q-89 0 -113.5 58.5t-2.5 197.5q12 79 28.5 126t46 75.5t69 38.5t103.5 10zM419 155l41 298q-85 6 -139 6q-116 0 -155.5 -40.5t-60.5 -179.5
q-20 -117 -3.5 -166t83.5 -49q49 0 112.5 34.5t121.5 96.5z" />
    <glyph glyph-name="acircumflex" unicode="&#xe2;" horiz-adv-x="566" 
d="M193 563l-14 20l151 119h29l122 -121l-17 -17l-116 101h-9zM312 494q85 0 192 -15l-67 -479h-31l13 118q-54 -61 -119 -95.5t-119 -34.5q-89 0 -113.5 58.5t-2.5 197.5q12 79 28.5 126t46 75.5t69 38.5t103.5 10zM419 155l41 298q-85 6 -139 6q-116 0 -155.5 -40.5
t-60.5 -179.5q-20 -117 -3.5 -166t83.5 -49q49 0 112.5 34.5t121.5 96.5z" />
    <glyph glyph-name="atilde" unicode="&#xe3;" horiz-adv-x="566" 
d="M273 656q-58 6 -67 -65l-23 3q4 49 27.5 73t59.5 21q31 -3 68 -32.5t64 -32.5q60 -4 67 61l23 -2q-4 -46 -27 -70t-59 -21t-74 33t-59 32zM312 494q85 0 192 -15l-67 -479h-31l13 118q-54 -61 -119 -95.5t-119 -34.5q-89 0 -113.5 58.5t-2.5 197.5q12 79 28.5 126
t46 75.5t69 38.5t103.5 10zM419 155l41 298q-85 6 -139 6q-116 0 -155.5 -40.5t-60.5 -179.5q-20 -117 -3.5 -166t83.5 -49q49 0 112.5 34.5t121.5 96.5z" />
    <glyph glyph-name="adieresis" unicode="&#xe4;" horiz-adv-x="566" 
d="M250 594h-12q-14 0 -13 15l8 54q1 15 16 15h13q14 0 13 -15l-8 -53q-3 -16 -17 -16zM425 594h-12q-14 0 -13 15l8 54q2 15 16 15h13q15 0 13 -15l-8 -53q-3 -16 -17 -16zM312 494q85 0 192 -15l-67 -479h-31l13 118q-54 -61 -119 -95.5t-119 -34.5q-89 0 -113.5 58.5
t-2.5 197.5q12 79 28.5 126t46 75.5t69 38.5t103.5 10zM419 155l41 298q-85 6 -139 6q-116 0 -155.5 -40.5t-60.5 -179.5q-20 -117 -3.5 -166t83.5 -49q49 0 112.5 34.5t121.5 96.5z" />
    <glyph glyph-name="aring" unicode="&#xe5;" horiz-adv-x="566" 
d="M329 536q-44 0 -70 29t-21 71q5 40 34.5 67.5t72.5 27.5q44 0 70 -29t21 -71q-6 -39 -35.5 -67t-71.5 -28zM266 632q-4 -30 14 -50t49 -20t53 21.5t26 52.5q3 30 -14 50t-49 20t-53.5 -21.5t-25.5 -52.5zM312 494q85 0 192 -15l-67 -479h-31l13 118q-54 -61 -119 -95.5
t-119 -34.5q-89 0 -113.5 58.5t-2.5 197.5q12 79 28.5 126t46 75.5t69 38.5t103.5 10zM419 155l41 298q-85 6 -139 6q-116 0 -155.5 -40.5t-60.5 -179.5q-20 -117 -3.5 -166t83.5 -49q49 0 112.5 34.5t121.5 96.5z" />
    <glyph glyph-name="ae" unicode="&#xe6;" horiz-adv-x="872" 
d="M653 494q100 0 142.5 -33.5t23.5 -116.5q-13 -61 -49.5 -86t-115.5 -33l-218 -23q-11 -104 24 -141.5t130 -37.5q81 0 176 13l4 -28q-67 -20 -191 -20q-85 0 -128.5 29.5t-53.5 93.5q-105 -123 -226 -123q-84 0 -106 62t-2 194q23 151 73 200.5t171 49.5q93 0 213 -22
q48 22 133 22zM176 24q104 0 217 122q0 50 8 101q20 145 80 199q-126 13 -166 13q-59 0 -94 -9t-59 -35.5t-36 -66t-23 -109.5q-19 -113 -4 -164t77 -51zM780 347q4 25 5.5 43t-7.5 30.5t-18.5 20t-27.5 11.5t-35 5.5t-41 1.5q-54 0 -86.5 -7.5t-59.5 -30.5t-42.5 -65
t-26.5 -112l-1 -10l214 24q62 7 88.5 25t37.5 64z" />
    <glyph glyph-name="ccedilla" unicode="&#xe7;" horiz-adv-x="477" 
d="M312 494q83 0 139 -19l-8 -27q-45 10 -124 10q-106 0 -154.5 -46.5t-65.5 -172.5q-18 -125 16 -170t138 -45q85 0 142 11l4 -28q-74 -19 -152 -19q-123 0 -166 58t-24 197q19 138 77 194.5t178 56.5zM195 -80l4 21q92 6 79 -68q-8 -54 -52.5 -84.5t-107.5 -22.5l8 23
q47 -2 81 23.5t40 63.5q4 25 -7 34t-45 10z" />
    <glyph glyph-name="egrave" unicode="&#xe8;" horiz-adv-x="529" 
d="M340 553l-147 137l26 29l140 -147zM311 494q100 0 142.5 -33.5t23.5 -116.5q-13 -61 -50 -86t-116 -33l-217 -23q-11 -104 24 -141.5t130 -37.5q80 0 177 13l3 -28q-67 -20 -191 -20q-120 0 -159.5 59.5t-19.5 199.5q11 76 30.5 124.5t51.5 75.5t71.5 37t99.5 10z
M437 347q17 69 -15 90.5t-109 21.5q-54 0 -86.5 -7.5t-59 -30.5t-42 -65t-26.5 -112l-1 -9l214 23q62 7 88 25t37 64z" />
    <glyph glyph-name="eacute" unicode="&#xe9;" horiz-adv-x="529" 
d="M281 553l-17 20l175 147l23 -31zM311 494q100 0 142.5 -33.5t23.5 -116.5q-13 -61 -50 -86t-116 -33l-217 -23q-11 -104 24 -141.5t130 -37.5q80 0 177 13l3 -28q-67 -20 -191 -20q-120 0 -159.5 59.5t-19.5 199.5q11 76 30.5 124.5t51.5 75.5t71.5 37t99.5 10zM437 347
q17 69 -15 90.5t-109 21.5q-54 0 -86.5 -7.5t-59 -30.5t-42 -65t-26.5 -112l-1 -9l214 23q62 7 88 25t37 64z" />
    <glyph glyph-name="ecircumflex" unicode="&#xea;" horiz-adv-x="529" 
d="M183 563l-14 20l151 119h29l122 -121l-17 -17l-116 101h-9zM311 494q100 0 142.5 -33.5t23.5 -116.5q-13 -61 -50 -86t-116 -33l-217 -23q-11 -104 24 -141.5t130 -37.5q80 0 177 13l3 -28q-67 -20 -191 -20q-120 0 -159.5 59.5t-19.5 199.5q11 76 30.5 124.5t51.5 75.5
t71.5 37t99.5 10zM437 347q17 69 -15 90.5t-109 21.5q-54 0 -86.5 -7.5t-59 -30.5t-42 -65t-26.5 -112l-1 -9l214 23q62 7 88 25t37 64z" />
    <glyph glyph-name="edieresis" unicode="&#xeb;" horiz-adv-x="529" 
d="M240 594h-12q-14 0 -13 15l8 54q1 15 16 15h13q14 0 13 -15l-8 -53q-3 -16 -17 -16zM415 594h-12q-14 0 -13 15l8 54q2 15 16 15h13q15 0 13 -15l-8 -53q-3 -16 -17 -16zM311 494q100 0 142.5 -33.5t23.5 -116.5q-13 -61 -50 -86t-116 -33l-217 -23q-11 -104 24 -141.5
t130 -37.5q80 0 177 13l3 -28q-67 -20 -191 -20q-120 0 -159.5 59.5t-19.5 199.5q11 76 30.5 124.5t51.5 75.5t71.5 37t99.5 10zM437 347q17 69 -15 90.5t-109 21.5q-54 0 -86.5 -7.5t-59 -30.5t-42 -65t-26.5 -112l-1 -9l214 23q62 7 88 25t37 64z" />
    <glyph glyph-name="igrave" unicode="&#xec;" horiz-adv-x="225" 
d="M192 572l-19 -19l-147 137l26 29zM92 0h-40l68 482h40z" />
    <glyph glyph-name="iacute" unicode="&#xed;" horiz-adv-x="225" 
d="M296 689l-181 -136l-17 20l175 147zM92 0h-40l68 482h40z" />
    <glyph glyph-name="icircumflex" unicode="&#xee;" horiz-adv-x="225" 
d="M305 581l-17 -17l-116 101h-9l-146 -102l-14 20l151 119h29zM92 0h-40l68 482h40z" />
    <glyph glyph-name="idieresis" unicode="&#xef;" horiz-adv-x="225" 
d="M72 678h13q15 0 13 -15l-8 -53q-3 -16 -17 -16h-12q-14 0 -13 15l8 54q2 15 16 15zM247 678h13q14 0 13 -15l-8 -53q-3 -16 -17 -16h-12q-14 0 -13 15l8 54q1 15 16 15zM92 0h-40l68 482h40z" />
    <glyph glyph-name="eth" unicode="&#xf0;" horiz-adv-x="548" 
d="M482 679l-84 -54q106 -104 72 -347q-9 -67 -22 -112.5t-38.5 -89.5t-70.5 -66t-110 -22q-106 0 -148.5 56.5t-25.5 178.5q31 224 224 224q107 0 160 -72q4 156 -72 230l-99 -64l-12 21l91 59q-64 48 -178 48l8 29q127 2 201 -56l91 59zM229 23q99 0 142 65t61 201
q5 29 6 55q-52 68 -157 68q-87 0 -130 -51t-55 -144q-15 -105 17.5 -149.5t115.5 -44.5z" />
    <glyph glyph-name="ntilde" unicode="&#xf1;" horiz-adv-x="570" 
d="M263 656q-58 6 -67 -65l-23 3q4 49 27.5 73t59.5 21q31 -3 68 -32.5t64 -32.5q60 -4 67 61l23 -2q-4 -46 -27 -70t-59 -21t-74 33t-59 32zM380 494q64 0 93.5 -34t20.5 -99l-51 -361h-40l50 355q7 55 -12.5 79t-69.5 24q-49 0 -103 -29t-133 -93l-47 -336h-40l68 482h31
l-12 -114q147 126 245 126z" />
    <glyph glyph-name="ograve" unicode="&#xf2;" 
d="M358 572l-19 -19l-147 137l26 29zM305 494q119 0 160 -58t22 -198q-20 -138 -75 -194t-172 -56q-119 0 -160.5 58t-22.5 197q20 138 75 194.5t173 56.5zM305 458q-97 0 -143 -48t-63 -172q-17 -122 14 -168.5t127 -46.5q97 0 143 48t63 172q17 122 -13.5 168.5
t-127.5 46.5z" />
    <glyph glyph-name="oacute" unicode="&#xf3;" 
d="M462 689l-181 -136l-17 20l175 147zM305 494q119 0 160 -58t22 -198q-20 -138 -75 -194t-172 -56q-119 0 -160.5 58t-22.5 197q20 138 75 194.5t173 56.5zM305 458q-97 0 -143 -48t-63 -172q-17 -122 14 -168.5t127 -46.5q97 0 143 48t63 172q17 122 -13.5 168.5
t-127.5 46.5z" />
    <glyph glyph-name="ocircumflex" unicode="&#xf4;" 
d="M471 581l-17 -17l-116 101h-9l-146 -102l-14 20l151 119h29zM305 494q119 0 160 -58t22 -198q-20 -138 -75 -194t-172 -56q-119 0 -160.5 58t-22.5 197q20 138 75 194.5t173 56.5zM305 458q-97 0 -143 -48t-63 -172q-17 -122 14 -168.5t127 -46.5q97 0 143 48t63 172
q17 122 -13.5 168.5t-127.5 46.5z" />
    <glyph glyph-name="otilde" unicode="&#xf5;" 
d="M259 688q31 -3 68 -32.5t64 -32.5q60 -4 67 61l23 -2q-4 -46 -27 -70t-59 -21t-74 33t-59 32q-58 6 -67 -65l-23 3q4 49 27.5 73t59.5 21zM305 494q119 0 160 -58t22 -198q-20 -138 -75 -194t-172 -56q-119 0 -160.5 58t-22.5 197q20 138 75 194.5t173 56.5zM305 458
q-97 0 -143 -48t-63 -172q-17 -122 14 -168.5t127 -46.5q97 0 143 48t63 172q17 122 -13.5 168.5t-127.5 46.5z" />
    <glyph glyph-name="odieresis" unicode="&#xf6;" 
d="M238 678h13q15 0 13 -15l-8 -53q-3 -16 -17 -16h-12q-14 0 -13 15l8 54q2 15 16 15zM413 678h13q14 0 13 -15l-8 -53q-3 -16 -17 -16h-12q-14 0 -13 15l8 54q1 15 16 15zM305 494q119 0 160 -58t22 -198q-20 -138 -75 -194t-172 -56q-119 0 -160.5 58t-22.5 197
q20 138 75 194.5t173 56.5zM305 458q-97 0 -143 -48t-63 -172q-17 -122 14 -168.5t127 -46.5q97 0 143 48t63 172q17 122 -13.5 168.5t-127.5 46.5z" />
    <glyph glyph-name="divide" unicode="&#xf7;" horiz-adv-x="583" 
d="M313 508h13q19 -1 16 -18l-8 -59q-3 -16 -19 -16h-13q-18 0 -16 18l9 58q2 17 18 17zM501 279h-422l4 33h423zM267 175h14q18 0 15 -18l-9 -59q-1 -15 -18 -15h-13q-17 0 -16 18l9 57q1 17 18 17z" />
    <glyph glyph-name="oslash" unicode="&#xf8;" 
d="M469 533l-39 -65q43 -25 56.5 -80.5t0.5 -149.5q-20 -138 -75 -194t-172 -56q-56 0 -94 12l-40 -65l-23 13l38 62q-48 25 -63 81t-1 152q20 138 75 194.5t173 56.5q61 0 101 -15l40 66zM99 238q-12 -81 -2.5 -127.5t44.5 -67.5l245 404q-29 11 -81 11q-97 0 -143 -48
t-63 -172zM446 243q22 152 -37 192l-244 -403q30 -9 75 -9q97 0 143 48t63 172z" />
    <glyph glyph-name="ugrave" unicode="&#xf9;" 
d="M338 554l-147 137l26 29l140 -147zM497 482l-68 -482h-30l13 121q-135 -133 -237 -133q-65 0 -94.5 34t-19.5 99l51 361h40l-51 -355q-7 -54 13 -78.5t71 -24.5q50 0 102 32t125 102l46 324h39z" />
    <glyph glyph-name="uacute" unicode="&#xfa;" 
d="M279 554l-17 20l175 147l23 -31zM497 482l-68 -482h-30l13 121q-135 -133 -237 -133q-65 0 -94.5 34t-19.5 99l51 361h40l-51 -355q-7 -54 13 -78.5t71 -24.5q50 0 102 32t125 102l46 324h39z" />
    <glyph glyph-name="ucircumflex" unicode="&#xfb;" 
d="M181 564l-14 20l151 119h29l122 -121l-17 -17l-116 101h-9zM497 482l-68 -482h-30l13 121q-135 -133 -237 -133q-65 0 -94.5 34t-19.5 99l51 361h40l-51 -355q-7 -54 13 -78.5t71 -24.5q50 0 102 32t125 102l46 324h39z" />
    <glyph glyph-name="udieresis" unicode="&#xfc;" 
d="M237 595h-12q-14 0 -13 15l8 54q2 15 16 15h13q15 0 13 -15l-8 -53q-3 -16 -17 -16zM412 595h-12q-14 0 -13 15l8 54q1 15 16 15h13q14 0 13 -15l-8 -53q-3 -16 -17 -16zM497 482l-68 -482h-30l13 121q-135 -133 -237 -133q-65 0 -94.5 34t-19.5 99l51 361h40l-51 -355
q-7 -54 13 -78.5t71 -24.5q50 0 102 32t125 102l46 324h39z" />
    <glyph glyph-name="yacute" unicode="&#xfd;" horiz-adv-x="518" 
d="M248 553l-17 20l175 147l23 -31zM455 482h41q-58 -228 -176 -418q-79 -130 -140 -193.5t-135 -79.5l-7 27q53 17 100 60.5t99 121.5h-38q-19 0 -32 11t-17 28l-97 443h42l89 -425q6 -24 30 -24l44 1l25 40q111 183 172 408z" />
    <glyph glyph-name="thorn" unicode="&#xfe;" horiz-adv-x="566" 
d="M373 494q87 0 111.5 -58.5t3.5 -197.5q-22 -152 -72 -201t-174 -49q-73 0 -155 11q-1 -13 -10 -86l-18 -121h-39l127 908h40l-34 -240q-9 -66 -16 -94q54 61 118 94.5t118 33.5zM448 243q19 117 3 166t-83 49q-50 0 -112.5 -35t-122.5 -98l-40 -296q87 -6 139 -6
q115 0 155.5 41t60.5 179z" />
    <glyph glyph-name="ydieresis" unicode="&#xff;" horiz-adv-x="518" 
d="M206 594h-12q-14 0 -13 15l8 54q1 15 16 15h13q14 0 13 -15l-8 -53q-3 -16 -17 -16zM381 594h-12q-14 0 -13 15l8 54q2 15 16 15h13q15 0 13 -15l-8 -53q-3 -16 -17 -16zM455 482h41q-58 -228 -176 -418q-79 -130 -140 -193.5t-135 -79.5l-7 27q53 17 100 60.5t99 121.5
h-38q-19 0 -32 11t-17 28l-97 443h42l89 -425q6 -24 30 -24l44 1l25 40q111 183 172 408z" />
    <glyph glyph-name="Amacron" unicode="&#x100;" horiz-adv-x="604" 
d="M509 799h-265l4 33h265zM458 242h-318l-119 -242h-45l337 678q4 12 18 12h56q15 0 17 -14l146 -676h-42zM450 279l-67 321l-11 56h-30l-27 -57l-157 -320h292z" />
    <glyph glyph-name="amacron" unicode="&#x101;" horiz-adv-x="566" 
d="M467 618h-265l4 33h265zM312 494q85 0 192 -15l-67 -479h-31l13 118q-54 -61 -119 -95.5t-119 -34.5q-89 0 -113.5 58.5t-2.5 197.5q12 79 28.5 126t46 75.5t69 38.5t103.5 10zM419 155l41 298q-85 6 -139 6q-116 0 -155.5 -40.5t-60.5 -179.5q-20 -117 -3.5 -166
t83.5 -49q49 0 112.5 34.5t121.5 96.5z" />
    <glyph glyph-name="Abreve" unicode="&#x102;" horiz-adv-x="604" 
d="M372 752q-66 0 -100.5 32.5t-25.5 87.5l25 2q-7 -42 20.5 -65t80.5 -23q54 0 89 24.5t40 66.5l24 -7q-7 -55 -48 -86.5t-105 -31.5zM458 242h-318l-119 -242h-45l337 678q4 12 18 12h56q15 0 17 -14l146 -676h-42zM450 279l-67 321l-11 56h-30l-27 -57l-157 -320h292z
" />
    <glyph glyph-name="abreve" unicode="&#x103;" horiz-adv-x="566" 
d="M330 571q-66 0 -100.5 32.5t-25.5 87.5l25 2q-7 -42 20.5 -65t80.5 -23q54 0 89 24.5t40 66.5l24 -7q-7 -55 -48 -86.5t-105 -31.5zM312 494q85 0 192 -15l-67 -479h-31l13 118q-54 -61 -119 -95.5t-119 -34.5q-89 0 -113.5 58.5t-2.5 197.5q12 79 28.5 126t46 75.5
t69 38.5t103.5 10zM419 155l41 298q-85 6 -139 6q-116 0 -155.5 -40.5t-60.5 -179.5q-20 -117 -3.5 -166t83.5 -49q49 0 112.5 34.5t121.5 96.5z" />
    <glyph glyph-name="Aogonek" unicode="&#x104;" horiz-adv-x="604" 
d="M449 -125q-22 -43 1 -56.5t80 5.5l5 -18q-85 -32 -115 -7t-2 81q30 59 106 120h-16l-50 242h-318l-119 -242h-45l337 678q4 12 18 12h56q15 0 17 -14l146 -676q-69 -64 -101 -125zM450 279l-67 321l-11 56h-30l-27 -57l-157 -320h292z" />
    <glyph glyph-name="aogonek" unicode="&#x105;" horiz-adv-x="566" 
d="M312 494q85 0 192 -15l-67 -479h-1q-69 -64 -101 -125q-22 -43 1 -56.5t80 5.5l5 -18q-85 -32 -115 -7t-2 81q30 59 106 120h-4l13 118q-54 -61 -119 -95.5t-119 -34.5q-89 0 -113.5 58.5t-2.5 197.5q12 79 28.5 126t46 75.5t69 38.5t103.5 10zM419 155l41 298
q-85 6 -139 6q-116 0 -155.5 -40.5t-60.5 -179.5q-20 -117 -3.5 -166t83.5 -49q49 0 112.5 34.5t121.5 96.5z" />
    <glyph glyph-name="Cacute" unicode="&#x106;" 
d="M530 870l-181 -136l-17 20l175 147zM385 702q105 0 177 -18l-9 -30q-77 11 -168 11q-125 0 -181.5 -70t-82.5 -252q-25 -178 12 -248t157 -70q109 0 188 13l5 -31q-82 -19 -193 -19q-144 0 -191.5 81.5t-19.5 277.5q28 197 95.5 276t210.5 79z" />
    <glyph glyph-name="cacute" unicode="&#x107;" horiz-adv-x="477" 
d="M447 689l-181 -136l-17 20l175 147zM312 494q83 0 139 -19l-8 -27q-45 10 -124 10q-106 0 -154.5 -46.5t-65.5 -172.5q-18 -125 16 -170t138 -45q85 0 142 11l4 -28q-74 -19 -152 -19q-123 0 -166 58t-24 197q19 138 77 194.5t178 56.5z" />
    <glyph glyph-name="Cdotaccent" unicode="&#x10a;" 
d="M392 861h16q15 0 14 -16l-8 -59q-3 -16 -18 -16h-14q-16 0 -14 16l8 59q1 16 16 16zM385 702q105 0 177 -18l-9 -30q-77 11 -168 11q-125 0 -181.5 -70t-82.5 -252q-25 -178 12 -248t157 -70q109 0 188 13l5 -31q-82 -19 -193 -19q-144 0 -191.5 81.5t-19.5 277.5
q28 197 95.5 276t210.5 79z" />
    <glyph glyph-name="cdotaccent" unicode="&#x10b;" horiz-adv-x="477" 
d="M309 680h16q15 0 14 -16l-8 -59q-3 -16 -18 -16h-14q-16 0 -14 16l8 59q1 16 16 16zM312 494q83 0 139 -19l-8 -27q-45 10 -124 10q-106 0 -154.5 -46.5t-65.5 -172.5q-18 -125 16 -170t138 -45q85 0 142 11l4 -28q-74 -19 -152 -19q-123 0 -166 58t-24 197
q19 138 77 194.5t178 56.5z" />
    <glyph glyph-name="Ccaron" unicode="&#x10c;" 
d="M553 869l-153 -120h-29l-120 121l18 17l115 -101h8l146 101zM385 702q105 0 177 -18l-9 -30q-77 11 -168 11q-125 0 -181.5 -70t-82.5 -252q-25 -178 12 -248t157 -70q109 0 188 13l5 -31q-82 -19 -193 -19q-144 0 -191.5 81.5t-19.5 277.5q28 197 95.5 276t210.5 79z
" />
    <glyph glyph-name="ccaron" unicode="&#x10d;" horiz-adv-x="477" 
d="M471 687l-153 -120h-29l-120 121l18 17l115 -101h8l146 101zM312 494q83 0 139 -19l-8 -27q-45 10 -124 10q-106 0 -154.5 -46.5t-65.5 -172.5q-18 -125 16 -170t138 -45q85 0 142 11l4 -28q-74 -19 -152 -19q-123 0 -166 58t-24 197q19 138 77 194.5t178 56.5z" />
    <glyph glyph-name="Dcaron" unicode="&#x10e;" horiz-adv-x="659" 
d="M366 749l-120 121l18 17l115 -101h8l146 101l15 -18l-153 -120h-29zM383 699q145 0 192 -79.5t20 -276.5q-27 -202 -95 -277t-212 -75q-106 0 -230 9l97 690q121 9 228 9zM553 347q25 179 -12 247t-158 68q-20 0 -191 -3l-89 -628q168 -3 184 -3q124 0 182 68t84 251z
" />
    <glyph glyph-name="dcaron" unicode="&#x10f;" horiz-adv-x="565" 
d="M494 700h39l-98 -700h-31l12 117q-121 -129 -245 -129q-80 0 -103 61t-4 195q22 151 72.5 200.5t174.5 49.5q72 0 155 -11q2 39 10 93zM634 700h14q14 0 11 -15l-8 -58q-7 -52 -38 -119l-20 7q16 52 24 102q-12 0 -10 13l9 56q1 14 18 14zM417 156l42 298q-95 5 -139 5
q-115 0 -155.5 -41t-60.5 -179q-18 -111 -3 -163t77 -52q113 0 239 132z" />
    <glyph glyph-name="Dcroat" unicode="&#x110;" horiz-adv-x="659" 
d="M383 699q145 0 192 -79.5t20 -276.5q-27 -202 -95 -277t-212 -75q-106 0 -230 9l50 356h-79l4 28h79l43 306q121 9 228 9zM553 347q25 179 -12 247t-158 68q-20 0 -191 -3l-39 -275h173l-4 -28h-173l-46 -325q168 -3 184 -3q124 0 182 68t84 251z" />
    <glyph glyph-name="dcroat" unicode="&#x111;" horiz-adv-x="565" 
d="M594 586h-77l-82 -586h-31l12 117q-121 -129 -245 -129q-80 0 -103 61t-4 195q22 151 72.5 200.5t174.5 49.5q72 0 155 -11q2 39 10 93l1 10h-166l4 28h167l12 86h39l-12 -86h77zM417 156l42 298q-95 5 -139 5q-115 0 -155.5 -41t-60.5 -179q-18 -111 -3 -163t77 -52
q113 0 239 132z" />
    <glyph glyph-name="Emacron" unicode="&#x112;" horiz-adv-x="551" 
d="M510 823h-265l4 33h265zM544 655h-283q-78 0 -89 -80l-26 -190h321l-5 -33l-321 -1l-33 -239q-5 -36 12.5 -56.5t53.5 -20.5h283v-31q-96 -4 -290 -4q-52 0 -80 31t-20 81l66 473q6 48 38 76.5t84 28.5q199 0 296 -4z" />
    <glyph glyph-name="emacron" unicode="&#x113;" horiz-adv-x="529" 
d="M457 618h-265l4 33h265zM311 494q100 0 142.5 -33.5t23.5 -116.5q-13 -61 -50 -86t-116 -33l-217 -23q-11 -104 24 -141.5t130 -37.5q80 0 177 13l3 -28q-67 -20 -191 -20q-120 0 -159.5 59.5t-19.5 199.5q11 76 30.5 124.5t51.5 75.5t71.5 37t99.5 10zM437 347
q17 69 -15 90.5t-109 21.5q-54 0 -86.5 -7.5t-59 -30.5t-42 -65t-26.5 -112l-1 -9l214 23q62 7 88 25t37 64z" />
    <glyph glyph-name="Edotaccent" unicode="&#x116;" horiz-adv-x="551" 
d="M381 794h-14q-16 0 -14 16l8 59q1 16 16 16h16q15 0 14 -16l-8 -59q-3 -16 -18 -16zM544 655h-283q-78 0 -89 -80l-26 -190h321l-5 -33l-321 -1l-33 -239q-5 -36 12.5 -56.5t53.5 -20.5h283v-31q-96 -4 -290 -4q-52 0 -80 31t-20 81l66 473q6 48 38 76.5t84 28.5
q199 0 296 -4z" />
    <glyph glyph-name="edotaccent" unicode="&#x117;" horiz-adv-x="529" 
d="M328 589h-14q-16 0 -14 16l8 59q1 16 16 16h16q15 0 14 -16l-8 -59q-3 -16 -18 -16zM311 494q100 0 142.5 -33.5t23.5 -116.5q-13 -61 -50 -86t-116 -33l-217 -23q-11 -104 24 -141.5t130 -37.5q80 0 177 13l3 -28q-67 -20 -191 -20q-120 0 -159.5 59.5t-19.5 199.5
q11 76 30.5 124.5t51.5 75.5t71.5 37t99.5 10zM437 347q17 69 -15 90.5t-109 21.5q-54 0 -86.5 -7.5t-59 -30.5t-42 -65t-26.5 -112l-1 -9l214 23q62 7 88 25t37 64z" />
    <glyph glyph-name="Eogonek" unicode="&#x118;" horiz-adv-x="551" 
d="M544 655h-283q-78 0 -89 -80l-26 -190h321l-5 -33l-321 -1l-33 -239q-5 -36 12.5 -56.5t53.5 -20.5h283v-31h1q-69 -64 -101 -125q-22 -43 1 -56.5t80 5.5l5 -18q-85 -32 -115 -7t-2 81q30 58 105 119q-87 -3 -264 -3q-52 0 -80 31t-20 81l66 473q6 48 38 76.5t84 28.5
q199 0 296 -4z" />
    <glyph glyph-name="eogonek" unicode="&#x119;" horiz-adv-x="529" 
d="M311 494q100 0 142.5 -33.5t23.5 -116.5q-13 -61 -50 -86t-116 -33l-217 -23q-11 -104 24 -141.5t130 -37.5q80 0 177 13l3 -28h1q-69 -64 -101 -125q-22 -43 1 -56.5t80 5.5l5 -18q-85 -32 -115 -7t-2 81t97 113q-75 -13 -157 -13q-120 0 -159.5 59.5t-19.5 199.5
q11 76 30.5 124.5t51.5 75.5t71.5 37t99.5 10zM437 347q17 69 -15 90.5t-109 21.5q-54 0 -86.5 -7.5t-59 -30.5t-42 -65t-26.5 -112l-1 -9l214 23q62 7 88 25t37 64z" />
    <glyph glyph-name="Ecaron" unicode="&#x11a;" horiz-adv-x="551" 
d="M356 773l-120 121l18 17l115 -101h8l146 101l15 -18l-153 -120h-29zM544 655h-283q-78 0 -89 -80l-26 -190h321l-5 -33l-321 -1l-33 -239q-5 -36 12.5 -56.5t53.5 -20.5h283v-31q-96 -4 -290 -4q-52 0 -80 31t-20 81l66 473q6 48 38 76.5t84 28.5q199 0 296 -4z" />
    <glyph glyph-name="ecaron" unicode="&#x11b;" horiz-adv-x="529" 
d="M304 567l-120 121l18 17l115 -101h8l146 101l15 -18l-153 -120h-29zM311 494q100 0 142.5 -33.5t23.5 -116.5q-13 -61 -50 -86t-116 -33l-217 -23q-11 -104 24 -141.5t130 -37.5q80 0 177 13l3 -28q-67 -20 -191 -20q-120 0 -159.5 59.5t-19.5 199.5q11 76 30.5 124.5
t51.5 75.5t71.5 37t99.5 10zM437 347q17 69 -15 90.5t-109 21.5q-54 0 -86.5 -7.5t-59 -30.5t-42 -65t-26.5 -112l-1 -9l214 23q62 7 88 25t37 64z" />
    <glyph glyph-name="Gbreve" unicode="&#x11e;" horiz-adv-x="621" 
d="M399 752q-66 0 -100.5 32.5t-25.5 87.5l25 2q-7 -42 20.5 -65t80.5 -23q54 0 89 24.5t40 66.5l24 -7q-7 -55 -48 -86.5t-105 -31.5zM394 665q-131 0 -189.5 -69t-83.5 -253q-21 -174 11 -246t133 -72q58 0 108.5 30t110.5 87l36 258h40l-57 -400h-29l8 104
q-106 -116 -226 -116q-118 0 -159.5 84.5t-17.5 274.5q27 199 97 277t214 78q114 0 196 -18l-9 -30q-85 11 -183 11z" />
    <glyph glyph-name="gbreve" unicode="&#x11f;" horiz-adv-x="571" 
d="M332 571q-66 0 -100.5 32.5t-25.5 87.5l25 2q-7 -42 20.5 -65t80.5 -23q54 0 89 24.5t40 66.5l24 -7q-7 -55 -48 -86.5t-105 -31.5zM511 479l-74 -481q-30 -201 -233 -216q-93 -7 -184 6l5 28q95 -5 173 1q86 8 135.5 50.5t63.5 127.5q16 100 29 130q-55 -64 -122 -100.5
t-123 -36.5q-87 0 -112 59t-4 197q24 152 73.5 201t172.5 49q86 0 194 -15h6zM186 24q50 0 113 35t123 99l44 295q-91 6 -145 6q-115 0 -154.5 -40.5t-61.5 -179.5q-20 -116 -3 -165.5t84 -49.5z" />
    <glyph glyph-name="Gdotaccent" unicode="&#x120;" horiz-adv-x="621" 
d="M408 770h-14q-16 0 -14 16l8 59q1 16 16 16h16q15 0 14 -16l-8 -59q-3 -16 -18 -16zM394 665q-131 0 -189.5 -69t-83.5 -253q-21 -174 11 -246t133 -72q58 0 108.5 30t110.5 87l36 258h40l-57 -400h-29l8 104q-106 -116 -226 -116q-118 0 -159.5 84.5t-17.5 274.5
q27 199 97 277t214 78q114 0 196 -18l-9 -30q-85 11 -183 11z" />
    <glyph glyph-name="gdotaccent" unicode="&#x121;" horiz-adv-x="571" 
d="M340 589h-14q-16 0 -14 16l8 59q1 16 16 16h16q15 0 14 -16l-8 -59q-3 -16 -18 -16zM511 479l-74 -481q-30 -201 -233 -216q-93 -7 -184 6l5 28q95 -5 173 1q86 8 135.5 50.5t63.5 127.5q16 100 29 130q-55 -64 -122 -100.5t-123 -36.5q-87 0 -112 59t-4 197
q24 152 73.5 201t172.5 49q86 0 194 -15h6zM186 24q50 0 113 35t123 99l44 295q-91 6 -145 6q-115 0 -154.5 -40.5t-61.5 -179.5q-20 -116 -3 -165.5t84 -49.5z" />
    <glyph glyph-name="Gcommaaccent" unicode="&#x122;" horiz-adv-x="621" 
d="M394 665q-131 0 -189.5 -69t-83.5 -253q-21 -174 11 -246t133 -72q58 0 108.5 30t110.5 87l36 258h40l-57 -400h-29l8 104q-106 -116 -226 -116q-118 0 -159.5 84.5t-17.5 274.5q27 199 97 277t214 78q114 0 196 -18l-9 -30q-85 11 -183 11zM270 -63h14q14 0 11 -14
l-8 -59q-7 -52 -38 -119l-20 7q16 52 24 102q-12 0 -10 13l9 56q1 14 18 14z" />
    <glyph glyph-name="gcommaaccent" unicode="&#x123;" horiz-adv-x="571" 
d="M335 564h-14q-14 0 -11 14l8 59q7 52 38 119l20 -7q-16 -52 -24 -102q12 0 10 -13l-9 -56q-1 -14 -18 -14zM511 479l-74 -481q-30 -201 -233 -216q-93 -7 -184 6l5 28q95 -5 173 1q86 8 135.5 50.5t63.5 127.5q16 100 29 130q-55 -64 -122 -100.5t-123 -36.5
q-87 0 -112 59t-4 197q24 152 73.5 201t172.5 49q86 0 194 -15h6zM186 24q50 0 113 35t123 99l44 295q-91 6 -145 6q-115 0 -154.5 -40.5t-61.5 -179.5q-20 -116 -3 -165.5t84 -49.5z" />
    <glyph glyph-name="Hbar" unicode="&#x126;" horiz-adv-x="659" 
d="M672 523h-78l-74 -523h-41l49 351h-380l-49 -351h-41l74 523h-77l4 27h76l20 140h41l-20 -140h380l20 140h41l-20 -140h79zM553 523h-380l-20 -136h380z" />
    <glyph glyph-name="hbar" unicode="&#x127;" horiz-adv-x="570" 
d="M380 494q64 0 93.5 -34t20.5 -99l-51 -361h-40l50 355q7 55 -12.5 79t-69.5 24q-49 0 -103.5 -29.5t-132.5 -94.5l-47 -334h-40l83 586h-79l4 28h79l12 86h40l-12 -86h164l-4 -28h-164l-13 -97q-12 -79 -23 -120q148 125 245 125z" />
    <glyph glyph-name="Imacron" unicode="&#x12a;" horiz-adv-x="239" 
d="M323 799h-265l4 33h265zM99 0h-41l97 690h41z" />
    <glyph glyph-name="imacron" unicode="&#x12b;" horiz-adv-x="225" 
d="M291 618h-265l4 33h265zM92 0h-40l68 482h40z" />
    <glyph glyph-name="Iogonek" unicode="&#x12e;" horiz-adv-x="239" 
d="M196 690l-97 -690h-3q-69 -64 -101 -125q-22 -43 1 -56.5t80 5.5l5 -18q-85 -32 -115 -7t-2 81q30 59 106 120h-12l97 690h41z" />
    <glyph glyph-name="iogonek" unicode="&#x12f;" horiz-adv-x="225" 
d="M158 680h16q15 0 14 -16l-8 -59q-3 -16 -18 -16h-14q-16 0 -14 16l8 59q1 16 16 16zM120 482h40l-68 -482h-2q-69 -64 -101 -125q-22 -43 1 -56.5t80 5.5l5 -18q-85 -32 -115 -7t-2 81q30 59 106 120h-12z" />
    <glyph glyph-name="Idotaccent" unicode="&#x130;" horiz-adv-x="239" 
d="M190 861h16q15 0 14 -16l-8 -59q-3 -16 -18 -16h-14q-16 0 -14 16l8 59q1 16 16 16zM99 0h-41l97 690h41z" />
    <glyph glyph-name="dotlessi" unicode="&#x131;" horiz-adv-x="225" 
d="M91 0h-39l68 482h40z" />
    <glyph glyph-name="IJ" unicode="&#x132;" horiz-adv-x="565" 
d="M99 0h-41l97 690h41zM526 690l-80 -568q-17 -131 -140 -129q-34 0 -72 8l9 28h54q95 0 109 95l79 566h41z" />
    <glyph glyph-name="ij" unicode="&#x133;" horiz-adv-x="451" 
d="M158 683h17q17 0 15 -17l-9 -61q-1 -14 -16 -14h-17q-18 0 -16 17l9 60q1 15 17 15zM383 683h18q16 0 14 -17l-9 -61q-1 -14 -16 -14h-17q-18 0 -16 17l9 60q2 15 17 15zM92 0h-40l68 482h40zM384 482l-73 -521q-13 -96 -96 -169l-21 17q66 73 78 155l73 518h39z" />
    <glyph glyph-name="Kcommaaccent" unicode="&#x136;" horiz-adv-x="568" 
d="M284 361v-3q10 -12 23 -33l193 -325h-47l-204 343h-106q-1 -37 -8 -84l-37 -259h-40l97 690h40l-32 -232q-6 -45 -15 -81h104l278 313h51l-260 -294q-19 -21 -37 -35zM261 -63h14q14 0 11 -14l-8 -59q-7 -52 -38 -119l-20 7q16 52 24 102q-12 0 -10 13l9 56q1 14 18 14z
" />
    <glyph glyph-name="kcommaaccent" unicode="&#x137;" horiz-adv-x="496" 
d="M286 266q4 -7 8.5 -15.5t10 -19t8.5 -16.5l105 -215h-44l-120 248q-57 -30 -139 -57l-27 -191h-40l99 700h40l-52 -377q-7 -52 -20 -96q117 37 198 102t117 153h41q-52 -135 -185 -216zM215 -63h14q14 0 11 -14l-8 -59q-7 -52 -38 -119l-20 7q16 52 24 102q-12 0 -10 13
l9 56q1 14 18 14z" />
    <glyph glyph-name="Lacute" unicode="&#x139;" horiz-adv-x="503" 
d="M326 870l-181 -136l-17 20l175 147zM193 690l-81 -578q-5 -35 12.5 -56t53.5 -21h267l-2 -31q-91 -4 -274 -4q-51 0 -78 31t-20 82l80 577h42z" />
    <glyph glyph-name="lacute" unicode="&#x13a;" horiz-adv-x="272" 
d="M324 893l-181 -136l-17 20l175 147zM187 700l-83 -595q-12 -75 64 -75h57l1 -29q-22 -8 -70 -8q-49 0 -74 29t-18 79l84 599h39z" />
    <glyph glyph-name="Lcommaaccent" unicode="&#x13b;" horiz-adv-x="503" 
d="M193 690l-81 -578q-5 -35 12.5 -56t53.5 -21h267l-2 -31q-91 -4 -274 -4q-51 0 -78 31t-20 82l80 577h42zM247 -71h14q14 0 11 -14l-8 -59q-7 -52 -38 -119l-20 7q16 52 24 102q-12 0 -10 13l9 56q1 14 18 14z" />
    <glyph glyph-name="lcommaaccent" unicode="&#x13c;" horiz-adv-x="272" 
d="M187 700l-83 -595q-12 -75 64 -75h57l1 -29q-22 -8 -70 -8q-49 0 -74 29t-18 79l84 599h39zM117 -71h14q14 0 11 -14l-8 -59q-7 -52 -38 -119l-20 7q16 52 24 102q-12 0 -10 13l9 56q1 14 18 14z" />
    <glyph glyph-name="Lcaron" unicode="&#x13d;" horiz-adv-x="503" 
d="M193 690l-81 -578q-5 -35 12.5 -56t53.5 -21h267l-2 -31q-91 -4 -274 -4q-51 0 -78 31t-20 82l80 577h42zM320 687h14q14 0 11 -14l-8 -59q-7 -52 -38 -119l-20 7q16 52 24 102q-12 0 -10 13l9 56q1 14 18 14z" />
    <glyph glyph-name="lcaron" unicode="&#x13e;" horiz-adv-x="272" 
d="M187 700l-83 -595q-12 -75 64 -75h57l1 -29q-22 -8 -70 -8q-49 0 -74 29t-18 79l84 599h39zM297 700h14q14 0 11 -14l-8 -59q-7 -52 -38 -119l-20 7q16 52 24 102q-12 0 -10 13l9 56q1 14 18 14z" />
    <glyph glyph-name="Ldot" unicode="&#x13f;" horiz-adv-x="503" 
d="M193 690l-81 -578q-5 -35 12.5 -56t53.5 -21h267l-2 -31q-91 -4 -274 -4q-51 0 -78 31t-20 82l80 577h42zM375 333h-16q-15 0 -14 16l8 59q3 16 18 16h14q16 0 14 -16l-8 -59q-1 -16 -16 -16z" />
    <glyph glyph-name="ldot" unicode="&#x140;" horiz-adv-x="301" 
d="M187 700l-83 -595q-12 -75 64 -75h57l1 -29q-22 -8 -70 -8q-49 0 -74 29t-18 79l84 599h39zM291 328h-15q-17 0 -14 17l8 59q1 16 17 16h14q17 0 14 -17l-8 -59q-1 -16 -16 -16z" />
    <glyph glyph-name="Lslash" unicode="&#x141;" horiz-adv-x="503" 
d="M445 35l-2 -31q-91 -4 -274 -4q-51 0 -78 31t-20 82l33 236l-75 -31l3 29l76 31l43 312h42l-41 -294l137 56l-4 -28l-137 -57l-36 -255q-5 -35 12.5 -56t53.5 -21h267z" />
    <glyph glyph-name="lslash" unicode="&#x142;" horiz-adv-x="291" 
d="M140 364l-36 -259q-12 -75 64 -75h57l1 -29q-22 -8 -70 -8q-49 0 -74 29t-18 79l34 245l-68 -28l3 29l69 28l46 325h39l-43 -308l147 60l-5 -28z" />
    <glyph glyph-name="Nacute" unicode="&#x143;" horiz-adv-x="692" 
d="M563 870l-181 -136l-17 20l175 147zM650 690l-95 -671q-1 -19 -21 -19h-51q-16 0 -22 17l-221 563q-21 55 -28 73h-23q-6 -52 -10 -82l-80 -571h-41l94 671q4 19 22 19h48q17 0 23 -17l216 -550l32 -86h25l12 89l79 564h41z" />
    <glyph glyph-name="nacute" unicode="&#x144;" horiz-adv-x="570" 
d="M281 553l-17 20l175 147l23 -31zM380 494q64 0 93.5 -34t20.5 -99l-51 -361h-40l50 355q7 55 -12.5 79t-69.5 24q-49 0 -103 -29t-133 -93l-47 -336h-40l68 482h31l-12 -114q147 126 245 126z" />
    <glyph glyph-name="Ncommaaccent" unicode="&#x145;" horiz-adv-x="692" 
d="M650 690l-95 -671q-1 -19 -21 -19h-51q-16 0 -22 17l-221 563q-21 55 -28 73h-23q-6 -52 -10 -82l-80 -571h-41l94 671q4 19 22 19h48q17 0 23 -17l216 -550l32 -86h25l12 89l79 564h41zM299 -63h14q14 0 11 -14l-8 -59q-7 -52 -38 -119l-20 7q16 52 24 102q-12 0 -10 13
l9 56q1 14 18 14z" />
    <glyph glyph-name="ncommaaccent" unicode="&#x146;" horiz-adv-x="570" 
d="M380 494q64 0 93.5 -34t20.5 -99l-51 -361h-40l50 355q7 55 -12.5 79t-69.5 24q-49 0 -103 -29t-133 -93l-47 -336h-40l68 482h31l-12 -114q147 126 245 126zM240 -63h14q14 0 11 -14l-8 -59q-7 -52 -38 -119l-20 7q16 52 24 102q-12 0 -10 13l9 56q1 14 18 14z" />
    <glyph glyph-name="Ncaron" unicode="&#x147;" horiz-adv-x="692" 
d="M587 869l-153 -120h-29l-120 121l18 17l115 -101h8l146 101zM650 690l-95 -671q-1 -19 -21 -19h-51q-16 0 -22 17l-221 563q-21 55 -28 73h-23q-6 -52 -10 -82l-80 -571h-41l94 671q4 19 22 19h48q17 0 23 -17l216 -550l32 -86h25l12 89l79 564h41z" />
    <glyph glyph-name="ncaron" unicode="&#x148;" horiz-adv-x="570" 
d="M304 567l-120 121l18 17l115 -101h8l146 101l15 -18l-153 -120h-29zM380 494q64 0 93.5 -34t20.5 -99l-51 -361h-40l50 355q7 55 -12.5 79t-69.5 24q-49 0 -103 -29t-133 -93l-47 -336h-40l68 482h31l-12 -114q147 126 245 126z" />
    <glyph glyph-name="Eng" unicode="&#x14a;" horiz-adv-x="692" 
d="M649 690l-110 -787q-18 -125 -140 -123q-38 0 -71 7l7 26h55q97 0 109 95l13 92h-29q-13 0 -19 16l-225 560q-20 51 -27 73h-23q0 -3 -9 -73l-81 -576h-41l94 671q3 19 21 19h46q17 0 23 -17l218 -546q6 -13 33 -86h25q3 33 11 88l79 561h41z" />
    <glyph glyph-name="eng" unicode="&#x14b;" horiz-adv-x="570" 
d="M380 494q64 0 93.5 -34t20.5 -99l-62 -442q-18 -128 -130 -128q-29 0 -62 8l7 26h45q87 0 100 95l62 435q7 53 -13.5 77.5t-70.5 24.5q-36 0 -78.5 -19t-69.5 -38t-87 -64l-48 -336h-39l68 482h30l-11 -114q76 64 132.5 95t112.5 31z" />
    <glyph glyph-name="Omacron" unicode="&#x14c;" horiz-adv-x="662" 
d="M539 799h-265l4 33h265zM386 702q143 0 191 -81t20 -278q-27 -198 -94.5 -276.5t-210.5 -78.5t-192 80.5t-21 278.5q28 197 95.5 276t211.5 79zM385 665q-124 0 -180.5 -70.5t-82.5 -251.5q-25 -178 12.5 -248t157.5 -70q123 0 180.5 71t82.5 251q26 180 -10.5 249
t-159.5 69z" />
    <glyph glyph-name="omacron" unicode="&#x14d;" 
d="M457 618h-265l4 33h265zM305 494q119 0 160 -58t22 -198q-20 -138 -75 -194t-172 -56q-119 0 -160.5 58t-22.5 197q20 138 75 194.5t173 56.5zM305 458q-97 0 -143 -48t-63 -172q-17 -122 14 -168.5t127 -46.5q97 0 143 48t63 172q17 122 -13.5 168.5t-127.5 46.5z" />
    <glyph glyph-name="Ohungarumlaut" unicode="&#x150;" horiz-adv-x="662" 
d="M457 884l-144 -153l-19 15l135 160zM604 884l-144 -153l-20 15l135 160zM386 702q143 0 191 -81t20 -278q-27 -198 -94.5 -276.5t-210.5 -78.5t-192 80.5t-21 278.5q28 197 95.5 276t211.5 79zM385 665q-124 0 -180.5 -70.5t-82.5 -251.5q-25 -178 12.5 -248t157.5 -70
q123 0 180.5 71t82.5 251q26 180 -10.5 249t-159.5 69z" />
    <glyph glyph-name="ohungarumlaut" unicode="&#x151;" 
d="M374 703l-144 -153l-19 15l135 160zM521 703l-144 -153l-20 15l135 160zM305 494q119 0 160 -58t22 -198q-20 -138 -75 -194t-172 -56q-119 0 -160.5 58t-22.5 197q20 138 75 194.5t173 56.5zM305 458q-97 0 -143 -48t-63 -172q-17 -122 14 -168.5t127 -46.5q97 0 143 48
t63 172q17 122 -13.5 168.5t-127.5 46.5z" />
    <glyph glyph-name="OE" unicode="&#x152;" horiz-adv-x="895" 
d="M891 655h-268q-35 0 -60 -22t-29 -58l-27 -189l304 -1l-4 -33l-304 -1l-34 -239q-5 -35 13 -56t53 -21h269l-2 -31q-91 -4 -274 -4q-43 0 -71 22q-75 -34 -158 -34q-151 0 -199 78.5t-20 280.5q28 199 96 277t219 78q81 0 151 -32q29 20 70 20q188 0 279 -4zM428 112
l66 473q5 33 23 58q-54 22 -123 22q-129 0 -187.5 -69.5t-84.5 -252.5q-26 -179 12 -248.5t167 -69.5q69 0 135 25q-14 26 -8 62z" />
    <glyph glyph-name="oe" unicode="&#x153;" horiz-adv-x="916" 
d="M698 494q100 0 142.5 -33.5t23.5 -116.5q-13 -61 -49.5 -86t-116.5 -33l-217 -23q-10 -102 24 -140t132 -38q84 0 174 12l4 -28q-67 -20 -191 -20q-79 0 -122 25t-57 79q-28 -55 -77.5 -79.5t-128.5 -24.5q-119 0 -160.5 58t-22.5 197q20 138 75 194.5t173 56.5
q79 0 122.5 -24.5t58.5 -78.5q29 59 79 81t134 22zM239 23q93 0 138.5 43.5t63.5 153.5l4 27q2 12 3 17q13 109 -19.5 151.5t-124.5 42.5q-98 0 -143.5 -47.5t-62.5 -172.5q-17 -122 14 -168.5t127 -46.5zM825 347q7 22 5 38t-4.5 28t-13 20t-20.5 13t-26.5 7.5t-31.5 3.5
t-36 1q-99 0 -143.5 -38t-65.5 -157l-3 -25v-3l213 23q62 8 88.5 26t37.5 63z" />
    <glyph glyph-name="Racute" unicode="&#x154;" horiz-adv-x="609" 
d="M326 734l-17 20l175 147l23 -31zM559 500q-13 -88 -48.5 -129t-105.5 -50v-5q51 -16 66 -97l45 -219h-43l-44 219q-9 46 -31.5 65.5t-61.5 19.5q-35 1 -79 1.5t-70.5 1t-44.5 1.5l-43 -308h-41l97 690q82 8 223 8q113 0 154.5 -42.5t26.5 -155.5zM147 341h182
q93 2 134 36t54 127q13 92 -17 125t-121 33q-111 0 -187 -2z" />
    <glyph glyph-name="racute" unicode="&#x155;" horiz-adv-x="387" 
d="M226 553l-17 20l175 147l23 -31zM146 482l-12 -117q139 129 239 129h21l-11 -38h-19q-47 0 -98.5 -29.5t-131.5 -94.5l-46 -332h-40l68 482h30z" />
    <glyph glyph-name="Rcommaaccent" unicode="&#x156;" horiz-adv-x="609" 
d="M559 500q-13 -88 -48.5 -129t-105.5 -50v-5q51 -16 66 -97l45 -219h-43l-44 219q-9 46 -31.5 65.5t-61.5 19.5q-35 1 -79 1.5t-70.5 1t-44.5 1.5l-43 -308h-41l97 690q82 8 223 8q113 0 154.5 -42.5t26.5 -155.5zM147 341h182q93 2 134 36t54 127q13 92 -17 125t-121 33
q-111 0 -187 -2zM280 -63h14q14 0 11 -14l-8 -59q-7 -52 -38 -119l-20 7q16 52 24 102q-12 0 -10 13l9 56q1 14 18 14z" />
    <glyph glyph-name="rcommaaccent" unicode="&#x157;" horiz-adv-x="387" 
d="M394 494l-11 -38h-19q-47 0 -98.5 -29.5t-131.5 -94.5l-46 -332h-40l68 482h30l-12 -117q139 129 239 129h21zM52 -63h14q14 0 11 -14l-8 -59q-7 -52 -38 -119l-20 7q16 52 24 102q-12 0 -10 13l9 56q1 14 18 14z" />
    <glyph glyph-name="Rcaron" unicode="&#x158;" horiz-adv-x="609" 
d="M349 749l-120 121l18 17l115 -101h8l146 101l15 -18l-153 -120h-29zM559 500q-13 -88 -48.5 -129t-105.5 -50v-5q51 -16 66 -97l45 -219h-43l-44 219q-9 46 -31.5 65.5t-61.5 19.5q-35 1 -79 1.5t-70.5 1t-44.5 1.5l-43 -308h-41l97 690q82 8 223 8q113 0 154.5 -42.5
t26.5 -155.5zM147 341h182q93 2 134 36t54 127q13 92 -17 125t-121 33q-111 0 -187 -2z" />
    <glyph glyph-name="rcaron" unicode="&#x159;" horiz-adv-x="387" 
d="M248 567l-120 121l18 17l115 -101h8l146 101l15 -18l-153 -120h-29zM146 482l-12 -117q139 129 239 129h21l-11 -38h-19q-47 0 -98.5 -29.5t-131.5 -94.5l-46 -332h-40l68 482h30z" />
    <glyph glyph-name="Sacute" unicode="&#x15a;" horiz-adv-x="555" 
d="M480 870l-181 -136l-17 20l175 147zM329 701q107 -2 191 -14l-5 -30q-118 7 -200 7q-34 0 -52.5 -1t-44 -7.5t-39.5 -19.5t-26 -38t-17 -62q-6 -56 10.5 -85.5t71.5 -52.5l146 -60q78 -32 102 -71.5t14 -114.5q-7 -43 -21.5 -73t-34 -48t-51 -27t-63.5 -12t-81 -3
q-102 0 -195 13l6 31q116 -8 200 -7q50 1 80 5.5t56.5 17.5t40.5 39t21 69q8 61 -9.5 89t-76.5 53l-147 60q-72 30 -95.5 70.5t-15.5 112.5q6 44 21 74.5t34 47t49.5 25.5t59 11t71.5 1z" />
    <glyph glyph-name="sacute" unicode="&#x15b;" horiz-adv-x="500" 
d="M436 689l-181 -136l-17 20l175 147zM264 494q96 -1 191 -13l-6 -29q-117 6 -184 7q-86 2 -117.5 -11t-39.5 -66q-6 -39 8 -57.5t55 -34.5l154 -60q56 -22 78.5 -48t14.5 -80q-5 -38 -21 -61.5t-46 -35t-61.5 -14.5t-85.5 -3q-80 0 -174 13l6 29q82 -8 166 -7
q97 2 133.5 17.5t43.5 66.5q5 40 -10.5 56.5t-58.5 33.5l-152 60q-53 21 -75 47t-14 82q11 69 54.5 89.5t140.5 18.5z" />
    <glyph glyph-name="Scedilla" unicode="&#x15e;" horiz-adv-x="555" 
d="M329 701q107 -2 191 -14l-5 -30q-118 7 -200 7q-34 0 -52.5 -1t-44 -7.5t-39.5 -19.5t-26 -38t-17 -62q-6 -56 10.5 -85.5t71.5 -52.5l146 -60q78 -32 102 -71.5t14 -114.5q-7 -43 -21.5 -73t-34 -48t-51 -27t-63.5 -12t-81 -3q-102 0 -195 13l6 31q116 -8 200 -7
q50 1 80 5.5t56.5 17.5t40.5 39t21 69q8 61 -9.5 89t-76.5 53l-147 60q-72 30 -95.5 70.5t-15.5 112.5q6 44 21 74.5t34 47t49.5 25.5t59 11t71.5 1zM210 -79l4 21q92 6 79 -68q-8 -54 -52.5 -84.5t-107.5 -22.5l8 23q47 -2 81 23.5t40 63.5q4 25 -7 34t-45 10z" />
    <glyph glyph-name="scedilla" unicode="&#x15f;" horiz-adv-x="500" 
d="M264 494q96 -1 191 -13l-6 -29q-117 6 -184 7q-86 2 -117.5 -11t-39.5 -66q-6 -39 8 -57.5t55 -34.5l154 -60q56 -22 78.5 -48t14.5 -80q-5 -38 -21 -61.5t-46 -35t-61.5 -14.5t-85.5 -3q-80 0 -174 13l6 29q82 -8 166 -7q97 2 133.5 17.5t43.5 66.5q5 40 -10.5 56.5
t-58.5 33.5l-152 60q-53 21 -75 47t-14 82q11 69 54.5 89.5t140.5 18.5zM178 -79l4 21q92 6 79 -68q-8 -54 -52.5 -84.5t-107.5 -22.5l8 23q47 -2 81 23.5t40 63.5q4 25 -7 34t-45 10z" />
    <glyph glyph-name="Scaron" unicode="&#x160;" horiz-adv-x="555" 
d="M504 869l-153 -120h-29l-120 121l18 17l115 -101h8l146 101zM329 701q107 -2 191 -14l-5 -30q-118 7 -200 7q-34 0 -52.5 -1t-44 -7.5t-39.5 -19.5t-26 -38t-17 -62q-6 -56 10.5 -85.5t71.5 -52.5l146 -60q78 -32 102 -71.5t14 -114.5q-7 -43 -21.5 -73t-34 -48t-51 -27
t-63.5 -12t-81 -3q-102 0 -195 13l6 31q116 -8 200 -7q50 1 80 5.5t56.5 17.5t40.5 39t21 69q8 61 -9.5 89t-76.5 53l-147 60q-72 30 -95.5 70.5t-15.5 112.5q6 44 21 74.5t34 47t49.5 25.5t59 11t71.5 1z" />
    <glyph glyph-name="scaron" unicode="&#x161;" horiz-adv-x="500" 
d="M459 687l-153 -120h-29l-120 121l18 17l115 -101h8l146 101zM264 494q96 -1 191 -13l-6 -29q-117 6 -184 7q-86 2 -117.5 -11t-39.5 -66q-6 -39 8 -57.5t55 -34.5l154 -60q56 -22 78.5 -48t14.5 -80q-5 -38 -21 -61.5t-46 -35t-61.5 -14.5t-85.5 -3q-80 0 -174 13l6 29
q82 -8 166 -7q97 2 133.5 17.5t43.5 66.5q5 40 -10.5 56.5t-58.5 33.5l-152 60q-53 21 -75 47t-14 82q11 69 54.5 89.5t140.5 18.5z" />
    <glyph glyph-name="Tcedilla" unicode="&#x162;" horiz-adv-x="562" 
d="M590 654h-238l-92 -654h-41l92 654h-237l5 36h516zM194 -68l4 21q92 6 79 -68q-8 -54 -52.5 -84.5t-107.5 -22.5l8 23q47 -2 81 23.5t40 63.5q4 25 -7 34t-45 10z" />
    <glyph glyph-name="tcedilla" unicode="&#x163;" horiz-adv-x="350" 
d="M178 448l-48 -343q-12 -75 64 -75h86l1 -29q-45 -8 -91 -8q-57 0 -82.5 28.5t-17.5 81.5l48 345h-88l4 29l89 5l21 149h39l-21 -149h172l-5 -34h-171zM114 -75l4 21q92 6 79 -68q-8 -54 -52.5 -84.5t-107.5 -22.5l8 23q47 -2 81 23.5t40 63.5q4 25 -7 34t-45 10z" />
    <glyph glyph-name="Tcaron" unicode="&#x164;" horiz-adv-x="562" 
d="M332 749l-120 121l18 17l115 -101h8l146 101l15 -18l-153 -120h-29zM590 654h-238l-92 -654h-41l92 654h-237l5 36h516z" />
    <glyph glyph-name="tcaron" unicode="&#x165;" horiz-adv-x="350" 
d="M288 560l-20 7q16 52 24 102q-12 0 -10 13l9 56q1 14 18 14h14q14 0 11 -14l-8 -59q-7 -52 -38 -119zM178 448l-48 -343q-12 -75 64 -75h86l1 -29q-45 -8 -91 -8q-57 0 -82.5 28.5t-17.5 81.5l48 345h-88l4 29l89 5l21 149h39l-21 -149h172l-5 -34h-171z" />
    <glyph glyph-name="Tbar" unicode="&#x166;" horiz-adv-x="562" 
d="M352 654l-33 -231h156l-4 -28h-155l-56 -395h-41l56 395h-143l4 28h142l33 231h-237l5 36h516l-5 -36h-238z" />
    <glyph glyph-name="tbar" unicode="&#x167;" horiz-adv-x="350" 
d="M178 448l-16 -111h154l-4 -27h-154l-28 -205q-12 -75 64 -75h86l1 -29q-45 -8 -91 -8q-57 0 -82.5 28.5t-17.5 81.5l29 207h-69l4 27h69l15 111h-88l4 29l89 5l21 149h39l-21 -149h172l-5 -34h-171z" />
    <glyph glyph-name="Umacron" unicode="&#x16a;" horiz-adv-x="666" 
d="M538 799h-265l4 33h265zM629 690l-61 -434q-20 -146 -82 -207t-191 -61q-131 0 -178.5 62.5t-27.5 208.5l61 431h41l-61 -434q-17 -128 19.5 -179.5t144.5 -51.5q110 0 162.5 53t70.5 181l61 431h41z" />
    <glyph glyph-name="umacron" unicode="&#x16b;" 
d="M455 619h-265l4 33h265zM497 482l-68 -482h-30l13 121q-135 -133 -237 -133q-65 0 -94.5 34t-19.5 99l51 361h40l-51 -355q-7 -54 13 -78.5t71 -24.5q50 0 102 32t125 102l46 324h39z" />
    <glyph glyph-name="Uring" unicode="&#x16e;" horiz-adv-x="666" 
d="M416 913q44 0 70 -29t21 -71q-6 -39 -35.5 -67t-71.5 -28q-44 0 -70 29t-21 71q5 40 34.5 67.5t72.5 27.5zM416 888q-32 0 -53.5 -21.5t-25.5 -52.5q-4 -30 14 -50t49 -20t53 21.5t26 52.5q3 30 -14 50t-49 20zM629 690l-61 -434q-20 -146 -82 -207t-191 -61
q-131 0 -178.5 62.5t-27.5 208.5l61 431h41l-61 -434q-17 -128 19.5 -179.5t144.5 -51.5q110 0 162.5 53t70.5 181l61 431h41z" />
    <glyph glyph-name="uring" unicode="&#x16f;" 
d="M316 537q-44 0 -70 29t-21 71q5 40 34.5 67.5t72.5 27.5q44 0 70 -29t21 -71q-6 -39 -35.5 -67t-71.5 -28zM253 633q-4 -30 14 -50t49 -20t53 21.5t26 52.5q3 30 -14 50t-49 20t-53.5 -21.5t-25.5 -52.5zM497 482l-68 -482h-30l13 121q-135 -133 -237 -133
q-65 0 -94.5 34t-19.5 99l51 361h40l-51 -355q-7 -54 13 -78.5t71 -24.5q50 0 102 32t125 102l46 324h39z" />
    <glyph glyph-name="Uhungarumlaut" unicode="&#x170;" horiz-adv-x="666" 
d="M456 884l-144 -153l-19 15l135 160zM603 884l-144 -153l-20 15l135 160zM629 690l-61 -434q-20 -146 -82 -207t-191 -61q-131 0 -178.5 62.5t-27.5 208.5l61 431h41l-61 -434q-17 -128 19.5 -179.5t144.5 -51.5q110 0 162.5 53t70.5 181l61 431h41z" />
    <glyph glyph-name="uhungarumlaut" unicode="&#x171;" 
d="M228 551l-19 15l135 160l28 -22zM355 566l135 160l29 -22l-144 -153zM458 482h39l-68 -482h-30l13 121q-135 -133 -237 -133q-65 0 -94.5 34t-19.5 99l51 361h40l-51 -355q-7 -54 13 -78.5t71 -24.5q50 0 102 32t125 102z" />
    <glyph glyph-name="Uogonek" unicode="&#x172;" horiz-adv-x="666" 
d="M629 690l-61 -434q-19 -136 -73.5 -198t-165.5 -69q-66 -61 -99 -123q-22 -43 1 -56.5t80 5.5l5 -18q-85 -32 -115 -7t-2 81q27 56 103 117h-7q-131 0 -178.5 62.5t-27.5 208.5l61 431h41l-61 -434q-17 -128 19.5 -179.5t144.5 -51.5q110 0 162.5 53t70.5 181l61 431h41z
" />
    <glyph glyph-name="uogonek" unicode="&#x173;" 
d="M497 482l-68 -482q-69 -64 -101 -125q-22 -43 1 -56.5t80 5.5l5 -18q-85 -32 -115 -7t-2 81q30 59 106 120h-4l13 121q-135 -133 -237 -133q-65 0 -94.5 34t-19.5 99l51 361h40l-51 -355q-7 -54 13 -78.5t71 -24.5q50 0 102 32t125 102l46 324h39z" />
    <glyph glyph-name="Wcircumflex" unicode="&#x174;" horiz-adv-x="930" 
d="M682 763l-17 -17l-116 101h-9l-146 -102l-14 20l151 119h29zM954 690l-267 -677q-6 -13 -20 -13h-57q-16 0 -18 16l-57 565l-8 75h-24q-17 -39 -30 -78l-215 -564q-6 -14 -20 -14h-58q-16 0 -18 15l-77 675h42l64 -584q3 -24 7 -74h28l27 75l217 568q6 15 20 15h53
q17 0 19 -17l60 -568q0 -4 6 -73h28l27 75l228 583h43z" />
    <glyph glyph-name="wcircumflex" unicode="&#x175;" horiz-adv-x="823" 
d="M609 581l-17 -17l-116 101h-9l-146 -102l-14 20l151 119h29zM178 33h12q21 0 39 25q40 56 80 150q41 97 83 263q2 12 14 12l43 -1q12 0 14 -12l64 -437h12q21 0 39 26q61 93 87 148q58 119 92 275h41q-38 -166 -102 -293q-57 -112 -98 -160q-24 -29 -58 -29h-29
q-14 0 -16 13l-63 439h-11q-29 -137 -78 -254q-49 -116 -92 -167q-23 -31 -62 -31h-27q-14 0 -16 13l-91 469h41z" />
    <glyph glyph-name="Ycircumflex" unicode="&#x176;" horiz-adv-x="543" 
d="M199 745l-14 20l151 119h29l122 -121l-17 -17l-116 101h-9zM284 252l-36 -252h-41l37 255l-173 435h42l127 -323l26 -72h6q35 58 46 73l216 322h46z" />
    <glyph glyph-name="ycircumflex" unicode="&#x177;" horiz-adv-x="518" 
d="M150 563l-14 20l151 119h29l122 -121l-17 -17l-116 101h-9zM455 482h41q-58 -228 -176 -418q-79 -130 -140 -193.5t-135 -79.5l-7 27q53 17 100 60.5t99 121.5h-38q-19 0 -32 11t-17 28l-97 443h42l89 -425q6 -24 30 -24l44 1l25 40q111 183 172 408z" />
    <glyph glyph-name="Ydieresis" unicode="&#x178;" horiz-adv-x="543" 
d="M256 775h-12q-14 0 -13 15l8 54q1 15 16 15h13q14 0 13 -15l-8 -53q-3 -16 -17 -16zM431 775h-12q-14 0 -13 15l8 54q2 15 16 15h13q15 0 13 -15l-8 -53q-3 -16 -17 -16zM284 252l-36 -252h-41l37 255l-173 435h42l127 -323l26 -72h6q35 58 46 73l216 322h46z" />
    <glyph glyph-name="Zacute" unicode="&#x179;" horiz-adv-x="555" 
d="M306 734l-17 20l175 147l23 -31zM553 654l-493 -618h412l-6 -36h-459l6 36l492 618h-402l5 36h450z" />
    <glyph glyph-name="zacute" unicode="&#x17a;" horiz-adv-x="490" 
d="M241 553l-17 20l175 147l23 -31zM460 447l-396 -413h340l-5 -34h-390l5 34l396 413h-334l5 35h383z" />
    <glyph glyph-name="Zdotaccent" unicode="&#x17b;" horiz-adv-x="555" 
d="M353 770h-14q-16 0 -14 16l8 59q1 16 16 16h16q15 0 14 -16l-8 -59q-3 -16 -18 -16zM553 654l-493 -618h412l-6 -36h-459l6 36l492 618h-402l5 36h450z" />
    <glyph glyph-name="zdotaccent" unicode="&#x17c;" horiz-adv-x="490" 
d="M288 589h-14q-16 0 -14 16l8 59q1 16 16 16h16q15 0 14 -16l-8 -59q-3 -16 -18 -16zM460 447l-396 -413h340l-5 -34h-390l5 34l396 413h-334l5 35h383z" />
    <glyph glyph-name="Zcaron" unicode="&#x17d;" horiz-adv-x="555" 
d="M329 749l-120 121l18 17l115 -101h8l146 101l15 -18l-153 -120h-29zM553 654l-493 -618h412l-6 -36h-459l6 36l492 618h-402l5 36h450z" />
    <glyph glyph-name="zcaron" unicode="&#x17e;" horiz-adv-x="490" 
d="M264 567l-120 121l18 17l115 -101h8l146 101l15 -18l-153 -120h-29zM460 447l-396 -413h340l-5 -34h-390l5 34l396 413h-334l5 35h383z" />
    <glyph glyph-name="florin" unicode="&#x192;" horiz-adv-x="413" 
d="M368 699q53 0 84 -4l-7 -30h-69q-57 0 -85.5 -23.5t-41.5 -81.5l-41 -172h161l-9 -34h-160l-83 -354q-16 -68 -51 -101t-98 -33q-56 0 -84 5l6 29h68q52 0 79 24t41 81l82 349h-96l7 29l97 5l42 177q15 68 52.5 101t105.5 33z" />
    <glyph glyph-name="Scommaaccent" unicode="&#x218;" horiz-adv-x="555" 
d="M329 701q107 -2 191 -14l-5 -30q-118 7 -200 7q-34 0 -52.5 -1t-44 -7.5t-39.5 -19.5t-26 -38t-17 -62q-6 -56 10.5 -85.5t71.5 -52.5l146 -60q78 -32 102 -71.5t14 -114.5q-7 -43 -21.5 -73t-34 -48t-51 -27t-63.5 -12t-81 -3q-102 0 -195 13l6 31q116 -8 200 -7
q50 1 80 5.5t56.5 17.5t40.5 39t21 69q8 61 -9.5 89t-76.5 53l-147 60q-72 30 -95.5 70.5t-15.5 112.5q6 44 21 74.5t34 47t49.5 25.5t59 11t71.5 1zM253 -63h14q14 0 11 -14l-8 -59q-7 -52 -38 -119l-20 7q16 52 24 102q-12 0 -10 13l9 56q1 14 18 14z" />
    <glyph glyph-name="scommaaccent" unicode="&#x219;" horiz-adv-x="500" 
d="M264 494q96 -1 191 -13l-6 -29q-117 6 -184 7q-86 2 -117.5 -11t-39.5 -66q-6 -39 8 -57.5t55 -34.5l154 -60q56 -22 78.5 -48t14.5 -80q-5 -38 -21 -61.5t-46 -35t-61.5 -14.5t-85.5 -3q-80 0 -174 13l6 29q82 -8 166 -7q97 2 133.5 17.5t43.5 66.5q5 40 -10.5 56.5
t-58.5 33.5l-152 60q-53 21 -75 47t-14 82q11 69 54.5 89.5t140.5 18.5zM210 -63h14q14 0 11 -14l-8 -59q-7 -52 -38 -119l-20 7q16 52 24 102q-12 0 -10 13l9 56q1 14 18 14z" />
    <glyph glyph-name="uni021A" unicode="&#x21a;" horiz-adv-x="562" 
d="M590 654h-238l-92 -654h-41l92 654h-237l5 36h516zM224 -63h14q14 0 11 -14l-8 -59q-7 -52 -38 -119l-20 7q16 52 24 102q-12 0 -10 13l9 56q1 14 18 14z" />
    <glyph glyph-name="uni021B" unicode="&#x21b;" horiz-adv-x="350" 
d="M178 448l-48 -343q-12 -75 64 -75h86l1 -29q-45 -8 -91 -8q-57 0 -82.5 28.5t-17.5 81.5l48 345h-88l4 29l89 5l21 149h39l-21 -149h172l-5 -34h-171zM164 -63h14q14 0 11 -14l-8 -59q-7 -52 -38 -119l-20 7q16 52 24 102q-12 0 -10 13l9 56q1 14 18 14z" />
    <glyph glyph-name="circumflex" unicode="&#x2c6;" horiz-adv-x="399" 
d="M401 585l-17 -17l-116 101h-9l-146 -102l-14 20l151 119h29z" />
    <glyph glyph-name="caron" unicode="&#x2c7;" horiz-adv-x="399" 
d="M414 691l-153 -120h-29l-120 121l18 17l115 -101h8l146 101z" />
    <glyph glyph-name="breve" unicode="&#x2d8;" horiz-adv-x="362" 
d="M359 691l24 -7q-7 -55 -48 -86.5t-105 -31.5q-66 0 -100.5 32.5t-25.5 87.5l25 2q-7 -42 20.5 -65t80.5 -23q54 0 89 24.5t40 66.5z" />
    <glyph glyph-name="dotaccent" unicode="&#x2d9;" horiz-adv-x="210" 
d="M157 678h16q15 0 14 -16l-8 -59q-3 -16 -18 -16h-14q-16 0 -14 16l8 59q1 16 16 16z" />
    <glyph glyph-name="ring" unicode="&#x2da;" horiz-adv-x="294" 
d="M211 735q44 0 70 -29t21 -71q-6 -39 -35.5 -67t-71.5 -28q-44 0 -70 29t-21 71q5 40 34.5 67.5t72.5 27.5zM211 710q-32 0 -53.5 -21.5t-25.5 -52.5q-4 -30 14 -50t49 -20t53 21.5t26 52.5q3 30 -14 50t-49 20z" />
    <glyph glyph-name="ogonek" unicode="&#x2db;" horiz-adv-x="253" 
d="M112 2l23 -2q-69 -64 -101 -125q-22 -43 1 -56.5t80 5.5l5 -18q-85 -32 -115 -7t-2 81q30 60 109 122z" />
    <glyph glyph-name="tilde" unicode="&#x2dc;" horiz-adv-x="405" 
d="M191 690q31 -3 68 -32.5t64 -32.5q60 -4 67 61l23 -2q-4 -46 -27 -70t-59 -21t-74 33t-59 32q-58 6 -67 -65l-23 3q4 49 27.5 73t59.5 21z" />
    <glyph glyph-name="hungarumlaut" unicode="&#x2dd;" horiz-adv-x="421" 
d="M270 697l-144 -153l-19 15l135 160zM417 697l-144 -153l-20 15l135 160z" />
    <glyph glyph-name="Delta" unicode="&#x394;" horiz-adv-x="614" 
d="M545 26l-4 -26h-549l3 26l347 664h43zM359 648q-6 -14 -18 -38t-16 -34l-281 -541h457l-127 544q-2 8 -5 22t-5.5 25.5t-4.5 21.5z" />
    <glyph glyph-name="Omega" unicode="&#x3a9;" horiz-adv-x="715" 
d="M415 702q141 0 195.5 -85.5t30.5 -258.5q-17 -118 -64 -192t-138 -131q20 1 60 1h128l-4 -36h-234l3 36q96 58 142.5 132t62.5 191q23 159 -20.5 232.5t-162.5 73.5q-124 0 -188.5 -74.5t-87.5 -237.5q-17 -120 9.5 -188t103.5 -130l-4 -35h-234l5 36h126q42 0 64 -1
q-74 58 -101 135.5t-10 193.5q23 171 99 254.5t219 83.5z" />
    <glyph glyph-name="mu" unicode="&#x3bc;" horiz-adv-x="579" 
d="M507 482l-68 -482h-30l7 83q-129 -95 -227 -95q-69 0 -100 42q1 -34 -6 -86l-21 -152h-37l46 333l51 357h39l-50 -355q-7 -52 14 -76.5t73 -24.5q47 0 95.5 21t122.5 68l51 367h40z" />
    <glyph glyph-name="pi" unicode="&#x3c0;" horiz-adv-x="638" 
d="M631 448h-107l-63 -448h-40l63 448h-287l-63 -448h-40l63 448h-106l4 34h581z" />
    <glyph glyph-name="uni0401" unicode="&#x401;" horiz-adv-x="551" 
d="M292 799h-12q-14 0 -13 15l8 54q1 15 16 15h13q14 0 13 -15l-8 -53q-3 -16 -17 -16zM467 799h-12q-14 0 -13 15l8 54q2 15 16 15h13q15 0 13 -15l-8 -53q-3 -16 -17 -16zM544 655h-283q-78 0 -89 -80l-26 -190h321l-5 -33l-321 -1l-33 -239q-5 -36 12.5 -56.5t53.5 -20.5
h283v-31q-96 -4 -290 -4q-52 0 -80 31t-20 81l66 473q6 48 38 76.5t84 28.5q199 0 296 -4z" />
    <glyph glyph-name="uni0402" unicode="&#x402;" horiz-adv-x="744" 
d="M543 435q84 0 120 -48.5t20 -161.5q-18 -124 -90 -176.5t-194 -48.5l-2 29q110 6 169.5 48t75.5 149q14 98 -13 135t-94 37q-64 0 -112.5 -18t-117.5 -61l-45 -319h-41l92 654h-237l5 36h516l-5 -36h-238l-42 -297q120 78 233 78z" />
    <glyph glyph-name="uni0403" unicode="&#x403;" horiz-adv-x="514" 
d="M505 870l-181 -136l-17 20l175 147zM257 690q193 0 287 -5l-6 -30h-270q-80 0 -91 -81l-81 -574h-41l82 582q7 53 40 80.5t80 27.5z" />
    <glyph glyph-name="uni0404" unicode="&#x404;" horiz-adv-x="567" 
d="M399 665q-124 0 -184.5 -61.5t-87.5 -218.5h310l-4 -33l-312 -1l-1 -9q-19 -117 -5.5 -187t56.5 -99.5t128 -30.5q102 0 183 13l5 -31q-89 -20 -188 -19q-150 1 -199 81.5t-22 277.5q28 198 99 276.5t220 78.5q102 0 176 -18l-9 -31q-75 12 -165 12z" />
    <glyph glyph-name="uni0405" unicode="&#x405;" horiz-adv-x="555" 
d="M330 701q106 -2 190 -14l-5 -30q-118 7 -199 7q-35 0 -53.5 -1t-44 -7.5t-39 -19.5t-26 -38t-17.5 -62q-6 -56 10.5 -85.5t71.5 -52.5l146 -60q78 -32 102 -71.5t14 -114.5q-7 -43 -21.5 -73t-34 -48t-51 -27t-63.5 -12t-81 -3q-102 0 -195 13l6 31q116 -8 200 -7
q50 1 80 5.5t56.5 17.5t40.5 39t21 69q8 61 -9 89t-77 53l-146 60q-72 30 -96 71t-16 112q8 54 27 88t53 49t67.5 19t88.5 3z" />
    <glyph glyph-name="uni0406" unicode="&#x406;" horiz-adv-x="238" 
d="M99 0h-41l97 690h41z" />
    <glyph glyph-name="uni0407" unicode="&#x407;" horiz-adv-x="239" 
d="M104 859h13q15 0 13 -15l-8 -53q-3 -16 -17 -16h-12q-14 0 -13 15l8 54q2 15 16 15zM279 859h13q14 0 13 -15l-8 -53q-3 -16 -17 -16h-12q-14 0 -13 15l8 54q1 15 16 15zM99 0h-41l97 690h41z" />
    <glyph glyph-name="uni0408" unicode="&#x408;" horiz-adv-x="326" 
d="M287 690l-80 -568q-17 -131 -140 -129q-34 0 -72 8l9 28h54q95 0 109 95l79 566h41z" />
    <glyph glyph-name="uni0409" unicode="&#x409;" horiz-adv-x="966" 
d="M542 391h172q119 0 159.5 -45.5t25.5 -156.5q-16 -114 -67.5 -155.5t-166.5 -41.5q-139 0 -218 8h-1l92 655h-154q-42 0 -64 -17.5t-32 -64.5q-48 -228 -72 -306.5t-76 -151.5q-71 -101 -148 -115l-3 36q30 10 56 32t59 64q49 68 71.5 141t73.5 310q12 58 43 82.5
t84 24.5h208zM857 194q14 91 -16.5 126t-128.5 35h-175l-46 -324q78 -2 141 -2q119 0 165 30.5t60 134.5z" />
    <glyph glyph-name="uni040A" unicode="&#x40a;" horiz-adv-x="979" 
d="M556 390h172q119 0 159.5 -45.5t24.5 -155.5q-15 -114 -66.5 -155.5t-166.5 -41.5q-139 0 -219 8l50 354h-361l-50 -354h-41l97 690h41l-42 -301h361l42 301h41zM871 194q13 90 -17.5 125t-128.5 35h-174l-46 -323q74 -2 170 -2q98 0 140 34t56 131z" />
    <glyph glyph-name="uni040B" unicode="&#x40b;" horiz-adv-x="780" 
d="M587 435q150 0 129 -149l-40 -286h-41l39 281q8 62 -15 89.5t-83 27.5q-71 0 -131 -21.5t-143 -76.5l-42 -300h-41l92 654h-237l5 36h516l-5 -36h-238l-44 -313q138 94 279 94z" />
    <glyph glyph-name="uni040C" unicode="&#x40c;" horiz-adv-x="578" 
d="M328 734l-17 20l175 147l23 -31zM299 361l-2 -3q20 -2 38 -8t32.5 -20.5t26 -26.5t23 -38.5t18.5 -41.5t17.5 -51t15 -52.5t15.5 -60.5l15 -60l-42 2q-5 18 -14.5 56l-13.5 54t-13.5 48t-15.5 46t-16.5 38t-20 35.5t-23 26.5t-28 21.5t-33.5 11.5t-40 5h-95
q-1 -33 -8 -84l-37 -259h-40l97 690h40l-32 -232q-6 -43 -15 -81h94q44 0 84 23.5t73 66t61.5 89.5t60.5 106q3 7 5 10.5t5 9t5 9.5l43 -2q-85 -156 -117 -203q-82 -117 -163 -125z" />
    <glyph glyph-name="uni040D" unicode="&#x40d;" horiz-adv-x="681" 
d="M444 753l-19 -19l-147 137l26 29zM542 0h-41l76 534q3 16 7.5 48.5t6.5 48.5l-2 -1q-5 -7 -13.5 -20t-16 -24t-14.5 -19l-444 -567h-43l97 690h41l-75 -530q-12 -79 -16 -101l2 1q9 11 26 35.5t24 33.5l439 561h43z" />
    <glyph glyph-name="uni040E" unicode="&#x40e;" horiz-adv-x="541" 
d="M337 752q-66 0 -100.5 32.5t-25.5 87.5l25 2q-7 -42 20.5 -65t80.5 -23q54 0 89 24.5t40 66.5l24 -7q-7 -55 -48 -86.5t-105 -31.5zM575 690l-270 -528q-22 -42 -33 -61.5t-32 -49t-43 -42.5t-48 -15q-56 -4 -103 13l6 28q34 -5 54.5 -7t40.5 3t31 11.5t26.5 26.5
t26.5 39t32 59l20 37h-40q-41 0 -51 39l-107 447h42l101 -431q5 -20 25 -20h48l229 451h45z" />
    <glyph glyph-name="uni040F" unicode="&#x40f;" horiz-adv-x="668" 
d="M625 690l-97 -690h-209l-24 -151h-29l17 151h-225l97 690h41l-92 -655h388l92 655h41z" />
    <glyph glyph-name="uni0410" unicode="&#x410;" horiz-adv-x="604" 
d="M458 242h-318l-119 -242h-45l337 678q4 12 18 12h56q15 0 17 -14l146 -676h-42zM450 279l-67 321l-11 56h-30l-27 -57l-157 -320h292z" />
    <glyph glyph-name="uni0411" unicode="&#x411;" horiz-adv-x="592" 
d="M191 657l-39 -281h180q120 0 160.5 -43.5t25.5 -150.5q-15 -111 -66.5 -150.5t-166.5 -39.5q-145 0 -227 8l97 690q82 5 199 5q89 0 202 -5l-8 -33h-357zM147 341l-44 -311q76 -2 179 -2q97 0 139.5 32.5t55.5 126.5q12 88 -18.5 121t-128.5 33h-183z" />
    <glyph glyph-name="uni0412" unicode="&#x412;" horiz-adv-x="612" 
d="M556 516q-11 -75 -43.5 -112.5t-95.5 -43.5v-4q73 -7 98.5 -53.5t12.5 -132.5q-15 -105 -66 -141.5t-170 -36.5q-152 0 -234 8l97 690q73 8 201 8q125 0 170 -38.5t30 -143.5zM151 374h178q93 1 133.5 30.5t52.5 113.5q12 86 -22.5 115t-137.5 29h-164zM487 178
q13 94 -21.5 127.5t-138.5 35.5h-181l-44 -311q78 -2 186 -2q101 0 144 30.5t55 119.5z" />
    <glyph glyph-name="uni0413" unicode="&#x413;" horiz-adv-x="514" 
d="M257 690q193 0 287 -5l-6 -30h-270q-80 0 -91 -81l-81 -574h-41l82 582q7 53 40 80.5t80 27.5z" />
    <glyph glyph-name="uni0414" unicode="&#x414;" horiz-adv-x="659" 
d="M590 35l-3 -28l-22 -158h-31l14 151h-529l-28 -151h-31l22 152l4 34h56q136 197 194 548q10 57 40 82t84 25h240l-92 -655h82zM467 35l87 620h-188q-40 0 -62 -18t-29 -62q-31 -169 -72.5 -300.5t-113.5 -239.5h378z" />
    <glyph glyph-name="uni0415" unicode="&#x415;" horiz-adv-x="551" 
d="M545 655h-283q-78 0 -89 -80l-26 -190h320l-5 -33l-320 -1l-33 -239q-5 -35 12.5 -56t52.5 -21h283l1 -31q-96 -4 -291 -4q-52 0 -80 31t-20 81l66 473q7 48 39 76.5t83 28.5q199 0 296 -4z" />
    <glyph glyph-name="uni0416" unicode="&#x416;" horiz-adv-x="893" 
d="M644 361v-3q34 -5 58.5 -26.5t45 -78.5t28.5 -89t28 -128q5 -24 8 -36h-41q-38 177 -54 221q-35 101 -99 118q-15 4 -33 4h-111q-1 -37 -8 -84l-36 -259h-40l37 261q5 39 16 82h-107q-19 0 -36.5 -3.5t-34.5 -13t-30 -17.5t-29 -27t-26.5 -31t-26.5 -40t-25 -43.5
t-26.5 -52t-26 -54.5t-28.5 -61h-45q25 56 39 85t36 73t37 67.5t36.5 52.5t40 43.5t41.5 25.5t48 13l1 2q-33 4 -59.5 32.5t-44 74t-31 96t-26.5 109.5q-2 11 -3 16h40q36 -154 53 -199q45 -114 125 -114h113q1 40 7 83l33 230h39l-32 -232q-8 -49 -15 -81h110q38 0 73 23
t64.5 66t54 88t53.5 106q9 20 14 30h43q-77 -164 -109 -213q-69 -108 -139 -116z" />
    <glyph glyph-name="uni0417" unicode="&#x417;" horiz-adv-x="542" 
d="M284 698q124 0 169.5 -39t30.5 -143q-11 -75 -43.5 -112.5t-93.5 -43.5l-3 -4q73 -7 98.5 -53t13.5 -133q-15 -104 -65.5 -141t-170.5 -37q-127 0 -219 16l7 30q170 -10 208 -10q100 0 143 30.5t55 119.5q13 94 -22 128.5t-137 34.5h-106l4 33h104q93 0 133.5 30
t52.5 114q12 87 -22 115.5t-138 28.5q-37 0 -72.5 -1.5t-63.5 -4t-36 -2.5l-3 30q84 14 176 14z" />
    <glyph glyph-name="uni0418" unicode="&#x418;" horiz-adv-x="681" 
d="M541 0h-40l75 534l15 97l-2 -1l-17 -26q-18 -26 -27 -37l-445 -567h-42l97 690h40l-74 -530q-12 -79 -16 -101l2 1q35 49 50 69l439 561h42z" />
    <glyph glyph-name="uni0419" unicode="&#x419;" horiz-adv-x="681" 
d="M524 875h34q-7 -56 -48.5 -89.5t-104.5 -33.5q-66 0 -100.5 33.5t-25.5 89.5h35q-7 -48 18 -72.5t74 -24.5t80.5 25t37.5 72zM542 0h-41l76 534q3 16 7.5 48.5t6.5 48.5l-2 -1q-5 -7 -13.5 -20t-16 -24t-14.5 -19l-444 -567h-43l97 690h41l-75 -530q-12 -79 -16 -101l2 1
q9 11 26 35.5t24 33.5l439 561h43z" />
    <glyph glyph-name="uni041A" unicode="&#x41a;" horiz-adv-x="578" 
d="M299 361l-2 -3q20 -2 38 -8t32.5 -20.5t26 -26.5t23 -38.5t18.5 -41.5t17.5 -51t15 -52.5t15.5 -60.5l15 -60l-42 2q-5 18 -14.5 56l-13.5 54t-13.5 48t-15.5 46t-16.5 38t-20 35.5t-23 26.5t-28 21.5t-33.5 11.5t-40 5h-95q-1 -38 -9 -84l-36 -259h-40l97 690h40
l-32 -232q-8 -48 -16 -81h95q44 0 84 23.5t73 66t61.5 89.5t60.5 106q3 7 5 10.5t5 9t5 9.5l43 -2q-85 -156 -117 -203q-82 -117 -163 -125z" />
    <glyph glyph-name="uni041B" unicode="&#x41b;" horiz-adv-x="637" 
d="M594 690l-97 -690h-41l92 655h-178q-42 0 -64.5 -18t-31.5 -64q-49 -230 -73 -308.5t-73 -149.5q-65 -96 -150 -115l-3 35q24 11 38 19.5t35.5 28.5t42.5 50q47 67 70 140.5t74 309.5q13 57 43.5 82t84.5 25h231z" />
    <glyph glyph-name="uni041C" unicode="&#x41c;" horiz-adv-x="860" 
d="M723 690h57q21 0 19 -22l-64 -668h-42l64 655h-23l-288 -577q-5 -13 -20 -13h-52q-16 0 -19 15l-127 575h-24l-120 -655h-41l124 671q3 19 22 19h55q16 0 18 -16l108 -483q5 -18 11.5 -50.5t8.5 -43.5h25q9 19 25 52.5t21 44.5l242 483q7 13 20 13z" />
    <glyph glyph-name="uni041D" unicode="&#x41d;" horiz-adv-x="659" 
d="M617 690l-97 -690h-41l49 351h-380l-49 -351h-41l97 690h41l-43 -303h380l43 303h41z" />
    <glyph glyph-name="uni041E" unicode="&#x41e;" horiz-adv-x="662" 
d="M386 702q143 0 191 -81t20 -278q-27 -198 -94.5 -276.5t-210.5 -78.5t-192 80.5t-21 278.5q28 197 95.5 276t211.5 79zM385 665q-124 0 -181 -70.5t-83 -251.5q-24 -178 13.5 -248t157.5 -70q123 0 180 70.5t83 251.5q26 180 -11 249t-159 69z" />
    <glyph glyph-name="uni041F" unicode="&#x41f;" horiz-adv-x="663" 
d="M620 690l-97 -690h-41l92 655h-383l-92 -655h-41l97 690h465z" />
    <glyph glyph-name="uni0420" unicode="&#x420;" horiz-adv-x="582" 
d="M378 698q115 0 155 -45t24 -163q-18 -120 -67.5 -162t-163.5 -42q-108 0 -186 6l-41 -292h-41l97 690q82 8 223 8zM515 494q14 98 -16 133t-121 35q-110 0 -186 -2l-48 -338h181q95 2 135.5 37t54.5 135z" />
    <glyph glyph-name="uni0421" unicode="&#x421;" 
d="M385 702q105 0 177 -18l-9 -30q-77 11 -167 11q-125 0 -182 -70t-83 -252q-25 -178 12 -248t157 -70q110 0 188 13l5 -31q-82 -19 -192 -19q-144 0 -192 81.5t-20 277.5q28 197 96 276t210 79z" />
    <glyph glyph-name="uni0422" unicode="&#x422;" horiz-adv-x="562" 
d="M590 654h-238l-92 -654h-41l92 654h-237l5 36h516z" />
    <glyph glyph-name="uni0423" unicode="&#x423;" horiz-adv-x="541" 
d="M575 690l-270 -528q-20 -40 -32.5 -61.5t-32.5 -49.5t-42.5 -41.5t-48.5 -15.5q-55 -4 -103 13l6 28q34 -5 54.5 -7t41 3t31.5 11.5t26.5 26.5t26.5 39.5t32 58.5l20 37h-41q-41 0 -51 39l-107 447h42l100 -431q5 -20 25 -20h49l230 451h44z" />
    <glyph glyph-name="uni0424" unicode="&#x424;" horiz-adv-x="819" 
d="M496 753l-15 -103q175 -4 238 -71t41 -227q-22 -159 -103 -224.5t-259 -68.5l-14 -104h-41l14 104q-176 4 -239 71t-41 227q22 159 104 225t259 68l15 103h41zM718 357q20 144 -33.5 199.5t-209.5 57.5l-72 -520q155 3 225 60.5t90 202.5zM120 352q-21 -145 32.5 -200.5
t210.5 -57.5l73 520q-156 -3 -226 -60t-90 -202z" />
    <glyph glyph-name="uni0425" unicode="&#x425;" horiz-adv-x="595" 
d="M359 359l162 -359h-43l-154 343h-33l-250 -343h-49l264 360l-153 330h43l144 -313h35l234 313h46z" />
    <glyph glyph-name="uni0426" unicode="&#x426;" horiz-adv-x="672" 
d="M521 35h82l-4 -35l-21 -151h-31l14 151h-503l97 690h41l-92 -655h376l92 655h41z" />
    <glyph glyph-name="uni0427" unicode="&#x427;" horiz-adv-x="608" 
d="M565 690l-97 -690h-41l51 360q-135 -96 -267 -96q-75 0 -106.5 34t-21.5 115l39 277h41l-37 -273q-8 -64 13 -90t81 -26q68 0 128 25t135 72l41 292h41z" />
    <glyph glyph-name="uni0428" unicode="&#x428;" horiz-adv-x="908" 
d="M865 690l-97 -690h-710l97 690h40l-92 -655h295l92 655h40l-92 -655h294l92 655h41z" />
    <glyph glyph-name="uni0429" unicode="&#x429;" horiz-adv-x="916" 
d="M764 35h83l-5 -35l-21 -151h-31l14 151h-746l97 690h41l-92 -655h289l92 655h41l-92 -655h290l92 655h40z" />
    <glyph glyph-name="uni042A" unicode="&#x42a;" horiz-adv-x="736" 
d="M305 391h180q119 0 159.5 -45.5t25.5 -156.5q-15 -114 -67 -155.5t-167 -41.5q-145 0 -226 8h-1l92 654h-230l5 36h271zM629 194q13 91 -17.5 126t-128.5 35h-183l-46 -324q76 -2 178 -2q98 0 140.5 34t56.5 131z" />
    <glyph glyph-name="uni042B" unicode="&#x42b;" horiz-adv-x="819" 
d="M154 391h180q120 0 160.5 -45.5t24.5 -156.5q-15 -114 -66.5 -155.5t-166.5 -41.5q-146 0 -228 8l97 690h41zM776 690l-97 -690h-42l97 690h42zM478 194q13 91 -17.5 126t-128.5 35h-183l-46 -324q76 -2 179 -2q97 0 139.5 34t56.5 131z" />
    <glyph glyph-name="uni042C" unicode="&#x42c;" horiz-adv-x="586" 
d="M154 391h180q120 0 160.5 -45.5t24.5 -156.5q-15 -114 -66.5 -155.5t-166.5 -41.5q-146 0 -228 8l97 690h41zM478 194q13 91 -17.5 126t-128.5 35h-183l-46 -324q76 -2 179 -2q97 0 139.5 34t56.5 131z" />
    <glyph glyph-name="uni042D" unicode="&#x42d;" horiz-adv-x="568" 
d="M280 702q151 0 201.5 -80t22.5 -279q-27 -197 -97 -275t-218 -80q-104 -1 -186 20l9 30q68 -13 177 -13q127 2 187.5 73t85.5 249l1 4l-314 1l4 32l314 1q18 159 -24.5 219.5t-163.5 60.5q-94 0 -171 -12l-5 31q78 18 177 18z" />
    <glyph glyph-name="uni042E" unicode="&#x42e;" horiz-adv-x="899" 
d="M624 702q143 0 191 -80.5t20 -278.5q-27 -198 -95 -276.5t-211 -78.5q-138 0 -183 79t-19 275h-180l-48 -342h-41l97 690h41l-44 -313h180q29 180 94.5 252.5t197.5 72.5zM793 347q25 178 -12 248t-157 70q-117 0 -173.5 -71.5t-81.5 -250.5t10 -248.5t150 -69.5
q121 0 179.5 71.5t84.5 250.5z" />
    <glyph glyph-name="uni042F" unicode="&#x42f;" horiz-adv-x="603" 
d="M333 698q149 0 227 -8l-97 -690h-41l42 298q-113 -2 -189 -3q-81 -1 -122 -88l-97 -207h-46l100 212q41 82 100 98l1 4q-60 15 -85.5 67.5t-12.5 135.5q14 97 66.5 139t153.5 42zM469 331l46 329q-78 2 -181 2q-81 0 -123.5 -33.5t-55.5 -115.5q-15 -86 17 -134t112 -48
h185z" />
    <glyph glyph-name="uni0430" unicode="&#x430;" horiz-adv-x="567" 
d="M313 494q84 0 192 -15l-68 -479h-31l13 118q-54 -61 -119 -95.5t-119 -34.5q-88 0 -113 59t-3 197q24 152 73.5 201t174.5 49zM420 157l41 297q-97 5 -139 5q-116 0 -155.5 -40.5t-61.5 -179.5q-20 -117 -3.5 -166t84.5 -49q50 0 112.5 35t121.5 98z" />
    <glyph glyph-name="uni0431" unicode="&#x431;" horiz-adv-x="562" 
d="M518 731l9 -31q-38 -23 -70 -34.5t-74.5 -20.5t-56.5 -13q-92 -25 -130 -74t-59 -142q-4 -13 -16 -67h1q50 119 202 119q109 0 144.5 -54.5t18.5 -182.5q-17 -123 -67.5 -183t-167.5 -60q-37 0 -66 5t-49 17t-34 26t-21.5 36.5t-11 44.5t-2 54t4 60t8.5 69
q26 182 70 256.5t163 108.5q19 6 59.5 14t72.5 19t72 33zM318 433q-104 0 -147.5 -51t-56.5 -151q-17 -117 14 -162t125 -45q90 0 133.5 47t60.5 168q16 110 -12 152t-117 42z" />
    <glyph glyph-name="uni0432" unicode="&#x432;" horiz-adv-x="553" 
d="M484 376q-20 -92 -129 -109v-2q132 -7 113 -148q-11 -74 -59.5 -101.5t-156.5 -27.5q-45 0 -76 4t-56.5 15t-39.5 29t-21.5 47.5t-6.5 69.5t9 95q12 82 31 131.5t51 74.5t67.5 32.5t94.5 7.5q104 0 148.5 -24t30.5 -94zM100 247l173 26q90 12 126 35.5t45 69.5
q10 50 -19.5 66t-120.5 16q-52 0 -80.5 -5.5t-55.5 -27t-42 -64.5t-26 -116zM428 127q10 70 -25.5 99.5t-130.5 15.5l-176 -26q-3 -42 -5 -73t6 -52.5t17.5 -35t30.5 -21t44 -10t58 -2.5q92 0 132 21.5t49 83.5z" />
    <glyph glyph-name="uni0433" unicode="&#x433;" horiz-adv-x="510" 
d="M283 494q24 0 48.5 0.5t47 -6t39.5 -17.5t25 -33t4 -54q-4 -31 -17 -54.5t-35.5 -38.5t-36.5 -22t-39 -16l-160 -55q-38 -15 -58.5 -35t-25.5 -56q-8 -51 23 -67t103 -16q110 0 226 39l3 -31q-103 -44 -231 -44q-41 0 -69.5 4.5t-53.5 16.5t-35.5 36.5t-6.5 61.5
q6 47 34 76.5t88 51.5l158 54q44 16 66 38t27 56q8 49 -24 64t-107 12q-78 -3 -193 -28l-2 31q90 27 202 32z" />
    <glyph glyph-name="uni0434" unicode="&#x434;" horiz-adv-x="558" 
d="M161 679l7 31q40 -4 72 -10t66.5 -16.5t60 -26.5t50 -38.5t39.5 -55t24.5 -73t9 -94.5t-10.5 -118q-7 -53 -16 -90.5t-26.5 -78t-42.5 -65t-64.5 -40.5t-92.5 -16q-106 0 -148.5 56.5t-25.5 178.5q31 224 225 224q107 0 161 -74q4 73 -11 127t-39 85t-66.5 51.5
t-79.5 28.5t-92 14zM237 23q100 0 142 64.5t61 201.5q3 19 7 53q-52 70 -158 70q-86 0 -129.5 -51t-55.5 -144q-15 -104 17.5 -149t115.5 -45z" />
    <glyph glyph-name="uni0435" unicode="&#x435;" horiz-adv-x="529" 
d="M311 494q100 0 142.5 -33.5t23.5 -116.5q-13 -61 -50 -86t-116 -33l-217 -23q-11 -104 24 -141.5t130 -37.5q80 0 177 13l3 -28q-67 -20 -191 -20q-120 0 -159.5 59.5t-19.5 199.5q11 76 30.5 124.5t51.5 75.5t71.5 37t99.5 10zM437 347q17 69 -15 90.5t-109 21.5
q-54 0 -86.5 -7.5t-59 -30.5t-42 -65t-26.5 -112l-1 -9l214 23q62 7 88 25t37 64z" />
    <glyph glyph-name="uni0436" unicode="&#x436;" horiz-adv-x="760" 
d="M519 252v-2q33 -3 56.5 -20.5t40 -49t28.5 -67.5t27 -87q1 -6 2 -9t2.5 -8t2.5 -9h-39q-3 12 -10 34q-13 46 -20.5 68t-21 53t-27.5 44.5t-36 24.5t-51 11h-83q0 -32 -4 -57l-25 -178h-38l26 181q3 22 11 54h-84q-36 0 -64 -13.5t-56 -47t-46 -61t-52 -87.5
q-10 -17 -15 -26h-42q75 133 102 168q60 78 130 84v1q-26 3 -47.5 18.5t-35 33.5t-27.5 52t-21 57.5t-19 67.5h38q34 -115 55 -151q38 -64 104 -64h85q-1 21 4 59l23 156h37l-22 -158q-4 -32 -11 -57h76q28 0 54.5 13t45.5 29t43.5 50t38 56.5t38.5 66.5h41q-27 -49 -39 -69
t-36.5 -57t-42.5 -54t-43.5 -32t-52.5 -18z" />
    <glyph glyph-name="uni0437" unicode="&#x437;" horiz-adv-x="487" 
d="M224 488q117 0 159.5 -27t32.5 -102q-8 -52 -34 -78.5t-83 -31.5l-2 -2q63 -5 87 -36.5t16 -94.5q-10 -73 -56 -98t-160 -25q-111 0 -183 12l7 30q101 -7 174 -7q97 0 133 19.5t45 80.5q8 60 -23 81t-121 22l-101 1l3 30l100 1q83 1 117 21t41 75q8 59 -23.5 77
t-132.5 18q-84 0 -137 -7l-3 30q57 11 144 11z" />
    <glyph glyph-name="uni0438" unicode="&#x438;" horiz-adv-x="560" 
d="M498 482l-68 -482h-31l13 121q-133 -133 -237 -133q-65 0 -94 34t-20 99l51 361h40l-50 -355q-8 -53 12.5 -78t71.5 -25q49 0 100 31.5t126 101.5l46 325h40z" />
    <glyph glyph-name="uni0439" unicode="&#x439;" horiz-adv-x="560" 
d="M321 571q-66 0 -100.5 33.5t-25.5 89.5h35q-7 -48 18 -72.5t74 -24.5t80.5 25t37.5 72h34q-7 -56 -48.5 -89.5t-104.5 -33.5zM497 482l-68 -482h-30l13 120q-134 -132 -236 -132q-65 0 -94.5 34t-19.5 99l51 361h40l-51 -355q-7 -54 13 -78.5t71 -24.5q49 0 100.5 31.5
t125.5 101.5l46 325h39z" />
    <glyph glyph-name="uni043A" unicode="&#x43a;" horiz-adv-x="518" 
d="M264 252l-2 -2q47 -3 80.5 -38.5t47.5 -71.5t40 -119q5 -15 7 -22l-42 2q-4 11 -10 32q-36 113 -61 148q-39 53 -110 54h-96q-2 -36 -5 -57l-25 -178h-40l68 482h40l-22 -158q-8 -41 -12 -57h91q32 0 61 13t48.5 28.5t46 51t39 56t40.5 67.5l43 -2q-29 -49 -41.5 -69
t-38.5 -57t-45 -53.5t-46 -31.5t-56 -18z" />
    <glyph glyph-name="uni043B" unicode="&#x43b;" horiz-adv-x="543" 
d="M481 482l-68 -482h-40l63 449h-137q-36 0 -55.5 -16t-27.5 -54q-50 -208 -97 -289q-45 -79 -130 -95l-4 34q68 26 100 81q44 71 93 278q12 50 39 72t77 22h187z" />
    <glyph glyph-name="uni043C" unicode="&#x43c;" horiz-adv-x="723" 
d="M579 482h49q8 0 13.5 -5.5t4.5 -13.5l-42 -463h-38l41 449h-19l-219 -390q-7 -13 -19 -13h-45q-11 0 -16 15l-110 388h-19l-86 -449h-38l89 465q2 17 20 17h50q13 0 16 -15l91 -324q9 -29 19 -68l19 1q4 7 17 31.5t20 37.5l183 324q4 13 19 13z" />
    <glyph glyph-name="uni043D" unicode="&#x43d;" horiz-adv-x="568" 
d="M506 482l-68 -482h-40l34 241h-310l-34 -241h-40l68 482h40l-29 -209h310l29 209h40z" />
    <glyph glyph-name="uni043E" unicode="&#x43e;" horiz-adv-x="560" 
d="M305 494q119 0 160.5 -58t21.5 -198q-20 -138 -74.5 -194t-172.5 -56t-159.5 58t-22.5 197q19 138 74 194.5t173 56.5zM305 458q-97 0 -143 -48t-63 -172q-17 -122 14 -168.5t127 -46.5q97 0 143 48t63 172q17 122 -13.5 168.5t-127.5 46.5z" />
    <glyph glyph-name="uni043F" unicode="&#x43f;" horiz-adv-x="571" 
d="M381 494q64 0 93.5 -34t20.5 -99l-52 -361h-39l50 355q7 55 -12.5 79t-70.5 24q-48 0 -102.5 -29.5t-133.5 -93.5l-47 -335h-40l68 482h31l-12 -115q148 127 246 127z" />
    <glyph glyph-name="uni0440" unicode="&#x440;" horiz-adv-x="567" 
d="M373 494q87 0 111 -58t4 -198q-22 -152 -72 -201t-174 -49q-74 0 -157 11q-2 -39 -10 -93l-18 -122h-39l98 698h31l-12 -119q55 60 121.5 95.5t116.5 35.5zM448 243q19 117 3 166t-83 49q-47 0 -111 -35t-123 -97l-42 -298q116 -6 140 -6q115 0 155.5 41.5t60.5 179.5z
" />
    <glyph glyph-name="uni0441" unicode="&#x441;" horiz-adv-x="478" 
d="M312 494q84 0 140 -19l-9 -27q-45 10 -124 10q-106 0 -154.5 -46.5t-65.5 -172.5q-18 -125 16 -170t138 -45q84 0 143 11l3 -28q-73 -19 -151 -19q-123 0 -166.5 58t-23.5 197q19 138 76.5 194.5t177.5 56.5z" />
    <glyph glyph-name="uni0442" unicode="&#x442;" horiz-adv-x="876" 
d="M687 494q64 0 93 -34.5t20 -98.5l-51 -361h-40l50 355q8 54 -12.5 78.5t-71.5 24.5q-43 0 -89.5 -28.5t-120.5 -94.5l-47 -335h-39l51 355q7 54 -13.5 78.5t-71.5 24.5q-43 0 -88.5 -28t-121.5 -95l-47 -335h-40l68 482h30l-12 -114q134 126 222 126q61 0 90 -31.5
t24 -89.5q66 61 117 91t100 30z" />
    <glyph glyph-name="uni0443" unicode="&#x443;" horiz-adv-x="518" 
d="M455 482h42q-19 -81 -67 -198.5t-105 -221.5q-42 -80 -81.5 -135t-72.5 -82.5t-65 -42.5t-60 -14t-58 3l6 34q22 -6 51 -1.5t57.5 18t66 53.5t77.5 105h-47q-18 0 -31.5 11t-17.5 28l-97 443h43l88 -425q6 -24 30 -24l52 1l21 37q57 102 105.5 222t62.5 189z" />
    <glyph glyph-name="uni0444" unicode="&#x444;" horiz-adv-x="699" 
d="M427 700l-29 -206q143 -4 196 -63.5t34 -192.5q-19 -132 -87.5 -189.5t-214.5 -60.5l-27 -196h-39l27 196q-143 4 -196 63t-35 192q19 133 88 191t215 60l29 206h39zM589 243q16 119 -28 166t-169 49l-61 -434q125 4 183.5 52.5t74.5 166.5zM95 238q-16 -118 28.5 -165
t170.5 -49l60 434q-125 -3 -183.5 -52t-75.5 -168z" />
    <glyph glyph-name="uni0445" unicode="&#x445;" horiz-adv-x="507" 
d="M294 250l142 -250h-42l-132 235h-27l-197 -235h-48l213 251l-131 231h42l121 -214h28l182 214h46z" />
    <glyph glyph-name="uni0446" unicode="&#x446;" horiz-adv-x="577" 
d="M506 32l-5 -32l-22 -149h-36l29 149h-7q-68 0 -60 73l4 34q-131 -119 -234 -119q-65 0 -94 34t-20 99l51 361h40l-50 -355q-8 -53 12.5 -78t71.5 -25q49 0 100 29t125 93l47 336h40l-58 -410q-6 -40 33 -40h33z" />
    <glyph glyph-name="uni0447" unicode="&#x447;" horiz-adv-x="521" 
d="M459 482l-68 -482h-40l35 247q-125 -68 -219 -68q-60 -1 -87.5 25.5t-20.5 78.5l29 199h39l-26 -191q-6 -42 11.5 -59.5t65.5 -17.5q53 0 100 16t113 54l28 198h40z" />
    <glyph glyph-name="uni0448" unicode="&#x448;" horiz-adv-x="859" 
d="M797 482l-68 -482h-30l12 110q-125 -122 -222 -122q-56 0 -83.5 30t-23.5 88q-121 -118 -216 -118q-59 0 -86.5 34.5t-18.5 98.5l51 361h40l-50 -355q-16 -102 77 -102q45 0 91 28t118 93l47 336h39l-50 -355q-15 -102 77 -102q46 0 92 28t119 94l46 335h39z" />
    <glyph glyph-name="uni0449" unicode="&#x449;" horiz-adv-x="876" 
d="M805 32l-5 -32l-23 -149h-36l31 149h-8q-68 0 -60 73l4 34q-123 -119 -219 -119q-56 0 -83.5 30t-23.5 88q-121 -118 -216 -118q-59 0 -86.5 34.5t-18.5 98.5l51 361h40l-50 -355q-16 -102 77 -102q45 0 91 28t118 93l47 336h39l-50 -355q-15 -102 77 -102q46 0 92 28
t118 94l47 335h39l-58 -410q-3 -24 5.5 -32t27.5 -8h33z" />
    <glyph glyph-name="uni044A" unicode="&#x44a;" horiz-adv-x="621" 
d="M384 280q105 0 139.5 -33t23.5 -115t-54.5 -112.5t-135.5 -30.5q-38 0 -69 6t-61.5 21t-42 47t0.5 79l88 306h-227l5 34h269l-66 -234q55 32 130 32zM507 139q9 62 -16.5 85.5t-107.5 23.5q-81 0 -138 -34l-22 -77q-9 -35 -0.5 -59.5t31.5 -35.5t45.5 -15t49.5 -4
q81 0 114.5 23.5t43.5 92.5z" />
    <glyph glyph-name="uni044B" unicode="&#x44b;" horiz-adv-x="678" 
d="M265 280q105 0 140.5 -33t23.5 -115q-12 -83 -53.5 -113t-136.5 -30q-30 0 -53.5 2t-50.5 9.5t-44 20.5t-26.5 37t-4.5 56l54 368h39l-36 -241q62 39 148 39zM616 482l-68 -482h-41l68 482h41zM389 139q8 63 -17.5 86t-108.5 23q-88 0 -150 -38l-15 -98q-4 -29 6 -48
t32.5 -27t44 -11t50.5 -3q82 0 115 23.5t43 92.5z" />
    <glyph glyph-name="uni044C" unicode="&#x44c;" horiz-adv-x="502" 
d="M265 280q105 0 140.5 -33t23.5 -115q-12 -83 -53.5 -113t-136.5 -30q-30 0 -53.5 2t-50.5 9.5t-44 20.5t-26.5 37t-4.5 56l54 368h39l-36 -241q62 39 148 39zM389 139q8 63 -17.5 86t-108.5 23q-88 0 -150 -38l-15 -98q-4 -29 6 -48t32.5 -27t44 -11t50.5 -3
q82 0 115 23.5t43 92.5z" />
    <glyph glyph-name="uni044D" unicode="&#x44d;" horiz-adv-x="486" 
d="M220 486q125 0 168 -55t25 -195q-19 -139 -75 -192t-181 -53q-95 1 -152 15l8 30q65 -9 141 -9q106 -1 153.5 42t63.5 161l-252 1l4 30l252 1q11 110 -22.5 149.5t-132.5 39.5q-73 0 -142 -7l-4 29q57 13 146 13z" />
    <glyph glyph-name="uni044E" unicode="&#x44e;" horiz-adv-x="772" 
d="M515 494q120 0 161.5 -56t22.5 -198q-19 -139 -75 -193.5t-175 -54.5q-117 0 -157 52.5t-23 188.5h-148l-33 -233h-40l68 482h40l-31 -217h149q21 128 74.5 178.5t166.5 50.5zM658 245q17 122 -16 168t-128 46q-96 0 -141 -47t-63 -172q-17 -121 12.5 -167t124.5 -46
q101 0 147.5 48.5t63.5 169.5z" />
    <glyph glyph-name="uni044F" unicode="&#x44f;" horiz-adv-x="527" 
d="M464 478l-67 -478h-40l27 191h-158q-100 0 -122 -61l-47 -130h-43l52 141q22 59 100 66l1 3q-49 6 -70.5 47t-14.5 92q12 83 58 109.5t159 26.5q80 0 164 -7h1zM389 223l32 226q-72 2 -133 2q-88 0 -122.5 -20t-43.5 -88q-15 -120 104 -120h163z" />
    <glyph glyph-name="uni0451" unicode="&#x451;" horiz-adv-x="529" 
d="M240 594h-12q-14 0 -13 15l8 54q1 15 16 15h13q14 0 13 -15l-8 -53q-3 -16 -17 -16zM415 594h-12q-14 0 -13 15l8 54q2 15 16 15h13q15 0 13 -15l-8 -53q-3 -16 -17 -16zM311 494q100 0 142.5 -33.5t23.5 -116.5q-13 -61 -50 -86t-116 -33l-217 -23q-11 -104 24 -141.5
t130 -37.5q80 0 177 13l3 -28q-67 -20 -191 -20q-120 0 -159.5 59.5t-19.5 199.5q11 76 30.5 124.5t51.5 75.5t71.5 37t99.5 10zM437 347q17 69 -15 90.5t-109 21.5q-54 0 -86.5 -7.5t-59 -30.5t-42 -65t-26.5 -112l-1 -9l214 23q62 7 88 25t37 64z" />
    <glyph glyph-name="uni0452" unicode="&#x452;" horiz-adv-x="565" 
d="M383 395q66 0 95 -34t20 -99l-41 -301q-14 -98 -97 -169l-20 17q66 74 77 156l41 291q7 53 -14 77.5t-73 24.5q-50 0 -101.5 -27t-130.5 -88l-34 -243h-40l72 507h-79l4 28h79l23 165h40l-23 -165h212l-4 -28h-212l-19 -138q-14 -82 -17 -92q145 118 242 118z" />
    <glyph glyph-name="uni0453" unicode="&#x453;" horiz-adv-x="510" 
d="M425 689l-181 -136l-17 20l175 147zM283 494q24 0 48.5 0.5t47 -6t39.5 -17.5t25 -33t4 -54q-4 -31 -17 -54.5t-35.5 -39t-36 -22t-38.5 -15.5l-161 -55q-38 -15 -58 -35t-26 -56q-8 -51 23.5 -67t102.5 -16q110 0 226 39l3 -31q-103 -44 -231 -44q-41 0 -69.5 4.5
t-53.5 16.5t-35.5 36.5t-5.5 61.5q6 47 33.5 76.5t87.5 51.5l159 54q43 16 65 38t27 56q8 49 -24 64t-107 12q-78 -3 -193 -28l-2 31q90 27 202 32z" />
    <glyph glyph-name="uni0454" unicode="&#x454;" horiz-adv-x="486" 
d="M315 451q-101 0 -148 -40t-65 -149l253 -1l-5 -30l-253 -1q-15 -116 18.5 -159t136.5 -44q79 0 148 9l4 -30q-66 -15 -156 -15q-121 0 -165 56t-25 194t76 191.5t180 53.5q91 0 147 -13l-8 -29q-64 7 -138 7z" />
    <glyph glyph-name="uni0455" unicode="&#x455;" horiz-adv-x="501" 
d="M264 494q98 -2 191 -13l-5 -29q-116 6 -184 7q-86 2 -117.5 -11t-40.5 -66q-6 -39 8.5 -57.5t54.5 -34.5l154 -60q57 -22 79 -48t14 -80q-5 -38 -21 -61.5t-46 -35t-61.5 -14.5t-84.5 -3q-81 0 -175 13l6 29q82 -8 166 -7q97 2 133.5 17.5t43.5 66.5q5 40 -10.5 56.5
t-57.5 33.5l-153 60q-53 21 -75 47t-14 82q11 69 54.5 89.5t140.5 18.5z" />
    <glyph glyph-name="uni0456" unicode="&#x456;" horiz-adv-x="226" 
d="M158 683h18q17 0 14 -17l-8 -61q-3 -14 -16 -14h-18q-18 0 -15 17l9 60q2 15 16 15zM92 0h-40l68 482h40z" />
    <glyph glyph-name="uni0457" unicode="&#x457;" horiz-adv-x="225" 
d="M72 678h13q15 0 13 -15l-8 -53q-3 -16 -17 -16h-12q-14 0 -13 15l8 54q2 15 16 15zM247 678h13q14 0 13 -15l-8 -53q-3 -16 -17 -16h-12q-14 0 -13 15l8 54q1 15 16 15zM92 0h-40l68 482h40z" />
    <glyph glyph-name="uni0458" unicode="&#x458;" horiz-adv-x="227" 
d="M158 683h18q17 0 14 -17l-8 -61q-3 -14 -16 -14h-18q-18 0 -15 17l9 60q2 15 16 15zM160 482l-73 -521q-14 -98 -97 -169l-20 17q66 74 77 155l73 518h40z" />
    <glyph glyph-name="uni0459" unicode="&#x459;" horiz-adv-x="775" 
d="M553 280q95 0 127 -33t22 -115q-11 -83 -49.5 -112.5t-128.5 -30.5q-37 0 -65.5 4.5t-55.5 17t-39 38.5t-7 65l49 336h-117q-59 0 -72 -66q-34 -145 -52 -199t-53 -101q-49 -68 -121 -85l-5 35q53 19 90 67q34 43 51 93t54 200q20 88 99 88h169l-36 -242q59 40 140 40z
M662 139q7 63 -15.5 86t-97.5 23q-81 0 -140 -38l-15 -98q-4 -29 5 -48t29.5 -27t40 -11t46.5 -3q77 0 107.5 23.5t39.5 92.5z" />
    <glyph glyph-name="uni045A" unicode="&#x45a;" horiz-adv-x="791" 
d="M566 280q97 0 130.5 -33t22.5 -115q-11 -83 -50 -113t-129 -30q-27 0 -49 2t-47 9.5t-41 20.5t-24.5 37t-4.5 56l20 137h-273l-35 -251h-38l68 482h38l-28 -200h273l29 200h38l-35 -241q57 39 135 39zM678 139q8 63 -15 86t-98 23q-81 0 -139 -37l-14 -99q-4 -29 5 -48
t29 -27t39.5 -11t46.5 -3q76 0 107 23.5t39 92.5z" />
    <glyph glyph-name="uni045B" unicode="&#x45b;" horiz-adv-x="564" 
d="M383 395q66 0 95 -34t20 -99l-37 -262h-40l37 256q7 53 -14 77.5t-73 24.5q-50 0 -101.5 -27t-130.5 -88l-34 -243h-40l72 507h-79l4 28h79l23 165h40l-23 -165h212l-4 -28h-212l-20 -142q-9 -61 -16 -89q143 119 242 119z" />
    <glyph glyph-name="uni045C" unicode="&#x45c;" horiz-adv-x="518" 
d="M271 553l-17 20l175 147l23 -31zM264 252l-2 -2q47 -3 80.5 -38.5t47.5 -71.5t40 -119q5 -15 7 -22l-42 2q-4 11 -10 32q-36 113 -61 148q-39 53 -110 54h-96q-2 -36 -5 -57l-25 -178h-40l68 482h40l-22 -158q-8 -41 -12 -57h91q32 0 61 13t48.5 28.5t46 51t39 56
t40.5 67.5l43 -2q-29 -49 -41.5 -69t-38.5 -57t-45 -53.5t-46 -31.5t-56 -18z" />
    <glyph glyph-name="uni045D" unicode="&#x45d;" horiz-adv-x="560" 
d="M341 553l-147 137l26 29l140 -147zM497 482l-68 -482h-30l13 120q-134 -132 -236 -132q-65 0 -94.5 34t-19.5 99l51 361h40l-51 -355q-7 -54 13 -78.5t71 -24.5q49 0 100.5 31.5t125.5 101.5l46 325h39z" />
    <glyph glyph-name="uni045E" unicode="&#x45e;" horiz-adv-x="518" 
d="M286 571q-66 0 -100.5 33.5t-25.5 89.5h35q-7 -48 18 -72.5t74 -24.5t80.5 25t37.5 72h34q-7 -56 -48.5 -89.5t-104.5 -33.5zM456 482h41q-18 -81 -66 -198.5t-105 -221.5q-42 -79 -82 -134.5t-72.5 -83t-65 -42.5t-60 -14t-57.5 3l6 34q22 -6 50.5 -1.5t57 18t66.5 53.5
t78 105h-48q-19 0 -32 11t-17 28l-97 443h42l89 -425q6 -24 30 -24l53 1l21 37q57 102 105.5 222t62.5 189z" />
    <glyph glyph-name="uni045F" unicode="&#x45f;" horiz-adv-x="560" 
d="M498 482l-68 -482h-31l13 121q-133 -133 -237 -133q-65 0 -94 34t-20 99l51 361h40l-50 -355q-8 -53 12.5 -78t71.5 -25q49 0 100 31.5t126 101.5l46 325h40zM244 -39h27l-18 -170h-36z" />
    <glyph glyph-name="uni0490" unicode="&#x490;" horiz-adv-x="515" 
d="M571 841l-26 -157l-5 -29h-272q-80 0 -91 -81l-80 -574h-41l82 582q7 54 39 81t81 27q171 0 254 -4l30 155h29z" />
    <glyph glyph-name="uni0491" unicode="&#x491;" horiz-adv-x="438" 
d="M461 628l-23 -150l-5 -30h-214q-38 0 -56.5 -15.5t-24.5 -56.5l-53 -376h-40l55 386q7 51 33.5 73.5t73.5 22.5q132 0 197 -2l28 148h29z" />
    <glyph glyph-name="uni04B0" unicode="&#x4b0;" 
d="M305 266h151l-4 -28h-159l-33 -238h-41l33 238h-160l4 28h154l-168 424h43l126 -323q9 -22 26 -72l6 1l46 72l216 322h46z" />
    <glyph glyph-name="uni04B1" unicode="&#x4b1;" horiz-adv-x="565" 
d="M276 58h152l-4 -28h-159l-33 -238h-42l34 238h-160l4 28h153l-168 424h43l126 -324q9 -21 26 -71h7q12 20 45 73l217 322h45z" />
    <glyph glyph-name="uni04B6" unicode="&#x4b6;" horiz-adv-x="627" 
d="M474 32h84l-4 -32l-22 -151h-30l14 151h-87l50 358q-137 -94 -267 -94q-150 0 -129 149l39 277h41l-37 -273q-9 -61 14.5 -88.5t84.5 -27.5q64 0 122.5 23t137.5 73l41 293h41z" />
    <glyph glyph-name="uni04B7" unicode="&#x4b7;" horiz-adv-x="536" 
d="M452 33l-4 -28l-21 -148h-32l18 143h-62l35 247q-125 -68 -219 -68q-60 -1 -87.5 25.5t-20.5 78.5l29 199h39l-26 -191q-6 -42 11.5 -59.5t65.5 -17.5q53 0 100 16t113 54l28 198h40l-63 -449h56z" />
    <glyph glyph-name="uni04BA" unicode="&#x4ba;" horiz-adv-x="610" 
d="M414 426q150 0 128 -149l-39 -277h-41l39 273q9 62 -15 89t-85 27q-62 0 -120.5 -22.5t-140.5 -74.5l-41 -292h-41l97 690h41l-50 -359q142 95 268 95z" />
    <glyph glyph-name="uni04C0" unicode="&#x4c0;" horiz-adv-x="239" 
d="M99 0h-41l97 690h41z" />
    <glyph glyph-name="Wgrave" unicode="&#x1e80;" horiz-adv-x="930" 
d="M570 753l-19 -19l-147 137l26 29zM954 690l-267 -677q-6 -13 -20 -13h-57q-16 0 -18 16l-57 565l-8 75h-24q-17 -39 -30 -78l-215 -564q-6 -14 -20 -14h-58q-16 0 -18 15l-77 675h42l64 -584q3 -24 7 -74h28l27 75l217 568q6 15 20 15h53q17 0 19 -17l60 -568q0 -4 6 -73
h28l27 75l228 583h43z" />
    <glyph glyph-name="wgrave" unicode="&#x1e81;" horiz-adv-x="823" 
d="M497 572l-19 -19l-147 137l26 29zM178 33h12q21 0 39 25q40 56 80 150q41 97 83 263q2 12 14 12l43 -1q12 0 14 -12l64 -437h12q21 0 39 26q61 93 87 148q58 119 92 275h41q-38 -166 -102 -293q-57 -112 -98 -160q-24 -29 -58 -29h-29q-14 0 -16 13l-63 439h-11
q-29 -137 -78 -254q-49 -116 -92 -167q-23 -31 -62 -31h-27q-14 0 -16 13l-91 469h41z" />
    <glyph glyph-name="Wacute" unicode="&#x1e82;" horiz-adv-x="930" 
d="M673 870l-181 -136l-17 20l175 147zM954 690l-267 -677q-6 -13 -20 -13h-57q-16 0 -18 16l-57 565l-8 75h-24q-17 -39 -30 -78l-215 -564q-6 -14 -20 -14h-58q-16 0 -18 15l-77 675h42l64 -584q3 -24 7 -74h28l27 75l217 568q6 15 20 15h53q17 0 19 -17l60 -568
q0 -4 6 -73h28l27 75l228 583h43z" />
    <glyph glyph-name="wacute" unicode="&#x1e83;" horiz-adv-x="823" 
d="M601 689l-181 -136l-17 20l175 147zM178 33h12q21 0 39 25q40 56 80 150q41 97 83 263q2 12 14 12l43 -1q12 0 14 -12l64 -437h12q21 0 39 26q61 93 87 148q58 119 92 275h41q-38 -166 -102 -293q-57 -112 -98 -160q-24 -29 -58 -29h-29q-14 0 -16 13l-63 439h-11
q-29 -137 -78 -254q-49 -116 -92 -167q-23 -31 -62 -31h-27q-14 0 -16 13l-91 469h41z" />
    <glyph glyph-name="Wdieresis" unicode="&#x1e84;" horiz-adv-x="930" 
d="M449 859h13q14 0 13 -15l-8 -53q-3 -16 -17 -16h-12q-14 0 -13 15l8 54q1 15 16 15zM624 859h13q15 0 13 -15l-8 -53q-3 -16 -17 -16h-12q-14 0 -13 15l8 54q2 15 16 15zM954 690l-267 -677q-6 -13 -20 -13h-57q-16 0 -18 16l-57 565l-8 75h-24q-17 -39 -30 -78
l-215 -564q-6 -14 -20 -14h-58q-16 0 -18 15l-77 675h42l64 -584q3 -24 7 -74h28l27 75l217 568q6 15 20 15h53q17 0 19 -17l60 -568q0 -4 6 -73h28l27 75l228 583h43z" />
    <glyph glyph-name="wdieresis" unicode="&#x1e85;" horiz-adv-x="823" 
d="M377 678h13q14 0 13 -15l-8 -53q-3 -16 -17 -16h-12q-14 0 -13 15l8 54q1 15 16 15zM552 678h13q15 0 13 -15l-8 -53q-3 -16 -17 -16h-12q-14 0 -13 15l8 54q2 15 16 15zM178 33h12q21 0 39 25q40 56 80 150q41 97 83 263q2 12 14 12l43 -1q12 0 14 -12l64 -437h12
q21 0 39 26q61 93 87 148q58 119 92 275h41q-38 -166 -102 -293q-57 -112 -98 -160q-24 -29 -58 -29h-29q-14 0 -16 13l-63 439h-11q-29 -137 -78 -254q-49 -116 -92 -167q-23 -31 -62 -31h-27q-14 0 -16 13l-91 469h41z" />
    <glyph glyph-name="Ygrave" unicode="&#x1ef2;" horiz-adv-x="543" 
d="M356 734l-147 137l26 29l140 -147zM284 252l-36 -252h-41l37 255l-173 435h42l127 -323l26 -72h6q35 58 46 73l216 322h46z" />
    <glyph glyph-name="ygrave" unicode="&#x1ef3;" horiz-adv-x="518" 
d="M306 553l-147 137l26 29l140 -147zM455 482h41q-58 -228 -176 -418q-79 -130 -140 -193.5t-135 -79.5l-7 27q53 17 100 60.5t99 121.5h-38q-19 0 -32 11t-17 28l-97 443h42l89 -425q6 -24 30 -24l44 1l25 40q111 183 172 408z" />
    <glyph glyph-name="endash" unicode="&#x2013;" horiz-adv-x="613" 
d="M524 235h-450l4 33h450z" />
    <glyph glyph-name="emdash" unicode="&#x2014;" horiz-adv-x="922" 
d="M832 235h-758l4 33h759z" />
    <glyph glyph-name="quoteleft" unicode="&#x2018;" horiz-adv-x="200" 
d="M137 518h-15q-15 0 -12 16l9 65q7 51 40 130l22 -7q-16 -54 -26 -113q5 1 8 -3t2 -11l-9 -61q-2 -9 -5.5 -12.5t-13.5 -3.5z" />
    <glyph glyph-name="quoteright" unicode="&#x2019;" horiz-adv-x="199" 
d="M154 720h15q15 0 12 -16l-9 -65q-7 -55 -40 -130l-21 8q18 64 25 112q-5 -1 -8 3t-2 11l9 62q2 9 5.5 12t13.5 3z" />
    <glyph glyph-name="quotesinglbase" unicode="&#x201a;" horiz-adv-x="211" 
d="M72 92h16q15 0 12 -16l-9 -64q-9 -61 -42 -130l-22 7q18 58 27 112q-13 0 -11 14l9 62q2 15 20 15z" />
    <glyph glyph-name="quotedblleft" unicode="&#x201c;" horiz-adv-x="324" 
d="M137 518h-15q-15 0 -12 16l9 65q7 51 40 130l22 -7q-16 -54 -26 -113q5 1 8 -3t2 -11l-9 -61q-2 -9 -5.5 -12.5t-13.5 -3.5zM261 518h-15q-15 0 -12 16l9 65q7 57 40 130l22 -7q-16 -54 -26 -113q5 1 8 -3t2 -11l-9 -61q-2 -9 -5.5 -12.5t-13.5 -3.5z" />
    <glyph glyph-name="quotedblright" unicode="&#x201d;" horiz-adv-x="323" 
d="M154 720h15q15 0 12 -16l-9 -65q-7 -55 -40 -130l-21 8q18 64 25 112q-5 -1 -8 3t-2 11l9 62q2 9 5.5 12t13.5 3zM278 720h15q15 0 12 -16l-9 -65q-7 -55 -40 -130l-21 8q18 64 25 112q-5 -1 -8 3t-2 11l9 62q2 9 5.5 12t13.5 3z" />
    <glyph glyph-name="quotedblbase" unicode="&#x201e;" horiz-adv-x="333" 
d="M70 92h15q15 0 12 -16l-9 -65q-7 -56 -40 -130l-21 8q17 62 26 112q-6 -1 -9 3t-2 11l9 62q2 9 5.5 12t13.5 3zM194 92h15q15 0 12 -16l-9 -65q-7 -56 -40 -130l-21 8q18 62 25 112q-5 -1 -8 3t-2 11l9 62q2 9 5.5 12t13.5 3z" />
    <glyph glyph-name="dagger" unicode="&#x2020;" horiz-adv-x="430" 
d="M178 -110h-38l80 566l3 21l28 214h40l-32 -214l-3 -21zM70 443l5 39h133l-4 -33zM409 482l-5 -39l-133 6l5 33h133z" />
    <glyph glyph-name="daggerdbl" unicode="&#x2021;" horiz-adv-x="471" 
d="M280 481l-54 -379l-27 -212h-40l32 212l53 379l27 210h40zM224 449l-135 -6l6 39h133zM423 443l-132 6l5 33h133zM179 132l-5 -33h-133l5 39zM375 99h-133l4 33l134 6z" />
    <glyph glyph-name="bullet" unicode="&#x2022;" horiz-adv-x="354" 
d="M179 342h10q38 0 51.5 -16t9.5 -54l-2 -14q-5 -39 -21.5 -52t-56.5 -13h-10q-40 0 -54 15.5t-8 55.5l2 14q5 39 21.5 51.5t57.5 12.5z" />
    <glyph glyph-name="ellipsis" unicode="&#x2026;" horiz-adv-x="788" 
d="M94 94h15q18 0 15 -18l-9 -60q-1 -16 -18 -16h-15q-18 0 -15 18l8 60q3 16 19 16zM382 94h16q10 0 13 -4t2 -14l-9 -60q-1 -16 -18 -16h-15q-18 0 -16 18l9 60q3 16 18 16zM671 94h16q17 0 15 -18l-9 -60q-1 -16 -18 -16h-15q-18 0 -16 18l9 60q1 16 18 16z" />
    <glyph glyph-name="perthousand" unicode="&#x2030;" horiz-adv-x="1245" 
d="M262 702q85 0 113.5 -48.5t13.5 -157.5q-15 -108 -55.5 -155t-122.5 -47q-85 0 -113.5 49t-13.5 157t54.5 155t123.5 47zM180 0h-35l568 690h35zM264 674q-71 0 -102 -40.5t-45 -137.5q-13 -94 7 -134t84 -40q70 0 102.5 41t45.5 137q12 96 -7 135t-85 39zM687 401
q85 0 113.5 -49t12.5 -158q-15 -107 -55.5 -154.5t-122.5 -47.5q-85 0 -113 49t-13 158q15 108 54.5 155t123.5 47zM1047 401q85 0 113.5 -49t13.5 -158q-15 -107 -55.5 -154.5t-122.5 -47.5q-85 0 -113.5 49t-12.5 158q15 108 54 155t123 47zM689 373q-72 0 -103 -40.5
t-44 -138.5q-13 -94 6.5 -134t84.5 -40q70 0 102.5 41.5t44.5 137.5q13 96 -6 135t-85 39zM1050 373q-72 0 -103 -40.5t-44 -138.5q-14 -94 6 -134t85 -40q69 0 101.5 41t45.5 138q13 95 -6.5 134.5t-84.5 39.5z" />
    <glyph glyph-name="guilsinglleft" unicode="&#x2039;" horiz-adv-x="294" 
d="M251 438l-170 -189l118 -190l-21 -15l-136 203l1 11l190 197z" />
    <glyph glyph-name="guilsinglright" unicode="&#x203a;" horiz-adv-x="294" 
d="M240 254l-1 -11l-191 -199l-18 17l172 191l-118 189l20 14z" />
    <glyph glyph-name="fraction" unicode="&#x2044;" horiz-adv-x="160" 
d="M-179 0h-35l567 690h36z" />
    <glyph glyph-name="Euro" unicode="&#x20ac;" horiz-adv-x="641" 
d="M485 665q-108 -2 -170.5 -51.5t-93.5 -175.5h281l-12 -29h-276q-8 -40 -11 -67l-5 -41h251l-12 -29h-241q-10 -135 35.5 -190.5t155.5 -56.5q88 0 153 13l5 -31q-73 -19 -158 -19q-135 0 -189.5 69t-44.5 215h-94l4 29h92q4 30 6 46l5.5 33t4.5 29h-93l5 29h95
q32 138 103 201t203 63q80 0 145 -18l-9 -31q-63 12 -135 12z" />
    <glyph glyph-name="trademark" unicode="&#x2122;" horiz-adv-x="944" 
d="M439 696l-4 -27h-141l-49 -353h-32l49 353h-140l4 27h313zM846 696h39q16 0 14 -16l-34 -364h-31l32 354h-12l-162 -307q-4 -9 -15 -9h-32q-13 0 -15 12l-78 304h-13l-65 -354h-31l68 366q3 14 15 14h38q13 0 13 -12l65 -255q3 -10 7 -29.5t5 -23.5h16q3 6 12 25t15 30
l134 255q6 10 15 10z" />
    <glyph glyph-name="partialdiff" unicode="&#x2202;" horiz-adv-x="568" 
d="M197 671l2 31q68 0 115 -5t87.5 -19.5t63 -40.5t36 -67t12 -99t-14.5 -137q-28 -175 -95 -260.5t-181 -85.5q-107 0 -150 63t-18 170q23 107 82 164.5t151 57.5q121 0 171 -102q14 99 13.5 163.5t-32.5 102t-88 51.5t-154 13zM222 25q96 0 151 76t80 211q-56 96 -162 96
q-154 0 -197 -190q-22 -94 11.5 -143.5t116.5 -49.5z" />
    <glyph glyph-name="emptyset" unicode="&#x2205;" horiz-adv-x="685" 
d="M350 633q121 0 206.5 -85.5t85.5 -206.5t-85.5 -207t-206.5 -86q-122 0 -207.5 86t-85.5 207t86 206.5t207 85.5zM350 545q-50 0 -122 -11l3 -45q60 9 119 9q66 0 66 -46q0 -21 -15 -44.5t-33.5 -42.5t-33.5 -52t-15 -72h54q0 35 14.5 64.5t32.5 46.5t32.5 43.5
t14.5 56.5q0 93 -117 93zM366 171h-39q-7 0 -7 -8v-37q0 -7 7 -7h39q8 0 8 7v37q0 8 -8 8z" />
    <glyph glyph-name="product" unicode="&#x220f;" horiz-adv-x="725" 
d="M730 656h-116l-107 -764h-40l107 764h-327l-107 -764h-40l107 764h-116l4 34h640z" />
    <glyph glyph-name="summation" unicode="&#x2211;" horiz-adv-x="579" 
d="M564 655h-405l144 -299l-253 -411h425l-5 -35h-471l5 35l254 413l-142 297l4 35h449z" />
    <glyph glyph-name="minus" unicode="&#x2212;" horiz-adv-x="589" 
d="M503 279h-422l5 33h422z" />
    <glyph glyph-name="radical" unicode="&#x221a;" horiz-adv-x="552" 
d="M603 876l-403 -869q-3 -7 -12 -7h-46q-12 0 -12 9l-61 473h36l56 -451h14l389 845h39z" />
    <glyph glyph-name="infinity" unicode="&#x221e;" horiz-adv-x="785" 
d="M605 440q58 0 89.5 -33.5t22.5 -96.5q-9 -65 -53 -100t-105 -35q-14 0 -26.5 2t-22.5 4t-20.5 8t-17.5 9.5t-16.5 12.5t-13.5 12.5t-13 15t-11.5 14.5t-11.5 16t-11 15q-37 -35 -60.5 -54t-62.5 -37t-78 -18q-61 0 -95.5 37t-25.5 103q9 62 49.5 93.5t98.5 31.5
q56 0 93.5 -28t81.5 -86q35 34 60.5 54.5t67 40t81.5 19.5zM108 310q-7 -50 17 -76.5t73 -26.5q48 0 85.5 23.5t92.5 77.5q-28 37 -44 53.5t-44 31.5t-63 15q-103 0 -117 -98zM682 315q12 93 -82 93q-37 0 -74.5 -19t-56 -35t-54.5 -52q4 -5 15.5 -20.5t16 -21t15 -17
t18 -15.5t19.5 -10.5t25.5 -8.5t30.5 -2q51 0 85.5 28t41.5 80z" />
    <glyph glyph-name="integral" unicode="&#x222b;" horiz-adv-x="383" 
d="M317 714q50 0 83 -4l-6 -29h-65q-47 0 -71 -24t-28 -81l-52 -666q-6 -67 -36 -99.5t-89 -32.5q-54 0 -82 4l6 29h64q47 0 71 24t29 81l52 666q11 132 124 132z" />
    <glyph glyph-name="approxequal" unicode="&#x2248;" horiz-adv-x="591" 
d="M183 437q42 0 125 -32t126 -33q28 0 43 12.5t21 48.5l29 -3q-5 -49 -27 -70.5t-69 -21.5t-129 32.5t-118 32.5q-28 0 -43.5 -13.5t-21.5 -51.5l-28 3q5 53 28.5 74.5t63.5 21.5zM156 246q42 0 125 -32t126 -33q28 0 43 12.5t21 48.5l29 -2q-5 -49 -27 -70.5t-68 -21.5
q-47 0 -129.5 32t-118.5 33q-28 0 -43 -13.5t-21 -51.5l-29 2q9 98 92 96z" />
    <glyph glyph-name="notequal" unicode="&#x2260;" horiz-adv-x="612" 
d="M377 380l-134 -179h261l-5 -33h-281l-92 -123l-20 10l85 113h-114l4 33h135l134 179h-244l4 33h265l80 107l19 -10l-73 -97h132l-5 -33h-151z" />
    <glyph glyph-name="lessequal" unicode="&#x2264;" horiz-adv-x="581" 
d="M512 480l-378 -131l342 -120l-4 -32l-379 135l5 34l419 150zM475 98h-420l5 32h420z" />
    <glyph glyph-name="greaterequal" unicode="&#x2265;" horiz-adv-x="578" 
d="M499 366l-5 -34l-416 -135l5 34l376 121l-340 132l4 32zM472 98h-420l5 32h420z" />
    <glyph glyph-name="lozenge" unicode="&#x25ca;" horiz-adv-x="584" 
d="M52 355l289 338q9 9 15 -1l192 -340q3 -7 -1 -15l-288 -340q-10 -9 -15 1l-193 342q-3 8 1 15zM88 345l168 -301l255 304l-166 299z" />
    <glyph glyph-name="fi" unicode="&#xfb01;" horiz-adv-x="560" 
d="M495 482l-69 -482h-39l63 447h-270l-73 -520q-9 -69 -41.5 -102t-96.5 -33q-43 0 -95 5l4 30h78q54 0 79 23t33 82l73 515h-88l4 30l88 5l14 96q9 70 43 103.5t103 33.5q77 0 119 -5l-2 -30h-104q-57 0 -84.5 -24.5t-35.5 -82.5l-13 -91h310zM493 683h17q17 0 15 -17
l-9 -61q-1 -14 -16 -14h-18q-17 0 -15 17l9 60q2 15 17 15z" />
    <glyph glyph-name="fl" unicode="&#xfb02;" horiz-adv-x="623" 
d="M576 27l1 -26q-22 -8 -70 -8q-49 0 -74.5 28t-18.5 78l82 582h-178q-57 0 -84.5 -24.5t-35.5 -83.5l-13 -91h163l-5 -35h-163l-73 -520q-9 -69 -41.5 -102t-96.5 -33q-43 0 -95 5l4 30h78q54 0 79 23t33 82l73 515h-88l4 30l88 5l14 96q9 70 43 103.5t103 33.5
q198 -4 233 -8l-83 -605q-12 -75 64 -75h57z" />
    <glyph glyph-name="uni00630074" horiz-adv-x="791" 
d="M618 448l-48 -343q-10 -75 65 -75h86l1 -29q-45 -8 -91 -8q-116 0 -100 110l48 345h-260q-106 0 -154.5 -44.5t-65.5 -164.5q-18 -125 16 -170t138 -45q85 0 142 11l4 -28q-74 -19 -152 -19q-123 0 -166 58t-24 197q19 131 77 185t178 54h272l21 149h39l-21 -149h172
l-5 -34h-172z" />
    <glyph glyph-name="f_f" horiz-adv-x="668" 
d="M735 680h-106q-57 0 -84 -23t-36 -81l-13 -94h172l-5 -34h-172l-69 -493q-10 -69 -42 -102t-96 -33q-56 0 -95 5l4 30h78q53 0 78 23t34 81l69 489h-272l-73 -521q-10 -69 -42 -102t-96 -33q-43 0 -95 5l4 30h78q54 0 78.5 23t33.5 82l73 516h-88l4 29l89 5l11 81
q9 68 43.5 101t102.5 33q76 0 123 -4l-4 -30h-106q-57 0 -84 -23.5t-36 -81.5l-11 -76h271l14 98q9 68 43.5 101.5t102.5 33.5q79 0 123 -5z" />
    <glyph glyph-name="f_f_i" horiz-adv-x="870" 
d="M805 482l-68 -482h-40l63 447h-269l-69 -492q-10 -69 -42 -102t-96 -33q-56 0 -95 5l4 30h78q53 0 78 23t34 81l68 488l-271 1l-73 -521q-10 -69 -42 -102t-96 -33q-43 0 -95 5l4 30h78q54 0 78.5 23t33.5 82l73 516h-88l4 29l89 5l11 81q9 68 43.5 101t102.5 33
q76 0 123 -4l-4 -30h-106q-57 0 -84 -23.5t-36 -81.5l-11 -76h271l14 98q9 68 43.5 101.5t102.5 33.5q79 0 123 -5l-4 -30h-106q-57 0 -84 -23t-36 -81l-13 -94h309zM803 683h18q17 0 14 -17l-8 -61q-3 -14 -16 -14h-18q-18 0 -15 17l8 60q3 15 17 15z" />
    <glyph glyph-name="f_f_l" horiz-adv-x="934" 
d="M886 27l2 -26q-24 -8 -70 -8q-50 0 -75 28t-18 78l82 582h-179q-56 0 -83.5 -24.5t-35.5 -83.5l-13 -91h162l-5 -34h-162l-69 -493q-10 -69 -42 -102t-96 -33q-58 0 -95 5l4 30h78q53 0 78 23t33 81l69 489h-271l-73 -521q-10 -69 -42 -102t-96 -33q-43 0 -95 5l4 30h78
q54 0 78.5 23t33.5 82l73 516h-88l4 29l89 5l11 81q9 68 43.5 101t102.5 33q76 0 123 -4l-4 -30h-106q-57 0 -84 -23.5t-36 -81.5l-11 -76h271l13 96q10 70 44 103.5t103 33.5q198 -4 233 -8l-84 -605q-11 -75 65 -75h56z" />
    <glyph glyph-name="uni006600660079" horiz-adv-x="1146" 
d="M1083 482h41q-58 -228 -176 -418q-79 -130 -140 -193.5t-135 -79.5l-7 27q53 17 100 60.5t99 121.5h-39q-18 0 -31 11t-18 28l-75 344q-15 65 -81 65h-130l-69 -493q-10 -69 -42 -102t-96 -33q-58 0 -95 5l4 30h78q53 0 78 23t34 81l69 489h-272l-73 -521
q-10 -69 -42 -102t-96 -33q-43 0 -95 5l4 30h78q54 0 78.5 23t33.5 82l73 516h-88l4 29l89 5l11 81q9 68 43.5 101t102.5 33q76 0 123 -4l-4 -30h-106q-57 0 -84 -23.5t-36 -81.5l-11 -76h271l14 98q9 68 43.5 101.5t102.5 33.5q79 0 123 -5l-4 -30h-106q-57 0 -84 -23
t-36 -81l-13 -94h134q93 0 111 -91l71 -334q5 -24 29 -24h45l25 41q111 183 172 408z" />
    <glyph glyph-name="uni00660074" horiz-adv-x="676" 
d="M503 448l-48 -343q-12 -75 65 -75h85l2 -29q-46 -8 -91 -8q-58 0 -83.5 28.5t-17.5 81.5l48 345h-282l-74 -521q-9 -69 -41.5 -102t-96.5 -33q-43 0 -95 5l4 30h78q54 0 79 23t33 82l72 516h-87l4 29l88 5l14 98q9 68 43.5 101.5t102.5 33.5q79 0 124 -5l-5 -30h-106
q-58 0 -85 -23t-34 -81l-13 -94h282l21 149h40l-21 -149h172l-5 -34h-172z" />
    <glyph glyph-name="uni00660079" horiz-adv-x="831" 
d="M768 482h41q-58 -228 -176 -418q-79 -130 -140 -193.5t-135 -79.5l-7 27q53 17 100 60.5t99 121.5h-39q-18 0 -31 11t-17 28l-76 344q-15 65 -81 65h-128l-71 -521q-9 -69 -41.5 -102t-96.5 -33q-43 0 -95 5l4 30h78q54 0 79 23t33 82l69 516h-89l5 29l89 5l13 98
q9 68 43.5 101.5t102.5 33.5q79 0 123 -5l-4 -30h-106q-58 0 -85 -23t-34 -81l-13 -94h133q93 0 112 -91l70 -334q5 -24 29 -24h45l25 41q111 183 172 408z" />
    <glyph glyph-name="s_t" horiz-adv-x="838" 
d="M665 448l-48 -343q-12 -75 65 -75h85l2 -29q-45 -8 -91 -8q-58 0 -83.5 28.5t-17.5 81.5l48 345h-360q-86 2 -117.5 -9.5t-39.5 -56.5q-6 -39 8 -57.5t55 -34.5l154 -60q56 -22 78.5 -48t14.5 -80q-5 -38 -21 -61.5t-46 -35t-61.5 -14.5t-85.5 -3q-80 0 -174 13l5 29
q83 -8 167 -7q97 2 133.5 17.5t43.5 66.5q5 40 -10.5 56.5t-58.5 33.5l-153 60q-53 21 -74.5 47t-13.5 82q11 61 55 79.5t140 16.5h366l21 149h40l-21 -149h172l-5 -34h-172z" />
    <glyph glyph-name="uni00740074" horiz-adv-x="676" 
d="M504 448l-48 -343q-12 -75 64 -75h86l1 -29q-45 -8 -91 -8q-57 0 -82.5 28.5t-17.5 81.5l48 345h-286l-48 -343q-12 -75 64 -75h86l1 -29q-45 -8 -91 -8q-57 0 -82.5 28.5t-17.5 81.5l48 345h-88l4 29l89 5l21 149h39l-21 -149h287l21 149h40l-21 -149h172l-6 -34h-171z
" />
    <glyph glyph-name="uni00740079" horiz-adv-x="864" 
d="M801 482h41q-58 -228 -176 -418q-79 -130 -140 -193.5t-135 -79.5l-7 27q53 17 100 60.5t99 121.5h-39q-18 0 -31 11t-18 28l-75 344q-15 65 -81 65h-161l-48 -343q-12 -75 64 -75h86l1 -29q-45 -8 -91 -8q-57 0 -82.5 28.5t-17.5 81.5l48 345h-88l4 29l89 5l21 149h39
l-21 -149h163q96 0 115 -94l70 -331q5 -24 29 -24h45l25 41q111 183 172 408z" />
    <glyph glyph-name="brevecy" horiz-adv-x="361" 
d="M349 689h34q-7 -56 -48.5 -89.5t-104.5 -33.5q-66 0 -100.5 33.5t-25.5 89.5h35q-7 -48 18 -72.5t74 -24.5t80.5 25t37.5 72z" />
    </font>
</defs>
</svg>
